<svg xmlns="http://www.w3.org/2000/svg" xmlns:xlink="http://www.w3.org/1999/xlink" width="245.878" height="186.913" viewBox="0 0 245.878 186.913">
  <defs>
    <linearGradient id="linear-gradient" x1="0.5" y1="1" x2="0.5" gradientUnits="objectBoundingBox">
      <stop offset="0" stop-color="gray" stop-opacity="0.251"/>
      <stop offset="0.54" stop-color="gray" stop-opacity="0.122"/>
      <stop offset="1" stop-color="gray" stop-opacity="0.102"/>
    </linearGradient>
  </defs>
  <g id="Group_1462" data-name="Group 1462" transform="translate(0.275 0.726)">
    <path id="Path_1125" data-name="Path 1125" d="M349.778,94.711c-.043.2-.083.4-.13.6a64.276,64.276,0,0,1-7.464,19.362c-.119.2-.238.4-.359.6a55.639,55.639,0,0,1-8.415,10.621,25.513,25.513,0,0,1-6.044,4.642c-3.242,1.694-7.033,2.382-10.758,2.944-3.869.586-7.792,1.076-11.7,1.6q-2.085.276-4.146.586c-3.779.559-7.532,1.207-11.194,2.065a65.627,65.627,0,0,0-13.061,4.4q-.5.225-.982.476c-.324.162-.649.326-.968.492s-.634.333-.946.5c-.162.088-.324.175-.483.267s-.317.173-.472.263c-.467.261-.926.528-1.384.8l-.018.011c-.3.178-.6.36-.9.542-1.694,1.029-3.352,2.1-5.011,3.184l-1.043.674-1.616,1.045c-.315.2-.636.409-.953.611-.225.148-.449.3-.694.449-1.177.742-2.371,1.469-3.6,2.164-.29.166-.582.333-.876.494a49.8,49.8,0,0,1-7.734,3.487l-.036.014a35.279,35.279,0,0,1-4.107,1.159c-.8.175-1.607.319-2.42.429a25.946,25.946,0,0,1-6.561.092c-4.285-.5-8.3-2.141-12.583-2.7-8.817-1.123-17.38,2.5-25.671,5.332q-3.058,1.045-6.161,1.957c-1.375.407-2.755.791-4.146,1.162a155.988,155.988,0,0,1-26,4.559,73.216,73.216,0,0,1-11.044.245,40.55,40.55,0,0,1-4.143-.449A26.372,26.372,0,0,1,133.47,164.4a24.388,24.388,0,0,1-6.48-8.314,36.279,36.279,0,0,1-3.35-10.008c-.085-.474-.162-.95-.225-1.427q-.169-1.222-.252-2.458a35.184,35.184,0,0,1,1.546-13c1.483-4.7,3.955-9.212,5.042-13.949q.067-.3.128-.6a20.78,20.78,0,0,0,.33-2.177c.555-5.82-1.573-11.493-3.242-17.185-.058-.2-.117-.4-.173-.6q-.27-.948-.517-1.894a39.493,39.493,0,0,1-.6-18.465c.043-.2.094-.4.144-.6a27.035,27.035,0,0,1,5.083-10.41,40.3,40.3,0,0,1,9.583-8.3q2.645-1.73,5.469-3.233,2.022-1.079,4.143-2.042a81.6,81.6,0,0,1,37.054-7.134c.674.029,1.348.065,2.022.115s1.411.108,2.117.173a151.986,151.986,0,0,1,24.211,4.84c2.667.708,5.33,1.434,7.99,2.146,1.184.315,2.366.629,3.55.935,5.8,1.5,11.684,2.856,17.643,3.869q2.069.357,4.143.652a118.682,118.682,0,0,0,14.491,1.229q2.829.056,5.66-.049,1.429-.052,2.86-.155c9.853-.694,19.375-3.018,28.914-5.188q2.069-.472,4.146-.93c1.816-.4,3.631-.786,5.456-1.144a51.632,51.632,0,0,1,32.03,3.656c2.4,1.045,4.8,2.308,6.267,4.269s1.838,4.37,2.112,6.7c.389,3.312.643,6.667.739,10.039,0,.2,0,.4.014.6A90.117,90.117,0,0,1,349.778,94.711Z" transform="translate(-107.297 -40.997)" fill="#4444c8" opacity="0.1"/>
    <path id="Path_1126" data-name="Path 1126" d="M283.436,115h-.742v.6h.84Zm-8.41,0a.038.038,0,0,0,0,.016c-.02.164-.043.328-.065.494v.09h6.426v-.036l.449-.564ZM257.8,115V95.641H265.2c-.079-.052-.16-.106-.243-.155l-.108-.07-.139-.085c-.081-.047-.162-.094-.247-.139s-.137-.076-.209-.115l-.049-.027h-6.4V93.982l-.173.067-.182.085h-.013l-.038.02-.115.061-.115.061c-.112.061-.225.128-.337.2l-.108.072-.225.144c-.29.193-.575.4-.87.584-.074.047-.148.094-.225.137-.16.094-.324.184-.492.265a1.882,1.882,0,0,1-.225.1l-.121.047-.112.038h0a5.265,5.265,0,0,1-.809.211V115H242.559c0,.022.016.04.022.063.061.18.121.357.18.537h10.9v20.753h.169l.2.011.353.02.564.067.258.025.281.029h.043l.5.061.106.013.24.034.344.049h0l.825-.036h0l.112.02a.779.779,0,0,1,.139.022V115.6h17.153v-.09c.022-.166.045-.33.065-.494a.038.038,0,0,1,0-.016Zm25.633,0h-.742v.6h.84Zm-8.873,0c-.027.2-.052.4-.079.6h7.166l.488-.6Zm-16.76,0V95.641H265.2c-.079-.052-.16-.106-.243-.155l-.108-.07-.139-.085c-.081-.047-.162-.094-.247-.139s-.137-.076-.209-.115l-.049-.027h-6.4V93.982l-.173.067-.182.085h-.013l-.038.02-.115.061-.115.061c-.112.061-.225.128-.337.2l-.108.072-.225.144c-.29.193-.575.4-.87.584-.074.047-.148.094-.225.137-.16.094-.324.184-.492.265a1.882,1.882,0,0,1-.225.1l-.121.047-.112.038h0a5.265,5.265,0,0,1-.809.211V115H242.559c0,.022.016.04.022.063.061.178.124.357.182.537h10.9v20.75h.169l.2.011.353.02.564.07.258.025.281.029h.043l.5.061.106.013.24.034.344.049h0l.825-.036h0l.112.02a.779.779,0,0,1,.139.022V115.6h16.7c.027-.2.052-.4.079-.6Zm56.07-40.319H360.49c0-.2,0-.4-.014-.6h-46.6V50.578q-2.076.449-4.146.93V74.086h-50.7l-.128-.115.193-.171h0l18.859-16.946q-2.831.108-5.66.049L257.8,69.922V55.679q-2.076-.294-4.143-.652V69.266L232.471,50.223c-2.66-.712-5.323-1.438-7.99-2.146l28.813,25.894-.128.115H200.272V43.258q-1.058-.1-2.117-.173c-.674-.049-1.348-.085-2.022-.115V74.086H159.072V50.1q-2.1.962-4.143,2.042V74.086H134.794c-.049.2-.1.4-.144.6h20.279v20.36H135.764c.056.2.115.4.173.6h18.991V115H138.85q-.061.3-.128.6h16.207v54.136c1.348.209,2.744.355,4.143.449V115.6h37.054v49.776c1.391-.371,2.77-.755,4.146-1.162V115.6h53.387v43.49a35.284,35.284,0,0,0,4.107-1.159l.036-.014V115.6h51.925V136q2.067-.3,4.146-.582V115.6h36.922c.121-.2.24-.4.36-.6H313.873V95.641h44.746c.047-.2.088-.4.13-.6H313.873Zm-154.8,0h37.054v20.36H159.072Zm0,40.319V95.641h37.054V115Zm41.2-40.319h53.387v20.36H200.272Zm0,40.319V95.641h53.387V115Zm109.455,0H257.8V95.641h51.925Zm0-19.96H257.8V75.229l.728-.546h51.2ZM275.025,115a.038.038,0,0,0,0,.016c-.02.164-.043.328-.065.494v.09h6.426v-.036l.449-.564Zm8.41,0h-.742v.6h.84ZM257.8,115V95.641H265.2c-.079-.052-.16-.106-.243-.155l-.108-.07-.139-.085c-.081-.047-.162-.094-.247-.139s-.137-.076-.209-.115l-.049-.027h-6.4V93.982l-.173.067-.182.085h-.013l-.038.02-.115.061-.115.061c-.112.061-.225.128-.337.2l-.108.072-.225.144c-.29.193-.575.4-.87.584-.074.047-.148.094-.225.137-.16.094-.324.184-.492.265a1.882,1.882,0,0,1-.225.1l-.121.047-.112.038h0a5.265,5.265,0,0,1-.809.211V115H242.559c0,.022.016.04.022.063.061.18.121.357.18.537h10.9v20.753h.169l.2.011.353.02.564.067.258.025.281.029h.043l.5.061.106.013.24.034.344.049h0l.825-.036h0l.112.02a.779.779,0,0,1,.139.022V115.6h17.153v-.09c.022-.166.045-.33.065-.494a.038.038,0,0,1,0-.016Z" transform="translate(-116.267 -41.329)" fill="#4444c8" opacity="0.1"/>
    <path id="Path_1127" data-name="Path 1127" d="M317.9,117.334h.321a.652.652,0,0,1-.393-.524h0c0-.413.618-.75,1.373-.75h9.608c.755,0,1.371.337,1.371.75h0c0,.411-.616.75-1.371.75h-.321a.645.645,0,0,1,.393.521c0,.353-.449.649-1.049.728H330.6c.753,0,1.371.337,1.371.75s-.618.75-1.371.75h-9.61c-.753,0-1.371-.339-1.371-.75,0-.353.449-.647,1.049-.728H317.9c-.755,0-1.371-.337-1.371-.75S317.146,117.334,317.9,117.334Z" transform="translate(-257.28 -97.996)" fill="#4444c8" opacity="0.1"/>
    <path id="Path_1128" data-name="Path 1128" d="M781.341,149.1h.321a.652.652,0,0,1-.391-.523h0c0-.413.616-.751,1.371-.751h9.608c.755,0,1.373.337,1.373.751h0c0,.411-.618.748-1.373.748h-.319a.652.652,0,0,1,.391.524c0,.353-.449.649-1.049.728h2.766c.755,0,1.371.337,1.371.75s-.616.75-1.371.75H784.43c-.755,0-1.373-.339-1.373-.75,0-.353.449-.649,1.049-.728h-2.766c-.753,0-1.37-.337-1.37-.75S780.588,149.1,781.341,149.1Z" transform="translate(-616.588 -122.627)" fill="#4444c8" opacity="0.1"/>
    <path id="Path_1129" data-name="Path 1129" d="M252.263,285.064h.319a.649.649,0,0,1-.391-.524h0c0-.411.618-.75,1.371-.75h9.61c.753,0,1.371.339,1.371.75h0c0,.414-.618.751-1.371.751h-.321a.643.643,0,0,1,.391.521c0,.353-.449.649-1.049.728h2.766c.755,0,1.373.339,1.373.75s-.618.751-1.373.751h-9.6c-.755,0-1.371-.337-1.371-.751,0-.35.449-.647,1.049-.728h-2.775c-.755,0-1.373-.337-1.373-.75S251.517,285.064,252.263,285.064Z" transform="translate(-206.389 -228.038)" fill="#4444c8" opacity="0.1"/>
    <ellipse id="Ellipse_97" data-name="Ellipse 97" cx="14.596" cy="48.033" rx="14.596" ry="48.033" transform="translate(129.743 132.163) rotate(-78.45)" fill="#4444c8" opacity="0.1"/>
    <path id="Path_1130" data-name="Path 1130" d="M828.56,381.066s2.555-12.54,12.309-11.379c0,0,6.741.463,8.127,4.876v9.754Z" transform="translate(-654.26 -294.576)" fill="#3a3768"/>
    <path id="Path_1131" data-name="Path 1131" d="M674.007,380.711l-86.86-7.2L576,375.833l.7,15.56.76.092.865,23.366,85.233,15.326,9.06-7.664v-25.33l1.159-.681Z" transform="translate(-446.29 -289.575)" fill="#d48a9b"/>
    <path id="Path_1132" data-name="Path 1132" d="M979.036,405.56l-.234,15.792-9.406,4.413-.117-16.49Z" transform="translate(-751.203 -314.423)" opacity="0.05"/>
    <path id="Path_1133" data-name="Path 1133" d="M975.123,478.94l.115,24.851-9.057,7.664.582-28.8Z" transform="translate(-748.799 -371.315)" opacity="0.05"/>
    <path id="Path_1134" data-name="Path 1134" d="M582.775,454.921l86.75,10.585.045-2.009-86.86-9.367Z" transform="translate(-451.493 -352.08)" opacity="0.05"/>
    <path id="Path_1135" data-name="Path 1135" d="M976.324,479.852v-.912l-8.595,3.793v2.013Z" transform="translate(-750.001 -371.315)" opacity="0.05"/>
    <path id="Path_1136" data-name="Path 1136" d="M575.48,375.833l11.147-2.323,86.86,7.2-9.754,3.714Z" transform="translate(-445.887 -289.575)" fill="#efc6cd"/>
    <path id="Path_1137" data-name="Path 1137" d="M948.4,407.55l4.262.279-7.064,2.114-3.6-.258Z" transform="translate(-730.052 -315.966)" opacity="0.1"/>
    <path id="Path_1138" data-name="Path 1138" d="M948.4,406.72l4.262.279-7.064,2.117-3.6-.261Z" transform="translate(-730.052 -315.322)" fill="#fff"/>
    <path id="Path_1139" data-name="Path 1139" d="M1022.32,444.489c.168-.072.346.065.526.1.1.02.209,0,.312.02.209.027.416.166.616.1" transform="translate(-804.483 -352.613)" fill="#d3dae1"/>
    <path id="Path_1140" data-name="Path 1140" d="M1021.34,445.058c.166-.072.346.063.526.1.1.018.209,0,.312.018.209.029.415.168.616.1" transform="translate(-803.723 -353.054)" fill="#d3dae1"/>
    <path id="Path_1141" data-name="Path 1141" d="M1019.08,446.2c.169-.072.349.063.528.1.1.02.209,0,.31.02.211.029.418.169.615.1" transform="translate(-801.971 -353.938)" fill="#d3dae1"/>
    <path id="Path_1142" data-name="Path 1142" d="M866.4,398.21l4.262.281-7.064,2.114-3.6-.261Z" transform="translate(-666.477 -308.725)" opacity="0.1"/>
    <path id="Path_1143" data-name="Path 1143" d="M866.4,397.39l4.262.279-7.064,2.114-3.6-.258Z" transform="translate(-666.477 -308.089)" fill="#fff"/>
    <path id="Path_1144" data-name="Path 1144" d="M940.32,435.158c.168-.072.346.063.526.1.1.018.209,0,.312.018.209.029.416.168.616.1" transform="translate(-740.908 -345.379)" fill="#d3dae1"/>
    <path id="Path_1145" data-name="Path 1145" d="M939.34,435.728c.166-.072.346.063.526.1.1.02.209,0,.312.02.209.029.416.168.616.1" transform="translate(-740.148 -345.82)" fill="#d3dae1"/>
    <path id="Path_1146" data-name="Path 1146" d="M937.08,436.859c.169-.072.349.065.528.1.1.02.209,0,.31.02.211.027.418.169.616.1" transform="translate(-738.396 -346.697)" fill="#d3dae1"/>
    <path id="Path_1147" data-name="Path 1147" d="M905.729,402.88l4.265.279-7.064,2.117-3.6-.261Z" transform="translate(-696.97 -312.345)" opacity="0.1"/>
    <path id="Path_1148" data-name="Path 1148" d="M905.729,402.06l4.265.279-7.064,2.114-3.6-.261Z" transform="translate(-696.97 -311.709)" fill="#fff"/>
    <path id="Path_1149" data-name="Path 1149" d="M979.65,439.828c.169-.072.349.063.528.1.1.02.207,0,.31.02.209.027.418.169.616.1" transform="translate(-771.401 -348.999)" fill="#d3dae1"/>
    <path id="Path_1150" data-name="Path 1150" d="M978.67,440.389c.168-.072.348.065.528.1.1.02.207,0,.31.02.209.027.418.168.616.1" transform="translate(-770.641 -349.434)" fill="#d3dae1"/>
    <path id="Path_1151" data-name="Path 1151" d="M976.42,441.528c.166-.072.346.063.526.1.1.018.209,0,.312.018.209.029.416.168.616.1" transform="translate(-768.897 -350.317)" fill="#d3dae1"/>
    <ellipse id="Ellipse_98" data-name="Ellipse 98" cx="45.496" cy="9.365" rx="45.496" ry="9.365" transform="translate(66.759 159.098)" fill="#4444c8" opacity="0.1"/>
    <path id="Path_1152" data-name="Path 1152" d="M474.512,275.065a30.478,30.478,0,0,0-2.406-8.334l.146-1.438s.031-.719-.016-1.8a8.18,8.18,0,0,1,.263-2,4.108,4.108,0,0,0-.591-2.921c-.1-.142.049-2.876-.836-4.217s-6.781-3.836-6.781-3.836-.317-.663-.764-1.438l.041-.079a8.45,8.45,0,0,0-1.348-1.818c-.362-.386-.71-.607-.991-.5a8.075,8.075,0,0,1-.261-1.139c.058.016.119.031.178.043a1.833,1.833,0,0,0,.741.018,2.2,2.2,0,0,0,1.218-1.079,17.191,17.191,0,0,0,3.1-7.592,4.828,4.828,0,0,0-.079-1.676,5.657,5.657,0,0,0-.526-1.225,9.845,9.845,0,0,0-1.483-2.186,8.448,8.448,0,0,0-3.984-2.182,13.792,13.792,0,0,0-5.146-.384c-.449.052-.9.126-1.348.155a14,14,0,0,1-1.71-.029l-2.941-.171-.013-.045-.49-.029a1.24,1.24,0,0,0,.24,1.2,2.048,2.048,0,0,1,.5,1.159,2.37,2.37,0,0,1-.568,1.123,1.081,1.081,0,0,0-.182,1.175.672.672,0,0,0,.119.13,1.481,1.481,0,0,0,1.081.288h.067a7.318,7.318,0,0,0-1.49,4.431,7.451,7.451,0,0,0,4.065,6.6c.043.146.085.3.126.449a13.765,13.765,0,0,1,.472,4.858l-.052.112-.031-.119s-3.465,2.35-4.494,2.973a6.493,6.493,0,0,0-2.112,3.308c-.049.575-1.672,9.251-1.672,9.251a21.257,21.257,0,0,0-.813,2.678l-2.069,1.818a31.817,31.817,0,0,1-5.505.1l.036.238a18.666,18.666,0,0,0-3.316-.449,3.515,3.515,0,0,0-1.8.24l-.043.02-.034.016a7.124,7.124,0,0,0-1.887.53c-.072.029-.137.058-.2.088l.013-.294-4.62-.238-2.359-.479s-.836-.674-1.328-.575-1.524-.575-1.524-.575a4.123,4.123,0,0,0-.759-.472c-.079-.544-.128-.874-.128-.874s-1.836-7.285-3.211-11.567a9.859,9.859,0,0,0-3.029-4.883c-.348-.607-.577-1-.577-1a4.463,4.463,0,0,0-1.189-1.739c-.034-.054-.058-.081-.072-.081a.264.264,0,0,0-.133.02,14.293,14.293,0,0,1-.02-6.435,7.1,7.1,0,0,0,2.593-5.474q0-.047,0-.094v-.1a7.071,7.071,0,0,0-1.669-4.561l-.076-.085a.593.593,0,0,0,.058-.047,1.2,1.2,0,0,0,.425-1.159,7.952,7.952,0,0,0-.611-1.18,7.636,7.636,0,0,1-.249-.962,2.965,2.965,0,0,0-.708-1.234l.034.09a4.27,4.27,0,0,0-3.759-1.263c-1.013.162-1.957.634-2.975.78-.73.1-1.474.036-2.209.11a5.733,5.733,0,0,0-1.959.566,1.123,1.123,0,0,0-.416.306,1.647,1.647,0,0,0-.207.577,7.63,7.63,0,0,1-1.613,2.319,5.427,5.427,0,0,0-1.088,3,2.35,2.35,0,0,0,.079.82c.049.16.126.31.162.472a3.239,3.239,0,0,1-.272,1.476,2.873,2.873,0,0,0,.16,1.874c.888,1.986,3.8,2.649,4.409,4.734a5.8,5.8,0,0,0,1.458.449c.04.207.076.416.106.627a.17.17,0,0,0-.038.022,4.469,4.469,0,0,0-.982,2.247l-.094.076c-.321.265-1.42,1.155-2.413,1.84-1.18.816-3.146,3.548-4.521,4.364s-2.508,5.842-2.211,7.669,1.523,6.95,1.031,8.819.737,10.4.737,10.4a12.563,12.563,0,0,1,2.409.715l-.025.373-.074,1.123s-2.227,8.053-1.375,14.252-.393,6.837-.393,6.837.261,2.748-.393,3.708a7.977,7.977,0,0,0-.786,3.067s-.065,4.73.065,6.067.2,3.773-.263,4.348a16.649,16.649,0,0,0-1.245,5.494c.065,1.15-1.638,3.773-.721,7.159s-2.7,3.451-2.7,3.451.461,5.168,1.443,6.646l.144.211c-.025.085-.049.175-.076.272-.371,1.348-.879,3.476-.526,3.991.524.768.786.638.786.638l.2,3.451s3.932,3.323,6.948,3.2,2.424-3.2,2.424-3.2l-2.568-6.66-.088-.225,2.854-5.393s.786-2.364.982-3.2,1.263-3.777,1.263-3.777,2.7-6.39,2.752-7.159.263-4.919.786-5.752a53.216,53.216,0,0,0,1.966-5.617l.036.031a1.894,1.894,0,0,1,.49,1.885,15.063,15.063,0,0,0-.133,3.705,25.21,25.21,0,0,1-.393,3.2,68.339,68.339,0,0,0,.133,12.077,34.2,34.2,0,0,1,.337,6.042c-.308,1.27-.577,2.847-.076,3.033a31.706,31.706,0,0,0,5.179.256s1.834-.64,4.325,1.6,10.156-.638,10.156-.638,2.359-.64-2.294-2.492A39.572,39.572,0,0,1,418,339.325c.031-.061.065-.121.094-.187,0,0-1.9-1.8-.328-4.984a13.878,13.878,0,0,0,1.508-5.88l.263-10.738-.786-14.255-.609-14.96.108-.036c.1,2.75.64,9.3,3.451,8.028,3.539-1.6.524-5.752.524-5.752l-1.589-3.1.474-.162-1.777-5.743a12.95,12.95,0,0,1-.067-3.386,13.429,13.429,0,0,0-.041-1.977,35.46,35.46,0,0,1,4.957-.739c.472.115,3.112.137,4.15.142-.339.265-.611.528-.611.528l4.226,2.845s1.434-.784,1.732-1.616a1.864,1.864,0,0,0,.791-.422c.045.982.306,2.045,1.213,2.069a1.574,1.574,0,0,0,.661-.13l6.912-1.368-.593,3.705.413.735c-.209,3.126-.449,6.444-.661,9.363l-.1.638.049.011c-.328,4.494-.591,7.9-.591,7.9a4.142,4.142,0,0,1,1.723-1.732l.045,6.669s.346,10.545.346,11.983.047,4.649.047,4.649.739,3.93,1.18,5.224a57.621,57.621,0,0,1,.786,7.19s1.034,1.629.591,2.247,1.721,1.964,1.721,1.964a8.436,8.436,0,0,0-1.476,3.116c-.011.144.13.3.386.449-.081.065-.164.13-.256.193a4.489,4.489,0,0,1-2.979.6c-3.836-.337-6.539,3.211-4.179,3.93s9.437.863,9.437.863,2.144-1.337,3.82-.735c-.025,1.407.045,2.7.056,2.867l-.02.016a15.587,15.587,0,0,1-4.795,3.076c-2.7.91-3.294,4.6.2,5.08a31.891,31.891,0,0,0,8.6-.575,15.854,15.854,0,0,1,4.669-2.4c2.016-.431,3.737-1.391,3.393-2.541-.225-.735-.8-2.66-1.193-3.955q-.034-.117-.067-.225c.061-.135.121-.274.178-.418,0,0-1.031-5.368-.2-6.709s.393-14.765.393-14.765-1.427-3.4-.688-5.462-1.18-4.986-1.18-4.986a91.091,91.091,0,0,1,.771-9.129l.074-.4a18.4,18.4,0,0,0,2.741-1.058s.492-7.383.786-9.06c.029-.157.07-.411.119-.741l.225-1.184h0l.265-1.348h0l.9-4.6,1.622-2.1L474,281.588S475,279.332,474.512,275.065ZM410.061,248.7l-.031.022a.366.366,0,0,1-.011-.049A.2.2,0,0,0,410.061,248.7Zm41.292,5.233-.162.353.591-.589-.8.9.27-.566Zm-3.991,8.246c-.155.411-.321.856-.494,1.319l.317-.946Z" transform="translate(-312.435 -183.294)" fill="url(#linear-gradient)"/>
    <path id="Path_1153" data-name="Path 1153" d="M595.636,441.7s-.55,3.665,1.1,3.712,2.755-2.827,2.755-2.827l-.674-2.3Z" transform="translate(-473.604 -349.373)" fill="#585b8a"/>
    <path id="Path_1154" data-name="Path 1154" d="M595.636,441.7s-.55,3.665,1.1,3.712,2.755-2.827,2.755-2.827l-.674-2.3Z" transform="translate(-473.604 -349.373)" opacity="0.2"/>
    <path id="Path_1155" data-name="Path 1155" d="M404.239,756.862c-2.939.128-6.772-3.193-6.772-3.193l-.191-3.449s-.254.128-.766-.638c-.344-.515.151-2.647.512-3.988.175-.656.319-1.123.319-1.123l6.449,1.726.308.816,2.5,6.655S407.176,756.734,404.239,756.862Z" transform="translate(-319.198 -585.206)" fill="#636992"/>
    <path id="Path_1156" data-name="Path 1156" d="M496.173,730.836s-7.471,2.874-9.886.638-4.215-1.6-4.215-1.6a30.1,30.1,0,0,1-5.047-.256c-.49-.186-.225-1.784.081-3.056.207-.878.431-1.6.431-1.6s7.343-2.492,8.493-.959a5.506,5.506,0,0,0,1.225,1.168,35.645,35.645,0,0,0,6.7,3.175C498.471,730.2,496.173,730.836,496.173,730.836Z" transform="translate(-381.502 -568.95)" fill="#636992"/>
    <path id="Path_1157" data-name="Path 1157" d="M526.951,496.35l2.042,4.087s2.939,4.152-.51,5.748-3.384-9.195-3.384-9.195Z" transform="translate(-418.985 -392.837)" fill="#ffd6d6"/>
    <path id="Path_1158" data-name="Path 1158" d="M495.25,338.61s2.236,1.022,3.577,5.3,3.13,11.56,3.13,11.56,1.213,8.237,1.02,10.282a13.256,13.256,0,0,0,.065,3.384l1.723,5.748-3.449,1.213-5.3-20.308Z" transform="translate(-395.843 -270.54)" fill="#dce6f2"/>
    <path id="Path_1159" data-name="Path 1159" d="M495.25,338.61s2.236,1.022,3.577,5.3,3.13,11.56,3.13,11.56,1.213,8.237,1.02,10.282a13.256,13.256,0,0,0,.065,3.384l1.723,5.748-3.449,1.213-5.3-20.308Z" transform="translate(-395.843 -270.54)" opacity="0.05"/>
    <path id="Path_1160" data-name="Path 1160" d="M405.935,746.213l.308.816-.377.721c-1.47.638-5.11.128-5.11.128s-.674-.856-1.6-2.265c.175-.656.319-1.123.319-1.123Z" transform="translate(-321.344 -585.221)" opacity="0.1"/>
    <path id="Path_1161" data-name="Path 1161" d="M488.633,725.471c-1.863,4.22-8.195,2.654-9.954,2.125-.29-.088-.449-.146-.449-.146s.011-.344.016-.885c.207-.878.431-1.6.431-1.6s7.343-2.492,8.493-.959a5.5,5.5,0,0,0,1.225,1.168A2.184,2.184,0,0,0,488.633,725.471Z" transform="translate(-382.647 -568.95)" opacity="0.1"/>
    <path id="Path_1162" data-name="Path 1162" d="M421.938,516.444c-1.532,3.191.321,4.981.321,4.981-1.863,4.217-8.195,2.654-9.954,2.123-.29-.085-.449-.144-.449-.144a38.9,38.9,0,0,0-.319-6.516,69.964,69.964,0,0,1-.128-12.068,25.711,25.711,0,0,0,.382-3.2,15.567,15.567,0,0,1,.128-3.7,1.912,1.912,0,0,0-.476-1.883l-.034-.034a53.182,53.182,0,0,1-1.917,5.617c-.512.827-.7,4.981-.766,5.748s-2.683,7.154-2.683,7.154-1.02,2.937-1.211,3.766-.959,3.2-.959,3.2l-3.078,5.941c-1.469.638-5.11.128-5.11.128s-.7-.9-1.66-2.364-1.4-6.64-1.4-6.64,3.512-.065,2.618-3.449.766-6,.7-7.154a17,17,0,0,1,1.213-5.492c.447-.575.382-3,.254-4.343s-.063-6.067-.063-6.067a8.11,8.11,0,0,1,.766-3.065c.638-.957.384-3.705.384-3.705s1.211-.638.382-6.833,1.348-14.241,1.348-14.241l.074-1.123.117-1.82s18.265-1.151,19.735.254a4.843,4.843,0,0,1,.933,1.337,13.3,13.3,0,0,1,1.056,3.4l.766,19.351.766,14.241-.256,10.729A14.262,14.262,0,0,1,421.938,516.444Z" transform="translate(-316.273 -365.287)" fill="#565988"/>
    <path id="Path_1163" data-name="Path 1163" d="M480.663,538.42l-1.917,41.51-2.3,3.784c-.29-.085-.449-.144-.449-.144a38.9,38.9,0,0,0-.319-6.516,69.954,69.954,0,0,1-.128-12.068,25.7,25.7,0,0,0,.382-3.2,15.565,15.565,0,0,1,.128-3.7,1.912,1.912,0,0,0-.476-1.883l.031-.225Z" transform="translate(-380.413 -425.454)" opacity="0.1"/>
    <path id="Path_1164" data-name="Path 1164" d="M406.706,731.729s4.982-1.98,5.748-1.348-5.874,1.6-5.874,1.6Z" transform="translate(-327.096 -574.186)" opacity="0.1"/>
    <path id="Path_1165" data-name="Path 1165" d="M500.607,713.5c-.191.065-5.044,1.8-4.6,3.64S500.607,713.5,500.607,713.5Z" transform="translate(-396.409 -561.195)" opacity="0.1"/>
    <path id="Path_1166" data-name="Path 1166" d="M449.07,284.881s1.627,3.928.766,5.941,9.291,5.46,9.291,5.46-2.968-7.664-.094-11.976S449.07,284.881,449.07,284.881Z" transform="translate(-360.039 -227.059)" fill="#ffd6d6"/>
    <path id="Path_1167" data-name="Path 1167" d="M660.837,772.24a15.329,15.329,0,0,0-4.55,2.4,30.307,30.307,0,0,1-8.383.575c-3.4-.479-2.824-4.168-.191-5.078a15.294,15.294,0,0,0,4.676-3.072c.432-.4.688-.674.688-.674l9.534-1.917s.155.533.371,1.267c.382,1.3.946,3.22,1.162,3.952C664.477,770.851,662.8,771.808,660.837,772.24Z" transform="translate(-512.365 -600.712)" fill="#505484"/>
    <path id="Path_1168" data-name="Path 1168" d="M634.321,741.24s-4.024.431-5.7-.526-4.071.575-4.071.575-6.9-.144-9.2-.863.335-4.269,4.071-3.928a4.292,4.292,0,0,0,2.905-.6,3.061,3.061,0,0,0,1.265-1.9l8.089.479,1.123,2.867Z" transform="translate(-488.292 -577.088)" fill="#505484"/>
    <path id="Path_1169" data-name="Path 1169" d="M659.971,738.653s-9.4-1.537-10.6-2.757a3.062,3.062,0,0,0,1.265-1.9l8.089.479,1.124,2.867Z" transform="translate(-515.333 -577.088)" opacity="0.1"/>
    <path id="Path_1170" data-name="Path 1170" d="M634.52,513.182l.1,14.032s.335,10.538.335,11.976.047,4.644.047,4.644.719,3.928,1.15,5.222a58.621,58.621,0,0,1,.766,7.19s1.007,1.629.575,2.247,1.676,1.964,1.676,1.964a8.392,8.392,0,0,0-1.436,3.114c-.088,1.245,10.727,3.013,10.727,3.013l-4.213-43.2L640.89,512.56Z" transform="translate(-503.82 -405.405)" fill="#575988"/>
    <path id="Path_1171" data-name="Path 1171" d="M634.52,513.182l.1,14.032s.335,10.538.335,11.976.047,4.644.047,4.644.719,3.928,1.15,5.222a58.621,58.621,0,0,1,.766,7.19s1.007,1.629.575,2.247,1.676,1.964,1.676,1.964a8.392,8.392,0,0,0-1.436,3.114c-.088,1.245,10.727,3.013,10.727,3.013l-4.213-43.2L640.89,512.56Z" transform="translate(-503.82 -405.405)" opacity="0.1"/>
    <path id="Path_1172" data-name="Path 1172" d="M686.6,765.749c-3.13,7.462-10.574,1.7-10.574,1.7s0-.144-.018-.391c.431-.4.688-.674.688-.674l9.534-1.917S686.386,765.014,686.6,765.749Z" transform="translate(-535.987 -600.712)" opacity="0.1"/>
    <path id="Path_1173" data-name="Path 1173" d="M661.3,564.369c-3.067,7.864-10.682,1.964-10.682,1.964a27.524,27.524,0,0,1,.24-5.939c.481-1.867-.528-7.473-.528-7.473a40.259,40.259,0,0,0-1.1-6.13,10.923,10.923,0,0,1-.479-3.64,6.95,6.95,0,0,0-.24-2.78,18.7,18.7,0,0,1-.674-3.64,38.428,38.428,0,0,0-.431-5.795l-1.485-7.415-2.683-15.185.838-.144,15.016-2.633s2.827,14.38,1.867,15.854a6.183,6.183,0,0,0-.539,1.944c-.548,3.262-.753,9.12-.753,9.12s1.867,2.921,1.15,4.982.674,5.46.674,5.46.431,13.412-.384,14.753S661.3,564.369,661.3,564.369Z" transform="translate(-510.58 -399.977)" fill="#575988"/>
    <path id="Path_1174" data-name="Path 1174" d="M678.635,297.948s-13.6,9.579-10.538,4.788c1.651-2.579,1.348-5.865.7-8.345a19.686,19.686,0,0,0-1.348-3.66s11.558-4.916,10.026-.51a8.252,8.252,0,0,0-.449,3.2A8.537,8.537,0,0,0,678.635,297.948Z" transform="translate(-529.35 -231.602)" fill="#d28690"/>
    <path id="Path_1175" data-name="Path 1175" d="M583.948,425.991s-5.748-1.661-6.705-.031.288,5.2,2.022,5.779,5.716-1.948,5.716-1.948Z" transform="translate(-459.155 -337.708)" fill="#d28690"/>
    <path id="Path_1176" data-name="Path 1176" d="M609.08,416l-2.4,2.2a30.313,30.313,0,0,1-5.366.094s1.1,7.377-.479,8.287l9.675-1.964Z" transform="translate(-477.707 -330.541)" fill="#585b8a"/>
    <path id="Path_1177" data-name="Path 1177" d="M609.08,416l-2.4,2.2a30.313,30.313,0,0,1-5.366.094s1.1,7.377-.479,8.287l9.675-1.964Z" transform="translate(-477.707 -330.541)" opacity="0.1"/>
    <path id="Path_1178" data-name="Path 1178" d="M451.011,249.3a7.19,7.19,0,0,1-7.19,7.19c-3.689-1.773-7.19-3.215-7.19-7.19a7.19,7.19,0,1,1,14.369,0Z" transform="translate(-350.39 -195.503)" opacity="0.1"/>
    <path id="Path_1179" data-name="Path 1179" d="M451.12,249.481a7.177,7.177,0,1,1-1.627-4.546A7.177,7.177,0,0,1,451.12,249.481Z" transform="translate(-350.5 -195.877)" fill="#ffd6d6"/>
    <path id="Path_1180" data-name="Path 1180" d="M447.6,462.88a16.259,16.259,0,0,1-2.227,1.155s-3.64-.528-4.166.094-5.168.863-5.168.863-7.089-.335-8.143-1.245a4.317,4.317,0,0,0-1.076-.638l.117-1.82s18.265-1.15,19.735.254A4.843,4.843,0,0,1,447.6,462.88Z" transform="translate(-342.789 -365.31)" opacity="0.1"/>
    <path id="Path_1181" data-name="Path 1181" d="M434.357,343.263c-.144.813-3.114,2.058-3.114,2.058s-3.64-.526-4.166.1-5.168.863-5.168.863-7.089-.337-8.143-1.247a9.142,9.142,0,0,0-3.4-1.348s-1.2-8.525-.717-10.392-.719-6.995-1.007-8.815.813-6.849,2.155-7.662,3.258-3.546,4.406-4.359c.968-.685,2.038-1.573,2.35-1.84l.092-.076a4.535,4.535,0,0,1,.959-2.247c.766-.762,7.806,4.838,7.806,4.838s.049.431.528-.382c.108-.182,1.036,1.157,1.2,1.723,0,0,3.831,6.707,4.072,8.089s1.245,5.892,1.436,6.993c.049.283.13,1.276.225,2.606.018.261.034.537.054.825.141,2.207.294,5.024.386,7.154,0,.243.02.476.027.7A23.841,23.841,0,0,1,434.357,343.263Z" transform="translate(-328.659 -246.981)" fill="#dce6f2"/>
    <path id="Path_1182" data-name="Path 1182" d="M415,387.21s2.633,3.209,3.5,3.209S415,387.21,415,387.21Z" transform="translate(-333.624 -308.22)" opacity="0.1"/>
    <path id="Path_1183" data-name="Path 1183" d="M426.614,417.91s-4.312,4.694-3.737,5.557S426.614,417.91,426.614,417.91Z" transform="translate(-339.691 -332.022)" opacity="0.1"/>
    <path id="Path_1184" data-name="Path 1184" d="M425.62,434.36s4.943-5.413,5.168-7.28Z" transform="translate(-341.858 -339.131)" opacity="0.1"/>
    <path id="Path_1185" data-name="Path 1185" d="M453.33,440.927s5.7-3.018,6.179-5.413S453.33,440.927,453.33,440.927Z" transform="translate(-363.342 -345.317)" opacity="0.1"/>
    <path id="Path_1186" data-name="Path 1186" d="M482.791,329.425,482,331.339l1.317.622,1.294,3.618s3.568,7.136,3.424,10.848a65.78,65.78,0,0,0,.647,9.291l2.058-.382-.971-10.918a15.748,15.748,0,0,0-1.254-4.9c-1.645-3.766-4.7-10.718-4.9-10.718-.263,0-.079.1-.079.1Z" transform="translate(-385.57 -262.934)" opacity="0.1"/>
    <path id="Path_1187" data-name="Path 1187" d="M483.641,328.572l-.791,1.917,1.319.622,1.292,3.618s3.568,7.136,3.424,10.848a65.761,65.761,0,0,0,.647,9.291l2.06-.382-.973-10.918a15.684,15.684,0,0,0-1.252-4.9c-1.645-3.768-4.7-10.718-4.9-10.718-.265,0-.081.1-.081.1Z" transform="translate(-386.229 -262.275)" fill="#575989"/>
    <path id="Path_1188" data-name="Path 1188" d="M573.736,432.991a17.96,17.96,0,0,1-4.361-1.8l-.4-.225.049-3.71a6.5,6.5,0,0,1,.733-.371c1.276-.557,3.894-1.314,5.206,1.123C576.729,431.281,575.005,433.076,573.736,432.991Z" transform="translate(-452.998 -338.544)" fill="#ffd6d6"/>
    <path id="Path_1189" data-name="Path 1189" d="M449.36,244.852a1.063,1.063,0,0,1-.335.137c-.834.182-1.782-.535-2.5-.074a1.809,1.809,0,0,0-.6,1.386q-.153,1.348-.306,2.678a3.306,3.306,0,0,1-.2.924,2.317,2.317,0,0,1-2.2,1.173,1.314,1.314,0,0,1-.95-.314c-.155-.157-.238-.378-.409-.521-1.123-.942-1.465,1.366-1.168,2.022.476,1.072,2.168,2.105,1.458,3.467a1.3,1.3,0,0,1-.521.524,7.19,7.19,0,1,1,7.725-11.4Z" transform="translate(-350.366 -195.793)" opacity="0.1"/>
    <path id="Path_1190" data-name="Path 1190" d="M433.7,239.022c.169.142.254.362.409.519a1.317,1.317,0,0,0,.95.315,2.305,2.305,0,0,0,2.2-1.175,3.2,3.2,0,0,0,.2-.921l.306-2.678a1.8,1.8,0,0,1,.6-1.386c.714-.449,1.663.256,2.5.074a1.22,1.22,0,0,0,.9-1.407,7.911,7.911,0,0,0-.593-1.177,7.679,7.679,0,0,1-.245-.959,3.8,3.8,0,0,0-4.292-2.431c-.989.164-1.908.636-2.9.78-.71.1-1.436.036-2.153.112a5.433,5.433,0,0,0-1.91.564,1.11,1.11,0,0,0-.4.306,1.686,1.686,0,0,0-.2.575,7.679,7.679,0,0,1-1.573,2.319,5.526,5.526,0,0,0-1.065,2.991,2.4,2.4,0,0,0,.076.82c.047.157.121.31.157.472a3.286,3.286,0,0,1-.265,1.474,2.947,2.947,0,0,0,.157,1.874c.863,1.984,3.705,2.647,4.3,4.73a4.717,4.717,0,0,0,1.672.449,1.613,1.613,0,0,0,1.474-.753c.708-1.348-.982-2.4-1.458-3.465C432.228,240.383,432.563,238.078,433.7,239.022Z" transform="translate(-342.386 -184.584)" fill="#353045"/>
    <path id="Path_1191" data-name="Path 1191" d="M677.518,290.221a8.254,8.254,0,0,0-.449,3.2c-.346.294-.723-.586-1.123-.359-1.1.634-2.364,2.141-3.721,2.141a7.451,7.451,0,0,1-3.386-.811,19.691,19.691,0,0,0-1.348-3.66S679.05,285.814,677.518,290.221Z" transform="translate(-529.381 -231.602)" opacity="0.1"/>
    <path id="Path_1192" data-name="Path 1192" d="M670.207,257.973a7.473,7.473,0,1,1-7.473-7.473A7.473,7.473,0,0,1,670.207,257.973Z" transform="translate(-519.9 -202.228)" fill="#d28690"/>
    <path id="Path_1193" data-name="Path 1193" d="M656.668,323.785s-1.406,1.532-1.6,1.658-4.269,17.3-4.341,17.5-4.856,15.708-4.856,15.708l-7.664,3.768.64-18.969,5.617-15.643s1.854-2.108,2.427-2.874,7.727-5.366,7.727-5.366l1.222,2.519Z" transform="translate(-506.681 -255.778)" fill="#f0f3f7"/>
    <path id="Path_1194" data-name="Path 1194" d="M684.954,323.8l-8.812,6.309L676,326.643c.575-.766,7.727-5.363,7.727-5.363Z" transform="translate(-535.979 -257.104)" opacity="0.1"/>
    <path id="Path_1195" data-name="Path 1195" d="M685.819,322.089l-8.812,6.309-.137-3.463c.575-.768,7.727-5.366,7.727-5.366Z" transform="translate(-536.654 -255.778)" fill="#f0f3f7"/>
    <path id="Path_1196" data-name="Path 1196" d="M638.1,336.59l.294,1.541-1.97,2L638,336.612s-3.371,2.348-4.382,2.97a6.4,6.4,0,0,0-2.06,3.305c-.038.575-1.629,9.244-1.629,9.244s-1.2,3.209-.861,4.119-1.82,29.6-1.82,29.6a4.269,4.269,0,0,1,2.881-2.209l-.768-16.955s.935-11.28.982-11.423l2.179-6.682Z" transform="translate(-498.183 -268.974)" fill="#585b8a"/>
    <path id="Path_1197" data-name="Path 1197" d="M642.275,344.3l-.153,3.146s-2.132,6.73-2.849,7.831a78.611,78.611,0,0,0-2.9,7.664l-1.229,11.4-2.108.959L632,373.389l1.726-11.01s3.256-9.291,3.737-10.251l2.4-5.06Z" transform="translate(-501.866 -274.952)" opacity="0.1"/>
    <path id="Path_1198" data-name="Path 1198" d="M641.392,343.45l-.151,3.146s-2.132,6.73-2.851,7.831a77.9,77.9,0,0,0-2.9,7.664l-1.222,11.4-2.108.957-1.054-1.914,1.726-11.01s3.256-9.293,3.735-10.25l2.42-5.053Z" transform="translate(-501.176 -274.293)" fill="#663d5c"/>
    <path id="Path_1199" data-name="Path 1199" d="M566.31,446.7l4.119,2.851s2.905-1.629,1.213-2.683a7.5,7.5,0,0,0-3.737-1.213C567.362,445.66,566.31,446.7,566.31,446.7Z" transform="translate(-450.936 -353.537)" fill="#d28690"/>
    <path id="Path_1200" data-name="Path 1200" d="M578.969,425.543a.634.634,0,0,0-.3.542c0,.874.1,3.188.831,2.143.9-1.278.735-2.427,2.108-1.6a8.085,8.085,0,0,1,2.2,2.022l-.382-2.746S580.607,424.513,578.969,425.543Z" transform="translate(-460.519 -337.646)" fill="#d28690"/>
    <path id="Path_1201" data-name="Path 1201" d="M663.464,521.374a6.181,6.181,0,0,0-.539,1.944,16.235,16.235,0,0,1-14.544-2.806,73.257,73.257,0,0,1-1.82-7.662,24.953,24.953,0,0,1,.022-4.7L661.6,505.52S664.423,519.889,663.464,521.374Z" transform="translate(-513.078 -399.946)" opacity="0.1"/>
    <path id="Path_1202" data-name="Path 1202" d="M672.042,334.12a14.886,14.886,0,0,0-.238,3.784l-3.449,16.286s-1.676,12.549-1.964,14.225-.766,9.053-.766,9.053a16.223,16.223,0,0,1-17.3-1.723,73.408,73.408,0,0,1-1.82-7.664c-.481-2.845.935-14.241,1.6-19.3.2-1.5.335-2.442.335-2.442l2.514-9.341s3.09-7.88,4.24-10.179,5.77-7.462,5.77-7.462c.573-.364,1.49.921,2.17,2.092.515.885.9,1.708.9,1.708s5.748,2.49,6.608,3.82.719,4.072.815,4.215A4.222,4.222,0,0,1,672.042,334.12Z" transform="translate(-513.034 -255.562)" fill="#585b8a"/>
    <path id="Path_1203" data-name="Path 1203" d="M665.051,328.984s.431,2.539-.674,3.305c-1.068.741-9.013,16.365-9.507,17.34.2-1.5.335-2.445.335-2.445l2.514-9.338s3.092-7.88,4.24-10.181,5.773-7.462,5.773-7.462c.573-.364,1.487.921,2.168,2.092C668.873,324.427,666.732,328.458,665.051,328.984Z" transform="translate(-519.597 -256.22)" opacity="0.1"/>
    <path id="Path_1204" data-name="Path 1204" d="M664.185,328.134s.429,2.539-.674,3.305S654.5,347.8,654,348.777c.2-1.5.335-2.442.335-2.442l2.514-9.341s3.09-7.88,4.24-10.179,5.77-7.462,5.77-7.462c.573-.364,1.49.921,2.171,2.092C668.007,323.575,665.864,327.608,664.185,328.134Z" transform="translate(-518.922 -255.561)" fill="#585b8a"/>
    <path id="Path_1205" data-name="Path 1205" d="M602.572,410.009l-2.7,14.064v0l-.258,1.346v0l-.582,3.027-2.483-.526-1.157-.245-16.014-3.393-1.177-.249-2.687-.569.526-3.492.218-1.452,1.939-12.875Z" transform="translate(-445.91 -314.493)" fill="#4444c8"/>
    <path id="Path_1206" data-name="Path 1206" d="M665.678,511.92s-6.37,2.3-4.982,5.029,10.3-2.108,10.3-2.108Z" transform="translate(-523.961 -404.908)" fill="#d28690"/>
    <path id="Path_1207" data-name="Path 1207" d="M703.8,599.1c0,.191.24,2.636,1.2,3.5S703.8,599.1,703.8,599.1Z" transform="translate(-557.533 -472.5)" opacity="0.1"/>
    <path id="Path_1208" data-name="Path 1208" d="M675.24,637.68s1.148,3.162,5.7,4.456S675.24,637.68,675.24,637.68Z" transform="translate(-535.39 -502.411)" opacity="0.1"/>
    <path id="Path_1209" data-name="Path 1209" d="M675.223,258.04a7.471,7.471,0,0,1-3.746,6.478,3.976,3.976,0,0,1-1.123-.937,1.452,1.452,0,0,1-.384-1.407c.157-.38.573-.62.674-1.013a1.493,1.493,0,0,0-.036-.724c-.083-.371-.162-.742-.243-1.11-.07-.315-.193-.685-.505-.762s-.573.184-.818.378a2.565,2.565,0,0,1-2.472.407c-.721-.389-.519-1.69-.636-2.393a.417.417,0,0,0-.157-.317.654.654,0,0,0-.326-.023.938.938,0,0,1-.814-.721,6.2,6.2,0,0,1-.13-1.157,1.292,1.292,0,0,0-.517-1,1.6,1.6,0,0,0-.852-.139l-1.409.016a7.473,7.473,0,0,1,13.482,4.431Z" transform="translate(-524.916 -202.295)" opacity="0.1"/>
    <path id="Path_1210" data-name="Path 1210" d="M664.738,251.991c.245-.193.514-.449.818-.375s.434.449.5.759l.243,1.108a1.507,1.507,0,0,1,.038.726c-.115.4-.528.634-.688,1.013a1.451,1.451,0,0,0,.384,1.4,4.044,4.044,0,0,0,2.312,1.382,1.7,1.7,0,0,0,.721.016,2.135,2.135,0,0,0,1.186-1.076,17.43,17.43,0,0,0,3.024-7.588,4.861,4.861,0,0,0-.076-1.674,5.616,5.616,0,0,0-.512-1.225,9.889,9.889,0,0,0-1.445-2.186,8.206,8.206,0,0,0-3.883-2.177,13.148,13.148,0,0,0-5.013-.393c-.45.052-.881.126-1.323.155a13.318,13.318,0,0,1-1.667-.027l-3.307-.2a1.285,1.285,0,0,0,.225,1.2,2.154,2.154,0,0,1,.485,1.159,2.388,2.388,0,0,1-.555,1.123,1.106,1.106,0,0,0-.178,1.175,1.257,1.257,0,0,0,1.123.368l1.667-.018a1.594,1.594,0,0,1,.847.146,1.294,1.294,0,0,1,.517,1,6.618,6.618,0,0,0,.13,1.157.935.935,0,0,0,.814.721.606.606,0,0,1,.326.025.413.413,0,0,1,.157.315c.117.7-.1,2,.636,2.393A2.588,2.588,0,0,0,664.738,251.991Z" transform="translate(-520.412 -195.343)" fill="#663d5c"/>
    <path id="Path_1211" data-name="Path 1211" d="M688.593,353.4a3.662,3.662,0,0,0-3.854,2.46c-.9,2.559-2.4,7.177-2.022,9,.528,2.586,1.15,6.9,1.15,6.9s2.73,1.573,1.348,3.159a8.948,8.948,0,0,0-1.773,3.833,3.984,3.984,0,0,0-2.155,2.4c-.382,1.629-2.97,3.878-2.97,3.878l-3.878,3.88s6.417,6.516,7.712,6.849l3.975-4.647,4.694-6.226,4.072-4.269a14.017,14.017,0,0,0,.479-6.516,31.182,31.182,0,0,0-2.348-8.334l.144-1.438S693.606,354.021,688.593,353.4Z" transform="translate(-534.77 -281.99)" opacity="0.1"/>
    <path id="Path_1212" data-name="Path 1212" d="M690.3,353.4a3.663,3.663,0,0,0-3.849,2.46c-.9,2.559-2.4,7.177-2.022,9,.526,2.586,1.148,6.9,1.148,6.9s2.73,1.573,1.348,3.159a8.93,8.93,0,0,0-1.771,3.833,3.992,3.992,0,0,0-2.157,2.4c-.384,1.629-2.968,3.878-2.968,3.878l-3.88,3.881s6.417,6.516,7.712,6.849l3.975-4.647,4.682-6.226,4.071-4.269a13.977,13.977,0,0,0,.479-6.516,31.316,31.316,0,0,0-2.346-8.334l.144-1.438S695.314,354.023,690.3,353.4Z" transform="translate(-536.096 -281.992)" fill="#585b8a"/>
    <path id="Path_1213" data-name="Path 1213" d="M721.28,418.34s4.072,4.979,5.8,3.878S721.28,418.34,721.28,418.34Z" transform="translate(-571.085 -332.355)" opacity="0.1"/>
    <path id="Path_1214" data-name="Path 1214" d="M728.1,401.28c.432.144,3.977,5.078,5.8,4.494S728.1,401.28,728.1,401.28Z" transform="translate(-576.373 -319.129)" opacity="0.1"/>
    <path id="Path_1215" data-name="Path 1215" d="M732.58,439a2.667,2.667,0,0,0,3.161,2.442C738.662,441.058,732.58,439,732.58,439Z" transform="translate(-579.846 -348.373)" opacity="0.1"/>
    <path id="Path_1216" data-name="Path 1216" d="M615.57,301.83l-1.58,3.521,1.973-2Z" transform="translate(-475.744 -234.001)" opacity="0.1"/>
    <path id="Path_1217" data-name="Path 1217" d="M615.57,300.98l-1.58,3.521,1.973-2Z" transform="translate(-475.744 -233.342)" fill="#f0f3f7"/>
    <path id="Path_1218" data-name="Path 1218" d="M581.189,468.711l-1.177-.25-2.162-4.06.218-1.452Z" transform="translate(-447.725 -358.918)" opacity="0.3"/>
    <path id="Path_1219" data-name="Path 1219" d="M668.46,487.65,668.2,489v0l-3.065,2.5-1.157-.245Z" transform="translate(-514.502 -378.068)" opacity="0.3"/>
    <path id="Path_1220" data-name="Path 1220" d="M443.343,368.681c-.593.1-1.168.189-1.694.256-2.921.384-9.869-3.065-9.869-3.065s-8.478-7.089-10.92-13.794,2.921-7.712,2.921-7.712c2.022-1.15,6.419,2.058,7.042,2.586a4,4,0,0,1,1.1,2.73c-.049.863,1.438,1.964,1.438,1.964a42.659,42.659,0,0,0,3.161,4.885,2.5,2.5,0,0,1,.957,1.726c.191.816,1.867,1.485,2.586,1.436s1.573.24,1.573.622c0,.308.7.461,1.281.51C443.092,363.282,443.26,366.5,443.343,368.681Z" transform="translate(-337.674 -274.812)" opacity="0.1"/>
    <path id="Path_1221" data-name="Path 1221" d="M444.642,365.336c-.449.072-.881.137-1.285.191-2.921.384-9.866-3.065-9.866-3.065s-8.478-7.089-10.92-13.794,2.921-7.711,2.921-7.711c2.022-1.15,6.417,2.058,7.04,2.586a4.012,4.012,0,0,1,1.1,2.73c-.047.863,1.436,1.964,1.436,1.964a42.644,42.644,0,0,0,3.161,4.885,2.51,2.51,0,0,1,.959,1.726c.193.816,1.867,1.483,2.586,1.436s1.573.24,1.573.622c0,.225.4.375.845.449.018.261.034.537.054.825C444.4,360.389,444.55,363.206,444.642,365.336Z" transform="translate(-339 -272.168)" opacity="0.1"/>
    <path id="Path_1222" data-name="Path 1222" d="M569.752,428.84l-.182,4.305h-.2l-.4-.225.049-3.71A6.488,6.488,0,0,1,569.752,428.84Z" transform="translate(-452.998 -340.496)" opacity="0.1"/>
    <path id="Path_1223" data-name="Path 1223" d="M423.781,342.659s-5.363,1.007-2.921,7.712,10.92,13.8,10.92,13.8,6.945,3.447,9.869,3.065,7.374-1.389,7.95-1.245,4.456.144,4.456.144l.191-4.494-4.494-.24-2.3-.479s-.816-.674-1.294-.575-1.483-.575-1.483-.575a2.863,2.863,0,0,0-1.348-.622c-.58,0-1.676-.144-1.676-.526s-.863-.674-1.573-.622-2.407-.622-2.6-1.447a2.5,2.5,0,0,0-.957-1.723,42.661,42.661,0,0,1-3.162-4.887s-1.485-1.1-1.438-1.962a4.02,4.02,0,0,0-1.1-2.732C430.194,344.718,425.79,341.511,423.781,342.659Z" transform="translate(-337.674 -273.489)" fill="#dce6f2"/>
    <path id="Path_1224" data-name="Path 1224" d="M491.868,412.15s-2.06,2.061-1.535,2.442Z" transform="translate(-391.965 -327.556)" opacity="0.1"/>
    <path id="Path_1225" data-name="Path 1225" d="M500.061,419.4s-2.683,2.06-1.964,2.2S500.061,419.4,500.061,419.4Z" transform="translate(-397.956 -333.177)" opacity="0.1"/>
    <path id="Path_1226" data-name="Path 1226" d="M487,433c.384.193,6.082,3.6,8.24,3.546Z" transform="translate(-389.446 -343.721)" opacity="0.1"/>
    <path id="Path_1227" data-name="Path 1227" d="M458.157,314.867s-1.007,3.305-1.391,3.305c-.3,0-5.357-4.094-7.467-5.815l.092-.076a4.522,4.522,0,0,1,.957-2.247C451.116,309.272,458.157,314.867,458.157,314.867Z" transform="translate(-360.217 -248.33)" opacity="0.1"/>
    <path id="Path_1228" data-name="Path 1228" d="M457.3,313.157s-1,3.305-1.389,3.305c-.3,0-5.359-4.094-7.469-5.815l.092-.076a4.535,4.535,0,0,1,.959-2.247C450.258,307.562,457.3,313.157,457.3,313.157Z" transform="translate(-359.551 -247.004)" fill="#dce6f2"/>
    <g id="Group_1461" data-name="Group 1461" transform="translate(84.182 44.383)" opacity="0.15">
      <path id="Path_1229" data-name="Path 1229" d="M427.49,282.54h0c.674,1.539,2.53,2.285,3.606,3.512C430.456,284.544,428.584,283.805,427.49,282.54Z" transform="translate(-427.49 -271.451)"/>
      <path id="Path_1230" data-name="Path 1230" d="M447.872,293.839a1.615,1.615,0,0,1-1.474.753,4.3,4.3,0,0,1-1.479-.378,2.872,2.872,0,0,1,.382.813,4.7,4.7,0,0,0,1.672.449,1.6,1.6,0,0,0,1.474-.753c.429-.82-.018-1.521-.542-2.184A1.427,1.427,0,0,1,447.872,293.839Z" transform="translate(-441.004 -279.204)"/>
      <path id="Path_1231" data-name="Path 1231" d="M461.024,236.563a7.712,7.712,0,0,0-.593-1.177,7.344,7.344,0,0,1-.245-.962,2.98,2.98,0,0,0-.69-1.234,2.869,2.869,0,0,1,.115.339,7.75,7.75,0,0,0,.252.966,7.7,7.7,0,0,1,.593,1.177,1.22,1.22,0,0,1-.9,1.407c-.831.182-1.78-.537-2.494-.074a1.794,1.794,0,0,0-.6,1.384q-.151,1.348-.306,2.681a3.212,3.212,0,0,1-.2.921,2.315,2.315,0,0,1-2.2,1.175,1.323,1.323,0,0,1-.948-.315,6.3,6.3,0,0,0-.411-.521c-1.123-.944-1.465,1.364-1.168,2.022a4.068,4.068,0,0,0,.548.825c-.247-.741.1-2.876,1.2-1.962a5.8,5.8,0,0,1,.409.521,1.333,1.333,0,0,0,.951.315,2.315,2.315,0,0,0,2.2-1.175,3.21,3.21,0,0,0,.2-.924q.153-1.348.306-2.678a1.8,1.8,0,0,1,.6-1.384c.717-.463,1.665.256,2.5.072A1.218,1.218,0,0,0,461.024,236.563Z" transform="translate(-445.816 -233.19)"/>
    </g>
    <path id="Path_1232" data-name="Path 1232" d="M669.367,257.336a1.737,1.737,0,0,1-.721-.018,4.044,4.044,0,0,1-2.31-1.38,1.447,1.447,0,0,1-.384-1.407c.157-.38.571-.618.674-1.013a1.506,1.506,0,0,0-.038-.726l-.243-1.108c-.07-.315-.191-.685-.5-.759s-.573.182-.818.375a2.56,2.56,0,0,1-2.472.407c-.719-.391-.519-1.69-.636-2.393a.42.42,0,0,0-.157-.315.64.64,0,0,0-.328-.025.94.94,0,0,1-.813-.721,6.362,6.362,0,0,1-.128-1.157,1.3,1.3,0,0,0-.519-1,1.616,1.616,0,0,0-.847-.146l-1.667.018c-.411,0-.9-.027-1.123-.369a1.119,1.119,0,0,1,.177-1.175,2.325,2.325,0,0,0,.555-1.123,2.115,2.115,0,0,0-.485-1.159,2.077,2.077,0,0,1-.283-.643l-.479-.029a1.293,1.293,0,0,0,.225,1.2,2.146,2.146,0,0,1,.485,1.157,2.385,2.385,0,0,1-.555,1.123,1.1,1.1,0,0,0-.175,1.175,1.256,1.256,0,0,0,1.123.371l1.667-.02a1.612,1.612,0,0,1,.847.148,1.29,1.29,0,0,1,.519,1,6.2,6.2,0,0,0,.13,1.157.93.93,0,0,0,.813.719.658.658,0,0,1,.326.025.422.422,0,0,1,.157.317c.117.7-.1,2,.636,2.393a2.55,2.55,0,0,0,2.472-.407c.245-.193.517-.449.82-.377s.434.449.5.759l.245,1.11a1.5,1.5,0,0,1,.036.726c-.112.393-.528.634-.685,1.011a1.45,1.45,0,0,0,.384,1.407,4.044,4.044,0,0,0,2.326,1.38,1.736,1.736,0,0,0,.721.018,1.7,1.7,0,0,0,.935-.71A1.248,1.248,0,0,1,669.367,257.336Z" transform="translate(-520.23 -195.227)" opacity="0.1"/>
    <ellipse id="Ellipse_99" data-name="Ellipse 99" cx="5.431" cy="0.834" rx="5.431" ry="0.834" transform="translate(40.623 159.675)" fill="#4444c8" opacity="0.1"/>
    <ellipse id="Ellipse_100" data-name="Ellipse 100" cx="5.431" cy="0.834" rx="5.431" ry="0.834" transform="translate(230.247 138.001)" fill="#4444c8" opacity="0.1"/>
    <ellipse id="Ellipse_101" data-name="Ellipse 101" cx="15.729" cy="2.413" rx="15.729" ry="2.413" transform="translate(164.582 170.014)" fill="#4444c8" opacity="0.1"/>
    <ellipse id="Ellipse_102" data-name="Ellipse 102" cx="12.268" cy="1.883" rx="12.268" ry="1.883" transform="translate(212.754 160.32)" fill="#4444c8" opacity="0.1"/>
    <ellipse id="Ellipse_103" data-name="Ellipse 103" cx="20.804" cy="3.193" rx="20.804" ry="3.193" transform="translate(202.198 177.772)" fill="#4444c8" opacity="0.1"/>
    <ellipse id="Ellipse_104" data-name="Ellipse 104" cx="15.729" cy="2.413" rx="15.729" ry="2.413" transform="translate(7.08 181.361)" fill="#4444c8" opacity="0.1"/>
    <path id="Path_1233" data-name="Path 1233" d="M253.048,631.85s.616.8-.283,2.022-1.64,2.247-1.348,3c0,0,1.348-2.247,2.472-2.288S254.264,633.207,253.048,631.85Z" transform="translate(-206.747 -497.891)" fill="#4444c8"/>
    <path id="Path_1234" data-name="Path 1234" d="M253.186,631.85a.9.9,0,0,1,.126.252c1.079,1.267,1.652,2.447.616,2.472-.964.027-2.121,1.753-2.4,2.189a.855.855,0,0,0,.031.1s1.348-2.247,2.472-2.287S254.4,633.207,253.186,631.85Z" transform="translate(-206.885 -497.891)" opacity="0.1"/>
    <path id="Path_1235" data-name="Path 1235" d="M263.5,635.782c0,.283-.034.512-.072.512s-.072-.225-.072-.512.04-.148.079-.148S263.5,635.5,263.5,635.782Z" transform="translate(-216.057 -500.798)" fill="#ffd037"/>
    <path id="Path_1236" data-name="Path 1236" d="M264.069,637.245c-.247.135-.465.225-.483.182s.166-.171.416-.308.151-.036.169,0S264.318,637.108,264.069,637.245Z" transform="translate(-216.231 -501.922)" fill="#ffd037"/>
    <path id="Path_1237" data-name="Path 1237" d="M239.675,631.85s-.616.8.283,2.022,1.643,2.247,1.348,3c0,0-1.348-2.247-2.46-2.288S238.453,633.207,239.675,631.85Z" transform="translate(-196.623 -497.891)" fill="#4444c8"/>
    <path id="Path_1238" data-name="Path 1238" d="M239.658,631.85a1,1,0,0,0-.126.252c-1.078,1.267-1.651,2.447-.616,2.472.964.027,2.121,1.753,2.4,2.189a.862.862,0,0,1-.034.1s-1.348-2.247-2.46-2.287S238.436,633.207,239.658,631.85Z" transform="translate(-196.607 -497.891)" opacity="0.1"/>
    <path id="Path_1239" data-name="Path 1239" d="M239.35,635.782c0,.283.031.512.07.512s.072-.225.072-.512-.04-.148-.079-.148S239.35,635.5,239.35,635.782Z" transform="translate(-197.442 -500.798)" fill="#ffd037"/>
    <path id="Path_1240" data-name="Path 1240" d="M237.079,637.245c.249.135.465.225.485.182s-.169-.171-.418-.308-.151-.036-.169,0S236.829,637.108,237.079,637.245Z" transform="translate(-195.564 -501.922)" fill="#ffd037"/>
    <ellipse id="Ellipse_105" data-name="Ellipse 105" cx="6.433" cy="0.986" rx="6.433" ry="0.986" transform="translate(38.243 143.158)" fill="#4444c8" opacity="0.1"/>
    <path id="Path_1241" data-name="Path 1241" d="M243.549,648.055l-.031.252-.043.355-.018.148-.043.355-.02.148-.043.355-.492,4.044c-.043.36-.631.641-1.348.641h-2.548c-.71,0-1.3-.281-1.348-.641l-.492-4.044-.043-.355-.018-.148-.045-.355-.018-.148-.043-.355-.031-.252c-.025-.2.294-.375.7-.375h5.233C243.255,647.68,243.574,647.851,243.549,648.055Z" transform="translate(-195.561 -510.164)" fill="#65617d"/>
    <path id="Path_1242" data-name="Path 1242" d="M189.521,614.76l-.043.355H183l-.043-.355Z" transform="translate(-141.564 -476.617)" fill="#9d9cb5"/>
    <path id="Path_1243" data-name="Path 1243" d="M189.67,617l-.043.355h-6.352L183.23,617Z" transform="translate(-141.774 -478.354)" fill="#9d9cb5"/>
    <path id="Path_1244" data-name="Path 1244" d="M189.826,619.24l-.045.355h-6.229l-.043-.355Z" transform="translate(-141.991 -480.09)" fill="#9d9cb5"/>
    <path id="Path_1245" data-name="Path 1245" d="M1082.415,618s-.769,3.577,2.649,4l.211-.4S1082.626,619.11,1082.415,618Z" transform="translate(-851.018 -487.153)" fill="#4444c8"/>
    <path id="Path_1246" data-name="Path 1246" d="M1090,615.347l-.8.169-.079.018a7.179,7.179,0,0,1-2.094-5.563,9.483,9.483,0,0,0,1.013,1.6A9.582,9.582,0,0,1,1090,615.347Z" transform="translate(-854.652 -480.927)" fill="#4444c8"/>
    <path id="Path_1247" data-name="Path 1247" d="M1094.915,611.149a.5.5,0,0,1-.427.056c-2.04-.476-1.348-7.125-1.348-7.125.113.052.225.9.705,1.991C1094.666,607.987,1095.571,610.668,1094.915,611.149Z" transform="translate(-859.303 -476.361)" fill="#4444c8"/>
    <path id="Path_1248" data-name="Path 1248" d="M1109.5,618s.133,3.577-3.285,4l-.214-.4S1109.287,619.11,1109.5,618Z" transform="translate(-869.361 -487.153)" fill="#4444c8"/>
    <path id="Path_1249" data-name="Path 1249" d="M1104.782,610a6.616,6.616,0,0,1-2.728,5.563l-.081-.018-.793-.169a9.691,9.691,0,0,1,1.953-3.775A8.643,8.643,0,0,1,1104.782,610Z" transform="translate(-865.624 -480.95)" fill="#4444c8"/>
    <path id="Path_1250" data-name="Path 1250" d="M1100.286,610.811a1.24,1.24,0,0,1-.449.348h0a.875.875,0,0,1-.168.056c-.5.117-.674-.245-.648-.861a15.959,15.959,0,0,1,1.349-4.415,5.524,5.524,0,0,1,1.281-1.849S1101.618,609.265,1100.286,610.811Z" transform="translate(-863.947 -476.368)" fill="#4444c8"/>
    <path id="Path_1251" data-name="Path 1251" d="M1098.278,593.7s-2.279,8.089-.317,9.3S1098.781,594.414,1098.278,593.7Z" transform="translate(-862.511 -468.313)" fill="#4444c8"/>
    <path id="Path_1252" data-name="Path 1252" d="M1082.415,618s-.769,3.577,2.649,4l.211-.4S1082.626,619.11,1082.415,618Z" transform="translate(-851.018 -487.153)" opacity="0.1"/>
    <path id="Path_1253" data-name="Path 1253" d="M1090,615.347l-.8.169-.079.018a7.179,7.179,0,0,1-2.094-5.563,9.483,9.483,0,0,0,1.013,1.6A9.582,9.582,0,0,1,1090,615.347Z" transform="translate(-854.652 -480.927)" opacity="0.1"/>
    <path id="Path_1254" data-name="Path 1254" d="M1094.915,611.149a.5.5,0,0,1-.427.056c-2.04-.476-1.348-7.125-1.348-7.125.113.052.225.9.705,1.991C1094.666,607.987,1095.571,610.668,1094.915,611.149Z" transform="translate(-859.303 -476.361)" opacity="0.1"/>
    <path id="Path_1255" data-name="Path 1255" d="M1109.5,618s.133,3.577-3.285,4l-.214-.4S1109.287,619.11,1109.5,618Z" transform="translate(-869.361 -487.153)" opacity="0.1"/>
    <path id="Path_1256" data-name="Path 1256" d="M1104.782,610a6.616,6.616,0,0,1-2.728,5.563l-.081-.018-.793-.169a9.691,9.691,0,0,1,1.953-3.775A8.643,8.643,0,0,1,1104.782,610Z" transform="translate(-865.624 -480.95)" opacity="0.1"/>
    <path id="Path_1257" data-name="Path 1257" d="M1100.286,610.811a1.24,1.24,0,0,1-.449.348h0a.875.875,0,0,1-.168.056c-.5.117-.674-.245-.648-.861a15.959,15.959,0,0,1,1.349-4.415,5.524,5.524,0,0,1,1.281-1.849S1101.618,609.265,1100.286,610.811Z" transform="translate(-863.947 -476.368)" opacity="0.1"/>
    <path id="Path_1258" data-name="Path 1258" d="M1098.278,593.7s-2.279,8.089-.317,9.3S1098.781,594.414,1098.278,593.7Z" transform="translate(-862.511 -468.313)" opacity="0.1"/>
    <path id="Path_1259" data-name="Path 1259" d="M1082.6,618s-.449,3.577,2.966,4l.211-.4S1082.814,619.11,1082.6,618Z" transform="translate(-851.206 -487.153)" fill="#4444c8"/>
    <path id="Path_1260" data-name="Path 1260" d="M1090.291,615.37l-.8.168-.078.018A6.832,6.832,0,0,1,1087,610s.625.674,1.33,1.6A9.443,9.443,0,0,1,1090.291,615.37Z" transform="translate(-854.629 -480.95)" fill="#4444c8"/>
    <path id="Path_1261" data-name="Path 1261" d="M1094.9,620.875l-.8.169c-.753-.661-1.052-2.386-1.159-3.943A9.582,9.582,0,0,1,1094.9,620.875Z" transform="translate(-859.243 -486.455)" opacity="0.1"/>
    <path id="Path_1262" data-name="Path 1262" d="M1095.524,611.149a.5.5,0,0,1-.429.056c-2.041-.476-1.667-7.125-1.667-7.125a9.219,9.219,0,0,1,1.022,1.991C1095.274,607.987,1096.178,610.668,1095.524,611.149Z" transform="translate(-859.593 -476.361)" fill="#4444c8"/>
    <path id="Path_1263" data-name="Path 1263" d="M1110.607,618s.45,3.577-2.966,4l-.211-.4S1110.4,619.11,1110.607,618Z" transform="translate(-870.47 -487.153)" fill="#4444c8"/>
    <path id="Path_1264" data-name="Path 1264" d="M1105.875,610a6.823,6.823,0,0,1-2.411,5.563l-.079-.018-.8-.169a9.673,9.673,0,0,1,1.955-3.775C1105.25,610.674,1105.875,610,1105.875,610Z" transform="translate(-866.717 -480.95)" fill="#4444c8"/>
    <path id="Path_1265" data-name="Path 1265" d="M1104.545,617.1a7.346,7.346,0,0,1-1.013,3.8,1.13,1.13,0,0,1-.146.148l-.8-.168A9.554,9.554,0,0,1,1104.545,617.1Z" transform="translate(-866.717 -486.455)" opacity="0.1"/>
    <path id="Path_1266" data-name="Path 1266" d="M1101.7,610.811a1.22,1.22,0,0,1-.45.348h0a.9.9,0,0,1-.166.056c-.5.117-.674-.245-.65-.861a16.1,16.1,0,0,1,1.349-4.415,8.672,8.672,0,0,1,.964-1.849S1103.029,609.265,1101.7,610.811Z" transform="translate(-865.042 -476.368)" fill="#4444c8"/>
    <path id="Path_1267" data-name="Path 1267" d="M1098.727,618.018a.54.54,0,0,1-.324-.1c-.959-.6-.98-2.84-.75-4.975C1098.478,614.856,1099.381,617.537,1098.727,618.018Z" transform="translate(-862.796 -483.23)" opacity="0.1"/>
    <path id="Path_1268" data-name="Path 1268" d="M1101.7,617.191c-.11.24-.258.366-.45.348h0a.6.6,0,0,1-.272-.1,1.452,1.452,0,0,1-.544-.7,16.081,16.081,0,0,1,1.348-4.415C1102.008,614.291,1102.083,616.38,1101.7,617.191Z" transform="translate(-865.05 -482.749)" opacity="0.1"/>
    <path id="Path_1269" data-name="Path 1269" d="M1099.115,593.7s-1.96,8.089,0,9.3S1099.619,594.414,1099.115,593.7Z" transform="translate(-863.348 -468.313)" fill="#4444c8"/>
    <path id="Path_1270" data-name="Path 1270" d="M1036.6,597.61h-8.159v1.35h1.245l.031.16.5,2.622h4.743l.5-2.622.029-.16h1.112Z" transform="translate(-797.07 -463.32)" fill="#4b4770"/>
    <path id="Path_1271" data-name="Path 1271" d="M1036.6,597.61h-8.159v1.35h1.245l.031.16.5,2.622h4.743l.5-2.622.029-.16h1.112Z" transform="translate(-797.07 -463.32)" opacity="0.1"/>
    <path id="Path_1272" data-name="Path 1272" d="M1040.935,601.14l-.137.717-.5,2.622h-4.743l-.5-2.622-.137-.717Z" transform="translate(-802.094 -466.057)" fill="#4b4770"/>
    <path id="Path_1273" data-name="Path 1273" d="M1040.935,601.14l-.137.717h-5.741l-.137-.717Z" transform="translate(-802.094 -466.057)" opacity="0.1"/>
    <rect id="Rectangle_1200" data-name="Rectangle 1200" width="8.159" height="1.35" transform="translate(231.687 134.289)" fill="#4b4770"/>
    <path id="Path_1274" data-name="Path 1274" d="M145.122,730.391a3.919,3.919,0,0,0-.512.966c-.031.083-.063.18-.094.272a.979.979,0,0,0-.177-.063,2.469,2.469,0,0,0-.8-.068c0-.105.014-.225.016-.33.034-1.184-.106-2.834-1.236-2.135-1.083.674-.31,1.8.389,2.517.061.063.121.121.18.177-.638.45-.759,1.512-.865,2.615a6.1,6.1,0,0,1-1.665,3c-.063.07-.119.133-.175.191a2.282,2.282,0,0,0-1.809-.465c-.025-.1-.054-.2-.083-.3-.5-1.818-1.548-4.966-2.881-5.656l.175-.225c.566-.739,1.2-1.84.263-2.121s-1.027.953-.975,1.878q.013.175.027.33a1.378,1.378,0,0,0-.984.481l-.146-.173c-.764-.9-2.164-2.33-2.588-1.249-.4,1.007.838,2.314,1.705,3.072l.054.047c-.582,2.361,1.959,4.287,3.328,5.13l.178.108c-1.887,2.224-3.054,6.395-3.054,6.395l5.285.944s3.505-3.024,3.056-5.864h.036c3.5-.7,4.3-4.436,3.752-6.653l.063-.025a3.966,3.966,0,0,0,1.622-1.227A1.3,1.3,0,0,0,145.122,730.391Z" transform="translate(-113.516 -572.994)" fill="#4444c8"/>
    <path id="Path_1275" data-name="Path 1275" d="M145.122,730.391a3.919,3.919,0,0,0-.512.966c-.031.083-.063.18-.094.272a.979.979,0,0,0-.177-.063,2.469,2.469,0,0,0-.8-.068c0-.105.014-.225.016-.33.034-1.184-.106-2.834-1.236-2.135-1.083.674-.31,1.8.389,2.517.061.063.121.121.18.177-.638.45-.759,1.512-.865,2.615a6.1,6.1,0,0,1-1.665,3c-.063.07-.119.133-.175.191a2.282,2.282,0,0,0-1.809-.465c-.025-.1-.054-.2-.083-.3-.5-1.818-1.548-4.966-2.881-5.656l.175-.225c.566-.739,1.2-1.84.263-2.121s-1.027.953-.975,1.878q.013.175.027.33a1.378,1.378,0,0,0-.984.481l-.146-.173c-.764-.9-2.164-2.33-2.588-1.249-.4,1.007.838,2.314,1.705,3.072l.054.047c-.582,2.361,1.959,4.287,3.328,5.13l.178.108c-1.887,2.224-3.054,6.395-3.054,6.395l5.285.944s3.505-3.024,3.056-5.864h.036c3.5-.7,4.3-4.436,3.752-6.653l.063-.025a3.966,3.966,0,0,0,1.622-1.227A1.3,1.3,0,0,0,145.122,730.391Z" transform="translate(-113.516 -572.994)" opacity="0.1"/>
    <path id="Path_1276" data-name="Path 1276" d="M135.718,735.11l-.618,1.8s-.344-.243-.777-.625c-.867-.757-2.1-2.065-1.705-3.072.425-1.081,1.825.346,2.588,1.249C135.514,734.82,135.718,735.11,135.718,735.11Z" transform="translate(-114.633 -576.176)" fill="#4444c8"/>
    <path id="Path_1277" data-name="Path 1277" d="M149.984,730.895a8.537,8.537,0,0,1-.6.71,9.491,9.491,0,0,1-.11-.953c-.052-.926.047-2.155.975-1.878S150.55,730.155,149.984,730.895Z" transform="translate(-127.595 -573.005)" fill="#4444c8"/>
    <path id="Path_1278" data-name="Path 1278" d="M181.879,731.676c-.018.6-.076,1.072-.076,1.072a7.82,7.82,0,0,1-.771-.69c-.7-.726-1.472-1.845-.389-2.517C181.762,728.841,181.9,730.492,181.879,731.676Z" transform="translate(-151.509 -573.502)" fill="#4444c8"/>
    <path id="Path_1279" data-name="Path 1279" d="M194.214,735.946a3.966,3.966,0,0,1-1.622,1.227,4.849,4.849,0,0,1-.544.2l-.728-1.022a7.228,7.228,0,0,1,.3-.993,3.915,3.915,0,0,1,.512-.966A1.3,1.3,0,0,1,194.214,735.946Z" transform="translate(-160.204 -576.992)" fill="#4444c8"/>
    <path id="Path_1280" data-name="Path 1280" d="M141.353,740.11c.308.36.512.638.512.638l-.618,1.8s-.344-.243-.777-.625a3.528,3.528,0,0,1,.7-1.589C141.227,740.258,141.292,740.182,141.353,740.11Z" transform="translate(-120.78 -581.825)" opacity="0.1"/>
    <path id="Path_1281" data-name="Path 1281" d="M150.022,737.513a8.569,8.569,0,0,1-.6.71,9.486,9.486,0,0,1-.11-.953A1.243,1.243,0,0,1,150.022,737.513Z" transform="translate(-127.633 -579.624)" opacity="0.1"/>
    <path id="Path_1282" data-name="Path 1282" d="M146.081,745.812l-1.537.674s-.335-.162-.818-.463c-1.616-.993-4.862-3.494-2.7-6.442s3.993,2.339,4.719,4.925C145.966,745.293,146.081,745.812,146.081,745.812Z" transform="translate(-120.654 -580.742)" fill="#4444c8"/>
    <path id="Path_1283" data-name="Path 1283" d="M184.18,740a1.263,1.263,0,0,1,.847-.382c-.018.6-.076,1.072-.076,1.072a7.835,7.835,0,0,1-.771-.69Z" transform="translate(-154.668 -581.446)" opacity="0.1"/>
    <path id="Path_1284" data-name="Path 1284" d="M192.612,742.278a4.856,4.856,0,0,1-.544.2l-.728-1.022a7.229,7.229,0,0,1,.3-.993A2.652,2.652,0,0,1,192.612,742.278Z" transform="translate(-160.22 -582.097)" opacity="0.1"/>
    <path id="Path_1285" data-name="Path 1285" d="M169.338,749.4c-.083.018-.171.034-.258.047-5.152.782-1.7-2-1.7-2s.225-.225.546-.564a6.086,6.086,0,0,0,1.665-3c.162-1.669.348-3.236,2.319-2.777C173.845,741.565,174.216,748.42,169.338,749.4Z" transform="translate(-140.765 -582.539)" fill="#4444c8"/>
    <rect id="Rectangle_1201" data-name="Rectangle 1201" width="9.844" height="2.588" transform="translate(18.632 179.687)" fill="#d4dfec"/>
    <rect id="Rectangle_1202" data-name="Rectangle 1202" width="12.861" height="9.033" transform="translate(17.068 171.274)" fill="#d4dfec"/>
    <rect id="Rectangle_1203" data-name="Rectangle 1203" width="9.844" height="2.588" transform="translate(18.632 179.687)" opacity="0.1"/>
    <rect id="Rectangle_1204" data-name="Rectangle 1204" width="12.861" height="9.033" transform="translate(17.068 171.274)" opacity="0.1"/>
    <rect id="Rectangle_1205" data-name="Rectangle 1205" width="9.844" height="2.588" transform="translate(19.279 179.687)" fill="#d4dfec"/>
    <path id="Path_1286" data-name="Path 1286" d="M157.542,764.51c.225.773.333,1.3.333,1.3l-1.537.674s-.335-.162-.818-.463A3.945,3.945,0,0,1,157.542,764.51Z" transform="translate(-132.448 -600.743)" opacity="0.1"/>
    <path id="Path_1287" data-name="Path 1287" d="M169.338,769.594c-.083.018-.171.034-.258.047-5.152.782-1.7-2-1.7-2s.225-.225.546-.564A3.411,3.411,0,0,1,169.338,769.594Z" transform="translate(-140.765 -602.736)" opacity="0.1"/>
    <path id="Path_1288" data-name="Path 1288" d="M142.72,773.431s2.885-10.336,6.932-7.148S148,774.372,148,774.372Z" transform="translate(-122.524 -601.644)" fill="#4444c8"/>
    <circle id="Ellipse_106" data-name="Ellipse 106" cx="0.324" cy="0.324" r="0.324" transform="translate(21.328 160.136)" opacity="0.1"/>
    <circle id="Ellipse_107" data-name="Ellipse 107" cx="0.324" cy="0.324" r="0.324" transform="translate(21.301 161.646)" opacity="0.1"/>
    <circle id="Ellipse_108" data-name="Ellipse 108" cx="0.324" cy="0.324" r="0.324" transform="translate(30.687 160.433)" opacity="0.1"/>
    <circle id="Ellipse_109" data-name="Ellipse 109" cx="0.324" cy="0.324" r="0.324" transform="translate(23.137 168.173)" opacity="0.1"/>
    <circle id="Ellipse_110" data-name="Ellipse 110" cx="0.324" cy="0.324" r="0.324" transform="translate(30.013 162.94)" opacity="0.1"/>
    <circle id="Ellipse_111" data-name="Ellipse 111" cx="0.324" cy="0.324" r="0.324" transform="translate(26.669 166.286)" opacity="0.1"/>
    <circle id="Ellipse_112" data-name="Ellipse 112" cx="0.324" cy="0.324" r="0.324" transform="translate(22.434 160.783)" opacity="0.1"/>
    <circle id="Ellipse_113" data-name="Ellipse 113" cx="0.324" cy="0.324" r="0.324" transform="translate(29.797 161.403)" opacity="0.1"/>
    <circle id="Ellipse_114" data-name="Ellipse 114" cx="0.324" cy="0.324" r="0.324" transform="translate(28.691 163.911)" opacity="0.1"/>
    <circle id="Ellipse_115" data-name="Ellipse 115" cx="0.324" cy="0.324" r="0.324" transform="translate(25.294 167.931)" opacity="0.1"/>
    <circle id="Ellipse_116" data-name="Ellipse 116" cx="0.324" cy="0.324" r="0.324" transform="translate(24.593 166.34)" opacity="0.1"/>
    <circle id="Ellipse_117" data-name="Ellipse 117" cx="0.324" cy="0.324" r="0.324" transform="translate(22.919 162.751)" opacity="0.1"/>
    <rect id="Rectangle_1206" data-name="Rectangle 1206" width="9.844" height="0.946" transform="translate(19.279 179.687)" opacity="0.1"/>
    <rect id="Rectangle_1207" data-name="Rectangle 1207" width="12.861" height="9.033" transform="translate(17.715 171.274)" fill="#d4dfec"/>
    <circle id="Ellipse_118" data-name="Ellipse 118" cx="0.324" cy="0.324" r="0.324" transform="translate(25.726 169.387)" opacity="0.1"/>
    <circle id="Ellipse_119" data-name="Ellipse 119" cx="0.324" cy="0.324" r="0.324" transform="translate(23.784 169.791)" opacity="0.1"/>
    <circle id="Ellipse_120" data-name="Ellipse 120" cx="2.35" cy="2.35" r="2.35" transform="translate(9.17 9.344)" fill="#4444c8" opacity="0.1"/>
    <circle id="Ellipse_121" data-name="Ellipse 121" cx="3.146" cy="3.146" r="3.146" transform="translate(234.096 82.493)" fill="#4444c8" opacity="0.1"/>
    <circle id="Ellipse_122" data-name="Ellipse 122" cx="2.296" cy="2.296" r="2.296" transform="translate(241.009 76.601)" fill="#4444c8" opacity="0.1"/>
    <ellipse id="Ellipse_123" data-name="Ellipse 123" cx="2.5" cy="3.5" rx="2.5" ry="3.5" transform="translate(13.725 -0.726)" fill="#4444c8" opacity="0.1"/>
    <ellipse id="Ellipse_124" data-name="Ellipse 124" cx="3.5" cy="3" rx="3.5" ry="3" transform="translate(-0.275 15.274)" fill="#4444c8" opacity="0.1"/>
  </g>
</svg>
