<svg xmlns="http://www.w3.org/2000/svg" xmlns:xlink="http://www.w3.org/1999/xlink" width="1080" height="830" viewBox="0 0 1080 830">
  <defs>
    <linearGradient id="linear-gradient" x1="0.5" y1="1" x2="0.5" gradientUnits="objectBoundingBox">
      <stop offset="0" stop-color="gray" stop-opacity="0.251"/>
      <stop offset="0.54" stop-color="gray" stop-opacity="0.122"/>
      <stop offset="1" stop-color="gray" stop-opacity="0.102"/>
    </linearGradient>
    <clipPath id="clip-custom_1">
      <rect width="1080" height="830"/>
    </clipPath>
  </defs>
  <g id="custom_1" data-name="custom – 1" clip-path="url(#clip-custom_1)">
    <g id="Group_1462" data-name="Group 1462" transform="translate(4.623 8.352)">
      <path id="Path_1125" data-name="Path 1125" d="M1114.126,270.607c-.187.874-.363,1.748-.57,2.613-6.444,29.714-16.974,58.348-32.631,84.643-.521.874-1.041,1.748-1.572,2.623a243.238,243.238,0,0,1-36.786,46.432c-7.8,7.7-16.306,15.019-26.423,20.294-14.174,7.406-30.745,10.412-47.032,12.868-16.915,2.564-34.066,4.705-51.167,7.014q-9.116,1.208-18.123,2.564c-16.522,2.446-32.926,5.275-48.937,9.027-19.793,4.627-38.977,10.687-57.1,19.214q-2.171.982-4.293,2.082c-1.414.707-2.839,1.424-4.234,2.151s-2.77,1.454-4.135,2.2c-.707.383-1.415.766-2.112,1.169s-1.385.756-2.063,1.149c-2.043,1.139-4.047,2.308-6.051,3.487l-.079.049c-1.326.776-2.632,1.572-3.929,2.367-7.406,4.5-14.656,9.194-21.9,13.919l-4.558,2.947-7.063,4.568c-1.375.894-2.78,1.788-4.165,2.672-.982.648-1.965,1.3-3.035,1.965-5.147,3.242-10.363,6.424-15.717,9.459-1.267.727-2.544,1.454-3.831,2.161a217.711,217.711,0,0,1-33.81,15.245l-.157.059a154.248,154.248,0,0,1-17.956,5.069c-3.507.766-7.023,1.395-10.579,1.876a113.422,113.422,0,0,1-28.683.4c-18.732-2.171-36.286-9.361-55.008-11.787-38.545-4.911-75.98,10.913-112.226,23.31q-13.369,4.568-26.934,8.556c-6.012,1.778-12.043,3.458-18.123,5.078a681.941,681.941,0,0,1-113.65,19.931,320.088,320.088,0,0,1-48.279,1.071,177.274,177.274,0,0,1-18.113-1.965c-20.333-3.143-39.291-9.734-54.6-21.807-12.534-9.911-21.5-22.828-28.329-36.344a158.6,158.6,0,0,1-14.646-43.751c-.373-2.073-.707-4.155-.982-6.238q-.737-5.344-1.1-10.746a153.813,153.813,0,0,1,6.758-56.825c6.483-20.549,17.288-40.274,22.042-60.98q.295-1.316.56-2.623a90.787,90.787,0,0,0,1.444-9.518c2.426-25.441-6.876-50.244-14.174-75.125-.255-.864-.511-1.739-.756-2.613q-1.179-4.145-2.259-8.281c-6.758-26.306-8.634-54.468-2.613-80.724.187-.874.413-1.748.629-2.613a118.188,118.188,0,0,1,22.219-45.509c11.277-14.145,26.08-25.922,41.894-36.266Q210.749,89.562,223.1,82.99q8.841-4.715,18.113-8.929C290.766,51.469,347.3,40.438,403.2,42.874c2.947.128,5.894.285,8.841.5s6.169.471,9.253.756c36.01,3.5,71.049,11.935,105.841,21.158,11.66,3.094,23.3,6.267,34.93,9.381,5.177,1.375,10.343,2.75,15.52,4.086,25.353,6.552,51.079,12.485,77.129,16.915q9.047,1.562,18.113,2.849a518.843,518.843,0,0,0,63.348,5.373q12.367.246,24.744-.216,6.247-.226,12.5-.678c43.073-3.035,84.7-13.192,126.4-22.681q9.047-2.063,18.123-4.067c7.937-1.748,15.874-3.438,23.85-5,49.635-9.754,93.877-4.145,140.025,15.982,10.491,4.568,20.972,10.088,27.4,18.663s8.035,19.105,9.234,29.272c1.7,14.479,2.809,29.144,3.232,43.888,0,.864,0,1.739.059,2.613C1122.407,211.454,1120.187,241.521,1114.126,270.607Z" transform="translate(-56.68 -35.117)" fill="#4444c8" opacity="0.1"/>
      <path id="Path_1126" data-name="Path 1126" d="M785.089,357.871h-3.241v2.623h3.674Zm-36.767,0a.172.172,0,0,0,0,.069c-.088.717-.187,1.434-.285,2.161v.393h28.093v-.157l1.965-2.466Zm-75.292,0V273.227h32.317c-.344-.226-.7-.462-1.061-.678l-.471-.3-.609-.373c-.354-.206-.707-.413-1.08-.609s-.6-.334-.913-.5l-.216-.118H673.03v-4.666l-.756.295-.8.373h-.059l-.167.088-.5.265-.5.265c-.491.265-.982.56-1.473.864l-.471.314-.982.629c-1.267.845-2.515,1.729-3.8,2.554-.324.206-.648.413-.982.6-.7.413-1.415.805-2.151,1.159a8.213,8.213,0,0,1-.982.422l-.531.206-.491.167h0a23,23,0,0,1-3.536.923v82.748H606.392c0,.1.069.177.1.275.265.786.53,1.562.786,2.348h47.641V451.2h.737l.854.049,1.542.088,2.466.295,1.13.108,1.228.128h.187l2.171.265.462.059,1.051.147,1.5.216h0l3.6-.157h0l.491.088a3.418,3.418,0,0,1,.609.1V360.493h74.988V360.1c.1-.727.2-1.444.285-2.161a.167.167,0,0,1,0-.069Zm112.059,0h-3.241v2.623h3.674Zm-38.79,0c-.118.874-.226,1.749-.344,2.623H777.28l2.132-2.623Zm-73.269,0V273.227h32.317c-.344-.226-.7-.462-1.061-.678l-.471-.3-.609-.373c-.354-.206-.707-.413-1.08-.609s-.6-.334-.913-.5l-.216-.118H673.03v-4.666l-.756.295-.8.373h-.059l-.167.088-.5.265-.5.265c-.491.265-.982.56-1.473.864l-.471.314-.982.629c-1.267.845-2.515,1.729-3.8,2.554-.324.206-.648.413-.982.6-.7.413-1.415.805-2.151,1.159a8.2,8.2,0,0,1-.982.422l-.531.206-.491.167h0a23,23,0,0,1-3.536.923v82.748H606.392c0,.1.069.177.1.275.265.776.54,1.562.8,2.348h47.631v90.714h.737l.854.049,1.542.088,2.466.3,1.13.108,1.228.128h.187l2.171.265.462.059,1.051.147,1.5.216h0l3.6-.157h0l.491.088a3.418,3.418,0,0,1,.609.1V360.493h73.023c.118-.874.226-1.748.344-2.623ZM918.149,181.61h203.794c0-.874,0-1.748-.059-2.613H918.149V76.23q-9.076,1.965-18.123,4.067V179H678.384l-.56-.5.845-.747h0l82.443-74.084q-12.377.472-24.744.216L673.02,160.8V98.528q-9.076-1.287-18.113-2.849v62.247L562.288,74.678c-11.63-3.114-23.27-6.287-34.93-9.381L653.316,178.5l-.56.5H421.526V44.227q-4.627-.432-9.253-.756c-2.947-.216-5.894-.373-8.84-.5V179H241.415V74.158q-9.175,4.2-18.113,8.929V179H135.279c-.216.864-.442,1.739-.629,2.613H223.3v89H139.522c.246.874.5,1.748.756,2.613H223.3v84.643H153.009q-.265,1.306-.56,2.623H223.3V597.155c5.894.914,11.994,1.552,18.113,1.965V360.493H403.4V578.1c6.08-1.621,12.112-3.3,18.123-5.078V360.493H654.917V550.614a154.224,154.224,0,0,0,17.956-5.068l.157-.059V360.493h227v89.172q9.037-1.326,18.123-2.544V360.493h161.409c.531-.874,1.051-1.748,1.572-2.623H918.149V273.227h195.612c.206-.864.383-1.739.57-2.613H918.149Zm-676.735,0H403.4v89H241.415Zm0,176.261V273.227H403.4v84.643ZM421.526,181.61H654.917v89H421.526Zm0,176.261V273.227H654.917v84.643Zm478.5,0h-227V273.227h227Zm0-87.256h-227V184l3.183-2.387H900.026Zm-151.7,87.256a.172.172,0,0,0,0,.069c-.088.717-.187,1.434-.285,2.161v.393h28.093v-.157l1.965-2.466Zm36.767,0h-3.241v2.623h3.674Zm-112.059,0V273.227h32.317c-.344-.226-.7-.462-1.061-.678l-.471-.3-.609-.373c-.354-.206-.707-.413-1.08-.609s-.6-.334-.913-.5l-.216-.118H673.03v-4.666l-.756.295-.8.373h-.059l-.167.088-.5.265-.5.265c-.491.265-.982.56-1.473.864l-.471.314-.982.629c-1.267.845-2.515,1.729-3.8,2.554-.324.206-.648.413-.982.6-.7.413-1.415.805-2.151,1.159a8.213,8.213,0,0,1-.982.422l-.531.206-.491.167h0a23,23,0,0,1-3.536.923v82.748H606.392c0,.1.069.177.1.275.265.786.53,1.562.786,2.348h47.641V451.2h.737l.854.049,1.542.088,2.466.295,1.13.108,1.228.128h.187l2.171.265.462.059,1.051.147,1.5.216h0l3.6-.157h0l.491.088a3.418,3.418,0,0,1,.609.1V360.493h74.988V360.1c.1-.727.2-1.444.285-2.161a.167.167,0,0,1,0-.069Z" transform="translate(-56.885 -35.125)" fill="#4444c8" opacity="0.1"/>
      <path id="Path_1127" data-name="Path 1127" d="M322.522,121.63h1.4a2.849,2.849,0,0,1-1.719-2.289h0c0-1.807,2.7-3.281,6-3.281h42c3.3,0,5.992,1.473,5.992,3.281h0c0,1.8-2.691,3.281-5.992,3.281h-1.4a2.82,2.82,0,0,1,1.719,2.279c0,1.542-1.965,2.839-4.587,3.183h12.092c3.291,0,5.992,1.473,5.992,3.281s-2.7,3.281-5.992,3.281H336.019c-3.291,0-5.992-1.483-5.992-3.281,0-1.542,1.964-2.829,4.587-3.183H322.522c-3.3,0-5.992-1.473-5.992-3.281S319.221,121.63,322.522,121.63Z" transform="translate(-60.107 -36.42)" fill="#4444c8" opacity="0.1"/>
      <path id="Path_1128" data-name="Path 1128" d="M785.962,153.4h1.4a2.849,2.849,0,0,1-1.709-2.289h0c0-1.807,2.691-3.281,5.992-3.281h42c3.3,0,6,1.473,6,3.281h0c0,1.8-2.7,3.271-6,3.271h-1.395a2.849,2.849,0,0,1,1.709,2.289c0,1.542-1.965,2.839-4.587,3.183h12.092c3.3,0,5.992,1.473,5.992,3.281s-2.691,3.281-5.992,3.281h-42c-3.3,0-6-1.483-6-3.281,0-1.542,1.965-2.839,4.587-3.183H785.962c-3.291,0-5.992-1.473-5.992-3.281S782.672,153.4,785.962,153.4Z" transform="translate(-68.318 -36.982)" fill="#4444c8" opacity="0.1"/>
      <path id="Path_1129" data-name="Path 1129" d="M256.892,289.36h1.395a2.839,2.839,0,0,1-1.709-2.289h0c0-1.8,2.7-3.281,5.992-3.281h42.012c3.291,0,5.992,1.483,5.992,3.281h0c0,1.807-2.7,3.281-5.992,3.281h-1.4a2.809,2.809,0,0,1,1.709,2.279c0,1.542-1.965,2.839-4.587,3.182h12.092c3.3,0,6,1.483,6,3.281s-2.7,3.281-6,3.281H270.428c-3.3,0-5.992-1.473-5.992-3.281,0-1.532,1.965-2.829,4.587-3.183H256.892c-3.3,0-6-1.473-6-3.281S253.631,289.36,256.892,289.36Z" transform="translate(-58.944 -39.391)" fill="#4444c8" opacity="0.1"/>
      <ellipse id="Ellipse_97" data-name="Ellipse 97" cx="63.809" cy="209.983" rx="63.809" ry="209.983" transform="translate(564.595 578.439) rotate(-78.45)" fill="#4444c8" opacity="0.1"/>
      <path id="Path_1130" data-name="Path 1130" d="M828.56,419.687s11.168-54.821,53.81-49.743c0,0,29.468,2.023,35.529,21.316V433.9Z" transform="translate(-69.179 -40.912)" fill="#3a3768"/>
      <path id="Path_1131" data-name="Path 1131" d="M1004.453,404.992,624.731,373.51,576,383.667l3.045,68.023,3.32.4,3.782,102.148,372.609,67,39.606-33.506V477l5.068-2.976Z" transform="translate(-11.553 -5.903)" fill="#d48a9b"/>
      <path id="Path_1132" data-name="Path 1132" d="M1011.931,405.56l-1.022,69.035-41.118,19.292-.511-72.09Z" transform="translate(-18.52 -6.471)" opacity="0.05"/>
      <path id="Path_1133" data-name="Path 1133" d="M1005.275,478.94l.5,108.641-39.6,33.506,2.544-125.9Z" transform="translate(-18.466 -7.771)" opacity="0.05"/>
      <path id="Path_1134" data-name="Path 1134" d="M583,457.588l379.24,46.276.2-8.782L582.71,454.13Z" transform="translate(-11.672 -7.332)" opacity="0.05"/>
      <path id="Path_1135" data-name="Path 1135" d="M1005.3,482.928V478.94L967.73,495.521v8.8Z" transform="translate(-18.493 -7.771)" opacity="0.05"/>
      <path id="Path_1136" data-name="Path 1136" d="M575.48,383.667l48.731-10.157,379.721,31.482-42.641,16.237Z" transform="translate(-11.543 -5.903)" fill="#efc6cd"/>
      <path id="Path_1137" data-name="Path 1137" d="M969.976,407.55l18.634,1.218-30.883,9.243L942,416.882Z" transform="translate(-18.037 -6.506)" opacity="0.1"/>
      <path id="Path_1138" data-name="Path 1138" d="M969.976,406.72l18.634,1.218-30.883,9.253L942,416.052Z" transform="translate(-18.037 -6.492)" fill="#fff"/>
      <path id="Path_1139" data-name="Path 1139" d="M1022.32,444.558c.736-.314,1.512.285,2.3.432.452.089.914,0,1.366.089.913.118,1.817.727,2.691.422" transform="translate(-72.611 -42.238)" fill="#d3dae1"/>
      <path id="Path_1140" data-name="Path 1140" d="M1021.341,445.128c.727-.314,1.512.275,2.3.432.452.079.913,0,1.365.079.914.128,1.817.737,2.691.432" transform="translate(-72.594 -42.248)" fill="#d3dae1"/>
      <path id="Path_1141" data-name="Path 1141" d="M1019.08,446.268c.737-.314,1.523.275,2.309.422.442.088.913,0,1.356.088.923.128,1.827.737,2.691.422" transform="translate(-72.554 -42.268)" fill="#d3dae1"/>
      <path id="Path_1142" data-name="Path 1142" d="M887.976,398.21l18.634,1.228-30.883,9.243L860,407.542Z" transform="translate(-16.584 -6.341)" opacity="0.1"/>
      <path id="Path_1143" data-name="Path 1143" d="M887.976,397.39l18.634,1.218-30.883,9.243L860,406.722Z" transform="translate(-16.584 -6.326)" fill="#fff"/>
      <path id="Path_1144" data-name="Path 1144" d="M940.32,435.228c.737-.314,1.513.275,2.3.432.452.079.914,0,1.366.079.913.128,1.817.737,2.691.432" transform="translate(-71.159 -42.072)" fill="#d3dae1"/>
      <path id="Path_1145" data-name="Path 1145" d="M939.34,435.8c.727-.314,1.513.275,2.3.422.452.088.914,0,1.365.088.913.128,1.817.737,2.691.422" transform="translate(-71.141 -42.083)" fill="#d3dae1"/>
      <path id="Path_1146" data-name="Path 1146" d="M937.08,436.928c.737-.314,1.522.285,2.308.432.442.088.914,0,1.355.088.924.118,1.827.737,2.692.422" transform="translate(-71.101 -42.103)" fill="#d3dae1"/>
      <path id="Path_1147" data-name="Path 1147" d="M927.306,402.88,945.95,404.1l-30.883,9.253-15.736-1.14Z" transform="translate(-17.281 -6.424)" opacity="0.1"/>
      <path id="Path_1148" data-name="Path 1148" d="M927.306,402.06l18.644,1.218-30.883,9.243-15.736-1.139Z" transform="translate(-17.281 -6.409)" fill="#fff"/>
      <path id="Path_1149" data-name="Path 1149" d="M979.65,439.9c.737-.315,1.522.275,2.308.422.442.089.9,0,1.356.089.913.118,1.827.737,2.691.422" transform="translate(-71.855 -42.155)" fill="#d3dae1"/>
      <path id="Path_1150" data-name="Path 1150" d="M978.67,440.458c.737-.314,1.523.285,2.309.432.442.088.9,0,1.355.088.914.118,1.827.737,2.691.422" transform="translate(-71.838 -42.165)" fill="#d3dae1"/>
      <path id="Path_1151" data-name="Path 1151" d="M976.42,441.6c.727-.314,1.512.275,2.3.432.452.079.914,0,1.365.079.914.128,1.817.737,2.692.432" transform="translate(-71.798 -42.185)" fill="#d3dae1"/>
      <ellipse id="Ellipse_98" data-name="Ellipse 98" cx="198.893" cy="40.942" rx="198.893" ry="40.942" transform="translate(289.251 696.191)" fill="#4444c8" opacity="0.1"/>
      <path id="Path_1152" data-name="Path 1152" d="M767.313,440.228c-2.122-18.644-10.52-36.433-10.52-36.433l.638-6.286s.138-3.143-.069-7.859a35.763,35.763,0,0,1,1.149-8.723c1.719-5.452-2.151-12.151-2.583-12.77s.216-12.573-3.654-18.437-29.645-16.768-29.645-16.768-1.385-2.9-3.34-6.287l.177-.344a36.925,36.925,0,0,0-5.894-7.947c-1.581-1.689-3.1-2.652-4.332-2.181a35.313,35.313,0,0,1-1.139-4.98c.255.069.521.138.776.187a8.013,8.013,0,0,0,3.241.079c2.4-.54,3.988-2.691,5.324-4.715,6.66-10.118,12.4-21.218,13.565-33.191a21.1,21.1,0,0,0-.344-7.328,24.717,24.717,0,0,0-2.3-5.354,43.029,43.029,0,0,0-6.483-9.558c-4.587-4.833-10.913-7.79-17.416-9.538a60.3,60.3,0,0,0-22.494-1.68c-1.965.226-3.929.55-5.894.678a61.216,61.216,0,0,1-7.475-.128l-12.858-.747-.059-.2-2.141-.128c-.845,1.68,0,3.674,1.051,5.245s2.259,3.212,2.171,5.069-1.434,3.35-2.485,4.911-1.847,3.6-.8,5.137a2.945,2.945,0,0,0,.521.57c1.11,1.149,3.045,1.277,4.725,1.257h.295a31.992,31.992,0,0,0-6.513,19.371,32.572,32.572,0,0,0,17.77,28.859c.187.638.373,1.3.55,1.965a60.177,60.177,0,0,1,2.063,21.237l-.226.491-.137-.521s-15.147,10.275-19.646,13-9.017,11.945-9.234,14.459-7.308,40.441-7.308,40.441a92.942,92.942,0,0,0-3.556,11.709l-9.047,7.947s-18.663,1.68-24.066.422l.157,1.041a81.6,81.6,0,0,0-14.5-1.964,15.37,15.37,0,0,0-7.858,1.051l-.187.088-.147.069a31.135,31.135,0,0,0-8.251,2.318c-.314.128-.6.255-.874.383l.059-1.287-20.2-1.041-10.314-2.092s-3.654-2.947-5.805-2.515-6.66-2.515-6.66-2.515a18.008,18.008,0,0,0-3.32-2.063c-.344-2.377-.56-3.821-.56-3.821s-8.025-31.846-14.037-50.568c-4.027-12.5-9.823-18.663-13.241-21.345-1.522-2.652-2.524-4.361-2.524-4.361-.658-2.3-4.273-7.475-5.2-7.6-.147-.236-.255-.354-.314-.354a1.149,1.149,0,0,0-.58.088c-1.689-8.408-2.672-18.948-.088-28.133a31.049,31.049,0,0,0,11.335-23.928q0-.206,0-.413v-.422a30.913,30.913,0,0,0-7.3-19.94l-.334-.373a2.62,2.62,0,0,0,.255-.206,5.265,5.265,0,0,0,1.856-5.068c-.442-1.886-1.915-3.369-2.672-5.157a33.365,33.365,0,0,1-1.09-4.2,12.964,12.964,0,0,0-3.094-5.393l.147.393c-3.851-4.332-10.471-6.483-16.434-5.52-4.43.707-8.556,2.77-13.005,3.408-3.193.452-6.444.157-9.656.481a25.061,25.061,0,0,0-8.566,2.475,4.91,4.91,0,0,0-1.817,1.336,7.192,7.192,0,0,0-.9,2.525c-1.09,3.978-4.548,6.817-7.053,10.137a23.724,23.724,0,0,0-4.754,13.1,10.257,10.257,0,0,0,.344,3.585c.216.7.55,1.356.707,2.063.491,2.161-.638,4.312-1.188,6.453a12.563,12.563,0,0,0,.7,8.192c3.88,8.683,16.62,11.581,19.272,20.7a25.357,25.357,0,0,0,6.375,1.965c.177.9.334,1.817.462,2.741a.734.734,0,0,0-.167.1c-3.438,3.35-4.292,9.823-4.292,9.823l-.413.334c-1.4,1.159-6.208,5.049-10.55,8.045-5.157,3.566-13.752,15.51-19.764,19.076s-10.962,25.539-9.666,33.525,6.66,30.382,4.509,38.555,3.222,45.47,3.222,45.47a54.907,54.907,0,0,1,10.53,3.124l-.108,1.63-.324,4.911s-9.734,35.205-6.012,62.306-1.719,29.891-1.719,29.891,1.139,12.013-1.719,16.208-3.438,13.408-3.438,13.408-.285,20.677.285,26.522.855,16.493-1.149,19.007-5.727,18.988-5.442,24.016-7.161,16.493-3.153,31.3S387.67,707.8,387.67,707.8s2.014,22.592,6.306,29.056l.629.924c-.108.373-.216.766-.334,1.188-1.621,5.894-3.841,15.2-2.3,17.445,2.289,3.359,3.438,2.79,3.438,2.79l.855,15.088s17.19,14.528,30.372,13.978,10.6-13.978,10.6-13.978l-11.227-29.115-.383-.982L438.1,720.621s3.438-10.334,4.292-13.968,5.52-16.512,5.52-16.512,11.788-27.936,12.033-31.3,1.149-21.5,3.438-25.146,8.6-24.557,8.6-24.557l.157.138a8.281,8.281,0,0,1,2.141,8.241c-1.444,5.3-.58,16.2-.58,16.2s-.57,9.224-1.719,13.978-1.424,43.584.58,52.8c1.6,7.377,1.552,21.188,1.473,26.414-1.346,5.55-2.525,12.446-.334,13.261,3.733,1.4,22.642,1.12,22.642,1.12s8.016-2.8,18.909,6.984,44.4-2.79,44.4-2.79,10.314-2.8-10.029-10.893c-14.194-5.648-23.359-9.41-29.351-13.438.138-.265.285-.531.413-.815,0,0-8.31-7.859-1.434-21.787s6.591-25.706,6.591-25.706l1.149-46.943-3.438-62.316-2.662-65.4.471-.157c.452,12.023,2.8,40.647,15.088,35.1,15.471-6.984,2.289-25.146,2.289-25.146l-6.945-13.536,2.073-.707-7.77-25.107a56.63,56.63,0,0,1-.295-14.8,58.639,58.639,0,0,0-.177-8.644c10.177-1.778,19.921-3.664,21.669-3.232,2.063.5,13.6.6,18.143.619-1.483,1.159-2.672,2.308-2.672,2.308l18.477,12.436s6.267-3.428,7.573-7.063a8.152,8.152,0,0,0,3.458-1.847c.2,4.293,1.336,8.939,5.3,9.047a6.88,6.88,0,0,0,2.888-.57l30.215-5.982-2.593,16.2,1.807,3.212c-.914,13.664-1.965,28.172-2.888,40.932l-.422,2.79.216.049c-1.434,19.646-2.583,34.527-2.583,34.527a18.1,18.1,0,0,1,7.534-7.573l.2,29.154s1.513,46.1,1.513,52.385.206,20.323.206,20.323,3.232,17.18,5.157,22.838,3.438,31.433,3.438,31.433,4.518,7.122,2.583,9.823,7.524,8.585,7.524,8.585-6.021,8.173-6.454,13.624c-.049.629.57,1.3,1.69,1.965-.354.285-.717.57-1.12.844-2.79,1.867-6.876,3.163-13.025,2.633-16.768-1.474-28.584,14.037-18.271,17.18s41.256,3.772,41.256,3.772,9.371-5.845,16.7-3.212c-.108,6.149.2,11.787.246,12.534l-.088.069c-4.381,3.929-12.77,10.687-20.962,13.447-11.787,3.978-14.4,20.117.855,22.209s37.6-2.515,37.6-2.515,11.6-8.585,20.412-10.471,16.335-6.08,14.833-11.109c-.982-3.212-3.507-11.63-5.216-17.288q-.147-.511-.295-.982c.265-.589.53-1.2.776-1.827,0,0-4.509-23.467-.854-29.331s1.719-64.546,1.719-64.546-6.238-14.872-3.006-23.88-5.157-21.8-5.157-21.8.914-25.628,3.369-39.91q.167-.914.324-1.768a80.447,80.447,0,0,0,11.984-4.626s2.151-32.278,3.438-39.606c.128-.688.3-1.8.521-3.241l.982-5.177h0l1.159-5.894h0l3.929-20.088,7.092-9.175,18.27-18.663S769.464,458.881,767.313,440.228ZM485.555,324.976l-.137.1a1.681,1.681,0,0,1-.049-.216A.883.883,0,0,0,485.555,324.976Zm180.515,22.877-.707,1.542,2.583-2.574-3.507,3.929,1.179-2.475ZM648.624,383.9c-.678,1.8-1.4,3.742-2.161,5.766l1.385-4.135Z" transform="translate(-61.368 -38.369)" fill="url(#linear-gradient)"/>
      <path id="Path_1153" data-name="Path 1153" d="M595.933,446.469s-2.406,16.021,4.813,16.227,12.043-12.357,12.043-12.357l-2.947-10.049Z" transform="translate(-65.051 -42.164)" fill="#585b8a"/>
      <path id="Path_1154" data-name="Path 1154" d="M595.933,446.469s-2.406,16.021,4.813,16.227,12.043-12.357,12.043-12.357l-2.947-10.049Z" transform="translate(-65.051 -42.164)" opacity="0.2"/>
      <path id="Path_1155" data-name="Path 1155" d="M430.692,798.643c-12.848.56-29.606-13.958-29.606-13.958l-.835-15.078s-1.11.56-3.35-2.79c-1.5-2.25.658-11.571,2.24-17.436.766-2.868,1.4-4.911,1.4-4.911l28.191,7.544,1.346,3.566,10.943,29.1S443.53,798.083,430.692,798.643Z" transform="translate(-61.522 -47.553)" fill="#636992"/>
      <path id="Path_1156" data-name="Path 1156" d="M561.649,755.562s-32.661,12.563-43.22,2.79S500,751.368,500,751.368s-18.427.285-22.062-1.12c-2.142-.815-.982-7.8.354-13.359.9-3.841,1.886-7.013,1.886-7.013s32.1-10.894,37.13-4.195a24.086,24.086,0,0,0,5.354,5.108c5.815,4.2,14.9,8.016,29.272,13.88C571.7,752.762,561.649,755.562,561.649,755.562Z" transform="translate(-62.946 -47.181)" fill="#636992"/>
      <path id="Path_1157" data-name="Path 1157" d="M533.194,496.35l8.929,17.868s12.849,18.153-2.23,25.127-14.793-40.2-14.793-40.2Z" transform="translate(-63.802 -43.157)" fill="#ffd6d6"/>
      <path id="Path_1158" data-name="Path 1158" d="M495.25,338.61s9.774,4.469,15.638,23.172,13.683,50.539,13.683,50.539,5.3,36.01,4.459,44.949a57.951,57.951,0,0,0,.285,14.793l7.534,25.127-15.078,5.3L498.6,413.716Z" transform="translate(-63.274 -40.362)" fill="#dce6f2"/>
      <path id="Path_1159" data-name="Path 1159" d="M495.25,338.61s9.774,4.469,15.638,23.172,13.683,50.539,13.683,50.539,5.3,36.01,4.459,44.949a57.951,57.951,0,0,0,.285,14.793l7.534,25.127-15.078,5.3L498.6,413.716Z" transform="translate(-63.274 -40.362)" opacity="0.05"/>
      <path id="Path_1160" data-name="Path 1160" d="M428.776,752.024l1.346,3.566-1.65,3.153c-6.424,2.79-22.337.56-22.337.56s-2.947-3.742-6.974-9.9c.766-2.868,1.395-4.912,1.395-4.912Z" transform="translate(-61.571 -47.553)" opacity="0.1"/>
      <path id="Path_1161" data-name="Path 1161" d="M523.71,732.1c-8.143,18.448-35.824,11.6-43.515,9.293-1.267-.383-1.965-.639-1.965-.639s.049-1.5.069-3.87c.9-3.841,1.886-7.013,1.886-7.013s32.1-10.894,37.13-4.195a24.071,24.071,0,0,0,5.354,5.108A9.476,9.476,0,0,0,523.71,732.1Z" transform="translate(-62.972 -47.181)" opacity="0.1"/>
      <path id="Path_1162" data-name="Path 1162" d="M520.788,704c-6.7,13.948,1.4,21.777,1.4,21.777-8.143,18.438-35.824,11.6-43.515,9.283-1.267-.373-1.964-.629-1.964-.629s.56-19.272-1.395-28.486-1.68-48.014-.56-52.758,1.67-13.968,1.67-13.968-.835-10.884.56-16.188a8.359,8.359,0,0,0-2.083-8.231l-.147-.147s-6.139,20.942-8.379,24.557-3.065,21.777-3.35,25.127S451.3,695.615,451.3,695.615s-4.46,12.838-5.295,16.463-4.194,13.968-4.194,13.968l-13.457,25.972c-6.424,2.79-22.337.56-22.337.56s-3.065-3.929-7.259-10.333-6.139-29.027-6.139-29.027,15.353-.285,11.443-15.078,3.35-26.247,3.075-31.276,3.349-21.492,5.3-24.007,1.67-13.123,1.11-18.988-.275-26.521-.275-26.521.56-9.214,3.35-13.4,1.68-16.2,1.68-16.2,5.295-2.79,1.67-29.871,5.894-62.257,5.894-62.257l.324-4.911.511-7.956s79.85-5.03,86.274,1.11a21.175,21.175,0,0,1,4.077,5.844,58.147,58.147,0,0,1,4.617,14.862l3.35,84.594,3.35,62.257-1.12,46.9S527.5,690.036,520.788,704Z" transform="translate(-61.456 -42.527)" fill="#565988"/>
      <path id="Path_1163" data-name="Path 1163" d="M498.581,538.42,490.2,719.887l-10.058,16.542c-1.267-.373-1.965-.628-1.965-.628s.56-19.273-1.4-28.487-1.68-48.014-.56-52.759,1.67-13.968,1.67-13.968-.835-10.884.56-16.188a8.359,8.359,0,0,0-2.083-8.231l.137-.982Z" transform="translate(-62.921 -43.902)" opacity="0.1"/>
      <path id="Path_1164" data-name="Path 1164" d="M407.13,736.694s21.777-8.654,25.127-5.894-25.677,6.974-25.677,6.974Z" transform="translate(-61.703 -47.301)" opacity="0.1"/>
      <path id="Path_1165" data-name="Path 1165" d="M516.205,713.5c-.835.285-22.052,7.858-20.1,15.913S516.205,713.5,516.205,713.5Z" transform="translate(-63.287 -47.004)" opacity="0.1"/>
      <path id="Path_1166" data-name="Path 1166" d="M449.07,292.815s7.112,17.17,3.35,25.972,40.617,23.87,40.617,23.87-12.976-33.506-.412-52.356S449.07,292.815,449.07,292.815Z" transform="translate(-62.456 -39.369)" fill="#ffd6d6"/>
      <path id="Path_1167" data-name="Path 1167" d="M712.4,798.438c-8.585,1.886-19.891,10.471-19.891,10.471s-21.777,4.607-36.649,2.514-12.348-18.221-.835-22.2c7.986-2.75,16.168-9.538,20.441-13.427,1.886-1.739,3.006-2.947,3.006-2.947l41.679-8.379s.677,2.328,1.621,5.54c1.67,5.668,4.135,14.076,5.078,17.279C728.317,792.367,720.99,796.552,712.4,798.438Z" transform="translate(-65.936 -47.907)" fill="#505484"/>
      <path id="Path_1168" data-name="Path 1168" d="M701.177,765.649s-17.593,1.886-24.921-2.3-17.8,2.514-17.8,2.514-30.156-.628-40.2-3.772,1.464-18.664,17.8-17.171c5.953.541,9.98-.766,12.7-2.632a13.379,13.379,0,0,0,5.531-8.29l35.362,2.092,4.911,12.534Z" transform="translate(-65.386 -47.367)" fill="#505484"/>
      <path id="Path_1169" data-name="Path 1169" d="M695.714,754.343s-41.1-6.719-46.344-12.053A13.379,13.379,0,0,0,654.9,734l35.362,2.092,4.912,12.534Z" transform="translate(-66.004 -47.367)" opacity="0.1"/>
      <path id="Path_1170" data-name="Path 1170" d="M634.52,515.281l.423,61.344s1.463,46.07,1.463,52.356.207,20.3.207,20.3,3.143,17.17,5.029,22.828,3.35,31.433,3.35,31.433,4.4,7.122,2.514,9.823,7.328,8.585,7.328,8.585-5.894,8.172-6.277,13.615,46.894,13.173,46.894,13.173L677.033,559.877,662.368,512.56Z" transform="translate(-65.741 -43.444)" fill="#575988"/>
      <path id="Path_1171" data-name="Path 1171" d="M634.52,515.281l.423,61.344s1.463,46.07,1.463,52.356.207,20.3.207,20.3,3.143,17.17,5.029,22.828,3.35,31.433,3.35,31.433,4.4,7.122,2.514,9.823,7.328,8.585,7.328,8.585-5.894,8.172-6.277,13.615,46.894,13.173,46.894,13.173L677.033,559.877,662.368,512.56Z" transform="translate(-65.741 -43.444)" opacity="0.1"/>
      <path id="Path_1172" data-name="Path 1172" d="M722.315,770.059c-13.683,32.622-46.226,7.446-46.226,7.446s0-.629-.079-1.709c1.886-1.739,3.006-2.947,3.006-2.947l41.678-8.379S721.372,766.847,722.315,770.059Z" transform="translate(-66.476 -47.907)" opacity="0.1"/>
      <path id="Path_1173" data-name="Path 1173" d="M722.206,762.653c-13.408,34.38-46.7,8.585-46.7,8.585s-1.051-17.8,1.051-25.962-2.308-32.671-2.308-32.671-2.515-21.777-4.813-26.8-2.092-15.078-2.092-15.913.835-7.544-1.051-12.151-2.947-15.913-2.947-15.913,0-15.913-1.885-25.333l-6.493-32.416L643.24,517.7l3.664-.629L712.55,505.56s12.357,62.866,8.163,69.31c-.9,1.414-1.7,4.509-2.357,8.5-2.4,14.263-3.291,39.871-3.291,39.871s8.163,12.77,5.029,21.777,2.947,23.87,2.947,23.87,1.886,58.632-1.679,64.5S722.206,762.653,722.206,762.653Z" transform="translate(-65.895 -43.32)" fill="#575988"/>
      <path id="Path_1174" data-name="Path 1174" d="M716.348,330.186s-59.467,41.875-46.069,20.932c7.22-11.277,5.894-25.638,3.065-36.482a86.091,86.091,0,0,0-5.894-16s50.529-21.492,43.83-2.23a36.08,36.08,0,0,0-1.965,13.988A37.325,37.325,0,0,0,716.348,330.186Z" transform="translate(-66.324 -39.473)" fill="#d28690"/>
      <path id="Path_1175" data-name="Path 1175" d="M607.675,428.511s-25.127-7.259-29.312-.137,1.258,22.75,8.841,25.264,24.989-8.516,24.989-8.516Z" transform="translate(-64.72 -41.897)" fill="#d28690"/>
      <path id="Path_1176" data-name="Path 1176" d="M636.86,416l-10.471,9.636s-18.222,1.67-23.457.412c0,0,4.823,32.248-2.092,36.227l42.3-8.585Z" transform="translate(-65.144 -41.733)" fill="#585b8a"/>
      <path id="Path_1177" data-name="Path 1177" d="M636.86,416l-10.471,9.636s-18.222,1.67-23.457.412c0,0,4.823,32.248-2.092,36.227l42.3-8.585Z" transform="translate(-65.144 -41.733)" opacity="0.1"/>
      <path id="Path_1178" data-name="Path 1178" d="M499.516,274.5a31.433,31.433,0,0,1-31.433,31.433c-16.129-7.75-31.433-14.056-31.433-31.433a31.433,31.433,0,1,1,62.817,0Z" transform="translate(-62.235 -38.648)" opacity="0.1"/>
      <path id="Path_1179" data-name="Path 1179" d="M499.518,273.664a31.374,31.374,0,1,1-7.112-19.871A31.374,31.374,0,0,1,499.518,273.664Z" transform="translate(-62.237 -38.656)" fill="#ffd6d6"/>
      <path id="Path_1180" data-name="Path 1180" d="M517.662,469.74a71.039,71.039,0,0,1-9.734,5.049s-15.913-2.309-18.212.413-22.592,3.772-22.592,3.772-30.991-1.463-35.6-5.442a18.866,18.866,0,0,0-4.705-2.79l.511-7.957s79.85-5.029,86.274,1.11A21.18,21.18,0,0,1,517.662,469.74Z" transform="translate(-62.061 -42.528)" opacity="0.1"/>
      <path id="Path_1181" data-name="Path 1181" d="M521.219,461.407c-.629,3.556-13.614,9-13.614,9s-15.913-2.3-18.211.422S466.8,474.6,466.8,474.6s-30.991-1.474-35.6-5.452-14.872-5.894-14.872-5.894-5.236-37.268-3.134-45.431-3.143-30.578-4.4-38.535,3.556-29.94,9.42-33.5,14.243-15.5,19.263-19.056c4.234-3,8.909-6.876,10.275-8.045l.4-.334s.845-6.493,4.194-9.823,34.124,21.149,34.124,21.149.216,1.886,2.308-1.67c.472-.8,4.528,5.059,5.236,7.534,0,0,16.748,29.321,17.8,35.362s5.442,25.756,6.277,30.569c.216,1.238.57,5.579.982,11.395.079,1.139.147,2.348.236,3.6.619,9.646,1.287,21.964,1.689,31.276,0,1.061.089,2.082.118,3.065A104.182,104.182,0,0,1,521.219,461.407Z" transform="translate(-61.738 -39.824)" fill="#dce6f2"/>
      <path id="Path_1182" data-name="Path 1182" d="M415,387.21s11.512,14.027,15.284,14.027S415,387.21,415,387.21Z" transform="translate(-61.852 -41.223)" opacity="0.1"/>
      <path id="Path_1183" data-name="Path 1183" d="M439.391,417.91s-18.85,20.52-16.335,24.292S439.391,417.91,439.391,417.91Z" transform="translate(-61.991 -41.767)" opacity="0.1"/>
      <path id="Path_1184" data-name="Path 1184" d="M425.62,458.906s21.61-23.663,22.593-31.826Z" transform="translate(-62.04 -41.93)" opacity="0.1"/>
      <path id="Path_1185" data-name="Path 1185" d="M453.33,460.717s24.92-13.192,27.012-23.663S453.33,460.717,453.33,460.717Z" transform="translate(-62.531 -42.071)" opacity="0.1"/>
      <path id="Path_1186" data-name="Path 1186" d="M485.458,331.531,482,339.9l5.756,2.721,5.658,15.815s15.6,31.2,14.97,47.425,2.829,40.617,2.829,40.617l9-1.67-4.244-47.729a68.838,68.838,0,0,0-5.481-21.424c-7.19-16.463-20.569-46.855-21.414-46.855-1.149,0-.344.423-.344.423Z" transform="translate(-63.039 -40.189)" opacity="0.1"/>
      <path id="Path_1187" data-name="Path 1187" d="M486.308,330.671l-3.458,8.379,5.766,2.721,5.648,15.815s15.6,31.2,14.97,47.425,2.829,40.617,2.829,40.617l9.008-1.67-4.253-47.729a68.579,68.579,0,0,0-5.471-21.424c-7.19-16.473-20.569-46.855-21.4-46.855-1.159,0-.354.422-.354.422Z" transform="translate(-63.054 -40.174)" fill="#575989"/>
      <path id="Path_1188" data-name="Path 1188" d="M589.8,455.474c-4.381-.334-14.891-5.648-19.066-7.858l-1.768-.982.216-16.217a28.462,28.462,0,0,1,3.2-1.621c5.579-2.436,17.023-5.746,22.76,4.911C602.888,448,595.355,455.848,589.8,455.474Z" transform="translate(-64.58 -41.916)" fill="#ffd6d6"/>
      <path id="Path_1189" data-name="Path 1189" d="M492.4,253.791a4.645,4.645,0,0,1-1.463.6c-3.644.8-7.79-2.338-10.913-.324-1.906,1.238-2.348,3.8-2.6,6.061q-.668,5.894-1.336,11.709a14.45,14.45,0,0,1-.864,4.037c-1.542,3.526-5.776,5.186-9.636,5.128a5.747,5.747,0,0,1-4.155-1.375c-.678-.688-1.041-1.65-1.788-2.279-4.911-4.116-6.4,5.972-5.108,8.841,2.083,4.685,9.479,9.2,6.375,15.157a5.676,5.676,0,0,1-2.279,2.289A31.433,31.433,0,1,1,492.4,253.791Z" transform="translate(-62.235 -38.654)" opacity="0.1"/>
      <path id="Path_1190" data-name="Path 1190" d="M458.627,277.051c.737.619,1.11,1.581,1.788,2.269a5.756,5.756,0,0,0,4.155,1.375c3.86.059,8.094-1.591,9.626-5.137a13.986,13.986,0,0,0,.874-4.027l1.336-11.709c.255-2.259.688-4.823,2.6-6.061,3.124-1.965,7.269,1.12,10.913.324a5.334,5.334,0,0,0,3.929-6.149c-.422-1.876-1.856-3.359-2.593-5.147a33.624,33.624,0,0,1-1.071-4.194c-2.033-7.623-10.982-11.905-18.762-10.628-4.322.717-8.339,2.78-12.671,3.408-3.1.452-6.277.157-9.41.491A23.75,23.75,0,0,0,441,234.331a4.852,4.852,0,0,0-1.768,1.336,7.373,7.373,0,0,0-.884,2.515c-1.051,3.929-4.43,6.827-6.876,10.137a24.154,24.154,0,0,0-4.656,13.074,10.485,10.485,0,0,0,.334,3.585c.206.688.531,1.356.688,2.063.481,2.151-.619,4.3-1.159,6.444a12.889,12.889,0,0,0,.688,8.192c3.772,8.674,16.2,11.571,18.781,20.677a20.627,20.627,0,0,0,7.308,1.965c2.534.049,5.265-1.041,6.444-3.291,3.094-5.894-4.293-10.471-6.375-15.147C452.213,283,453.676,272.925,458.627,277.051Z" transform="translate(-62.052 -38.398)" fill="#353045"/>
      <path id="Path_1191" data-name="Path 1191" d="M711.329,296.405a36.094,36.094,0,0,0-1.964,13.988c-1.513,1.287-3.163-2.564-4.911-1.572-4.794,2.77-10.334,9.361-16.267,9.361a32.58,32.58,0,0,1-14.8-3.546,86.108,86.108,0,0,0-5.894-16S718.029,277.143,711.329,296.405Z" transform="translate(-66.325 -39.473)" opacity="0.1"/>
      <path id="Path_1192" data-name="Path 1192" d="M720.6,283.171A32.671,32.671,0,1,1,687.931,250.5,32.671,32.671,0,0,1,720.6,283.171Z" transform="translate(-66.109 -38.801)" fill="#d28690"/>
      <path id="Path_1193" data-name="Path 1193" d="M718.9,338s-6.149,6.7-6.984,7.249-18.663,75.636-18.978,76.51-21.227,68.671-21.227,68.671L638.21,506.9l2.8-82.924,24.557-68.387s8.1-9.214,10.609-12.563,33.781-23.457,33.781-23.457l5.344,11.011Z" transform="translate(-65.806 -40.025)" fill="#f0f3f7"/>
      <path id="Path_1194" data-name="Path 1194" d="M715.144,332.291l-38.525,27.583L676,344.727c2.514-3.35,33.781-23.447,33.781-23.447Z" transform="translate(-66.476 -40.055)" opacity="0.1"/>
      <path id="Path_1195" data-name="Path 1195" d="M715.994,330.582l-38.525,27.583-.6-15.137c2.515-3.359,33.781-23.457,33.781-23.457Z" transform="translate(-66.491 -40.025)" fill="#f0f3f7"/>
      <path id="Path_1196" data-name="Path 1196" d="M674.7,336.59l1.287,6.739-8.615,8.752,6.876-15.392s-14.734,10.265-19.155,12.986-8.841,11.935-9.007,14.449-7.122,40.411-7.122,40.411-5.235,14.027-3.762,18.005-7.956,129.406-7.956,129.406a18.663,18.663,0,0,1,12.593-9.656l-3.36-74.123s4.086-49.311,4.293-49.939,9.528-29.213,9.528-29.213Z" transform="translate(-65.612 -40.326)" fill="#585b8a"/>
      <path id="Path_1197" data-name="Path 1197" d="M676.92,344.3l-.668,13.752s-9.322,29.42-12.455,34.233-12.672,33.506-12.672,33.506l-5.373,49.841-9.214,4.194L632,471.467l7.544-48.132s14.234-40.617,16.336-44.812l10.5-22.121Z" transform="translate(-65.696 -40.463)" opacity="0.1"/>
      <path id="Path_1198" data-name="Path 1198" d="M676.059,343.45,675.4,357.2s-9.322,29.419-12.465,34.233-12.662,33.506-12.662,33.506l-5.344,49.831-9.214,4.184-4.607-8.369,7.544-48.132s14.234-40.627,16.326-44.812l10.579-22.092Z" transform="translate(-65.681 -40.448)" fill="#663d5c"/>
      <path id="Path_1199" data-name="Path 1199" d="M566.31,450.228l18.005,12.465s12.7-7.121,5.3-11.728-13.958-5.3-16.336-5.3S566.31,450.228,566.31,450.228Z" transform="translate(-64.533 -42.259)" fill="#d28690"/>
      <path id="Path_1200" data-name="Path 1200" d="M579.977,426.82a2.77,2.77,0,0,0-1.306,2.367c0,3.821.432,13.938,3.635,9.371,3.929-5.589,3.212-10.609,9.214-6.984a35.354,35.354,0,0,1,9.626,8.84l-1.67-12S587.137,422.321,579.977,426.82Z" transform="translate(-64.752 -41.896)" fill="#d28690"/>
      <path id="Path_1201" data-name="Path 1201" d="M720.79,574.83c-.9,1.414-1.7,4.508-2.357,8.5-36.718,11.011-63.583-12.269-63.583-12.269a320.505,320.505,0,0,1-7.956-33.5c-.658-3.87-.511-11.375.1-20.53l65.646-11.512S724.984,568.337,720.79,574.83Z" transform="translate(-65.953 -43.319)" opacity="0.1"/>
      <path id="Path_1202" data-name="Path 1202" d="M758.479,384.121c-1.67,5.452-1.041,16.542-1.041,16.542l-15.078,71.2s-7.328,54.861-8.585,62.188-3.349,39.576-3.349,39.576c-42.719,20.942-75.636-7.534-75.636-7.534a321.025,321.025,0,0,1-7.956-33.505c-2.1-12.436,4.086-62.257,7.013-84.388.875-6.552,1.463-10.677,1.463-10.677L666.3,396.684s13.506-34.449,18.536-44.5,25.225-32.622,25.225-32.622c2.5-1.591,6.512,4.027,9.489,9.145,2.249,3.87,3.929,7.465,3.929,7.465s25.127,10.884,28.889,16.7,3.143,17.8,3.566,18.428S760.159,378.679,758.479,384.121Z" transform="translate(-65.952 -40.02)" fill="#585b8a"/>
      <path id="Path_1203" data-name="Path 1203" d="M699.377,358.8s1.886,11.1-2.947,14.449c-4.666,3.241-39.4,71.54-41.561,75.8.875-6.562,1.464-10.687,1.464-10.687l10.992-40.824s13.516-34.449,18.536-44.507S711.1,320.415,711.1,320.415c2.5-1.591,6.5,4.027,9.479,9.145C716.086,338.882,706.725,356.5,699.377,358.8Z" transform="translate(-66.102 -40.035)" opacity="0.1"/>
      <path id="Path_1204" data-name="Path 1204" d="M698.527,357.953s1.876,11.1-2.947,14.45S656.191,443.932,654,448.2c.874-6.552,1.463-10.677,1.463-10.677l10.992-40.833s13.506-34.449,18.536-44.5,25.225-32.622,25.225-32.622c2.5-1.591,6.512,4.027,9.489,9.145C715.236,338.022,705.865,355.654,698.527,357.953Z" transform="translate(-66.086 -40.02)" fill="#585b8a"/>
      <path id="Path_1205" data-name="Path 1205" d="M693.816,424.706,682,486.188v.01l-1.129,5.884v.01l-2.544,13.231-10.854-2.3-5.059-1.071-70.007-14.833-5.148-1.09-11.748-2.485,2.3-15.265.953-6.345,8.477-56.285Z" transform="translate(-11.544 -6.473)" fill="#4444c8"/>
      <path id="Path_1206" data-name="Path 1206" d="M683.142,511.92s-27.848,10.049-21.778,21.984,45.018-9.214,45.018-9.214Z" transform="translate(-66.201 -43.433)" fill="#d28690"/>
      <path id="Path_1207" data-name="Path 1207" d="M703.8,599.1c0,.835,1.051,11.522,5.236,15.284S703.8,599.1,703.8,599.1Z" transform="translate(-66.968 -44.977)" opacity="0.1"/>
      <path id="Path_1208" data-name="Path 1208" d="M675.24,637.68s5.02,13.821,24.911,19.479S675.24,637.68,675.24,637.68Z" transform="translate(-66.462 -45.661)" opacity="0.1"/>
      <path id="Path_1209" data-name="Path 1209" d="M720.717,283.172a32.661,32.661,0,0,1-16.375,28.319,17.387,17.387,0,0,1-4.911-4.1c-1.425-1.729-2.534-4.086-1.68-6.149.688-1.66,2.5-2.711,2.947-4.43a6.519,6.519,0,0,0-.157-3.163c-.363-1.621-.707-3.242-1.061-4.852-.3-1.375-.844-3-2.21-3.33s-2.5.805-3.576,1.65c-2.623,2.073-7.652,3.477-10.8,1.778s-2.269-7.387-2.78-10.461a1.827,1.827,0,0,0-.687-1.385,2.866,2.866,0,0,0-1.424-.1c-1.7,0-3.065-1.523-3.556-3.153a27.106,27.106,0,0,1-.57-5.059c-.187-1.7-.806-3.5-2.259-4.371a6.985,6.985,0,0,0-3.723-.609l-6.159.069A32.671,32.671,0,0,1,720.667,283.2Z" transform="translate(-66.223 -38.803)" opacity="0.1"/>
      <path id="Path_1210" data-name="Path 1210" d="M694.465,286.962c1.071-.845,2.25-1.965,3.575-1.64s1.9,1.964,2.2,3.32l1.061,4.843a6.587,6.587,0,0,1,.167,3.173c-.5,1.729-2.308,2.77-3.006,4.43-.854,2.063.265,4.42,1.68,6.139a17.681,17.681,0,0,0,10.108,6.041,7.423,7.423,0,0,0,3.153.069c2.338-.54,3.929-2.691,5.187-4.705,6.493-10.118,12.082-21.208,13.222-33.172a21.289,21.289,0,0,0-.334-7.318,24.568,24.568,0,0,0-2.24-5.353,43.229,43.229,0,0,0-6.316-9.558c-4.469-4.813-10.638-7.77-16.974-9.518a57.483,57.483,0,0,0-21.915-1.719c-1.965.226-3.851.55-5.786.678a58.226,58.226,0,0,1-7.288-.118l-14.459-.865c-.825,1.68,0,3.674.982,5.245s2.2,3.2,2.122,5.069-1.4,3.34-2.426,4.911-1.8,3.6-.776,5.137,3.1,1.631,4.911,1.611l7.289-.078a6.962,6.962,0,0,1,3.7.638c1.454.874,2.073,2.682,2.259,4.371a28.924,28.924,0,0,0,.57,5.059c.5,1.631,1.856,3.173,3.556,3.153a2.652,2.652,0,0,1,1.424.108,1.808,1.808,0,0,1,.688,1.375c.511,3.074-.432,8.752,2.78,10.461S691.842,289.035,694.465,286.962Z" transform="translate(-66.12 -38.644)" fill="#663d5c"/>
      <path id="Path_1211" data-name="Path 1211" d="M736.314,353.469a16.011,16.011,0,0,0-16.846,10.756c-3.929,11.188-10.481,31.374-8.841,39.35,2.308,11.306,5.029,30.156,5.029,30.156s11.935,6.876,5.894,13.811S713.8,464.3,713.8,464.3s-7.75,3.349-9.42,10.471-12.986,16.954-12.986,16.954L674.44,508.689s28.054,28.486,33.712,29.94l17.377-20.314,20.52-27.219,17.8-18.664s4.184-9.823,2.092-28.486-10.265-36.433-10.265-36.433l.629-6.287S758.229,356.189,736.314,353.469Z" transform="translate(-66.448 -40.624)" opacity="0.1"/>
      <path id="Path_1212" data-name="Path 1212" d="M738.015,353.469a16.012,16.012,0,0,0-16.827,10.756c-3.929,11.188-10.481,31.374-8.841,39.35,2.3,11.306,5.02,30.156,5.02,30.156s11.935,6.876,5.893,13.811-7.74,16.758-7.74,16.758-7.75,3.35-9.43,10.471-12.976,16.954-12.976,16.954L676.15,508.689s28.054,28.486,33.712,29.94l17.377-20.314L747.71,491.1l17.8-18.663s4.195-9.823,2.092-28.486-10.255-36.433-10.255-36.433l.629-6.287S759.929,356.189,738.015,353.469Z" transform="translate(-66.478 -40.624)" fill="#585b8a"/>
      <path id="Path_1213" data-name="Path 1213" d="M721.28,418.34s17.8,21.767,25.343,16.954S721.28,418.34,721.28,418.34Z" transform="translate(-67.278 -41.775)" opacity="0.1"/>
      <path id="Path_1214" data-name="Path 1214" d="M728.1,401.28c1.886.628,17.386,22.2,25.343,19.646S728.1,401.28,728.1,401.28Z" transform="translate(-67.399 -41.473)" opacity="0.1"/>
      <path id="Path_1215" data-name="Path 1215" d="M732.58,439s1.051,12.357,13.821,10.677S732.58,439,732.58,439Z" transform="translate(-67.478 -42.141)" opacity="0.1"/>
      <path id="Path_1216" data-name="Path 1216" d="M620.9,301.83l-6.906,15.392,8.625-8.752Z" transform="translate(-12.226 -4.633)" opacity="0.1"/>
      <path id="Path_1217" data-name="Path 1217" d="M620.9,300.98l-6.906,15.392,8.625-8.752Z" transform="translate(-12.226 -4.618)" fill="#f0f3f7"/>
      <path id="Path_1218" data-name="Path 1218" d="M592.447,488.136l-5.147-1.09-9.45-17.75.953-6.345Z" transform="translate(-11.586 -7.488)" opacity="0.3"/>
      <path id="Path_1219" data-name="Path 1219" d="M683.567,487.65l-1.129,5.884v.01l-13.4,10.933-5.059-1.071Z" transform="translate(-13.111 -7.925)" opacity="0.3"/>
      <path id="Path_1220" data-name="Path 1220" d="M521.3,451.494c-2.593.432-5.108.825-7.406,1.12-12.77,1.68-43.142-13.4-43.142-13.4s-37.062-30.991-47.739-60.3,12.77-33.712,12.77-33.712c8.841-5.029,28.064,9,30.785,11.306s5.029,8.163,4.813,11.935,6.286,8.585,6.286,8.585,11.1,19.263,13.821,21.355,3.35,3.978,4.185,7.544,8.163,6.493,11.306,6.277,6.876,1.051,6.876,2.721c0,1.346,3.075,2.014,5.6,2.23C520.2,427.889,520.934,441.956,521.3,451.494Z" transform="translate(-61.944 -40.46)" opacity="0.1"/>
      <path id="Path_1221" data-name="Path 1221" d="M521.21,448.368c-1.964.315-3.851.6-5.619.835-12.77,1.68-43.132-13.4-43.132-13.4S435.4,404.814,424.72,375.5s12.77-33.712,12.77-33.712c8.841-5.029,28.054,9,30.775,11.306s5.029,8.163,4.823,11.935,6.277,8.585,6.277,8.585,11.1,19.263,13.821,21.355,3.35,3.978,4.194,7.544,8.163,6.483,11.306,6.277,6.876,1.051,6.876,2.721c0,.982,1.749,1.641,3.693,1.965.079,1.14.147,2.348.236,3.6C520.139,426.739,520.807,439.056,521.21,448.368Z" transform="translate(-61.975 -40.4)" opacity="0.1"/>
      <path id="Path_1222" data-name="Path 1222" d="M572.389,428.84l-.8,18.821h-.855l-1.768-.982.216-16.217A28.463,28.463,0,0,1,572.389,428.84Z" transform="translate(-64.58 -41.961)" opacity="0.1"/>
      <path id="Path_1223" data-name="Path 1223" d="M435.78,343.491s-23.447,4.4-12.77,33.712,47.739,60.312,47.739,60.312,30.363,15.068,43.142,13.4,32.239-6.071,34.753-5.442,19.479.629,19.479.629l.835-19.646L549.312,425.4l-10.049-2.092s-3.566-2.947-5.658-2.515-6.483-2.515-6.483-2.515-3.359-2.721-5.894-2.721-7.328-.629-7.328-2.3-3.772-2.947-6.876-2.721-10.52-2.721-11.385-6.326-1.464-5.442-4.185-7.534-13.821-21.365-13.821-21.365-6.493-4.813-6.286-8.575-2.092-9.636-4.813-11.945S444.561,338.471,435.78,343.491Z" transform="translate(-61.944 -40.43)" fill="#dce6f2"/>
      <path id="Path_1224" data-name="Path 1224" d="M497.332,412.15s-9.008,9.007-6.709,10.677Z" transform="translate(-63.185 -41.665)" opacity="0.1"/>
      <path id="Path_1225" data-name="Path 1225" d="M507.1,419.4s-11.729,9.007-8.585,9.636S507.1,419.4,507.1,419.4Z" transform="translate(-63.322 -41.794)" opacity="0.1"/>
      <path id="Path_1226" data-name="Path 1226" d="M487,433c1.68.845,26.59,15.717,36.02,15.5Z" transform="translate(-63.128 -42.035)" opacity="0.1"/>
      <path id="Path_1227" data-name="Path 1227" d="M488.022,331.4s-4.4,14.449-6.08,14.449c-1.316,0-23.418-17.9-32.642-25.422l.4-.334s.835-6.493,4.185-9.823S488.022,331.4,488.022,331.4Z" transform="translate(-62.46 -39.855)" opacity="0.1"/>
      <path id="Path_1228" data-name="Path 1228" d="M487.162,329.693s-4.391,14.449-6.071,14.449c-1.326,0-23.427-17.9-32.651-25.422l.4-.334s.845-6.493,4.194-9.823S487.162,329.693,487.162,329.693Z" transform="translate(-62.444 -39.825)" fill="#dce6f2"/>
      <g id="Group_1461" data-name="Group 1461" transform="translate(365.417 194.695)" opacity="0.15">
        <path id="Path_1229" data-name="Path 1229" d="M427.49,282.54h0c2.947,6.729,11.061,9.99,15.766,15.353C440.456,291.3,432.274,288.07,427.49,282.54Z" transform="translate(-427.49 -234.064)"/>
        <path id="Path_1230" data-name="Path 1230" d="M457.828,298.218c-1.169,2.249-3.929,3.34-6.444,3.291a18.8,18.8,0,0,1-6.464-1.65,12.552,12.552,0,0,1,1.67,3.556,20.533,20.533,0,0,0,7.308,1.965c2.544.059,5.275-1.031,6.444-3.291,1.876-3.585-.079-6.65-2.367-9.548A6.239,6.239,0,0,1,457.828,298.218Z" transform="translate(-427.799 -234.242)"/>
        <path id="Path_1231" data-name="Path 1231" d="M494.39,247.934c-.422-1.886-1.857-3.369-2.593-5.147a32.1,32.1,0,0,1-1.071-4.2,13.027,13.027,0,0,0-3.016-5.393,12.558,12.558,0,0,1,.5,1.483,33.776,33.776,0,0,0,1.1,4.224c.737,1.778,2.171,3.261,2.593,5.147a5.334,5.334,0,0,1-3.929,6.149c-3.634.8-7.78-2.348-10.9-.324-1.915,1.228-2.357,3.792-2.613,6.051q-.658,5.894-1.336,11.719a14.042,14.042,0,0,1-.865,4.027c-1.542,3.536-5.776,5.2-9.636,5.137a5.786,5.786,0,0,1-4.145-1.375,27.4,27.4,0,0,0-1.8-2.279c-4.911-4.125-6.4,5.963-5.108,8.841a17.8,17.8,0,0,0,2.4,3.6c-1.08-3.242.432-12.573,5.226-8.575a25.345,25.345,0,0,1,1.788,2.279,5.824,5.824,0,0,0,4.155,1.375c3.86.059,8.094-1.6,9.636-5.137a14.046,14.046,0,0,0,.864-4.037q.668-5.894,1.336-11.709c.255-2.259.7-4.823,2.6-6.051,3.134-2.023,7.279,1.12,10.913.314A5.324,5.324,0,0,0,494.39,247.934Z" transform="translate(-427.909 -233.19)"/>
      </g>
      <path id="Path_1232" data-name="Path 1232" d="M715.491,310.829a7.594,7.594,0,0,1-3.153-.078,17.682,17.682,0,0,1-10.1-6.031c-1.424-1.729-2.544-4.086-1.68-6.149.688-1.66,2.5-2.7,2.947-4.43a6.578,6.578,0,0,0-.167-3.173l-1.061-4.843c-.3-1.375-.835-3-2.2-3.32s-2.5.8-3.575,1.641c-2.623,2.073-7.662,3.487-10.8,1.778s-2.269-7.387-2.78-10.461a1.836,1.836,0,0,0-.688-1.375,2.8,2.8,0,0,0-1.434-.108c-1.7,0-3.055-1.523-3.556-3.153a27.892,27.892,0,0,1-.56-5.059c-.2-1.69-.805-3.5-2.269-4.371a7.063,7.063,0,0,0-3.7-.638l-7.289.079c-1.8,0-3.929-.118-4.911-1.611s-.255-3.615.776-5.137,2.338-3.035,2.427-4.911-1.13-3.5-2.122-5.069a9.087,9.087,0,0,1-1.237-2.809l-2.093-.128c-.815,1.67,0,3.664.982,5.245s2.21,3.2,2.122,5.059-1.395,3.35-2.426,4.911-1.788,3.6-.766,5.137,3.094,1.641,4.911,1.621l7.289-.088a7.05,7.05,0,0,1,3.7.648c1.464.874,2.083,2.682,2.269,4.371a27.128,27.128,0,0,0,.57,5.059c.491,1.621,1.857,3.173,3.556,3.143a2.876,2.876,0,0,1,1.424.108,1.846,1.846,0,0,1,.688,1.385c.511,3.065-.432,8.752,2.78,10.461s8.222.295,10.805-1.778c1.071-.845,2.26-1.965,3.585-1.65s1.9,1.965,2.19,3.32l1.071,4.853a6.57,6.57,0,0,1,.157,3.173c-.491,1.719-2.308,2.77-3,4.42-.854,2.063.255,4.43,1.68,6.149a17.682,17.682,0,0,0,10.167,6.031,7.593,7.593,0,0,0,3.153.078,7.407,7.407,0,0,0,4.086-3.1A5.46,5.46,0,0,1,715.491,310.829Z" transform="translate(-66.116 -38.641)" opacity="0.1"/>
      <ellipse id="Ellipse_99" data-name="Ellipse 99" cx="23.742" cy="3.644" rx="23.742" ry="3.644" transform="translate(174.991 698.715)" fill="#4444c8" opacity="0.1"/>
      <ellipse id="Ellipse_100" data-name="Ellipse 100" cx="23.742" cy="3.644" rx="23.742" ry="3.644" transform="translate(1003.96 603.964)" fill="#4444c8" opacity="0.1"/>
      <ellipse id="Ellipse_101" data-name="Ellipse 101" cx="68.76" cy="10.55" rx="68.76" ry="10.55" transform="translate(716.898 743.91)" fill="#4444c8" opacity="0.1"/>
      <ellipse id="Ellipse_102" data-name="Ellipse 102" cx="53.633" cy="8.232" rx="53.633" ry="8.232" transform="translate(927.49 701.534)" fill="#4444c8" opacity="0.1"/>
      <ellipse id="Ellipse_103" data-name="Ellipse 103" cx="90.95" cy="13.958" rx="90.95" ry="13.958" transform="translate(881.342 777.828)" fill="#4444c8" opacity="0.1"/>
      <ellipse id="Ellipse_104" data-name="Ellipse 104" cx="68.76" cy="10.55" rx="68.76" ry="10.55" transform="translate(28.356 793.515)" fill="#4444c8" opacity="0.1"/>
      <path id="Path_1233" data-name="Path 1233" d="M258.766,631.85s2.691,3.517-1.238,8.841-7.171,9.823-5.894,13.1c0,0,5.894-9.823,10.805-10S264.08,637.783,258.766,631.85Z" transform="translate(-58.953 -45.557)" fill="#4444c8"/>
      <path id="Path_1234" data-name="Path 1234" d="M258.769,631.85a3.932,3.932,0,0,1,.55,1.1c4.715,5.54,7.22,10.7,2.691,10.805-4.214.118-9.273,7.662-10.481,9.567a3.678,3.678,0,0,0,.137.432s5.894-9.823,10.805-10S264.084,637.783,258.769,631.85Z" transform="translate(-58.956 -45.557)" opacity="0.1"/>
      <path id="Path_1235" data-name="Path 1235" d="M263.989,636.4c0,1.238-.147,2.24-.314,2.24s-.314-.982-.314-2.24.177-.648.344-.648S263.989,635.158,263.989,636.4Z" transform="translate(-59.165 -45.624)" fill="#ffd037"/>
      <path id="Path_1236" data-name="Path 1236" d="M265.7,637.9c-1.081.59-2.033.982-2.112.8s.727-.746,1.817-1.346.658-.157.737,0S266.792,637.305,265.7,637.9Z" transform="translate(-59.169 -45.649)" fill="#ffd037"/>
      <path id="Path_1237" data-name="Path 1237" d="M244.331,631.85s-2.692,3.517,1.238,8.841,7.181,9.823,5.894,13.1c0,0-5.894-9.823-10.756-10S238.988,637.783,244.331,631.85Z" transform="translate(-58.721 -45.557)" fill="#4444c8"/>
      <path id="Path_1238" data-name="Path 1238" d="M244.331,631.85a4.342,4.342,0,0,0-.55,1.1c-4.715,5.54-7.22,10.7-2.692,10.805,4.214.118,9.273,7.662,10.491,9.567a3.738,3.738,0,0,1-.147.432s-5.894-9.823-10.756-10S238.987,637.783,244.331,631.85Z" transform="translate(-58.721 -45.557)" opacity="0.1"/>
      <path id="Path_1239" data-name="Path 1239" d="M239.35,636.4c0,1.238.137,2.24.3,2.24s.314-.982.314-2.24-.177-.648-.344-.648S239.35,635.158,239.35,636.4Z" transform="translate(-58.74 -45.624)" fill="#ffd037"/>
      <path id="Path_1240" data-name="Path 1240" d="M237.588,637.9c1.09.59,2.033.982,2.122.8s-.737-.746-1.827-1.346-.658-.157-.737,0S236.5,637.305,237.588,637.9Z" transform="translate(-58.697 -45.649)" fill="#ffd037"/>
      <ellipse id="Ellipse_105" data-name="Ellipse 105" cx="28.123" cy="4.312" rx="28.123" ry="4.312" transform="translate(164.589 626.507)" fill="#4444c8" opacity="0.1"/>
      <path id="Path_1241" data-name="Path 1241" d="M265.888,649.321l-.138,1.1-.187,1.552-.079.648-.187,1.552-.088.648-.187,1.552-2.151,17.681c-.187,1.572-2.76,2.8-5.894,2.8H245.839c-3.1,0-5.678-1.228-5.894-2.8l-2.151-17.681-.187-1.552-.079-.648-.2-1.552-.079-.648-.187-1.552-.137-1.1c-.108-.894,1.287-1.64,3.045-1.64h22.877C264.6,647.68,266,648.427,265.888,649.321Z" transform="translate(-58.697 -45.838)" fill="#65617d"/>
      <path id="Path_1242" data-name="Path 1242" d="M211.643,614.76l-.187,1.552h-28.31l-.187-1.552Z" transform="translate(-4.59 -10.177)" fill="#9d9cb5"/>
      <path id="Path_1243" data-name="Path 1243" d="M211.382,617l-.187,1.552H183.427l-.2-1.552Z" transform="translate(-4.594 -10.217)" fill="#9d9cb5"/>
      <path id="Path_1244" data-name="Path 1244" d="M211.122,619.24l-.2,1.552H183.7l-.187-1.552Z" transform="translate(-4.599 -10.257)" fill="#9d9cb5"/>
      <path id="Path_1245" data-name="Path 1245" d="M1082.664,618s-3.359,15.638,11.582,17.485l.923-1.739S1083.588,622.853,1082.664,618Z" transform="translate(-73.674 -45.312)" fill="#4444c8"/>
      <path id="Path_1246" data-name="Path 1246" d="M1100.006,633.476l-3.478.737-.344.079s-9.273-7.524-9.155-24.321a41.432,41.432,0,0,0,4.43,7C1095.134,621.836,1099.309,628.319,1100.006,633.476Z" transform="translate(-73.758 -45.17)" fill="#4444c8"/>
      <path id="Path_1247" data-name="Path 1247" d="M1101.281,634.983a2.181,2.181,0,0,1-1.866.246c-8.919-2.083-5.894-31.148-5.894-31.148.491.226.982,3.929,3.084,8.7C1100.191,621.162,1104.149,632.881,1101.281,634.983Z" transform="translate(-73.864 -45.065)" fill="#4444c8"/>
      <path id="Path_1248" data-name="Path 1248" d="M1121.294,618s.579,15.638-14.361,17.485l-.934-1.768S1120.371,622.853,1121.294,618Z" transform="translate(-74.094 -45.312)" fill="#4444c8"/>
      <path id="Path_1249" data-name="Path 1249" d="M1116.926,610c.118,16.8-11.925,24.321-11.925,24.321l-.354-.078-3.467-.737c.688-5.157,4.911-11.64,8.536-16.5A37.8,37.8,0,0,1,1116.926,610Z" transform="translate(-74.008 -45.17)" fill="#4444c8"/>
      <path id="Path_1250" data-name="Path 1250" d="M1104.56,633.47a5.418,5.418,0,0,1-1.964,1.522h0a3.8,3.8,0,0,1-.737.246c-2.19.511-2.947-1.071-2.829-3.762.206-4.784,3.212-13.084,5.894-19.3a24.13,24.13,0,0,1,5.6-8.084S1110.385,626.712,1104.56,633.47Z" transform="translate(-73.97 -45.066)" fill="#4444c8"/>
      <path id="Path_1251" data-name="Path 1251" d="M1102.032,593.7s-9.96,35.362-1.385,40.647S1104.232,596.824,1102.032,593.7Z" transform="translate(-73.937 -44.882)" fill="#4444c8"/>
      <path id="Path_1252" data-name="Path 1252" d="M1082.664,618s-3.359,15.638,11.582,17.485l.923-1.739S1083.588,622.853,1082.664,618Z" transform="translate(-73.674 -45.312)" opacity="0.1"/>
      <path id="Path_1253" data-name="Path 1253" d="M1100.006,633.476l-3.478.737-.344.079s-9.273-7.524-9.155-24.321a41.432,41.432,0,0,0,4.43,7C1095.134,621.836,1099.309,628.319,1100.006,633.476Z" transform="translate(-73.758 -45.17)" opacity="0.1"/>
      <path id="Path_1254" data-name="Path 1254" d="M1101.281,634.983a2.181,2.181,0,0,1-1.866.246c-8.919-2.083-5.894-31.148-5.894-31.148.491.226.982,3.929,3.084,8.7C1100.191,621.162,1104.149,632.881,1101.281,634.983Z" transform="translate(-73.864 -45.065)" opacity="0.1"/>
      <path id="Path_1255" data-name="Path 1255" d="M1121.294,618s.579,15.638-14.361,17.485l-.934-1.768S1120.371,622.853,1121.294,618Z" transform="translate(-74.094 -45.312)" opacity="0.1"/>
      <path id="Path_1256" data-name="Path 1256" d="M1116.926,610c.118,16.8-11.925,24.321-11.925,24.321l-.354-.078-3.467-.737c.688-5.157,4.911-11.64,8.536-16.5A37.8,37.8,0,0,1,1116.926,610Z" transform="translate(-74.008 -45.17)" opacity="0.1"/>
      <path id="Path_1257" data-name="Path 1257" d="M1104.56,633.47a5.418,5.418,0,0,1-1.964,1.522h0a3.8,3.8,0,0,1-.737.246c-2.19.511-2.947-1.071-2.829-3.762.206-4.784,3.212-13.084,5.894-19.3a24.13,24.13,0,0,1,5.6-8.084S1110.385,626.712,1104.56,633.47Z" transform="translate(-73.97 -45.066)" opacity="0.1"/>
      <path id="Path_1258" data-name="Path 1258" d="M1102.032,593.7s-9.96,35.362-1.385,40.647S1104.232,596.824,1102.032,593.7Z" transform="translate(-73.937 -44.882)" opacity="0.1"/>
      <path id="Path_1259" data-name="Path 1259" d="M1082.669,618s-1.965,15.638,12.966,17.485l.923-1.739S1083.592,622.853,1082.669,618Z" transform="translate(-73.679 -45.312)" fill="#4444c8"/>
      <path id="Path_1260" data-name="Path 1260" d="M1101.391,633.477l-3.478.737-.344.079S1086.912,626.768,1087,610c0,0,2.73,2.947,5.815,7C1096.518,621.837,1100.694,628.32,1101.391,633.477Z" transform="translate(-73.757 -45.17)" fill="#4444c8"/>
      <path id="Path_1261" data-name="Path 1261" d="M1101.5,633.6l-3.478.737c-3.29-2.888-4.6-10.432-5.068-17.239C1096.624,621.962,1100.8,628.445,1101.5,633.6Z" transform="translate(-73.862 -45.296)" opacity="0.1"/>
      <path id="Path_1262" data-name="Path 1262" d="M1102.683,634.983a2.2,2.2,0,0,1-1.876.246c-8.919-2.083-7.289-31.148-7.289-31.148.492.226,2.417,3.929,4.47,8.7C1101.593,621.162,1105.542,632.881,1102.683,634.983Z" transform="translate(-73.871 -45.065)" fill="#4444c8"/>
      <path id="Path_1263" data-name="Path 1263" d="M1121.32,618s1.965,15.638-12.966,17.485l-.923-1.739S1120.4,622.853,1121.32,618Z" transform="translate(-74.119 -45.312)" fill="#4444c8"/>
      <path id="Path_1264" data-name="Path 1264" d="M1116.952,610c.117,16.8-10.541,24.321-10.541,24.321l-.344-.078-3.478-.737c.688-5.157,4.912-11.64,8.546-16.5C1114.221,612.947,1116.952,610,1116.952,610Z" transform="translate(-74.033 -45.17)" fill="#4444c8"/>
      <path id="Path_1265" data-name="Path 1265" d="M1111.136,617.1c-.452,6.345-1.611,13.33-4.43,16.591a4.947,4.947,0,0,1-.639.648l-3.477-.737C1103.279,628.445,1107.463,621.962,1111.136,617.1Z" transform="translate(-74.033 -45.296)" opacity="0.1"/>
      <path id="Path_1266" data-name="Path 1266" d="M1105.97,633.47a5.309,5.309,0,0,1-1.965,1.522h0a3.911,3.911,0,0,1-.727.246c-2.2.511-2.947-1.071-2.839-3.762.216-4.784,3.222-13.084,5.894-19.3,1.965-4.469,3.743-7.858,4.214-8.084C1110.548,604.08,1111.8,626.712,1105.97,633.47Z" transform="translate(-73.995 -45.066)" fill="#4444c8"/>
      <path id="Path_1267" data-name="Path 1267" d="M1102.756,635.14a2.361,2.361,0,0,1-1.415-.452c-4.195-2.613-4.283-12.416-3.281-21.748C1101.666,621.319,1105.614,633.038,1102.756,635.14Z" transform="translate(-73.944 -45.223)" opacity="0.1"/>
      <path id="Path_1268" data-name="Path 1268" d="M1105.97,633.616c-.481,1.051-1.129,1.6-1.965,1.522h0a2.635,2.635,0,0,1-1.188-.452,6.343,6.343,0,0,1-2.377-3.065c.217-4.784,3.222-13.084,5.894-19.3C1107.3,620.935,1107.621,630.07,1105.97,633.616Z" transform="translate(-73.995 -45.212)" opacity="0.1"/>
      <path id="Path_1269" data-name="Path 1269" d="M1102.052,593.7s-8.566,35.362,0,40.647S1104.251,596.824,1102.052,593.7Z" transform="translate(-73.956 -44.882)" fill="#4444c8"/>
      <path id="Path_1270" data-name="Path 1270" d="M1064.107,597.61H1028.44v5.9h5.441l.138.7,2.18,11.463h20.736l2.181-11.463.128-.7h4.862Z" transform="translate(-19.568 -9.873)" fill="#4b4770"/>
      <path id="Path_1271" data-name="Path 1271" d="M1064.107,597.61H1028.44v5.9h5.441l.138.7,2.18,11.463h20.736l2.181-11.463.128-.7h4.862Z" transform="translate(-19.568 -9.873)" opacity="0.1"/>
      <path id="Path_1272" data-name="Path 1272" d="M1061.216,601.14l-.6,3.134-2.181,11.463H1037.7l-2.181-11.463-.6-3.134Z" transform="translate(-19.683 -9.936)" fill="#4b4770"/>
      <path id="Path_1273" data-name="Path 1273" d="M1061.216,601.14l-.6,3.134h-25.1l-.6-3.134Z" transform="translate(-19.683 -9.936)" opacity="0.1"/>
      <rect id="Rectangle_1200" data-name="Rectangle 1200" width="35.667" height="5.904" transform="translate(1010.257 587.737)" fill="#4b4770"/>
      <path id="Path_1274" data-name="Path 1274" d="M192.395,736.028a17.136,17.136,0,0,0-2.24,4.224c-.138.364-.275.785-.413,1.188a4.253,4.253,0,0,0-.776-.275,10.8,10.8,0,0,0-3.507-.295c0-.462.059-.982.069-1.444.147-5.177-.462-12.387-5.4-9.332-4.735,2.947-1.356,7.859,1.7,11,.265.275.53.53.786.776-2.79,1.965-3.32,6.611-3.782,11.434s-4.558,10.1-7.279,13.094c-.275.3-.521.58-.766.835a9.971,9.971,0,0,0-7.907-2.033c-.108-.422-.236-.864-.364-1.326-2.2-7.946-6.768-21.708-12.593-24.724l.766-.982c2.475-3.232,5.265-8.045,1.149-9.273s-4.489,4.165-4.263,8.212q.059.766.118,1.444a6.022,6.022,0,0,0-4.3,2.1l-.638-.756c-3.34-3.929-9.459-10.186-11.316-5.461-1.729,4.4,3.664,10.117,7.456,13.427l.236.206c-2.544,10.324,8.565,18.742,14.548,22.426l.776.471c-8.251,9.725-13.349,27.956-13.349,27.956l23.1,4.125s15.324-13.221,13.359-25.637h.157c15.314-3.065,18.791-19.391,16.4-29.086l.275-.108a17.339,17.339,0,0,0,7.092-5.364C205.773,736.912,196.815,730.193,192.395,736.028Z" transform="translate(-56.822 -47.273)" fill="#4444c8"/>
      <path id="Path_1275" data-name="Path 1275" d="M192.395,736.028a17.136,17.136,0,0,0-2.24,4.224c-.138.364-.275.785-.413,1.188a4.253,4.253,0,0,0-.776-.275,10.8,10.8,0,0,0-3.507-.295c0-.462.059-.982.069-1.444.147-5.177-.462-12.387-5.4-9.332-4.735,2.947-1.356,7.859,1.7,11,.265.275.53.53.786.776-2.79,1.965-3.32,6.611-3.782,11.434s-4.558,10.1-7.279,13.094c-.275.3-.521.58-.766.835a9.971,9.971,0,0,0-7.907-2.033c-.108-.422-.236-.864-.364-1.326-2.2-7.946-6.768-21.708-12.593-24.724l.766-.982c2.475-3.232,5.265-8.045,1.149-9.273s-4.489,4.165-4.263,8.212q.059.766.118,1.444a6.022,6.022,0,0,0-4.3,2.1l-.638-.756c-3.34-3.929-9.459-10.186-11.316-5.461-1.729,4.4,3.664,10.117,7.456,13.427l.236.206c-2.544,10.324,8.565,18.742,14.548,22.426l.776.471c-8.251,9.725-13.349,27.956-13.349,27.956l23.1,4.125s15.324-13.221,13.359-25.637h.157c15.314-3.065,18.791-19.391,16.4-29.086l.275-.108a17.339,17.339,0,0,0,7.092-5.364C205.773,736.912,196.815,730.193,192.395,736.028Z" transform="translate(-56.822 -47.273)" opacity="0.1"/>
      <path id="Path_1276" data-name="Path 1276" d="M146.43,742.82l-2.7,7.858s-1.5-1.061-3.4-2.731c-3.792-3.311-9.184-9.027-7.456-13.428,1.857-4.725,7.976,1.513,11.316,5.462C145.536,741.553,146.43,742.82,146.43,742.82Z" transform="translate(-56.848 -47.346)" fill="#4444c8"/>
      <path id="Path_1277" data-name="Path 1277" d="M152.423,738.179a37.391,37.391,0,0,1-2.633,3.1,41.46,41.46,0,0,1-.481-4.165c-.226-4.047.206-9.42,4.263-8.212S154.9,734.948,152.423,738.179Z" transform="translate(-57.144 -47.274)" fill="#4444c8"/>
      <path id="Path_1278" data-name="Path 1278" d="M187.86,739.439c-.079,2.6-.334,4.685-.334,4.685a34.263,34.263,0,0,1-3.369-3.016c-3.055-3.173-6.434-8.064-1.7-11C187.349,727.042,187.958,734.262,187.86,739.439Z" transform="translate(-57.691 -47.285)" fill="#4444c8"/>
      <path id="Path_1279" data-name="Path 1279" d="M203.972,742.927a17.336,17.336,0,0,1-7.092,5.363,21.232,21.232,0,0,1-2.377.865l-3.183-4.469a31.614,31.614,0,0,1,1.316-4.342,17.132,17.132,0,0,1,2.24-4.224C199.276,730.285,208.255,737,203.972,742.927Z" transform="translate(-57.889 -47.365)" fill="#4444c8"/>
      <path id="Path_1280" data-name="Path 1280" d="M144.33,740.11c1.346,1.572,2.24,2.79,2.24,2.79l-2.7,7.859s-1.5-1.061-3.4-2.731a15.419,15.419,0,0,1,3.045-6.945C143.78,740.759,144.065,740.425,144.33,740.11Z" transform="translate(-56.988 -47.475)" opacity="0.1"/>
      <path id="Path_1281" data-name="Path 1281" d="M152.424,738.331a37.4,37.4,0,0,1-2.632,3.1,41.461,41.461,0,0,1-.481-4.165A5.431,5.431,0,0,1,152.424,738.331Z" transform="translate(-57.145 -47.425)" opacity="0.1"/>
      <path id="Path_1282" data-name="Path 1282" d="M165.545,769.75l-6.719,2.947s-1.464-.707-3.576-2.023c-7.063-4.342-21.257-15.275-11.787-28.162s17.455,10.226,20.628,21.532C165.044,767.481,165.545,769.75,165.545,769.75Z" transform="translate(-56.985 -47.451)" fill="#4444c8"/>
      <path id="Path_1283" data-name="Path 1283" d="M184.18,741.29a5.522,5.522,0,0,1,3.7-1.67c-.079,2.6-.334,4.685-.334,4.685a34.325,34.325,0,0,1-3.369-3.015Z" transform="translate(-57.763 -47.467)" opacity="0.1"/>
      <path id="Path_1284" data-name="Path 1284" d="M196.9,748.407a21.127,21.127,0,0,1-2.377.865l-3.183-4.47a31.606,31.606,0,0,1,1.316-4.341C194.69,741.659,196.2,744.645,196.9,748.407Z" transform="translate(-57.89 -47.482)" opacity="0.1"/>
      <path id="Path_1285" data-name="Path 1285" d="M179.756,777.61c-.364.079-.747.147-1.13.207-22.524,3.418-7.426-8.733-7.426-8.733s.982-.982,2.387-2.465c2.721-3,6.807-8.242,7.279-13.094.707-7.3,1.523-14.145,10.137-12.141C199.461,743.368,201.082,773.337,179.756,777.61Z" transform="translate(-57.445 -47.492)" fill="#4444c8"/>
      <rect id="Rectangle_1201" data-name="Rectangle 1201" width="43.034" height="11.316" transform="translate(78.855 786.197)" fill="#d4dfec"/>
      <rect id="Rectangle_1202" data-name="Rectangle 1202" width="56.226" height="39.488" transform="translate(72.018 749.421)" fill="#d4dfec"/>
      <rect id="Rectangle_1203" data-name="Rectangle 1203" width="43.034" height="11.316" transform="translate(78.855 786.197)" opacity="0.1"/>
      <rect id="Rectangle_1204" data-name="Rectangle 1204" width="56.226" height="39.488" transform="translate(72.018 749.421)" opacity="0.1"/>
      <rect id="Rectangle_1205" data-name="Rectangle 1205" width="43.034" height="11.316" transform="translate(81.684 786.197)" fill="#d4dfec"/>
      <path id="Path_1286" data-name="Path 1286" d="M164.361,764.51c.982,3.379,1.454,5.7,1.454,5.7l-6.719,2.947s-1.464-.707-3.576-2.023C158.153,767.8,161.119,765.286,164.361,764.51Z" transform="translate(-57.255 -47.908)" opacity="0.1"/>
      <path id="Path_1287" data-name="Path 1287" d="M179.756,778.072c-.364.079-.747.147-1.13.207-22.524,3.418-7.426-8.733-7.426-8.733s.982-.982,2.387-2.466C177.792,770.449,179.531,774.241,179.756,778.072Z" transform="translate(-57.445 -47.953)" opacity="0.1"/>
      <path id="Path_1288" data-name="Path 1288" d="M142.72,799.589s12.613-45.185,30.3-31.247-7.2,35.362-7.2,35.362Z" transform="translate(-57.028 -47.928)" fill="#4444c8"/>
      <circle id="Ellipse_106" data-name="Ellipse 106" cx="1.414" cy="1.414" r="1.414" transform="translate(90.643 700.729)" opacity="0.1"/>
      <circle id="Ellipse_107" data-name="Ellipse 107" cx="1.414" cy="1.414" r="1.414" transform="translate(90.525 707.33)" opacity="0.1"/>
      <circle id="Ellipse_108" data-name="Ellipse 108" cx="1.414" cy="1.414" r="1.414" transform="translate(131.555 702.025)" opacity="0.1"/>
      <circle id="Ellipse_109" data-name="Ellipse 109" cx="1.414" cy="1.414" r="1.414" transform="translate(98.55 735.865)" opacity="0.1"/>
      <circle id="Ellipse_110" data-name="Ellipse 110" cx="1.414" cy="1.414" r="1.414" transform="translate(128.608 712.988)" opacity="0.1"/>
      <circle id="Ellipse_111" data-name="Ellipse 111" cx="1.414" cy="1.414" r="1.414" transform="translate(113.991 727.614)" opacity="0.1"/>
      <circle id="Ellipse_112" data-name="Ellipse 112" cx="1.414" cy="1.414" r="1.414" transform="translate(95.475 703.558)" opacity="0.1"/>
      <circle id="Ellipse_113" data-name="Ellipse 113" cx="1.414" cy="1.414" r="1.414" transform="translate(127.665 706.269)" opacity="0.1"/>
      <circle id="Ellipse_114" data-name="Ellipse 114" cx="1.414" cy="1.414" r="1.414" transform="translate(122.832 717.231)" opacity="0.1"/>
      <circle id="Ellipse_115" data-name="Ellipse 115" cx="1.414" cy="1.414" r="1.414" transform="translate(107.98 734.804)" opacity="0.1"/>
      <circle id="Ellipse_116" data-name="Ellipse 116" cx="1.414" cy="1.414" r="1.414" transform="translate(104.915 727.85)" opacity="0.1"/>
      <circle id="Ellipse_117" data-name="Ellipse 117" cx="1.414" cy="1.414" r="1.414" transform="translate(97.597 712.163)" opacity="0.1"/>
      <rect id="Rectangle_1206" data-name="Rectangle 1206" width="43.034" height="4.135" transform="translate(81.684 786.197)" opacity="0.1"/>
      <rect id="Rectangle_1207" data-name="Rectangle 1207" width="56.226" height="39.488" transform="translate(74.847 749.421)" fill="#d4dfec"/>
      <circle id="Ellipse_118" data-name="Ellipse 118" cx="1.414" cy="1.414" r="1.414" transform="translate(109.866 741.169)" opacity="0.1"/>
      <circle id="Ellipse_119" data-name="Ellipse 119" cx="1.414" cy="1.414" r="1.414" transform="translate(101.379 742.938)" opacity="0.1"/>
      <circle id="Ellipse_120" data-name="Ellipse 120" cx="10.275" cy="10.275" r="10.275" transform="translate(37.491 41.518)" fill="#4444c8" opacity="0.1"/>
      <circle id="Ellipse_121" data-name="Ellipse 121" cx="13.752" cy="13.752" r="13.752" transform="translate(1020.787 361.301)" fill="#4444c8" opacity="0.1"/>
      <circle id="Ellipse_122" data-name="Ellipse 122" cx="10.039" cy="10.039" r="10.039" transform="translate(1051.012 335.545)" fill="#4444c8" opacity="0.1"/>
      <ellipse id="Ellipse_123" data-name="Ellipse 123" cx="11.5" cy="16" rx="11.5" ry="16" transform="translate(55.377 -0.352)" fill="#4444c8" opacity="0.1"/>
      <circle id="Ellipse_124" data-name="Ellipse 124" cx="13.5" cy="13.5" r="13.5" transform="translate(0.377 63.648)" fill="#4444c8" opacity="0.1"/>
    </g>
  </g>
</svg>
