<svg xmlns="http://www.w3.org/2000/svg" xmlns:xlink="http://www.w3.org/1999/xlink" width="1080" height="1080" viewBox="0 0 1080 1080">
  <defs>
    <linearGradient id="linear-gradient" x1="0.502" y1="1.014" x2="0.502" y2="0.014" gradientUnits="objectBoundingBox">
      <stop offset="0" stop-color="gray" stop-opacity="0.251"/>
      <stop offset="0.54" stop-color="gray" stop-opacity="0.122"/>
      <stop offset="1" stop-color="gray" stop-opacity="0.102"/>
    </linearGradient>
    <linearGradient id="linear-gradient-2" x1="1.068" y1="0.668" x2="1.068" y2="-0.332" xlink:href="#linear-gradient"/>
    <linearGradient id="linear-gradient-3" x1="2.842" y1="0.652" x2="2.842" y2="-0.351" xlink:href="#linear-gradient"/>
    <linearGradient id="linear-gradient-4" x1="1.073" y1="0.27" x2="1.073" y2="-0.729" xlink:href="#linear-gradient"/>
    <linearGradient id="linear-gradient-5" x1="0.251" y1="0.451" x2="0.251" y2="-0.549" xlink:href="#linear-gradient"/>
    <linearGradient id="linear-gradient-6" x1="5.173" y1="0.029" x2="5.173" y2="-0.871" xlink:href="#linear-gradient"/>
    <linearGradient id="linear-gradient-7" x1="0.5" y1="1" x2="0.5" y2="0" xlink:href="#linear-gradient"/>
    <clipPath id="clip-custom_1">
      <rect width="1080" height="1080"/>
    </clipPath>
  </defs>
  <g id="custom_1" data-name="custom – 1" clip-path="url(#clip-custom_1)">
    <g id="Group_2" data-name="Group 2" transform="translate(0.95 18.006)">
      <g id="Group_1" data-name="Group 1" transform="translate(91.605 0.013)" opacity="0.5">
        <rect id="Rectangle_1" data-name="Rectangle 1" width="624.921" height="863.447" transform="translate(0 259.348) rotate(-24.52)" fill="url(#linear-gradient)"/>
      </g>
      <rect id="Rectangle_2" data-name="Rectangle 2" width="609.021" height="844.365" transform="translate(101.47 261.85) rotate(-24.52)" fill="#fff"/>
      <rect id="Rectangle_3" data-name="Rectangle 3" width="302.127" height="73.184" transform="translate(232.556 177.539) rotate(-24.52)" fill="url(#linear-gradient-2)"/>
      <path id="Path_1" data-name="Path 1" d="M440.611,62.413c-21.216,9.682-30.386,35.141-20.473,56.87s35.153,31.5,56.37,21.814,30.386-35.141,20.473-56.87S461.828,52.731,440.611,62.413Zm28.3,62.04A24.96,24.96,0,1,1,480.727,91.64a24.667,24.667,0,0,1-11.815,32.824Z" transform="translate(-100.307 -12.642)" fill="url(#linear-gradient-3)"/>
      <rect id="Rectangle_4" data-name="Rectangle 4" width="295.762" height="69.965" transform="translate(235.465 176.268) rotate(-24.52)" fill="#6c63ff"/>
      <path id="Path_2" data-name="Path 2" d="M441.644,64.792a41.348,41.348,0,1,0,54.773,20.46A41.348,41.348,0,0,0,441.644,64.792ZM468.7,124.113a48.2,48.2,0,1,0,0-.012Z" transform="translate(-100.023 -12.12)" fill="#6c63ff"/>
      <rect id="Rectangle_5" data-name="Rectangle 5" width="130.396" height="130.396" transform="translate(184.27 374.392) rotate(-24.52)" fill="url(#linear-gradient-4)"/>
      <rect id="Rectangle_6" data-name="Rectangle 6" width="130.396" height="130.396" transform="translate(291.914 609.309) rotate(-24.52)" fill="url(#linear-gradient-5)"/>
      <rect id="Rectangle_7" data-name="Rectangle 7" width="120.848" height="120.848" transform="translate(190.587 376.751) rotate(-24.52)" fill="#69f0ae"/>
      <rect id="Rectangle_8" data-name="Rectangle 8" width="120.848" height="120.848" transform="translate(296.836 609.669) rotate(-24.52)" fill="#6c63ff"/>
      <rect id="Rectangle_9" data-name="Rectangle 9" width="165.647" height="11.559" transform="translate(388.356 327.547) rotate(-24.52)" fill="#e0e0e0"/>
      <rect id="Rectangle_10" data-name="Rectangle 10" width="273.509" height="11.559" transform="translate(395.56 343.32) rotate(-24.52)" fill="#e0e0e0"/>
      <rect id="Rectangle_11" data-name="Rectangle 11" width="254.243" height="11.559" transform="translate(402.743 359.092) rotate(-24.52)" fill="#e0e0e0"/>
      <rect id="Rectangle_12" data-name="Rectangle 12" width="165.647" height="11.559" transform="translate(494.61 560.475) rotate(-24.52)" fill="#e0e0e0"/>
      <rect id="Rectangle_13" data-name="Rectangle 13" width="273.509" height="11.559" transform="translate(501.809 576.237) rotate(-24.52)" fill="#e0e0e0"/>
      <rect id="Rectangle_14" data-name="Rectangle 14" width="254.243" height="11.559" transform="translate(508.997 592.02) rotate(-24.52)" fill="#e0e0e0"/>
      <path id="Path_3" data-name="Path 3" d="M200.262,345.608l28.313,9.194,9.316-54.492,13.779,3.768-15.5,67.368-42.7-18.717Z" transform="translate(42.435 65.865)" fill="url(#linear-gradient-6)"/>
      <path id="Path_4" data-name="Path 4" d="M203.064,343.957l24.618,7.987,8.1-47.383,11.974,3.28-13.474,58.577L197.15,350.151Z" transform="translate(43.242 66.798)" fill="#fff"/>
      <path id="Path_5" data-name="Path 5" d="M290.744,536.167l24.618,7.987,8.1-47.383,11.974,3.28-13.474,58.577L284.83,542.361Z" transform="translate(62.473 108.956)" fill="#fff"/>
      <rect id="Rectangle_15" data-name="Rectangle 15" width="386.407" height="128.798" transform="translate(474.307 810.986) rotate(-24.52)" fill="#e0e0e0"/>
      <path id="Path_6" data-name="Path 6" d="M828.839,631.453c-13.51-3.853-27.337-3.121-31.642,12.327-1.451,5.207-1.622,13.291-7.206,15.973-8.218,3.951-18.131-3.951-25.265-7.17-13.291-6-26.935-1.914-34.629,10.694-3.9,6.389-5.572,13.742-6.9,21.021-.573,3.158-.646,7.06-1.975,10.035-2.548,5.694-10.523,5.182-15.754,4.963a34.03,34.03,0,0,1-3.487-.256,30.886,30.886,0,0,0,5.853-19.668c-.341-11.547-7.84-24.179-20.948-22.765-11.742,1.219-20.009,12.559-18.692,24.033,1.122,9.755,7.475,17.315,15.62,21.948-4,1.768-8.267,3.146-12.047,4.975a50.521,50.521,0,0,0-5.133,2.865c-11.425-5.511-26.435-6.548-36.714-.927-4.975,2.719-1.341,10.8,3.658,8.06,7.828-4.28,16.461-3.207,24.643-.488l.683.244a22.031,22.031,0,0,0-2.134,3.3c-4.621,8.974,0,23.167,11.242,24.143,15.851,1.354,16.6-19.595,7.987-27.935-.366-.354-.732-.695-1.122-1.024,3.56-1.719,7.414-3.012,10.815-4.463a44.991,44.991,0,0,0,8.413-4.682l.61.158c12.108,2.744,31.008,3.6,35.361-11.072,3.731-12.73,4.085-39.762,24.2-37.263,8.206,1.012,14.937,7.316,22.741,9.6,6.987,2.085,15.071,2.171,20.8-2.975,4.731-4.243,5.792-10.511,7.243-16.364.744-3.024,1.475-6.633,3.938-8.791,4.451-3.89,11.8-1.6,16.766-.183C831.193,641.3,834.338,633.013,828.839,631.453ZM671.545,734.6c-2.67,2.646-5.5.549-6.926-2.219-1.731-3.365-.988-6.682,1.219-9.645a16.779,16.779,0,0,1,1.158-1.39c5.28,3.414,9.6,8.3,4.6,13.254Zm9.365-65.844c5.487-5.1,13.132-3.975,16.4,3.024s1.829,16.876-2.756,23.045a18.61,18.61,0,0,1-2.012,2.268,25.689,25.689,0,0,1-8.694-4.963c-6.487-5.853-10.157-16.668-2.89-23.411Z" transform="translate(-53.94 112.558)" fill="#6c63ff"/>
      <path id="Path_7" data-name="Path 7" d="M1005.143,273.743l-98.425,38.372c-18.51-1.378-57.455-6.4-96.108-24.631-43.03-20.29-92.328-20.241-134.127,1.012-96.327,2.3-149.344-10.035-177.633-21.716l7.462-15.315-99.766-38.9L157.12,100.78V558.957l87.292,38.9,46.822-112.325,102.826,47.554L413.8,482.919l67.515,50.1,4.6,3.865-6.328,6.572a33,33,0,0,0,0,45.371h0a30.044,30.044,0,0,0,43.652,0l-3.463,3.658a33,33,0,0,0,0,45.371h0a30.044,30.044,0,0,0,43.652,0l20-20.79h0l-13.73,14.266a33,33,0,0,0,0,45.371h0a30.044,30.044,0,0,0,43.652,0l19.741-20.521h0l-8.3,8.633a23.045,23.045,0,0,0,0,31.7,20.985,20.985,0,0,0,30.483,0l13.169-13.681c22.619,16.522,40.921,28.581,49.883,31.7,37.348,12.949,37.348-12.986,37.348-12.986,49.883,25.923,74.831-25.923,74.831-25.923,62.357,25.923,62.357-38.9,62.357-38.9,15.583,10.8,26.825,5.853,34.678-3.658,10.694-12.9,12-31.105,4.658-45.713l59.6-55.077,25.777,52.7,102.827-47.554,46.822,103.8,68.953-30.788V157.064Z" transform="translate(-157.12 -3.407)" fill="url(#linear-gradient-7)"/>
      <path id="Path_8" data-name="Path 8" d="M716.61,438.005,608.065,534.479,523.65,377.7,716.61,329.46Z" transform="translate(114.854 72.259)" fill="#be7c5e"/>
      <path id="Path_9" data-name="Path 9" d="M426.735,231.69s34.836,48.237,241.2,36.178l120.6,180.9,80.818,90.926c12.693,14.291,13.413,35.958.951,50.444-7.572,8.791-18.461,13.413-33.532,3.353,0,0,0,60.3-60.3,36.178,0,0-24.118,48.237-72.355,24.118,0,0,0,24.118-36.178,12.059s-229.15-168.829-229.15-168.829l-84.415-60.3Z" transform="translate(-113.854 25.306)" fill="#fda57d"/>
      <path id="Path_10" data-name="Path 10" d="M826.174,287.883s-52.114,0-103.643-23.4c-46.859-21.253-101.424-18.546-144.662,9.352-35.239,22.741-65.771,60.394-65.2,122.58,0,0,46.9,48.237,96.474-48.237h36.178s34.836,120.6,132.664,108.521,120.6-24.118,120.6-24.118Z" transform="translate(-79.137 29.421)" fill="#be7c5e"/>
      <rect id="Rectangle_16" data-name="Rectangle 16" width="59.699" height="93.803" rx="22.21" transform="translate(407.36 532.376) rotate(45)" fill="#be7c5e"/>
      <rect id="Rectangle_17" data-name="Rectangle 17" width="59.699" height="93.803" rx="22.21" transform="translate(368.49 486.817) rotate(45)" fill="#be7c5e"/>
      <rect id="Rectangle_18" data-name="Rectangle 18" width="59.699" height="102.327" rx="22.21" transform="translate(461.622 562.516) rotate(45)" fill="#be7c5e"/>
      <rect id="Rectangle_19" data-name="Rectangle 19" width="41.689" height="68.222" rx="15.51" transform="translate(497.14 611.434) rotate(45)" fill="#be7c5e"/>
      <path id="Path_11" data-name="Path 11" d="M819.848,483.816,711.315,532.053,602.77,266.738l96.486-36.178Z" transform="translate(132.208 50.567)" fill="#fff"/>
      <path id="Path_12" data-name="Path 12" d="M108.25,434.368,216.783,482.6,325.328,217.29,228.842,181.1Z" transform="translate(23.743 39.719)" fill="#fff"/>
      <path id="Path_13" data-name="Path 13" d="M9.34,92.09l241.2,108.533-156.77,361.8L9.34,526.246Z" transform="translate(2.049 20.196)" fill="#333"/>
      <path id="Path_14" data-name="Path 14" d="M923.1,141.54,681.9,250.085,838.682,611.874,923.1,575.7Z" transform="translate(149.564 31.042)" fill="#4d8af0"/>
    </g>
  </g>
</svg>
