<svg xmlns="http://www.w3.org/2000/svg" xmlns:xlink="http://www.w3.org/1999/xlink" width="1080" height="805" viewBox="0 0 1080 805">
  <defs>
    <linearGradient id="linear-gradient" x1="0.5" y1="1" x2="0.5" gradientUnits="objectBoundingBox">
      <stop offset="0" stop-color="gray" stop-opacity="0.251"/>
      <stop offset="0.54" stop-color="gray" stop-opacity="0.122"/>
      <stop offset="1" stop-color="gray" stop-opacity="0.102"/>
    </linearGradient>
    <clipPath id="clip-custom_1">
      <rect width="1080" height="805"/>
    </clipPath>
  </defs>
  <g id="custom_1" data-name="custom – 1" clip-path="url(#clip-custom_1)">
    <g id="Group_1460" data-name="Group 1460" transform="translate(0.007 3.02)">
      <g id="Group_1459" data-name="Group 1459" transform="translate(823.86 469.887)" opacity="0.1">
        <path id="Path_1083" data-name="Path 1083" d="M929.263,619.247s-77.1-10.012-19.6,114.772c0,0,52.4-22.454,54.487-73.1A40.3,40.3,0,0,0,930.355,619.4Z" transform="translate(-888.357 -522.95)" fill="#6c63ff"/>
        <path id="Path_1084" data-name="Path 1084" d="M930.733,619.06s17.453,69.578-20.673,114.969" transform="translate(-888.696 -522.95)" fill="none" stroke="#535461" stroke-miterlimit="10" stroke-width="1"/>
        <path id="Path_1085" data-name="Path 1085" d="M909,739.608s27.761-68.417,79.6-93.8a111.874,111.874,0,0,0,50.8-49.318,188.1,188.1,0,0,0,12.729-31.964" transform="translate(-888.679 -522.1)" fill="none" stroke="#535461" stroke-miterlimit="10" stroke-width="2"/>
        <path id="Path_1086" data-name="Path 1086" d="M1086.963,547.684c-5.4,6.793-33.372,16.735-33.372,16.735s3.367-29.532,8.772-36.275a15.75,15.75,0,1,1,24.61,19.57Z" transform="translate(-890.934 -521.428)" fill="#6c63ff"/>
        <path id="Path_1087" data-name="Path 1087" d="M1077.153,602.259c-8.229,2.766-37.094-4.115-37.094-4.115s18.852-22.917,27.081-25.683a15.751,15.751,0,1,1,10.013,29.8Z" transform="translate(-890.722 -522.206)" fill="#6c63ff"/>
        <path id="Path_1088" data-name="Path 1088" d="M1024.406,666.869c-8.5-1.762-29.946-22.277-29.946-22.277s27.839-10.267,36.345-8.505a15.751,15.751,0,0,1-6.4,30.773Z" transform="translate(-890.012 -523.213)" fill="#6c63ff"/>
        <path id="Path_1089" data-name="Path 1089" d="M973.353,706.743c-8.673-.306-33.283-16.893-33.283-16.893s25.713-14.845,34.386-14.53a15.751,15.751,0,0,1-1.1,31.412Z" transform="translate(-889.164 -523.827)" fill="#6c63ff"/>
        <path id="Path_1090" data-name="Path 1090" d="M1012.756,578.7c1.112,8.614,19.9,31.57,19.9,31.57s12.374-26.973,11.271-35.586a15.75,15.75,0,1,0-31.176,4.016Z" transform="translate(-890.292 -522.029)" fill="#6c63ff"/>
        <path id="Path_1091" data-name="Path 1091" d="M953.67,626.072c3.633,7.876,28.439,24.167,28.439,24.167s3.741-29.444.109-37.319a15.751,15.751,0,1,0-28.548,13.162Z" transform="translate(-889.346 -522.697)" fill="#6c63ff"/>
        <path id="Path_1092" data-name="Path 1092" d="M902.606,680.051c2.245,8.387,23.951,28.627,23.951,28.627s8.662-28.38,6.409-36.768a15.751,15.751,0,1,0-30.36,8.141Z" transform="translate(-888.567 -523.577)" fill="#6c63ff"/>
        <path id="Path_1093" data-name="Path 1093" d="M1086.963,547.684c-5.4,6.793-33.372,16.735-33.372,16.735s3.367-29.532,8.772-36.275a15.75,15.75,0,1,1,24.61,19.57Z" transform="translate(-890.934 -521.428)" opacity="0.25"/>
        <path id="Path_1094" data-name="Path 1094" d="M1077.153,602.259c-8.229,2.766-37.094-4.115-37.094-4.115s18.852-22.917,27.081-25.683a15.751,15.751,0,1,1,10.013,29.8Z" transform="translate(-890.722 -522.206)" opacity="0.25"/>
        <path id="Path_1095" data-name="Path 1095" d="M1024.406,666.869c-8.5-1.762-29.946-22.277-29.946-22.277s27.839-10.267,36.345-8.505a15.751,15.751,0,0,1-6.4,30.773Z" transform="translate(-890.012 -523.213)" opacity="0.25"/>
        <path id="Path_1096" data-name="Path 1096" d="M973.353,706.743c-8.673-.306-33.283-16.893-33.283-16.893s25.713-14.845,34.386-14.53a15.751,15.751,0,0,1-1.1,31.412Z" transform="translate(-889.164 -523.827)" opacity="0.25"/>
        <path id="Path_1097" data-name="Path 1097" d="M1012.756,578.7c1.112,8.614,19.9,31.57,19.9,31.57s12.374-26.973,11.271-35.586a15.75,15.75,0,1,0-31.176,4.016Z" transform="translate(-890.292 -522.029)" opacity="0.25"/>
        <path id="Path_1098" data-name="Path 1098" d="M953.67,626.072c3.633,7.876,28.439,24.167,28.439,24.167s3.741-29.444.109-37.319a15.751,15.751,0,1,0-28.548,13.162Z" transform="translate(-889.346 -522.697)" opacity="0.25"/>
        <path id="Path_1099" data-name="Path 1099" d="M902.606,680.051c2.245,8.387,23.951,28.627,23.951,28.627s8.662-28.38,6.409-36.768a15.751,15.751,0,1,0-30.36,8.141Z" transform="translate(-888.567 -523.577)" opacity="0.25"/>
        <path id="Path_1100" data-name="Path 1100" d="M946.56,771.227s27.76-68.417,79.6-93.795a111.883,111.883,0,0,0,50.775-49.329,188.138,188.138,0,0,0,12.729-31.964" transform="translate(-889.265 -522.593)" fill="none" stroke="#535461" stroke-miterlimit="10" stroke-width="2"/>
        <path id="Path_1101" data-name="Path 1101" d="M1124.47,579.308c-5.4,6.793-33.37,16.735-33.37,16.735s3.366-29.533,8.771-36.276a15.75,15.75,0,0,1,24.61,19.57Z" transform="translate(-891.519 -521.945)" fill="#6c63ff"/>
        <path id="Path_1102" data-name="Path 1102" d="M1114.683,633.87c-8.229,2.766-37.093-4.115-37.093-4.115s18.852-22.917,27.082-25.684a15.751,15.751,0,0,1,10.011,29.8Z" transform="translate(-891.308 -522.708)" fill="#6c63ff"/>
        <path id="Path_1103" data-name="Path 1103" d="M1061.937,698.509c-8.495-1.762-29.947-22.277-29.947-22.277s27.84-10.268,36.345-8.505a15.75,15.75,0,0,1-6.4,30.773Z" transform="translate(-890.597 -523.706)" fill="#6c63ff"/>
        <path id="Path_1104" data-name="Path 1104" d="M1010.873,738.333c-8.672-.305-33.283-16.893-33.283-16.893s25.713-14.825,34.386-14.52a15.751,15.751,0,0,1-1.1,31.412Z" transform="translate(-889.749 -524.32)" fill="#6c63ff"/>
        <path id="Path_1105" data-name="Path 1105" d="M1050.275,610.343c1.113,8.613,19.905,31.57,19.905,31.57s12.374-26.973,11.27-35.587a15.75,15.75,0,1,0-31.176,4.017Z" transform="translate(-890.877 -522.522)" fill="#6c63ff"/>
        <path id="Path_1106" data-name="Path 1106" d="M991.213,657.661c3.632,7.875,28.44,24.167,28.44,24.167s3.74-29.444.109-37.319a15.751,15.751,0,0,0-28.548,13.162Z" transform="translate(-889.944 -523.219)" fill="#6c63ff"/>
        <path id="Path_1107" data-name="Path 1107" d="M940.145,711.7c2.245,8.388,23.951,28.627,23.951,28.627s8.663-28.38,6.409-36.767a15.751,15.751,0,0,0-30.36,8.14Z" transform="translate(-889.16 -524.101)" fill="#6c63ff"/>
      </g>
      <path id="Path_1108" data-name="Path 1108" d="M63.3,474.07c17.089,73.043,53.266,136.183,110.441,166.788,118.818,63.6,386.785,30.8,586.778-6.891a457.959,457.959,0,0,0,260.406-148.843Z" transform="translate(-51.635 -50.803)" fill="#6c63ff" opacity="0.1"/>
      <path id="Path_1109" data-name="Path 1109" d="M1112.479,123.551H1002.747a9.485,9.485,0,0,1,0-18.97h18.97a9.485,9.485,0,0,1,0-18.97h-13.546a9.485,9.485,0,1,1,0-18.97h57.273c-12.709-5.906-27.564-10.11-44.673-12.315C864.6,34.265,808.847,47.535,789.179,61.219,764.913,78.052,737.842,90.436,708.91,96.4c-96.364,19.856-276.56,43.777-439.884-7.678C187.852,63.128,127.517,106.364,91.36,178.58H1131.527c-1.358-20.988-5.424-40.361-12.886-57.332A9.43,9.43,0,0,1,1112.479,123.551Z" transform="translate(-52.072 -44.1)" fill="#6c63ff" opacity="0.1"/>
      <path id="Path_1110" data-name="Path 1110" d="M53.8,319.2a483.4,483.4,0,0,0,4.263,127.442l963.423,35.232a452.826,452.826,0,0,0,66.94-102.083Zm381.046,90.91h-18.97a9.485,9.485,0,1,1,0,18.97H306.146a9.485,9.485,0,1,1,0-18.97h18.97a9.485,9.485,0,0,1,0-18.97H311.571a9.485,9.485,0,1,1,0-18.969H421.3a9.485,9.485,0,1,1,0,18.969h13.545a9.485,9.485,0,0,1,0,18.97Z" transform="translate(-51.45 -48.389)" fill="#6c63ff" opacity="0.1"/>
      <path id="Path_1111" data-name="Path 1111" d="M1130.995,181.38,79.162,206.975C66.374,239.864,57.938,277.045,54,315.585H1112.566a449.343,449.343,0,0,0,15.288-69.234C1131,223.7,1132.264,201.787,1130.995,181.38ZM267.538,265.222h-18.97a9.485,9.485,0,0,1,0,18.97H138.837a9.485,9.485,0,1,1,0-18.97h18.97a9.485,9.485,0,0,1,0-18.97H144.261a9.485,9.485,0,1,1,0-18.97H253.993a9.485,9.485,0,1,1,0,18.97h13.545a9.485,9.485,0,1,1,0,18.97Z" transform="translate(-51.49 -46.24)" fill="#6c63ff" opacity="0.1"/>
      <path id="Path_1112" data-name="Path 1112" d="M977.752,843.124s-43.865-240.59-127.511-279.632c-70.878-33.106-147.524-55.422-169.319-61.476a94.142,94.142,0,0,0-11.232-14.658c-29.788-31.1-47.685-30.517-50.579-30.133a151.475,151.475,0,0,1-2.953-18.7c-.089-.984-.177-1.9-.256-2.874l.256-.128q-.266-2.791-.473-5.759a148.247,148.247,0,0,0,33.263-24.226c.128.423.236.847.374,1.28q32.2-27.219,63.071-55.915c5.906-5.523,12.108-11.518,14.116-19.3a28.328,28.328,0,0,0,.738-8.19c.266-5.906-1.132-11.941-1.369-17.926a20.463,20.463,0,0,1,.236-2.835c1.378-9.795,8.19-17.837,13.782-26.057a122.876,122.876,0,0,0,20.9-70.346,119.13,119.13,0,0,0-4.922-35.439c-4.361-14.589-13.437-29.916-28.548-33.106-5.847-1.231-11.921-.463-17.887-.847-24.7-1.575-43.186-21.657-62.884-36.374A165.983,165.983,0,0,0,564.28,68.54c-9.3-.984-18.91-1.053-27.76,1.9-19.875,6.615-31.944,27.042-51.091,35.439-14.156,6.241-30.517,5.227-45.283,9.913-21.982,6.989-40.636,29.532-41.128,52.7v3c-.246,11.7,3.938,23.626,4.272,35.606q0,1.624.049,3.258c-.108,12.935-1.654,25.91-6.369,38.067-2.54,6.546-5.808,14.126-5.276,20.673-.3,4.007.482,7.767,3.268,10.828l4.755-4.194a143.741,143.741,0,0,0-2.392,26.166c0,44.239,20.121,83.852,51.859,110.51q.276,4.42.532,9.47c.748,14.589,1.339,32.889,1.172,52.833l-46.425,42.674-119.35,54.142s-109.151,23.055-85.644,176.4l11.222,95.212h99.652l-.227.5H458.023l.089-.5H810.019l-.069.5h13.782v-.5ZM619.988,459.666a102.3,102.3,0,0,1,7.088,19.491,79.826,79.826,0,0,1-7.649-20.554l.148.266ZM450.846,479.355q0,2.815-.1,5.68l-.236.335a48.29,48.29,0,0,1,.335-6.064Z" transform="translate(-53.706 -44.472)" fill="url(#linear-gradient)"/>
      <path id="Path_1113" data-name="Path 1113" d="M662.572,507.521,642.883,695.544l-105.332,33.47s-136.833-25.595-101.394-99.426c25.211-52.518,24.512-146.372,22.012-196.183-.985-20.22-2.324-33.184-2.324-33.184S635.008,243.7,620.242,384.47c-2.855,27.258-3.022,48.571-1.437,65.227C625.449,519.039,662.572,507.521,662.572,507.521Z" transform="translate(-57.356 -48.491)" fill="#fdc2cc"/>
      <path id="Path_1114" data-name="Path 1114" d="M662.572,507.521,642.883,695.544l-105.332,33.47s-136.833-25.595-101.394-99.426c25.211-52.518,24.512-146.372,22.012-196.183-.985-20.22-2.324-33.184-2.324-33.184S635.008,243.7,620.242,384.47c-2.855,27.258-3.022,48.571-1.437,65.227C625.449,519.039,662.572,507.521,662.572,507.521Z" transform="translate(-57.356 -48.491)" opacity="0.03"/>
      <path id="Path_1115" data-name="Path 1115" d="M620.646,381.47c-2.855,27.258-3.022,48.571-1.437,65.227a142.808,142.808,0,0,1-160.636-16.292c-.984-20.22-2.323-33.185-2.323-33.185S635.412,240.7,620.646,381.47Z" transform="translate(-57.761 -48.444)" opacity="0.1"/>
      <circle id="Ellipse_93" data-name="Ellipse 93" cx="142.74" cy="142.74" r="142.74" transform="translate(350.253 124.341)" fill="#fdc2cc"/>
      <circle id="Ellipse_94" data-name="Ellipse 94" cx="142.74" cy="142.74" r="142.74" transform="translate(350.253 124.341)" opacity="0.03"/>
      <path id="Path_1116" data-name="Path 1116" d="M964.3,849.4H224.028L213.2,755.881C190.558,605.265,295.89,582.624,295.89,582.624l115.176-53.159,45.775-42.822c-14.766,56.112,96.965,172.764,96.965,172.764h0a26.415,26.415,0,0,0,2.037-2.117c3.013-3.288,10.208-11.518,27.062-31.934,6.025-7.314,13.3-16.184,22.061-26.953,42.133-51.78,20.515-112.961,14.057-125.611l-.4-.787c-.246-.453-.433-.817-.581-1.073a1.593,1.593,0,0,0-.148-.266,1.609,1.609,0,0,1-.108-.2l54.143,42.33s2.077.551,5.907,1.634c21.067,5.907,95.074,27.869,163.412,60.384C921.975,613.141,964.3,849.4,964.3,849.4Z" transform="translate(-53.922 -50.747)" fill="#4444c8"/>
      <path id="Path_1117" data-name="Path 1117" d="M717.475,623.967c-8.86-8.86-68.909-19.688-68.909-19.688,1.968,23.626-70.877,60.049-70.877,60.049L583.1,849.4H548.177L542.27,683.032,559,659.406h0l2.038-2.117A324.847,324.847,0,0,0,588.1,625.355c6.025-7.314,13.3-16.184,22.061-26.953,42.133-51.78,20.515-112.961,14.057-125.61l-.4-.788c-.236-.463-.424-.817-.581-1.073a1.6,1.6,0,0,0-.148-.266,1.574,1.574,0,0,1-.108-.2h0S640.7,466.53,672.2,500a92.285,92.285,0,0,1,10.828,14.432C708.625,555.5,725.281,631.773,717.475,623.967Z" transform="translate(-59.102 -50.745)" fill="#6c63ff"/>
      <path id="Path_1118" data-name="Path 1118" d="M717.475,623.967c-8.86-8.86-68.909-19.688-68.909-19.688,1.968,23.626-70.877,60.049-70.877,60.049L583.1,849.4H548.177L542.27,683.032,559,659.406h0l2.038-2.117A324.847,324.847,0,0,0,588.1,625.355c6.025-7.314,13.3-16.184,22.061-26.953,42.133-51.78,20.515-112.961,14.057-125.61l-.4-.788c-.236-.463-.424-.817-.581-1.073a1.6,1.6,0,0,0-.148-.266,1.574,1.574,0,0,1-.108-.2h0S640.7,466.53,672.2,500a92.285,92.285,0,0,1,10.828,14.432C708.625,555.5,725.281,631.773,717.475,623.967Z" transform="translate(-59.102 -50.745)" fill="#6c63ff" opacity="0.1"/>
      <path id="Path_1119" data-name="Path 1119" d="M313.25,703.4s46.267,94.5,48.729,150.123" transform="translate(-55.531 -54.379)" opacity="0.1"/>
      <path id="Path_1120" data-name="Path 1120" d="M773.59,714.31,760.3,810.29h13.29Z" transform="translate(-11.853 -11.136)" opacity="0.1"/>
      <path id="Path_1121" data-name="Path 1121" d="M323.75,849.248l73.339-166.857s20.673-39.377,25.595-78.753,31.5-101.394,31.5-101.394,65.956-83.675,96.472-71.862-26.579,56.111-26.579,56.111,83.675,32.485,26.579,128.958-58.08,78.753-58.08,78.753L464.521,849.248Z" transform="translate(-55.695 -50.105)" opacity="0.1"/>
      <path id="Path_1122" data-name="Path 1122" d="M321.75,849.248l73.339-166.858s20.673-39.376,25.595-78.753c3.131-25.033,15.012-59.222,23.252-80.81a123.9,123.9,0,0,1,23.35-38.392c21.323-23.862,60.049-62.343,81.371-54.074,30.517,11.813-26.579,56.112-26.579,56.112s83.675,32.485,26.579,128.958-58.08,78.753-58.08,78.753L462.521,849.229Z" transform="translate(-55.664 -50.104)" fill="#fdc2cc"/>
      <circle id="Ellipse_95" data-name="Ellipse 95" cx="2.953" cy="2.953" r="2.953" transform="translate(533.846 183.897)" fill="#fff" opacity="0.15"/>
      <circle id="Ellipse_96" data-name="Ellipse 96" cx="2.953" cy="2.953" r="2.953" transform="translate(520.064 189.804)" fill="#fff" opacity="0.15"/>
      <path id="Path_1123" data-name="Path 1123" d="M448.5,131.935c14.245-4.607,30.054-3.613,43.718-9.736,18.477-8.289,30.123-28.351,49.3-34.848,8.545-2.894,17.818-2.786,26.786-1.861a158.559,158.559,0,0,1,79.4,31.373c19.009,14.461,36.846,34.179,60.679,35.724,5.758.374,11.616-.384,17.257.827C740.248,156.546,749,171.6,753.2,185.9a122.322,122.322,0,0,1-15.416,101c-5.394,8.072-11.97,15.977-13.3,25.595-1.3,9.431,2.717,19.206.374,28.439-1.969,7.649-7.875,13.536-13.624,18.96q-29.778,28.164-60.866,54.881c-10.77-34.218,5.03-71.065,2.569-106.848-.984-13.939-5.907-29.158-18.2-35.734-11.508-6.143-26.215-2.953-37.861-8.86-12.994-6.546-18.33-22.051-28.154-32.781-16.735-18.31-45.785-20.673-69.184-12.4s-42.527,25.28-61.034,41.867l-33.637,30.172c-6.566-7.4-1.585-18.763,1.969-28.016,5.3-13.87,6.458-28.824,6.1-43.55-.285-11.813-4.361-23.478-4.125-34.976C409.289,160.966,427.284,138.8,448.5,131.935Z" transform="translate(-56.91 -44.737)" opacity="0.1"/>
      <path id="Path_1124" data-name="Path 1124" d="M448.5,128.935c14.245-4.607,30.054-3.613,43.718-9.736,18.477-8.289,30.123-28.351,49.3-34.848,8.545-2.894,17.818-2.786,26.786-1.861a158.559,158.559,0,0,1,79.4,31.373c19.009,14.461,36.846,34.179,60.679,35.724,5.758.374,11.616-.384,17.257.827C740.248,153.546,749,168.6,753.2,182.9a122.322,122.322,0,0,1-15.416,101c-5.394,8.072-11.97,15.977-13.3,25.595-1.3,9.431,2.717,19.206.374,28.44-1.969,7.649-7.875,13.536-13.624,18.96q-29.778,28.164-60.866,54.881c-10.77-34.218,5.03-71.065,2.569-106.848-.984-13.939-5.907-29.158-18.2-35.734-11.508-6.143-26.215-2.953-37.861-8.86-12.994-6.546-18.33-22.051-28.154-32.781-16.735-18.31-45.785-20.673-69.184-12.4s-42.527,25.28-61.034,41.867l-33.637,30.172c-6.566-7.4-1.585-18.763,1.969-28.016,5.3-13.87,6.458-28.823,6.1-43.55-.285-11.813-4.361-23.478-4.125-34.976C409.289,157.966,427.284,135.8,448.5,128.935Z" transform="translate(-56.91 -44.69)" fill="#865a61"/>
    </g>
  </g>
</svg>
