<svg xmlns="http://www.w3.org/2000/svg" xmlns:xlink="http://www.w3.org/1999/xlink" width="422.039" height="312.303" viewBox="0 0 422.039 312.303">
  <defs>
    <linearGradient id="linear-gradient" x1="0.5" y1="1" x2="0.5" gradientUnits="objectBoundingBox">
      <stop offset="0" stop-color="gray" stop-opacity="0.251"/>
      <stop offset="0.54" stop-color="gray" stop-opacity="0.122"/>
      <stop offset="1" stop-color="gray" stop-opacity="0.102"/>
    </linearGradient>
  </defs>
  <g id="Group_1460" data-name="Group 1460" transform="translate(0.007 0.02)">
    <g id="Group_1459" data-name="Group 1459" transform="translate(321.942 183.609)" opacity="0.1">
      <path id="Path_1083" data-name="Path 1083" d="M904.342,619.13s-30.129-3.912-7.659,44.85c0,0,20.477-8.774,21.292-28.567a15.749,15.749,0,0,0-13.206-16.222Z" transform="translate(-888.357 -581.5)" fill="#6c63ff"/>
      <path id="Path_1084" data-name="Path 1084" d="M918.139,619.06s6.82,27.189-8.079,44.927" transform="translate(-901.711 -581.503)" fill="none" stroke="#535461" stroke-miterlimit="10" stroke-width="1"/>
      <path id="Path_1085" data-name="Path 1085" d="M909,632.946s10.848-26.736,31.106-36.653a43.719,43.719,0,0,0,19.854-19.273,73.515,73.515,0,0,0,4.974-12.491" transform="translate(-901.059 -547.95)" fill="none" stroke="#535461" stroke-miterlimit="10" stroke-width="2"/>
      <path id="Path_1086" data-name="Path 1086" d="M1066.631,531.688c-2.112,2.654-13.041,6.54-13.041,6.54s1.316-11.54,3.428-14.176a6.155,6.155,0,1,1,9.617,7.647Z" transform="translate(-990.027 -521.428)" fill="#6c63ff"/>
      <path id="Path_1087" data-name="Path 1087" d="M1054.555,583.389c-3.216,1.081-14.5-1.608-14.5-1.608s7.367-8.956,10.583-10.036a6.155,6.155,0,1,1,3.913,11.644Z" transform="translate(-981.702 -552.106)" fill="#6c63ff"/>
      <path id="Path_1088" data-name="Path 1088" d="M1006.162,647.992c-3.32-.689-11.7-8.705-11.7-8.705s10.879-4.012,14.2-3.324a6.155,6.155,0,0,1-2.5,12.025Z" transform="translate(-953.644 -591.854)" fill="#6c63ff"/>
      <path id="Path_1089" data-name="Path 1089" d="M953.076,687.6c-3.389-.119-13.006-6.6-13.006-6.6s10.048-5.8,13.437-5.678a6.155,6.155,0,0,1-.431,12.275Z" transform="translate(-920.177 -616.117)" fill="#6c63ff"/>
      <path id="Path_1090" data-name="Path 1090" d="M1012.576,567.262c.435,3.366,7.778,12.337,7.778,12.337s4.836-10.54,4.4-13.906a6.155,6.155,0,1,0-12.183,1.57Z" transform="translate(-964.72 -545.115)" fill="#6c63ff"/>
      <path id="Path_1091" data-name="Path 1091" d="M952.512,611.912c1.42,3.078,11.114,9.444,11.114,9.444s1.462-11.506.042-14.583a6.155,6.155,0,1,0-11.156,5.143Z" transform="translate(-927.375 -571.516)" fill="#6c63ff"/>
      <path id="Path_1092" data-name="Path 1092" d="M902.094,667.36c.877,3.277,9.359,11.187,9.359,11.187s3.385-11.09,2.5-14.368a6.155,6.155,0,1,0-11.864,3.181Z" transform="translate(-896.607 -606.214)" fill="#6c63ff"/>
      <path id="Path_1093" data-name="Path 1093" d="M1066.631,531.688c-2.112,2.654-13.041,6.54-13.041,6.54s1.316-11.54,3.428-14.176a6.155,6.155,0,1,1,9.617,7.647Z" transform="translate(-990.027 -521.428)" opacity="0.25"/>
      <path id="Path_1094" data-name="Path 1094" d="M1054.555,583.389c-3.216,1.081-14.5-1.608-14.5-1.608s7.367-8.956,10.583-10.036a6.155,6.155,0,1,1,3.913,11.644Z" transform="translate(-981.702 -552.106)" opacity="0.25"/>
      <path id="Path_1095" data-name="Path 1095" d="M1006.162,647.992c-3.32-.689-11.7-8.705-11.7-8.705s10.879-4.012,14.2-3.324a6.155,6.155,0,0,1-2.5,12.025Z" transform="translate(-953.644 -591.854)" opacity="0.25"/>
      <path id="Path_1096" data-name="Path 1096" d="M953.076,687.6c-3.389-.119-13.006-6.6-13.006-6.6s10.048-5.8,13.437-5.678a6.155,6.155,0,0,1-.431,12.275Z" transform="translate(-920.177 -616.117)" opacity="0.25"/>
      <path id="Path_1097" data-name="Path 1097" d="M1012.576,567.262c.435,3.366,7.778,12.337,7.778,12.337s4.836-10.54,4.4-13.906a6.155,6.155,0,1,0-12.183,1.57Z" transform="translate(-964.72 -545.115)" opacity="0.25"/>
      <path id="Path_1098" data-name="Path 1098" d="M952.512,611.912c1.42,3.078,11.114,9.444,11.114,9.444s1.462-11.506.042-14.583a6.155,6.155,0,1,0-11.156,5.143Z" transform="translate(-927.375 -571.516)" opacity="0.25"/>
      <path id="Path_1099" data-name="Path 1099" d="M902.094,667.36c.877,3.277,9.359,11.187,9.359,11.187s3.385-11.09,2.5-14.368a6.155,6.155,0,1,0-11.864,3.181Z" transform="translate(-896.607 -606.214)" opacity="0.25"/>
      <path id="Path_1100" data-name="Path 1100" d="M946.56,664.56s10.848-26.736,31.106-36.653a43.721,43.721,0,0,0,19.842-19.277,73.527,73.527,0,0,0,4.974-12.491" transform="translate(-924.17 -567.4)" fill="none" stroke="#535461" stroke-miterlimit="10" stroke-width="2"/>
      <path id="Path_1101" data-name="Path 1101" d="M1104.14,564.226c-2.112,2.654-13.04,6.54-13.04,6.54s1.316-11.541,3.427-14.176a6.155,6.155,0,0,1,9.617,7.647Z" transform="translate(-1013.108 -541.809)" fill="#6c63ff"/>
      <path id="Path_1102" data-name="Path 1102" d="M1092.085,615.393c-3.216,1.081-14.5-1.608-14.5-1.608s7.367-8.956,10.583-10.037a6.155,6.155,0,0,1,3.912,11.645Z" transform="translate(-1004.795 -571.954)" fill="#6c63ff"/>
      <path id="Path_1103" data-name="Path 1103" d="M1043.692,679.632c-3.32-.688-11.7-8.705-11.7-8.705s10.879-4.012,14.2-3.324a6.155,6.155,0,0,1-2.5,12.025Z" transform="translate(-976.737 -611.323)" fill="#6c63ff"/>
      <path id="Path_1104" data-name="Path 1104" d="M990.6,719.192c-3.389-.119-13.006-6.6-13.006-6.6s10.048-5.793,13.437-5.674a6.155,6.155,0,0,1-.431,12.275Z" transform="translate(-943.264 -635.561)" fill="#6c63ff"/>
      <path id="Path_1105" data-name="Path 1105" d="M1050.1,598.9c.435,3.366,7.779,12.337,7.779,12.337s4.835-10.54,4.4-13.906a6.155,6.155,0,1,0-12.183,1.57Z" transform="translate(-987.807 -564.584)" fill="#6c63ff"/>
      <path id="Path_1106" data-name="Path 1106" d="M990.57,644.621c1.419,3.078,11.114,9.444,11.114,9.444s1.462-11.506.042-14.583a6.155,6.155,0,0,0-11.156,5.143Z" transform="translate(-950.997 -592.085)" fill="#6c63ff"/>
      <path id="Path_1107" data-name="Path 1107" d="M939.961,700.239c.877,3.278,9.359,11.187,9.359,11.187s3.385-11.09,2.5-14.368a6.155,6.155,0,0,0-11.864,3.181Z" transform="translate(-920.037 -626.929)" fill="#6c63ff"/>
    </g>
    <path id="Path_1108" data-name="Path 1108" d="M63.3,474.07c6.678,28.544,20.815,53.217,43.158,65.177,46.431,24.855,151.147,12.037,229.3-2.693A178.96,178.96,0,0,0,437.518,478.39Z" transform="translate(-58.746 -308.679)" fill="#6c63ff" opacity="0.1"/>
    <path id="Path_1109" data-name="Path 1109" d="M490.39,75.136H447.509a3.706,3.706,0,0,1,0-7.413h7.413a3.706,3.706,0,0,1,0-7.413h-5.293a3.706,3.706,0,1,1,0-7.413H472.01a59.223,59.223,0,0,0-17.457-4.812c-61.026-7.84-82.815-2.654-90.5,2.693a85.463,85.463,0,0,1-31.367,13.749c-37.657,7.759-108.073,17.107-171.9-3-31.721-10-55.3,6.894-69.428,35.114H497.834a66.23,66.23,0,0,0-5.035-22.4A3.685,3.685,0,0,1,490.39,75.136Z" transform="translate(-76.011 -44.1)" fill="#6c63ff" opacity="0.1"/>
    <path id="Path_1110" data-name="Path 1110" d="M52.365,319.2A188.9,188.9,0,0,0,54.031,369l376.484,13.768a176.953,176.953,0,0,0,26.159-39.892Zm148.9,35.526h-7.413a3.706,3.706,0,1,1,0,7.413H150.975a3.706,3.706,0,1,1,0-7.413h7.413a3.707,3.707,0,0,1,0-7.413H153.1a3.706,3.706,0,1,1,0-7.413h42.881a3.706,3.706,0,1,1,0,7.413h5.293a3.707,3.707,0,0,1,0,7.413Z" transform="translate(-51.45 -213.385)" fill="#6c63ff" opacity="0.1"/>
    <path id="Path_1111" data-name="Path 1111" d="M474.865,181.38l-411.032,10A164.225,164.225,0,0,0,54,233.824H467.663a175.6,175.6,0,0,0,5.974-27.055A128.192,128.192,0,0,0,474.865,181.38ZM137.446,214.144h-7.413a3.706,3.706,0,0,1,0,7.413H87.152a3.706,3.706,0,1,1,0-7.413h7.413a3.706,3.706,0,0,1,0-7.413H89.272a3.706,3.706,0,1,1,0-7.413h42.881a3.706,3.706,0,1,1,0,7.413h5.293a3.706,3.706,0,1,1,0,7.413Z" transform="translate(-53.023 -128.583)" fill="#6c63ff" opacity="0.1"/>
    <path id="Path_1112" data-name="Path 1112" d="M501.583,370.858s-17.142-94.017-49.828-109.274c-27.7-12.937-57.649-21.658-66.166-24.024a36.785,36.785,0,0,0-4.389-5.728c-11.641-12.152-18.634-11.925-19.765-11.775a59.186,59.186,0,0,1-1.154-7.309c-.035-.385-.069-.742-.1-1.123l.1-.05q-.1-1.091-.185-2.25a57.931,57.931,0,0,0,13-9.467c.05.165.092.331.146.5q12.583-10.637,24.647-21.85c2.308-2.158,4.731-4.5,5.516-7.544a11.07,11.07,0,0,0,.289-3.2c.1-2.308-.442-4.666-.535-7.005a7.994,7.994,0,0,1,.092-1.108c.539-3.828,3.2-6.97,5.386-10.183a48.018,48.018,0,0,0,8.167-27.49,46.554,46.554,0,0,0-1.923-13.849c-1.7-5.7-5.251-11.691-11.156-12.937-2.285-.481-4.659-.181-6.99-.331-9.652-.616-16.876-8.463-24.574-14.214a64.862,64.862,0,0,0-32.152-12.479,25.76,25.76,0,0,0-10.848.742c-7.767,2.585-12.483,10.567-19.965,13.849-5.532,2.439-11.925,2.043-17.7,3.874-8.59,2.731-15.88,11.541-16.072,20.592V108.4c-.1,4.574,1.539,9.232,1.669,13.914q0,.635.019,1.273a41.875,41.875,0,0,1-2.489,14.876c-.992,2.558-2.27,5.52-2.062,8.078a5.407,5.407,0,0,0,1.277,4.232l1.858-1.639a56.186,56.186,0,0,0,19.33,53.41q.108,1.727.208,3.7c.292,5.7.523,12.852.458,20.646l-18.142,16.676-46.639,21.158s-42.654,9.009-33.468,68.932l4.385,37.207h38.942l-.089.2h57.8l.035-.2H436.036l-.027.2h5.386v-.2ZM361.776,221.012a39.976,39.976,0,0,1,2.77,7.617,31.2,31.2,0,0,1-2.989-8.032l.058.1Zm-66.1,7.694q0,1.1-.038,2.22l-.092.131a18.873,18.873,0,0,1,.131-2.37Z" transform="translate(-140.491 -58.775)" fill="url(#linear-gradient)"/>
    <path id="Path_1113" data-name="Path 1113" d="M521.064,396.778l-7.694,73.475-41.161,13.079s-53.471-10-39.622-38.853c9.852-20.523,9.579-57.2,8.6-76.664-.385-7.9-.908-12.968-.908-12.968s70.013-61.165,64.242-6.155a130.185,130.185,0,0,0-.562,25.489C506.557,401.279,521.064,396.778,521.064,396.778Z" transform="translate(-284.563 -217.411)" fill="#fdc2cc"/>
    <path id="Path_1114" data-name="Path 1114" d="M521.064,396.778l-7.694,73.475-41.161,13.079s-53.471-10-39.622-38.853c9.852-20.523,9.579-57.2,8.6-76.664-.385-7.9-.908-12.968-.908-12.968s70.013-61.165,64.242-6.155a130.185,130.185,0,0,0-.562,25.489C506.557,401.279,521.064,396.778,521.064,396.778Z" transform="translate(-284.563 -217.411)" opacity="0.03"/>
    <path id="Path_1115" data-name="Path 1115" d="M520.492,345.692a130.206,130.206,0,0,0-.562,25.489,55.806,55.806,0,0,1-62.773-6.367c-.385-7.9-.908-12.968-.908-12.968S526.263,290.682,520.492,345.692Z" transform="translate(-300.534 -215.565)" opacity="0.1"/>
    <circle id="Ellipse_93" data-name="Ellipse 93" cx="55.779" cy="55.779" r="55.779" transform="translate(136.867 48.577)" fill="#fdc2cc"/>
    <circle id="Ellipse_94" data-name="Ellipse 94" cx="55.779" cy="55.779" r="55.779" transform="translate(136.867 48.577)" opacity="0.03"/>
    <path id="Path_1116" data-name="Path 1116" d="M504.771,618.547H215.488L211.256,582c-8.848-58.857,32.314-67.7,32.314-67.7l45.008-20.773,17.888-16.734c-5.77,21.927,37.892,67.512,37.892,67.512h0a10.324,10.324,0,0,0,.8-.827c1.177-1.285,3.989-4.5,10.575-12.479,2.354-2.858,5.2-6.324,8.621-10.533,16.464-20.235,8.017-44.143,5.493-49.086l-.158-.308c-.1-.177-.169-.319-.227-.419a.62.62,0,0,0-.058-.1.62.62,0,0,1-.042-.077l21.158,16.542s.812.215,2.308.639c8.232,2.308,37.153,10.891,63.858,23.6C488.23,526.223,504.771,618.547,504.771,618.547Z" transform="translate(-149.019 -306.464)" fill="#4444c8"/>
    <path id="Path_1117" data-name="Path 1117" d="M610.736,530.365c-3.462-3.462-26.928-7.694-26.928-7.694.769,9.233-27.7,23.466-27.7,23.466l2.116,72.321H544.578l-2.308-65.012,6.539-9.232h0l.8-.827a126.942,126.942,0,0,0,10.575-12.479c2.354-2.858,5.2-6.324,8.621-10.533,16.465-20.234,8.017-44.143,5.493-49.086l-.158-.308c-.092-.181-.165-.319-.227-.419a.623.623,0,0,0-.058-.1.606.606,0,0,1-.042-.077h0s6.924-1.539,19.234,11.541a36.072,36.072,0,0,1,4.231,5.64C607.278,503.61,613.787,533.415,610.736,530.365Z" transform="translate(-353.463 -306.375)" fill="#6c63ff"/>
    <path id="Path_1118" data-name="Path 1118" d="M610.736,530.365c-3.462-3.462-26.928-7.694-26.928-7.694.769,9.233-27.7,23.466-27.7,23.466l2.116,72.321H544.578l-2.308-65.012,6.539-9.232h0l.8-.827a126.942,126.942,0,0,0,10.575-12.479c2.354-2.858,5.2-6.324,8.621-10.533,16.465-20.234,8.017-44.143,5.493-49.086l-.158-.308c-.092-.181-.165-.319-.227-.419a.623.623,0,0,0-.058-.1.606.606,0,0,1-.042-.077h0s6.924-1.539,19.234,11.541a36.072,36.072,0,0,1,4.231,5.64C607.278,503.61,613.787,533.415,610.736,530.365Z" transform="translate(-353.463 -306.375)" fill="#6c63ff" opacity="0.1"/>
    <path id="Path_1119" data-name="Path 1119" d="M313.25,703.4s18.08,36.93,19.042,58.665" transform="translate(-212.544 -449.789)" opacity="0.1"/>
    <path id="Path_1120" data-name="Path 1120" d="M765.493,714.31,760.3,751.817h5.193Z" transform="translate(-467.828 -439.538)" opacity="0.1"/>
    <path id="Path_1121" data-name="Path 1121" d="M323.75,593.369l28.659-65.2s8.078-15.387,10-30.775,12.31-39.622,12.31-39.622,25.774-32.7,37.7-28.082-10.386,21.927-10.386,21.927,32.7,12.695,10.386,50.394-22.7,30.775-22.7,30.775L378.76,593.369Z" transform="translate(-219.004 -281.094)" opacity="0.1"/>
    <path id="Path_1122" data-name="Path 1122" d="M321.75,593.356l28.659-65.2s8.078-15.387,10-30.775c1.223-9.782,5.866-23.143,9.086-31.579a48.417,48.417,0,0,1,9.125-15c8.332-9.325,23.466-24.362,31.8-21.131,11.925,4.616-10.386,21.927-10.386,21.927s32.7,12.695,10.386,50.394-22.7,30.775-22.7,30.775L376.76,593.349Z" transform="translate(-217.774 -281.081)" fill="#fdc2cc"/>
    <circle id="Ellipse_95" data-name="Ellipse 95" cx="1.154" cy="1.154" r="1.154" transform="translate(208.61 71.851)" fill="#fff" opacity="0.15"/>
    <circle id="Ellipse_96" data-name="Ellipse 96" cx="1.154" cy="1.154" r="1.154" transform="translate(203.225 74.159)" fill="#fff" opacity="0.15"/>
    <path id="Path_1123" data-name="Path 1123" d="M419.964,103.286c5.566-1.8,11.744-1.412,17.084-3.8,7.22-3.239,11.771-11.079,19.265-13.618a24.738,24.738,0,0,1,10.467-.727A61.961,61.961,0,0,1,497.809,97.4c7.428,5.651,14.4,13.356,23.712,13.96,2.25.146,4.539-.15,6.743.323,5.709,1.223,9.129,7.105,10.771,12.695a47.8,47.8,0,0,1-6.024,39.469c-2.108,3.154-4.678,6.243-5.2,10-.508,3.685,1.062,7.505.146,11.113-.769,2.989-3.077,5.289-5.324,7.409Q511,203.374,498.852,213.814c-4.208-13.372,1.966-27.77,1-41.754-.385-5.447-2.308-11.394-7.113-13.964-4.5-2.4-10.244-1.154-14.8-3.462-5.078-2.558-7.163-8.617-11-12.81-6.54-7.155-17.892-8.078-27.036-4.847s-16.618,9.879-23.85,16.361l-13.145,11.791c-2.566-2.893-.619-7.332.769-10.948,2.07-5.42,2.524-11.264,2.385-17.018-.111-4.616-1.7-9.175-1.612-13.668C404.642,114.631,411.674,105.967,419.964,103.286Z" transform="translate(-266.945 -69.223)" opacity="0.1"/>
    <path id="Path_1124" data-name="Path 1124" d="M419.964,100.286c5.566-1.8,11.744-1.412,17.084-3.8,7.22-3.239,11.771-11.079,19.265-13.618a24.739,24.739,0,0,1,10.467-.727A61.961,61.961,0,0,1,497.809,94.4c7.428,5.651,14.4,13.356,23.712,13.96,2.25.146,4.539-.15,6.743.323,5.709,1.223,9.129,7.105,10.771,12.695a47.8,47.8,0,0,1-6.024,39.469c-2.108,3.154-4.678,6.243-5.2,10-.508,3.685,1.062,7.505.146,11.114-.769,2.989-3.077,5.289-5.324,7.409Q511,200.374,498.852,210.814c-4.208-13.372,1.966-27.77,1-41.754-.385-5.447-2.308-11.394-7.113-13.964-4.5-2.4-10.244-1.154-14.8-3.462-5.078-2.558-7.163-8.617-11-12.81-6.54-7.155-17.892-8.078-27.036-4.847s-16.618,9.879-23.85,16.361l-13.145,11.791c-2.566-2.893-.619-7.332.769-10.948,2.07-5.42,2.524-11.264,2.385-17.018-.111-4.616-1.7-9.175-1.612-13.668C404.642,111.631,411.674,102.967,419.964,100.286Z" transform="translate(-266.945 -67.377)" fill="#865a61"/>
  </g>
</svg>
