<svg xmlns="http://www.w3.org/2000/svg" width="1071.512" height="1043.061" viewBox="0 0 1071.512 1043.061">
  <g id="Group_171" data-name="Group 171" transform="translate(-30 -153.238)">
    <g id="Image" transform="translate(30 153.238)">
      <g id="Background" transform="translate(0 279.743)">
        <path id="Background_base" data-name="Background base" d="M840.763,243.108c-194.71,170.977,194.71,163.544,194.71,208.519,0,113.226-270.038,113.226-270.038,113.226s-695.119-20.06-577.96-254.49S-57.9,256.475,8.1,75.847,1035.473,72.131,840.763,243.108Z" transform="translate(1071.036 564.853) rotate(180)" fill="#b7a223" opacity="0.27"/>
        <path id="Background_base-2" data-name="Background base" d="M1071.346-64.384c4.328-10.538-77.175-18.567-77.175-24.124,0-25.279,43.72-22.331,43.72-46.912S779.572-160,779.572-160h-606.1C44.5-160,1.11-158.563,0-147.089-1.1-135.583,216.225-119.136,216.225-96.7s-56.1-6.024-56.1,54.341S1027.137,43.247,1071.346-64.384Z" transform="translate(0 753.685)" fill="#e3edfa"/>
        <path id="Background_base-3" data-name="Background base" d="M-259.064,24.45c0-42.567,119.733-25.352,216.884,19.375s1.381,100.5-44.7,108.182S-259.064,67.017-259.064,24.45Z" transform="translate(259.064 153.197)" fill="#e2c224" opacity="0.27"/>
      </g>
      <g id="Iphone_" data-name="Iphone " transform="translate(436.962 0)">
        <g id="Iphone">
          <path id="Iphone_base" data-name="Iphone base" d="M46.667,73.142c0-28.086-13.591-54.065-35.7-68.247L3.947.4A2.63,2.63,0,0,0,0,2.877v1001.69c0,2.541,2.786,3.833,4.449,2.063L24.777,985c13.993-14.89,21.89-35.358,21.89-56.737Z" transform="translate(313.401 4.394)" fill="#2d3053"/>
          <path id="Iphone_base-2" data-name="Iphone base" d="M0,110.678C0,97.513,8.169,86.033,19.824,82.82L296.508,6.532c16.563-4.567,32.628,9.15,32.628,27.858V993.421c0,18.708-16.065,32.425-32.628,27.858L19.824,944.99C8.169,941.777,0,930.3,0,917.133Z" transform="translate(0 -5.648)" fill="#2d3053"/>
        </g>
        <g id="Display_Store" data-name="Display Store" transform="translate(18.358 26.157)">
          <path id="Mask" d="M0,92.594C0,79.339,8.2,67.787,19.875,64.577L249.352,1.508c16.55-4.549,32.577,9.235,32.577,28.017V935.943c0,18.782-16.027,32.565-32.577,28.017L19.875,900.891C8.2,897.681,0,886.128,0,872.874Z" transform="translate(0 -0.634)" fill="#fff"/>
          <g id="Display_store-2" data-name="Display store" transform="translate(0.671 418.677)">
            <g id="Display_store_" data-name="Display store " transform="translate(0 0)">
              <path id="Display_store_base" data-name="Display store base" d="M110,110.383H0V0H110V110.381ZM7.809,7.812V102.57h94.379V7.812Z" transform="translate(0 102.57)" fill="#7990dd"/>
              <path id="Display_store_base-2" data-name="Display store base" d="M110,110.383H0V0H110V110.381ZM7.809,7.812V102.57h94.379V7.812Z" fill="#7990dd"/>
              <path id="Display_store_base-3" data-name="Display store base" d="M110,110.383H0V0H110V110.381ZM7.809,7.812V102.57h94.379V7.812Z" transform="translate(102.189 205.139)" fill="#ff8d88"/>
              <path id="Display_store_base-4" data-name="Display store base" d="M78.192,110.383H0V0H78.192V110.381ZM5.552,7.812V102.57H72.641V7.812Z" transform="translate(204.378 205.139)" fill="#ff8d88"/>
            </g>
            <g id="Display_store_2" data-name="Display store " transform="translate(28.217 85.947)">
              <path id="Display_store_base-5" data-name="Display store base" d="M26.174,1.726C24.152,8.234,54.225,2.87,55.568,0q2.845,11.26-1.134,14.438C53.159,15.457,2.548,15,.592,12.4S1.845,6.5,5.647,5.691Q9.448,4.881,26.174,1.726Z" transform="translate(0 0)" fill="#7990dd"/>
              <path id="Display_store_base-6" data-name="Display store base" d="M26.174,1.726Q23.14,11.487,35.824,9c3.859-.756,9.414-2.643,13.571-3.67A9.049,9.049,0,0,0,55.568,0q2.845,11.26-1.134,14.438c-1.275,1.018-28.928,2.8-32.577,2.995C18.917,17.587,2.548,15,.592,12.4S1.845,6.5,5.647,5.691Q9.448,4.881,26.174,1.726Z" transform="translate(0 0)" fill="#ff8e88"/>
            </g>
            <g id="Display_store_3" data-name="Display store " transform="translate(25.555 165.697)">
              <path id="Display_store_base-7" data-name="Display store base" d="M17.694,17.158C19.405,23.791,41.8,3.166,41.421,0Q49.7,8.093,48.027,12.929c-.535,1.549-1.35,25.834-3,25.777q-1.448-.05-1.317-21.734-13.7,18.115-18.135,21.28c-2.382,1.7-20.73,2.844-23.732,1.667s-2.038-5.705.723-8.425Q5.33,28.774,17.694,17.158Z" transform="translate(0)" fill="#7990dd"/>
              <path id="Display_store_base-8" data-name="Display store base" d="M17.694,17.158q2.567,9.95,11.894,1.06c2.838-2.7,6.5-7.279,9.451-10.374A9.222,9.222,0,0,0,41.421,0Q49.7,8.093,48.027,12.929c-.535,1.549-1.35,25.834-3,25.777q-1.448-.05-1.317-21.734-13.7,18.115-18.135,21.28c-2.382,1.7-20.73,2.844-23.732,1.667s-2.038-5.705.723-8.425Q5.33,28.774,17.694,17.158Z" transform="translate(0)" fill="#ff8e88"/>
            </g>
            <rect id="Display_store_base-9" data-name="Display store base" width="171.78" height="7.868" transform="translate(108.167 16.209)" fill="#7990dd"/>
            <g id="Display_store_base-10" data-name="Display store base" transform="translate(126.525 8.341)">
              <rect id="Rectangle_23_Copy" data-name="Rectangle 23 Copy" width="4.765" height="46.918" rx="2.383" transform="translate(4.765)" fill="#fff"/>
              <path id="Rectangle_23" data-name="Rectangle 23" d="M6.4,0H9.484a6.4,6.4,0,0,1,6.4,6.4V145.374a3.2,3.2,0,0,1-3.2,3.2H3.2a3.2,3.2,0,0,1-3.2-3.2V6.4A6.4,6.4,0,0,1,6.4,0Z" transform="translate(0 23.459)" fill="#ff8e88"/>
              <path id="Rectangle_23_Copy_2" data-name="Rectangle 23 Copy 2" d="M.181,9.333A8.392,8.392,0,0,1,8.52,0h0A7.488,7.488,0,0,1,15.74,6.451l6.688,59.26a4.2,4.2,0,0,1-4.17,4.667H10.819a4.2,4.2,0,0,1-4.17-3.726Z" transform="translate(0.872 23.459)" fill="#7990dd"/>
            </g>
            <g id="Display_store_4" data-name="Display store " transform="translate(171.109 8.341)">
              <rect id="Display_store_base-11" data-name="Display store base" width="4.765" height="46.918" rx="2.383" transform="translate(4.765)" fill="#fff"/>
              <path id="Display_store_base-12" data-name="Display store base" d="M6.4,0H9.484a6.4,6.4,0,0,1,6.4,6.4V145.374a3.2,3.2,0,0,1-3.2,3.2H3.2a3.2,3.2,0,0,1-3.2-3.2V6.4A6.4,6.4,0,0,1,6.4,0Z" transform="translate(0 23.459)" fill="#ff8e88"/>
              <path id="Display_store_base-13" data-name="Display store base" d="M.181,9.333A8.392,8.392,0,0,1,8.52,0h0A7.488,7.488,0,0,1,15.74,6.451l6.688,59.26a4.2,4.2,0,0,1-4.17,4.667H10.819a4.2,4.2,0,0,1-4.17-3.726Z" transform="translate(0.872 23.459)" fill="#7990dd"/>
            </g>
            <g id="Display_store_5" data-name="Display store " transform="translate(194.713 8.341)">
              <rect id="Display_store_base-14" data-name="Display store base" width="4.765" height="46.918" rx="2.383" transform="translate(4.765)" fill="#fff"/>
              <path id="Display_store_base-15" data-name="Display store base" d="M6.4,0H9.484a6.4,6.4,0,0,1,6.4,6.4V145.374a3.2,3.2,0,0,1-3.2,3.2H3.2a3.2,3.2,0,0,1-3.2-3.2V6.4A6.4,6.4,0,0,1,6.4,0Z" transform="translate(0 23.459)" fill="#ff8e88"/>
              <path id="Display_store_base-16" data-name="Display store base" d="M.181,9.333A8.392,8.392,0,0,1,8.52,0h0A7.488,7.488,0,0,1,15.74,6.451l6.688,59.26a4.2,4.2,0,0,1-4.17,4.667H10.819a4.2,4.2,0,0,1-4.17-3.726Z" transform="translate(0.872 23.459)" fill="#7990dd"/>
            </g>
            <g id="Display_store_6" data-name="Display store " transform="translate(217.005 8.341)">
              <rect id="Display_store_base-17" data-name="Display store base" width="4.765" height="46.918" rx="2.383" transform="translate(4.765)" fill="#fff"/>
              <path id="Display_store_base-18" data-name="Display store base" d="M6.4,0H9.484a6.4,6.4,0,0,1,6.4,6.4V145.374a3.2,3.2,0,0,1-3.2,3.2H3.2a3.2,3.2,0,0,1-3.2-3.2V6.4A6.4,6.4,0,0,1,6.4,0Z" transform="translate(0 23.459)" fill="#ff8e88"/>
              <path id="Display_store_base-19" data-name="Display store base" d="M.181,9.333A8.392,8.392,0,0,1,8.52,0h0A7.488,7.488,0,0,1,15.74,6.451l6.688,59.26a4.2,4.2,0,0,1-4.17,4.667H10.819a4.2,4.2,0,0,1-4.17-3.726Z" transform="translate(0.872 23.459)" fill="#7990dd"/>
            </g>
            <g id="Display_store_7" data-name="Display store " transform="translate(239.297 8.341)">
              <rect id="Display_store_base-20" data-name="Display store base" width="4.765" height="46.918" rx="2.383" transform="translate(4.765)" fill="#fff"/>
              <path id="Display_store_base-21" data-name="Display store base" d="M6.4,0H9.484a6.4,6.4,0,0,1,6.4,6.4V145.374a3.2,3.2,0,0,1-3.2,3.2H3.2a3.2,3.2,0,0,1-3.2-3.2V6.4A6.4,6.4,0,0,1,6.4,0Z" transform="translate(0 23.459)" fill="#ff8e88"/>
              <path id="Display_store_base-22" data-name="Display store base" d="M.181,9.333A8.392,8.392,0,0,1,8.52,0h0A7.488,7.488,0,0,1,15.74,6.451l6.688,59.26a4.2,4.2,0,0,1-4.17,4.667H10.819a4.2,4.2,0,0,1-4.17-3.726Z" transform="translate(0.872 23.459)" fill="#7990dd"/>
            </g>
          </g>
        </g>
        <path id="Iphone_base-3" data-name="Iphone base" d="M0,46.6,188.827,0l-2.943,32.779a26.226,26.226,0,0,1-21.321,23.438L34.738,80.384A26.226,26.226,0,0,1,4.89,62.37Z" transform="translate(57.697 32.522)" fill="#2d3053"/>
      </g>
      <g id="Girl" transform="translate(400.31 453.922)">
        <g id="Body" transform="matrix(1, -0.017, 0.017, 1, 106.018, 41.956)">
          <path id="Body-2" data-name="Body" d="M16.4,9.494C41.5-7.248,36.482,1.1,51.578,12c8.194,5.917,19.794,32.581,4.725,88.467-4.725,17.525,22.109,19.218,24.391,31.808-22.263,11.77-61.107,28.048-76.307,5.193,6.105-11.062,6.822-21.1,7.319-41.473C12.258,73.41-3.1,56.083.565,43.418,3.587,32.963,12.642,12,16.4,9.494Z" transform="translate(2.852 36.7)" fill="#ffb0b6"/>
          <path id="Shadow" d="M0,19.114C3.514,5.91,18.9,0,18.9,0L28.967,39.582l-23,9.042S9.068,30.481,0,19.114Z" transform="matrix(0.999, -0.035, 0.035, 0.999, 10.288, 1.011)" fill="#e9989e"/>
          <path id="Shadow-2" data-name="Shadow" d="M15.893,9.494C41-7.248,35.975,1.1,51.072,12c8.194,5.917,19.794,32.581,4.725,88.467-4.725,17.525,22.109,19.218,24.391,31.808-8.1,4.281-50.953,6.836-61.5,10.21-8.89,2.843-10.72-7.048,10.354-37.869C43.144,83.987-1.839,49.981.058,43.418,3.08,32.963,12.136,12,15.893,9.494Z" transform="translate(3.358 36.7)" fill="#e9989e"/>
          <path id="Shirt" d="M17.559,24.275c.117-.078-1-.529-.992-1.333.006-.415.78-.809.8-1.352.007-.235-.765-.494-.76-.747.07-4.043.559-10.146.955-10.4C26.81,4.418,31.859,1.854,36,0,41.965,6.482,45.6,17.86,54.541,24.275c8.25,5.917,23.163,33.663,7.99,89.544-2.323,8.554-17.043,5.92-27.509,5.4-10.974-.55-24.089.895-23.833-9.532C11.744,87.1-3.1,72.05.589,59.387,3.632,48.933,13.775,26.781,17.559,24.275Z" transform="translate(0 23.251)" fill="#fff"/>
          <path id="Shadow-3" data-name="Shadow" d="M1.037,7.686c.254-.168-1.476-.622-.929-1.409.247-.356,1.063-.965.977-1.345-.1-.461-1.153-1.268-.77-1.171C5.2,5,5.953,3.639,14.575,2.144c.431.468-14.2,4.047-12.855,4.479C8.3,8.74,24.946,2.092,33.5,0c6.837,2.594,18.16,15.46,15.67,16.475-2.459,1-30.921-1.59-29.892-10.432C9.178,8.6-1.384,9.289,1.037,7.686Z" transform="translate(16.522 39.84)" fill="#e9edf0"/>
          <path id="Shadow-4" data-name="Shadow" d="M29.992.815c8.272-5.808,32.616,19.427,17.443,75.308-2.323,8.554-17.043,5.92-27.509,5.4,16.268.284,4.029-7.507,4.769-13.2.037-.284,5.99-15.144.284-16.247s-.393-7.787-3.179-8.084c-11.358-1.21-23.3.2-21.646-.378,6.252-2.17,14.723-1.468,18.575-15.047,2.616-9.22-1.673-15.88,3.029-20.859A53.071,53.071,0,0,1,29.992.815Z" transform="translate(15.095 60.947)" fill="#e9edf0"/>
        </g>
        <g id="Foot" transform="translate(5.652 245.23) rotate(-17)">
          <path id="Leg" d="M20.9,64.741c-7.079,7.466-2.724-7.816-7.239-24.44C7.735,27.751,6.759,20.439.945,10.353c-4.5-7.8,7.969-18.512,18.17-.5,5.07,8.953,8.709,20.533,12.726,29.308,1.526,2.622,2.681,9.685,0,12.037C31.841,51.2,22.93,62.6,20.9,64.741Z" transform="translate(44.104 249.464) rotate(40)" fill="#ffb0b6"/>
          <path id="Shoes" d="M15.037,17.761s3.213,8.959,11.255,0c2.447-2.726,5.522-7.242,8.039-10.336S35.935,0,35.935,0s8.425,6.778,7.246,11.372c-.378,1.472.815,23.919-.738,24-1.364.073-2.989-19.921-2.989-19.921s-11.4,17.819-15.315,21.1C22.04,38.315,4.9,40.877,1.988,40.039s-2.374-5.09,0-7.824S15.037,17.761,15.037,17.761Z" transform="translate(11.082 280.567) rotate(16)" fill="#0a1039"/>
          <path id="Pants" d="M78.612,4.945C81.5.98,88.833,9.544,100.278,7.99,113.218,6.233,126.2-1.6,128.446.291c6.456,5.414,16.346,8.926,18.826,15.7,2.062,3.039,5.984,22.169-.763,44.913-1.454,4.9-1.274,28.134-29.442,28.134-4.085,5.912-22.06,33.414-38.222,60.439C58.538,183.431,52.895,245.689,46.078,259.31c-6.566,13.118-49.15-1.335-45.9-17.722,2.2-11.088,23.3-98.675,21.162-113.968-2.49-17.8,12.741-43.327,47.572-101.2C70.012,23.834,75.721,8.91,78.612,4.945Z" transform="translate(34.804 0)" fill="#020687"/>
        </g>
        <g id="Papper_bag" data-name="Papper bag" transform="matrix(1, -0.017, 0.017, 1, 1.465, 243.382)">
          <g id="Papper_bag_base" data-name="Papper bag base" transform="translate(42.801 0)" fill="none" stroke="#0a1039" stroke-miterlimit="10" stroke-width="2">
            <rect width="36.209" height="75.522" rx="18.105" stroke="none"/>
            <rect x="1" y="1" width="34.209" height="73.522" rx="17.105" fill="none"/>
          </g>
          <path id="Papper_bag_base-2" data-name="Papper bag base" d="M19.059,1.675A2.069,2.069,0,0,1,21.09,0H92.795a2.069,2.069,0,0,1,2.069,2.09L93.88,99.455a2.069,2.069,0,0,1-1.947,2.045l-80.518,4.753-10.14-4.218a2.069,2.069,0,0,1-1.237-2.3Z" transform="translate(0 37.87)" fill="#e7ae34"/>
          <path id="Papper_bag_base-3" data-name="Papper bag base" d="M9.954,1.869A2.069,2.069,0,0,1,12.013,0H92.056a2.069,2.069,0,0,1,2.059,1.869l9.944,102.42A2.069,2.069,0,0,1,102,106.559H2.069A2.069,2.069,0,0,1,.01,104.29Z" transform="translate(10.273 37.87)" fill="#ffc23f"/>
        </g>
        <g id="Foot-2" data-name="Foot" transform="matrix(1, -0.017, 0.017, 1, 111.649, 193.416)">
          <path id="Leg-2" data-name="Leg" d="M40.634,24.715c.1.15,17.221,2.472,24.224,14.485,6.46,11.08,16.951,42.1,31.952,93.186l-15.1,16.77Q57.092,103.135,45.483,86.889C21.142,52.827,14.833,46.064,1.326,39.2-7.1,34.916,26.88-36.583,40.634,24.715Z" transform="translate(60.554 161.568) rotate(-41)" fill="#ffb0b6"/>
          <g id="Pants-2" data-name="Pants" transform="translate(0 0)">
            <path id="Pants-3" data-name="Pants" d="M194.546,241.649C172.61,233.6,107.178,199.778,84.509,190.2c-5.547-1.232-13.066-10.095-16.075-14.881C61.779,164.729,48.415,139.961,33.666,82.1,5.586,50.316-.366,43.675.277,42.789-1.771,29,8.175,11.6,8.967,7.565c.358-1.825,4.4-1.006,9.895-.186,4.386.654,9.7,1.307,14.8.617,13-1.758,26.044-9.593,28.305-7.7C68.459,5.711,78.4,9.226,80.89,16c19.462,13.947,22.837,64.169,34.337,120.551,12.948,4.61,61.258,25.635,100.978,50.886,6.631,4.216-11.5,54.353-20.816,54.355A2.42,2.42,0,0,1,194.546,241.649Z" transform="translate(0 0)" fill="#374abe"/>
            <path id="Texture" d="M159.729,194.655S53.371,158.64,49.837,141.913,37.5,36.78,32.237,33.053,0,0,0,0" transform="translate(42.748 9.319)" fill="none" stroke="#fff" stroke-linecap="round" stroke-linejoin="round" stroke-miterlimit="10" stroke-width="1" stroke-dasharray="4 4"/>
            <path id="Texture-2" data-name="Texture" d="M0,0S21.986,16.617,34.835,8.725" transform="translate(30.029 30.327)" fill="none" stroke="#fff" stroke-linecap="round" stroke-linejoin="round" stroke-miterlimit="10" stroke-width="1"/>
          </g>
        </g>
        <g id="Papper_bag-2" data-name="Papper bag" transform="translate(0 257.705) rotate(-16)">
          <g id="Papper_bag_base-4" data-name="Papper bag base" transform="translate(42.801 0)" fill="none" stroke="#0a1039" stroke-miterlimit="10" stroke-width="2">
            <rect width="36.209" height="75.522" rx="18.105" stroke="none"/>
            <rect x="1" y="1" width="34.209" height="73.522" rx="17.105" fill="none"/>
          </g>
          <path id="Papper_bag_base-5" data-name="Papper bag base" d="M19.059,1.675A2.069,2.069,0,0,1,21.09,0H92.795a2.069,2.069,0,0,1,2.069,2.09L93.88,99.455a2.069,2.069,0,0,1-1.947,2.045l-80.518,4.753-10.14-4.218a2.069,2.069,0,0,1-1.237-2.3Z" transform="translate(0 37.87)" fill="#e7ae34"/>
          <path id="Papper_bag_base-6" data-name="Papper bag base" d="M9.954,1.869A2.069,2.069,0,0,1,12.013,0H92.056a2.069,2.069,0,0,1,2.059,1.869l9.944,102.42A2.069,2.069,0,0,1,102,106.559H2.069A2.069,2.069,0,0,1,.01,104.29Z" transform="translate(10.273 37.87)" fill="#ffc23f"/>
        </g>
        <g id="Hand" transform="matrix(1, -0.017, 0.017, 1, 29.633, 92.025)">
          <path id="Hand-2" data-name="Hand" d="M49.16,166.273c2.3,9.325,2.624,13.923,1.505,16.987s-2.566.909-2.981.117c-1.785,3.477-3.292,1.994-4.364.885-1.831,2.722-4.058,1.478-4.837-.772-2.831,8.822-4.5-.2-4.339-1.214.244-1.524,1.2-4.571.47-5.478s-3.992,6.542-5.621,6,2.587-7.693,3.69-9.1c2.424-3.086,9.335-8.429,10.818-11.888,6.9-16.094,10.939-37.943,10.939-66.618,0-10.481,5.515-20.429,5.515-20.429C32.546,50.044,17.473,35.6,11.691,31.421,3.018,25.156-4.9,14.911,3.715,5.812s21.3-6.606,29.017,1.23C37.88,12.266,54.883,39.69,80.326,74.763,80.326,74.763,73.956,127.72,49.16,166.273Z" transform="translate(132.458 0) rotate(45)" fill="#ffb0b6"/>
          <path id="Shirt-2" data-name="Shirt" d="M31.236,51.66C20.462,41.8,15.152,33.921,11.691,31.421,3.018,25.156-4.9,14.911,3.715,5.812s21.3-6.606,29.017,1.23C35.809,10.164,44.564,19.723,55.381,35.6,62.663,46.285,38.459,58.272,31.236,51.66Z" transform="translate(132.458 0) rotate(45)" fill="#fff"/>
          <path id="Shadow-5" data-name="Shadow" d="M4.433.008C16.957-.337,24.163,10.4,24.081,21.4c-.032,4.383-.6,17.333-4.177,36.208C18.4,65.526,7.892,65.151.083,61.375c-1.23-.595,11.564-.578,13.031-3.889.724-1.635-8.125-4.644-5.944-6.786,1.914-1.88,9.612-2.488,10.962-5.286C24.069,33.1,21.67,10.776,4.433.008Z" transform="translate(126.542 6.728)" fill="#e9edf0"/>
        </g>
        <g id="Head" transform="translate(85.853 0)">
          <g id="Face_" data-name="Face " transform="matrix(1, -0.017, 0.017, 1, 0, 7.147)">
            <path id="Face_base" data-name="Face base" d="M8.307,63.6C6.1,62.711,4.8,56.452,5.263,49.254a8,8,0,0,0-.533-3C4.125,44-.773,43.332.1,40.42c1.123-3.729,9.234-10.11,10.878-14.181,7.394-18.3,17.312-31.549,35.626-24.15s16.245,23.82,8.851,42.12S11.554,64.916,8.307,63.6Z" transform="translate(0 0)" fill="#ffb0b6"/>
            <g id="Lips" transform="translate(4.494 50.612)">
              <path id="Lips_base" data-name="Lips base" d="M3.646.691c2.5.733,1.034,1.727,5.545.721C6.48,3.166,5.44,4.362.574,2.716c-.1-.532-1.331-1.46.159-2.7C.877-.1.615.316,1.335.58A19.4,19.4,0,0,1,3.646.691Z" transform="translate(0 0)" fill="#ff5932"/>
              <path id="Lips_base-2" data-name="Lips base" d="M8.769,0c-2.9,1.895-2.222,4.469-7.747,3.919a1.713,1.713,0,0,1-.4-2.906C1.672,0,6.043.991,8.769,0Z" transform="translate(0.15 1.577)" fill="#ff5932"/>
              <path id="Lips_base-3" data-name="Lips base" d="M8.136.407A13.224,13.224,0,0,1,3.443,2.416C2.8,2.463-.343,1.831.031,1.5c.095-.084.116-.163.066-.248.775.208,1.121-.158,1.6-.08.332.055,1.177.6,1.611.692,1.486.328,3.427-.745,4.847-1.523C8.163.337,9.335-.467,8.136.407Z" transform="translate(0.478 1.376)" fill="#f01b00"/>
            </g>
            <path id="Face_base-2" data-name="Face base" d="M4.375,0c3.371-.118,9.732,4.519,9.748,5.457.007.4-6.481-2.69-12.689-1.39C-1.809,4.75,1,.12,4.375,0Z" transform="translate(14.387 21.622)" fill="#510000"/>
            <path id="Face_base-3" data-name="Face base" d="M2.552,2.579C1.368,3.413.469,4.517.067,4.693S1.119,1.324,3.209.283A1.054,1.054,0,0,1,3.518.141Q3.557.13,3.6.123,3.658.1,3.72.085c2.357-.651,6.84,2.626,6.321,2.7-.321.043-2.382-1.089-4.415-1.176a4.271,4.271,0,0,1,.258.662c.423,1.419.048,2.767-.836,3.011S3.1,4.572,2.681,3.153a4.268,4.268,0,0,1-.129-.574Z" transform="translate(14.325 27.791) rotate(25)" fill="#510000"/>
            <path id="Face_base-4" data-name="Face base" d="M0,8.107c-.062-.156,1.377-.569,2.113-1,.515-.3.734-1.131.307-1.235C1.311,5.6-.437,2.9,1.913,1.591A12.137,12.137,0,0,1,6.061.006C7.836-.163,8.092,3.364,7.812,3.311S7.289.74,6.185.845A12.018,12.018,0,0,0,2.447,2.476c-1.574.884-.114,2.456.509,3.031a1.067,1.067,0,0,1-.071,1.679C2.471,7.583.107,8.373,0,8.107Z" transform="translate(39.925 33.684)" fill="#ff6868"/>
          </g>
          <g id="glasses" transform="matrix(1, -0.017, 0.017, 1, 3.911, 24.225)">
            <path id="glasses_base" data-name="glasses base" d="M3.621,25.864c-1.14,0-2.078-1.284-2.712-3.713A38.486,38.486,0,0,1,0,12.932,38.486,38.486,0,0,1,.909,3.713C1.543,1.284,2.481,0,3.621,0S5.7,1.284,6.333,3.713a38.4,38.4,0,0,1,.909,9.219,38.4,38.4,0,0,1-.909,9.219C5.7,24.58,4.761,25.864,3.621,25.864Zm0-2.069a.4.4,0,0,1,.179.034l-.007-.01a1.361,1.361,0,0,1-.172-.239c.028-.047.057-.1.087-.157a9.983,9.983,0,0,0,.731-2.3,40.451,40.451,0,0,0,.735-8.193,40.451,40.451,0,0,0-.735-8.193,10.015,10.015,0,0,0-.731-2.3c-.026-.052-.057-.106-.087-.157-.015.026-.049.083-.087.157a10.089,10.089,0,0,0-.732,2.3,40.575,40.575,0,0,0-.734,8.193A40.575,40.575,0,0,0,2.8,21.125a10.058,10.058,0,0,0,.732,2.3c.026.052.057.106.087.157a1.436,1.436,0,0,1-.178.249A.438.438,0,0,1,3.621,23.8Z" transform="translate(9.689 0) rotate(22)" fill="#0a1039"/>
            <path id="glasses_base-2" data-name="glasses base" d="M0,1.2,25.026,0l.054,1.035L.047,3.027Z" transform="translate(12.918 9.455) rotate(22)" fill="#0a1039"/>
          </g>
          <path id="Hair" d="M65.847,5.281c5.293,4.443,7.4,25.191,10.83,43.271,2.052,10.812,17.746,3.919,20.67,21.72,3.621,22.045-28.117,33.958-39.71,22.511-3.44-3.4-7.113-8.028-5.979-19.479C48.8,86.291,51.874,90,60.879,97.267,50.644,93.188,47.763,86.573,48.267,79.9q1.106-14.647-4.756-20.234-3.279-1.227-4.874-6.173Q43.822,51,45.311,47.116c1.489-3.879,1.17-7.41-.814-8.893q-1.984-1.483-7.425,3.255c-.978,1.9-.653,5.058-1.677,4.579-1.17-.547-2.018-10.325-3.226-10.789q-9.785-3.756-14.464-17.65Q12.883,22.64,5.947,36.763-3.324,22.232,1.858,8.731C3.787,3.708,13.228-2.443,22.2,1,35.239,6.007,55.754.088,62.386,2.633A7.967,7.967,0,0,1,65.847,5.281Z" transform="translate(3.814 0)" fill="#510000"/>
        </g>
      </g>
    </g>
    <g id="lOGO" transform="translate(559.997 542.431)" opacity="0.68" style="isolation: isolate">
      <path id="XMLID_6_" d="M362.943,225.936l-27.843-27.9L363.332,169.8c1.4,1.4,3.016,3.016,4.7,4.719l-23.267,22.959c2.483,2.339,4.6,4.329,6.709,6.34,7.386-7.448,15.04-15.183,22.693-22.877,1.949,2.011,3.57,3.693,5.17,5.355-7.489,7.427-15.224,15.1-22.877,22.713,2.421,2.462,4.493,4.575,6.709,6.832q11.418-11.48,23.021-23.185c1.744,1.888,3.344,3.611,4.8,5.191C381.7,207.163,372.258,216.6,362.943,225.936Z" transform="translate(-267.515 -136.089)" fill="none"/>
      <path id="XMLID_5_" d="M38.857,231.063l-5.232,5.232C24.33,226.959,14.953,217.562,5.7,208.268c4.986-4.965,10.115-10.095,15.347-15.286,7.407,7.468,15.06,15.2,22.775,22.98,1.888-1.949,3.467-3.611,5.17-5.376Q37.574,199.26,25.848,187.647c1.99-1.929,3.693-3.55,5.232-5.047,9.377,9.377,18.815,18.815,28.212,28.191L43.986,226.036q-12.034-12.126-24.4-24.621c-1.867,1.97-3.447,3.632-5.17,5.437C22.545,214.915,30.773,223.061,38.857,231.063Z" transform="translate(-5.7 -146.263)" fill="none"/>
      <path id="Path_1" data-name="Path 1" d="M157.2,76.171c6.709-6.709,13.521-13.542,20.23-20.271,9.377,9.377,18.794,18.815,28.15,28.15-6.709,6.689-13.562,13.521-20.333,20.251C176.015,95.048,166.618,85.61,157.2,76.171Zm10.464-.021L185.35,93.96l9.951-9.828c-5.95-5.95-11.921-11.9-17.85-17.85C174.168,69.585,170.844,72.95,167.664,76.151Z" transform="translate(-126.116 -45.559)" fill="none"/>
      <path id="XMLID_2_" d="M221.284,357.99c1.99,1.908,3.693,3.55,5.252,5.047q-14.28,14.25-28.335,28.294c-9.233-9.254-18.61-18.671-27.8-27.9,9.274-9.253,18.712-18.692,28.068-28.027,1.313,1.354,2.955,3.037,4.76,4.9-7.448,7.366-15.183,15.019-22.877,22.611,6.2,6.176,12.105,12.105,18.117,18.1C206,373.378,213.672,365.643,221.284,357.99Z" transform="translate(-136.607 -267.712)" fill="none"/>
      <path id="XMLID_1_" d="M315.618,33.712c-1.6,1.559-3.283,3.2-4.945,4.8Q296.639,24.448,282.4,10.2c1.641-1.559,3.344-3.18,4.965-4.7Q301.43,19.534,315.618,33.712Z" transform="translate(-225.628 -5.5)" fill="none"/>
    </g>
    <g id="lOGO-2" data-name="lOGO" transform="translate(520.142 304.411)">
      <path id="XMLID_6_2" data-name="XMLID_6_" d="M380.916,262.175,335.1,216.258,381.558,169.8c2.3,2.3,4.963,4.963,7.732,7.765L351,215.346c4.085,3.849,7.563,7.124,11.04,10.433,12.155-12.256,24.748-24.984,37.342-37.645,3.208,3.309,5.875,6.077,8.508,8.812-12.323,12.222-25.052,24.849-37.646,37.375,3.984,4.052,7.394,7.529,11.041,11.243q18.789-18.89,37.882-38.152c2.87,3.106,5.5,5.942,7.9,8.542C411.775,231.282,396.245,246.813,380.916,262.175Z" transform="translate(-223.885 -114.328)" fill="#4444c8"/>
      <path id="XMLID_5_2" data-name="XMLID_5_" d="M60.261,262.348l-8.61,8.61C36.357,255.6,20.927,240.132,5.7,224.837c8.2-8.171,16.645-16.611,25.255-25.153C43.143,211.974,55.736,224.7,68.431,237.5c3.106-3.207,5.706-5.942,8.508-8.846q-18.789-18.637-38.084-37.747c3.275-3.174,6.077-5.841,8.61-8.306,15.43,15.43,30.961,30.96,46.424,46.39L68.7,254.076Q48.9,234.122,28.557,213.56c-3.072,3.241-5.672,5.976-8.508,8.947C33.419,235.776,46.958,249.18,60.261,262.348Z" transform="translate(-5.7 -122.806)" fill="#4444c8"/>
      <path id="Path_1-2" data-name="Path 1" d="M157.2,89.258c11.04-11.04,22.25-22.283,33.29-33.358,15.429,15.43,30.927,30.961,46.323,46.323-11.04,11.007-22.317,22.25-33.459,33.324C188.161,120.319,172.7,104.789,157.2,89.258Zm17.219-.034,29.1,29.306L219.9,102.358c-9.791-9.791-19.616-19.582-29.374-29.374C185.122,78.42,179.652,83.957,174.419,89.224Z" transform="translate(-106.049 -38.884)" fill="#4444c8"/>
      <path id="XMLID_2_2" data-name="XMLID_2_" d="M254.132,372.573c3.275,3.14,6.077,5.841,8.643,8.305q-23.5,23.449-46.626,46.559c-15.193-15.227-30.623-30.724-45.749-45.918,15.261-15.227,30.792-30.758,46.188-46.12,2.161,2.228,4.862,5,7.833,8.069-12.256,12.121-24.985,24.714-37.646,37.207,10.2,10.163,19.92,19.92,29.813,29.779C228.978,397.895,241.606,385.166,254.132,372.573Z" transform="translate(-114.793 -224.017)" fill="#4444c8"/>
      <path id="XMLID_1_2" data-name="XMLID_1_" d="M337.062,51.924c-2.634,2.566-5.4,5.267-8.137,7.9Q305.832,36.68,282.4,13.232c2.7-2.566,5.5-5.233,8.171-7.732Q313.715,28.594,337.062,51.924Z" transform="translate(-188.978 -5.5)" fill="#4444c8"/>
    </g>
    <text id="_" data-name="%" transform="translate(496.256 953.212)" fill="#4444c8" font-size="47" font-family="PerpetuaTitlingMT-Bold, Perpetua Titling MT" font-weight="700"><tspan x="0" y="0">%</tspan></text>
  </g>
</svg>
