<svg xmlns="http://www.w3.org/2000/svg" xmlns:xlink="http://www.w3.org/1999/xlink" width="1080" height="868" viewBox="0 0 1080 868">
  <defs>
    <linearGradient id="linear-gradient" x1="0.5" y1="1" x2="0.5" gradientUnits="objectBoundingBox">
      <stop offset="0" stop-color="gray" stop-opacity="0.251"/>
      <stop offset="0.54" stop-color="gray" stop-opacity="0.122"/>
      <stop offset="1" stop-color="gray" stop-opacity="0.102"/>
    </linearGradient>
    <linearGradient id="linear-gradient-3" x1="0.5" y1="1" x2="0.5" gradientUnits="objectBoundingBox">
      <stop offset="0" stop-opacity="0.122"/>
      <stop offset="0.55" stop-opacity="0.09"/>
      <stop offset="1" stop-opacity="0.02"/>
    </linearGradient>
    <linearGradient id="linear-gradient-13" x1="0" y1="0.5" x2="1" y2="0.5" xlink:href="#linear-gradient-3"/>
    <linearGradient id="linear-gradient-19" x1="0" y1="0.5" x2="1" y2="0.5" xlink:href="#linear-gradient"/>
    <linearGradient id="linear-gradient-21" xlink:href="#linear-gradient"/>
    <clipPath id="clip-custom_1">
      <rect width="1080" height="868"/>
    </clipPath>
  </defs>
  <g id="custom_1" data-name="custom – 1" clip-path="url(#clip-custom_1)">
    <rect width="1080" height="868" fill="#fff"/>
    <g id="Group_1165" data-name="Group 1165" transform="translate(-43.716 -98)">
      <g id="Group_1164" data-name="Group 1164" transform="translate(66 98)">
        <rect id="Rectangle_1105" data-name="Rectangle 1105" width="867" height="863" transform="translate(80.716)" fill="#6c63ff" opacity="0.2"/>
        <rect id="Rectangle_1106" data-name="Rectangle 1106" width="603.261" height="704.396" transform="translate(212.004 79.93)" fill="#5151f5" opacity="0.5"/>
        <rect id="Rectangle_1107" data-name="Rectangle 1107" width="325" height="623" transform="translate(702.716 122)" fill="url(#linear-gradient)"/>
        <rect id="Rectangle_1108" data-name="Rectangle 1108" width="324" height="619" transform="translate(-0.284 126)" fill="url(#linear-gradient)"/>
        <rect id="Rectangle_1109" data-name="Rectangle 1109" width="298" height="597" transform="translate(715.716 135)" fill="#4444c8"/>
        <rect id="Rectangle_1110" data-name="Rectangle 1110" width="299" height="597" transform="translate(311.716 732) rotate(180)" fill="#4444c8"/>
        <rect id="Rectangle_1111" data-name="Rectangle 1111" width="202" height="39" transform="translate(58.716 185)" fill="url(#linear-gradient-3)"/>
        <rect id="Rectangle_1112" data-name="Rectangle 1112" width="201" height="34" transform="translate(766.716 244)" fill="url(#linear-gradient-3)"/>
        <rect id="Rectangle_1113" data-name="Rectangle 1113" width="201" height="37" transform="translate(766.716 299)" fill="url(#linear-gradient-3)"/>
        <rect id="Rectangle_1114" data-name="Rectangle 1114" width="201" height="34" transform="translate(766.716 358)" fill="url(#linear-gradient-3)"/>
        <rect id="Rectangle_1115" data-name="Rectangle 1115" width="201" height="37" transform="translate(766.716 413)" fill="url(#linear-gradient-3)"/>
        <rect id="Rectangle_1116" data-name="Rectangle 1116" width="201" height="35" transform="translate(766.716 471)" fill="url(#linear-gradient-3)"/>
        <rect id="Rectangle_1117" data-name="Rectangle 1117" width="201" height="38" transform="translate(766.716 526)" fill="url(#linear-gradient-3)"/>
        <rect id="Rectangle_1118" data-name="Rectangle 1118" width="201" height="34" transform="translate(766.716 585)" fill="url(#linear-gradient-3)"/>
        <rect id="Rectangle_1119" data-name="Rectangle 1119" width="201" height="38" transform="translate(766.716 640)" fill="url(#linear-gradient-3)"/>
        <rect id="Rectangle_1120" data-name="Rectangle 1120" width="201" height="39" transform="translate(766.716 185)" fill="url(#linear-gradient-3)"/>
        <rect id="Rectangle_1121" data-name="Rectangle 1121" width="202" height="38" transform="translate(58.716 244)" fill="url(#linear-gradient-13)"/>
        <rect id="Rectangle_1122" data-name="Rectangle 1122" width="202" height="37" transform="translate(58.716 299)" fill="url(#linear-gradient-13)"/>
        <rect id="Rectangle_1123" data-name="Rectangle 1123" width="202" height="34" transform="translate(58.716 358)" fill="url(#linear-gradient-13)"/>
        <rect id="Rectangle_1124" data-name="Rectangle 1124" width="202" height="37" transform="translate(58.716 413)" fill="url(#linear-gradient-13)"/>
        <rect id="Rectangle_1125" data-name="Rectangle 1125" width="202" height="35" transform="translate(58.716 471)" fill="url(#linear-gradient-13)"/>
        <rect id="Rectangle_1126" data-name="Rectangle 1126" width="194" height="26" transform="translate(66.716 193)" fill="#fff"/>
        <rect id="Rectangle_1127" data-name="Rectangle 1127" width="193.99" height="28.389" transform="translate(64.737 247.601)" fill="#fff"/>
        <rect id="Rectangle_1128" data-name="Rectangle 1128" width="193.99" height="28.389" transform="translate(64.737 304.379)" fill="#fff"/>
        <rect id="Rectangle_1129" data-name="Rectangle 1129" width="193.99" height="28.389" transform="translate(64.737 361.156)" fill="#fff"/>
        <rect id="Rectangle_1130" data-name="Rectangle 1130" width="193.99" height="28.389" transform="translate(64.737 417.934)" fill="#fff"/>
        <rect id="Rectangle_1131" data-name="Rectangle 1131" width="193.99" height="28.389" transform="translate(64.737 474.712)" fill="#fff"/>
        <rect id="Rectangle_1132" data-name="Rectangle 1132" width="202" height="38" transform="translate(58.716 526)" fill="url(#linear-gradient-13)"/>
        <rect id="Rectangle_1133" data-name="Rectangle 1133" width="193.99" height="28.389" transform="translate(64.737 531.489)" fill="#fff"/>
        <rect id="Rectangle_1134" data-name="Rectangle 1134" width="193.99" height="28.389" transform="translate(64.737 531.489)" fill="#fff"/>
        <rect id="Rectangle_1135" data-name="Rectangle 1135" width="193.99" height="28.389" transform="translate(64.737 588.267)" fill="#fff"/>
        <rect id="Rectangle_1136" data-name="Rectangle 1136" width="193.99" height="28.389" transform="translate(64.737 645.044)" fill="#fff"/>
        <rect id="Rectangle_1137" data-name="Rectangle 1137" width="193" height="30" transform="translate(770.716 189)" fill="#fff"/>
        <rect id="Rectangle_1138" data-name="Rectangle 1138" width="193" height="29" transform="translate(770.716 249)" fill="#fff"/>
        <rect id="Rectangle_1139" data-name="Rectangle 1139" width="193" height="29" transform="translate(770.716 303)" fill="#fff"/>
        <rect id="Rectangle_1140" data-name="Rectangle 1140" width="193" height="30" transform="translate(770.716 362)" fill="#fff"/>
        <rect id="Rectangle_1141" data-name="Rectangle 1141" width="193" height="29" transform="translate(770.716 417)" fill="#fff"/>
        <rect id="Rectangle_1142" data-name="Rectangle 1142" width="193" height="25" transform="translate(770.716 476)" fill="#fff"/>
        <rect id="Rectangle_1143" data-name="Rectangle 1143" width="193" height="29" transform="translate(770.716 531)" fill="#fff"/>
        <rect id="Rectangle_1144" data-name="Rectangle 1144" width="193" height="26" transform="translate(770.716 589)" fill="#fff"/>
        <rect id="Rectangle_1145" data-name="Rectangle 1145" width="193" height="30" transform="translate(770.716 644)" fill="#fff"/>
        <rect id="Rectangle_1146" data-name="Rectangle 1146" width="715" height="46" transform="translate(155.716 762)" fill="url(#linear-gradient-19)"/>
        <rect id="Rectangle_1147" data-name="Rectangle 1147" width="699" height="37" transform="translate(163.716 767)" fill="#4444c8"/>
        <rect id="Rectangle_1148" data-name="Rectangle 1148" width="711" height="47" transform="translate(159.716 58)" fill="url(#linear-gradient)"/>
        <rect id="Rectangle_1149" data-name="Rectangle 1149" width="699" height="34" transform="translate(163.716 63)" fill="#4444c8"/>
        <rect id="Rectangle_1150" data-name="Rectangle 1150" width="344" height="597" transform="translate(341.716 135)" fill="#fff"/>
        <path id="Path_821" data-name="Path 821" d="M915.238,419.666c8.28,11.1-4.116,24.2-4.116,24.2l2.082.721c-3.064,3.395-15.164,18.713-61.817,88.005C791.652,621.309,711.158,643.44,711.158,643.44h0a99.358,99.358,0,0,0-32.8-16.927v-8.375a98.178,98.178,0,0,0,65.412-63.26,100.639,100.639,0,0,0,10.811-45.469c0-56.777-47.042-102.838-105.062-102.838S544.457,452.621,544.457,509.41a100.639,100.639,0,0,0,10.811,45.469,98.178,98.178,0,0,0,65.413,63.26v8.375a99.358,99.358,0,0,0-32.8,16.927h0S507.35,621.285,447.616,532.57c-46.652-69.292-58.753-84.622-61.816-88.005l2.082-.721s-12.361-13.106-4.116-24.2-54.589-24.2-47.386,0,16.477,36.3,16.477,36.3,131.535,207.451,200.2,241.73a95.128,95.128,0,0,0-2.437,21.433v40.336H748.371V719.108a95.149,95.149,0,0,0-2.437-21.434c68.606-34.3,200.2-241.718,200.2-241.718s9.274-12.1,16.477-36.3S906.993,408.571,915.238,419.666Z" transform="translate(-134.678 -26.513)" fill="url(#linear-gradient-21)"/>
        <circle id="Ellipse_62" data-name="Ellipse 62" cx="100.614" cy="100.614" r="100.614" transform="translate(414.203 387.664)" fill="#263238"/>
        <circle id="Ellipse_63" data-name="Ellipse 63" cx="94.7" cy="94.7" r="94.7" transform="translate(420.117 409.37)" fill="#f8c198"/>
        <circle id="Ellipse_64" data-name="Ellipse 64" cx="11.84" cy="11.84" r="11.84" transform="translate(465.492 471.506)" fill="#263238"/>
        <circle id="Ellipse_65" data-name="Ellipse 65" cx="11.84" cy="11.84" r="11.84" transform="translate(542.437 471.506)" fill="#263238"/>
        <path id="Path_822" data-name="Path 822" d="M632.89,549.068c0,7.1-12.361,18.748-27.62,18.748s-27.62-11.651-27.62-18.748,12.361-6.908,27.62-6.908S632.89,541.971,632.89,549.068Z" transform="translate(-90.453 -1.61)" fill="#fff"/>
        <circle id="Ellipse_66" data-name="Ellipse 66" cx="3.951" cy="3.951" r="3.951" transform="translate(476.339 479.396)" fill="#fff"/>
        <circle id="Ellipse_67" data-name="Ellipse 67" cx="3.951" cy="3.951" r="3.951" transform="translate(554.266 479.396)" fill="#fff"/>
        <path id="Path_823" data-name="Path 823" d="M618.446,475.5c-5.772,0-10.953-5.015-11.568-10.752a14.194,14.194,0,0,1,8.28-13.9,4.047,4.047,0,0,1,1.739-.449c1.987,0,2.969,2.366,3.608,4.247,1.987,5.82,5.512,11.5,11.048,14.194s13.272,1.313,16.193-4.1c-7.831-3.49-11.178-14.443-6.624-21.706,1.762-2.8,4.507-5.181,5.063-8.446,1.017-5.914-5.465-10.22-11.2-11.994-16.56-5.122-74.284-5.689-77.466,19.021C554.181,467.68,600.265,478.952,618.446,475.5Z" transform="translate(-94.166 -23.995)" fill="#263238"/>
        <ellipse id="Ellipse_68" data-name="Ellipse 68" cx="5.914" cy="16.773" rx="5.914" ry="16.773" transform="matrix(0.93, -0.367, 0.367, 0.93, 412.393, 491.65)" fill="#f8c198"/>
        <ellipse id="Ellipse_69" data-name="Ellipse 69" cx="16.773" cy="5.914" rx="16.773" ry="5.914" transform="matrix(0.367, -0.93, 0.93, 0.367, 593.906, 518.448)" fill="#f8c198"/>
        <path id="Path_824" data-name="Path 824" d="M652.831,639.064s77.087-21.646,134.3-108.457,60.173-87.047,60.173-87.047l30.577,12.077S735.845,684.5,674.69,696.338,652.831,639.064,652.831,639.064Z" transform="translate(-78.977 -19.64)" fill="#c88c46"/>
        <path id="Path_825" data-name="Path 825" d="M812.83,449.492s11.829-12.822,3.951-23.657,52.283-23.657,45.375,0-15.779,35.486-15.779,35.486Z" transform="translate(-47.446 -25.324)" fill="#f8c198"/>
        <path id="Path_826" data-name="Path 826" d="M585.882,639.064s-77.087-21.646-134.3-108.457-60.172-87.047-60.172-87.047L360.83,455.637S502.88,684.5,564.046,696.338,585.882,639.064,585.882,639.064Z" transform="translate(-130.101 -19.64)" fill="#c88c46"/>
        <path id="Path_827" data-name="Path 827" d="M396.881,449.492s-11.829-12.822-3.951-23.657-52.283-23.657-45.375,0,15.779,35.486,15.779,35.486Z" transform="translate(-132.63 -25.324)" fill="#f8c198"/>
        <g id="Group_1163" data-name="Group 1163" transform="translate(465.089 402.592)" opacity="0.2">
          <path id="Path_828" data-name="Path 828" d="M629.391,427.588c-.568,3.265-3.312,5.63-5.062,8.446-3.987,6.364-1.917,15.566,3.927,20.109a15.129,15.129,0,0,1,1.005-13.177c1.763-2.8,4.507-5.181,5.063-8.446.639-3.7-1.668-6.778-4.885-8.99A7.1,7.1,0,0,1,629.391,427.588Z" transform="translate(-547.383 -425.53)" fill="#fff"/>
          <path id="Path_829" data-name="Path 829" d="M609.733,447.582c-.378-.887-.733-1.786-1.041-2.685-.639-1.881-1.62-4.187-3.608-4.246a4.048,4.048,0,0,0-1.739.449,14.2,14.2,0,0,0-8.28,13.9,12.456,12.456,0,0,0,5.287,8.694,11.146,11.146,0,0,1-.355-1.786,14.2,14.2,0,0,1,8.28-13.9A4.573,4.573,0,0,1,609.733,447.582Z" transform="translate(-552.364 -422.765)" fill="#fff"/>
          <path id="Path_830" data-name="Path 830" d="M607.99,464.91c-14.384.6-37.591-4.885-49.03-16.56,8.54,18.169,43.825,25.775,59.143,22.853A11.924,11.924,0,0,1,607.99,464.91Z" transform="translate(-558.96 -421.357)" fill="#fff"/>
          <path id="Path_831" data-name="Path 831" d="M631.688,454.2c-3.454,4.057-10.149,4.909-15.081,2.508a17.2,17.2,0,0,1-4.377-3.087,21.1,21.1,0,0,0,9.309,9.983c5.536,2.685,13.272,1.313,16.193-4.1A14.054,14.054,0,0,1,631.688,454.2Z" transform="translate(-549.219 -420.393)" fill="#fff"/>
        </g>
        <path id="Path_832" data-name="Path 832" d="M870.934,453.944S728.883,682.8,667.659,694.645a71.35,71.35,0,0,1-10.729,1.313,62.734,62.734,0,0,0,14.679-1.313c61.166-11.829,203.216-240.7,203.216-240.7l-3.17-1.124A13.241,13.241,0,0,1,870.934,453.944Z" transform="translate(-75.955 -17.947)" fill="#fff" opacity="0.2"/>
        <path id="Path_833" data-name="Path 833" d="M364.751,453.944S506.8,682.8,568.027,694.645a71.35,71.35,0,0,0,10.729,1.313,62.733,62.733,0,0,1-14.679-1.313c-61.166-11.829-203.216-240.7-203.216-240.7l3.17-1.124A13.256,13.256,0,0,0,364.751,453.944Z" transform="translate(-130.096 -17.947)" fill="#fff" opacity="0.2"/>
        <path id="Path_834" data-name="Path 834" d="M449.64,506.88h0a94.7,94.7,0,0,1,94.7,94.7v39.46H354.94V601.58A94.7,94.7,0,0,1,449.64,506.88Z" transform="translate(65.177 91.89)" fill="#c88c46"/>
        <path id="Path_835" data-name="Path 835" d="M603.427,591.8h0a95.718,95.718,0,0,0-10.328.557c1.2,0,2.272-.072,3.42-.072h0a94.7,94.7,0,0,1,94.7,94.7v38.964h6.908V686.5A94.7,94.7,0,0,0,603.427,591.8Z" transform="translate(-87.628 7.467)" fill="#fff" opacity="0.2"/>
        <path id="Path_836" data-name="Path 836" d="M614.81,591.8h0a95.722,95.722,0,0,1,10.328.557c-1.2,0-2.272-.072-3.42-.072h0a94.7,94.7,0,0,0-94.7,94.7v38.964H520.11V686.5A94.7,94.7,0,0,1,614.81,591.8Z" transform="translate(-100.975 7.467)" fill="#fff" opacity="0.2"/>
        <rect id="Rectangle_1151" data-name="Rectangle 1151" width="55.24" height="66.583" rx="23.35" transform="translate(487.197 572.629)" fill="#f8c198"/>
      </g>
    </g>
  </g>
</svg>
