<svg xmlns="http://www.w3.org/2000/svg" width="23.516" height="23.895" viewBox="0 0 23.516 23.895">
  <path id="power-off-solid" d="M26.585,2.565a11.757,11.757,0,1,1-13.664,0,1.141,1.141,0,0,1,1.659.365l.749,1.332a1.137,1.137,0,0,1-.313,1.47,7.964,7.964,0,1,0,9.478,0,1.131,1.131,0,0,1-.308-1.465l.749-1.332a1.136,1.136,0,0,1,1.65-.37Zm-4.931,9.952V1.138A1.135,1.135,0,0,0,20.516,0H19a1.135,1.135,0,0,0-1.138,1.138V12.517A1.135,1.135,0,0,0,19,13.655h1.517A1.135,1.135,0,0,0,21.654,12.517Z" transform="translate(-8)"/>
</svg>
