<svg xmlns="http://www.w3.org/2000/svg" width="584.24" height="388.739" viewBox="0 0 584.24 388.739">
  <g id="Group_1382" data-name="Group 1382" transform="translate(-0.013 0.004)">
    <path id="Path_1025" data-name="Path 1025" d="M416.149,177.761c-34.371-1.221-67.107-12.316-98.345-24.429s-62.221-25.593-95.769-32.024c-21.578-4.137-46.257-4.721-63.639,6.846-16.734,11.153-22.141,30.351-25.046,48.185-2.188,13.415-3.473,27.531,2.517,40.091,4.164,8.72,11.546,16.049,16.655,24.4,17.775,29.061,5.21,64.9-14.047,93.273-9.028,13.314-19.517,26.023-26.49,40.181s-10.2,30.4-4.095,44.86c6.044,14.339,20.452,25.088,36.06,32.656,31.7,15.369,69.04,19.772,105.477,22.263,80.633,5.518,161.691,3.128,242.537.738,29.921-.887,59.969-1.784,89.4-6.41,16.346-2.57,33.219-6.649,45.088-16.49,15.061-12.5,18.795-33.66,8.7-49.326-16.931-26.283-63.729-32.81-75.577-61.021-6.511-15.523.175-32.821,9.644-47.218,20.308-30.887,54.345-57.988,56.135-93.3,1.232-24.249-15.13-48.535-40.431-60.012-26.517-12.029-63.294-10.515-82.848,9.395C481.907,170.9,446.5,178.786,416.149,177.761Z" transform="translate(-75.596 -100.231)" fill="#6c63ff" opacity="0.1"/>
    <ellipse id="Ellipse_83" data-name="Ellipse 83" cx="38.88" cy="7.478" rx="38.88" ry="7.478" transform="translate(52.078 373.78)" fill="#4444c8"/>
    <ellipse id="Ellipse_84" data-name="Ellipse 84" cx="4.525" cy="5.927" rx="4.525" ry="5.927" transform="translate(85.78 372.155)" fill="#3f3d56"/>
    <ellipse id="Ellipse_85" data-name="Ellipse 85" cx="4.525" cy="5.927" rx="4.525" ry="5.927" transform="translate(85.78 364.911)" fill="#3f3d56"/>
    <ellipse id="Ellipse_86" data-name="Ellipse 86" cx="4.525" cy="5.927" rx="4.525" ry="5.927" transform="translate(85.78 357.667)" fill="#3f3d56"/>
    <ellipse id="Ellipse_87" data-name="Ellipse 87" cx="4.525" cy="5.927" rx="4.525" ry="5.927" transform="translate(85.78 350.429)" fill="#3f3d56"/>
    <ellipse id="Ellipse_88" data-name="Ellipse 88" cx="4.525" cy="5.927" rx="4.525" ry="5.927" transform="translate(85.78 343.185)" fill="#3f3d56"/>
    <ellipse id="Ellipse_89" data-name="Ellipse 89" cx="4.525" cy="5.927" rx="4.525" ry="5.927" transform="translate(85.78 335.941)" fill="#3f3d56"/>
    <ellipse id="Ellipse_90" data-name="Ellipse 90" cx="4.525" cy="5.927" rx="4.525" ry="5.927" transform="translate(85.78 328.697)" fill="#3f3d56"/>
    <path id="Path_1026" data-name="Path 1026" d="M217.7,589.817a21.455,21.455,0,0,0,1.689-2.48l-11.9-1.954,12.863.1a21.705,21.705,0,0,0,.414-17.18l-17.255,8.954,15.932-11.684a21.684,21.684,0,1,0-35.816,24.265,21.877,21.877,0,0,0-2.475,3.957l15.444,8.019-16.463-5.523a21.673,21.673,0,0,0,3.494,20.361,21.684,21.684,0,1,0,34.085,0,21.684,21.684,0,0,0,0-26.814Z" transform="translate(-110.448 -304.758)" fill="#4444c8"/>
    <path id="Path_1027" data-name="Path 1027" d="M179,645.719a21.593,21.593,0,0,0,4.642,13.4,21.684,21.684,0,1,0,34.084,0C220.615,655.443,179,643.292,179,645.719Z" transform="translate(-110.453 -347.262)" fill="#4444c8" opacity="0.1"/>
    <path id="Path_1028" data-name="Path 1028" d="M575.835,617.375c.329,4.249,1.965,8.646,5.406,11.153s8.917,2.459,11.546-.908a12.918,12.918,0,0,0,1.917-4.169c2.214-7,3.787-14.658,1.36-21.588-5.475-.356-11.822-2.931-15.932,1.593C576.812,607.141,575.452,612.462,575.835,617.375Z" transform="translate(-296.509 -326.352)" fill="#3f3d56"/>
    <path id="Path_1029" data-name="Path 1029" d="M598.927,533.9c-.728,6.177-1.965,12.326-1.837,18.545.048,2.4.3,4.78.308,7.191a35.445,35.445,0,0,1-4.78,17.828,5.979,5.979,0,0,1-1.306,1.689,4.2,4.2,0,0,1-4.567.154,8.986,8.986,0,0,1-3.245-3.521c-3.957-6.777-4.068-15.014-5.635-22.7-1.2-5.879-3.3-11.578-4.063-17.525-.494-3.829-.42-7.732-1.206-11.514-.239-1.142-.908-2.857-1.349-4.541a6.828,6.828,0,0,1-.213-3.994c.845-2.077,3.611-1.269,5.412-1.142a124.58,124.58,0,0,0,19.044-.048,1.637,1.637,0,0,1,2.2,1.142,25.775,25.775,0,0,1,1.152,4.249A47.2,47.2,0,0,1,598.927,533.9Z" transform="translate(-294.184 -285.696)" fill="#fabdbd"/>
    <g id="Group_1377" data-name="Group 1377" transform="translate(276.64 228.415)" opacity="0.1">
      <path id="Path_1030" data-name="Path 1030" d="M610.231,514.487a4.678,4.678,0,0,0-.982,0c-3.038.244-6.081.366-9.119.382Q605.181,514.88,610.231,514.487Z" transform="translate(-584.571 -514.275)"/>
      <path id="Path_1031" data-name="Path 1031" d="M587.826,579.305a8.986,8.986,0,0,1-3.245-3.521c-3.956-6.776-4.068-15.014-5.635-22.7-1.2-5.879-3.3-11.578-4.063-17.526-.494-3.829-.419-7.732-1.206-11.514-.239-1.142-.908-2.857-1.349-4.541a6.828,6.828,0,0,1-.213-3.994,2.262,2.262,0,0,1,2.124-1.381c-1.344-.09-2.655.069-3.187,1.381a6.826,6.826,0,0,0,.213,3.994c.441,1.683,1.11,3.4,1.349,4.541.786,3.781.712,7.685,1.206,11.514.759,5.953,2.862,11.652,4.063,17.526,1.567,7.685,1.678,15.932,5.635,22.7a8.984,8.984,0,0,0,3.245,3.521,4.716,4.716,0,0,0,2.783.563,4.894,4.894,0,0,1-1.721-.563Z" transform="translate(-570.833 -514.111)"/>
    </g>
    <path id="Path_1032" data-name="Path 1032" d="M643.515,557.235c-3.186,6.373-2.655,15.4-2.655,15.4.531,21.243-7.966,65.853-7.966,65.853h-7.435s-1.062-49.39,0-53.639-.531-19.119-2.124-39.831a106.322,106.322,0,0,1,3.771-35.481c.595-2.124,1.009-3.287,1.009-3.287s12.215-18.057,19.119-9.559c1.593,1.976,2.438,5.964,2.73,11C650.908,524.3,645.958,552.344,643.515,557.235Z" transform="translate(-318.693 -276.462)" fill="#fabdbd"/>
    <path id="Path_1033" data-name="Path 1033" d="M657.222,507.694c-.292-5.035-1.126-9.028-2.73-11a5.471,5.471,0,0,0-5.215-2.215A5.662,5.662,0,0,1,652.9,496.7c1.593,1.976,2.438,5.964,2.73,11,.945,16.612-4,44.653-6.447,49.544-3.186,6.373-2.655,15.4-2.655,15.4.531,21.243-7.966,65.853-7.966,65.853h1.593s8.5-44.61,7.966-65.853c0,0-.531-9.028,2.655-15.4C653.218,552.347,658.167,524.307,657.222,507.694Z" transform="translate(-325.952 -276.466)" opacity="0.1"/>
    <path id="Path_1034" data-name="Path 1034" d="M618.658,756.853a6.907,6.907,0,0,0-1.519,1.657c-.951,1.8.4,3.941,1.843,5.369s3.187,2.958,3.187,4.992a4.978,4.978,0,0,1-2.624,3.909c-.743.467-1.678,1.062-1.524,1.944a1.825,1.825,0,0,0,.281.621,8.22,8.22,0,0,0,5.433,3.293,24.51,24.51,0,0,0,6.511.053,1.311,1.311,0,0,0,.892-.308,1.209,1.209,0,0,0,.239-.733,9.542,9.542,0,0,1,.531-3.33c.69-1.386,2.278-2.092,3.186-3.335,1.275-1.7,1.1-4.063.616-6.128-1.062-4.5-3.425-9.629-6.973-12.746C624.628,748.531,621.4,754.267,618.658,756.853Z" transform="translate(-315.758 -396.764)" fill="#3f3d56"/>
    <path id="Path_1035" data-name="Path 1035" d="M506.693,234.686c2.963-4.429,2.193-10.622-.834-15.029s-7.892-7.18-12.91-8.97c-6.766-2.411-14.228-3.234-21.179-1.423-5.534,1.439-10.5,4.45-15.72,6.777a67.6,67.6,0,0,1-29.358,5.842c-11.211-.313-23.495-3.186-32.9,2.942-17.217,11.2-9.559,41.684-25.847,54.17-4.392,3.367-9.921,4.838-14.806,7.435s-9.517,7.116-9.4,12.65a14.719,14.719,0,0,0,2.655,7.435,34.407,34.407,0,0,0,28.96,15.561,36.877,36.877,0,0,0,29.183-15.55c1.652-2.342,3.107-4.95,5.5-6.511,4.78-3.133,11.078-.94,16.782-.473,12.7,1.036,25.4-8.5,27.929-21,1.062-5.337.876-11.716,5.173-15.067,3.468-2.7,8.348-2.124,12.746-2.586,8.04-.834,14.387-5.842,18.752-12.385,2-3,2.236-6.585,4.966-8.949C499.327,236.954,503.879,238.871,506.693,234.686Z" transform="translate(-187.702 -142.286)" fill="#3f3d56"/>
    <g id="Group_1378" data-name="Group 1378" transform="translate(185.24 65.98)" opacity="0.1">
      <path id="Path_1036" data-name="Path 1036" d="M465.478,234.053a67.325,67.325,0,0,0,13.9-1.062c-1.264.037-2.539.037-3.808,0-8.8-.244-18.258-2.061-26.469.127C454.517,233.171,460.12,233.9,465.478,234.053Z" transform="translate(-422.35 -219.412)"/>
      <path id="Path_1037" data-name="Path 1037" d="M425.193,381.537c-2.4,1.561-3.85,4.169-5.5,6.511A37.308,37.308,0,0,1,398.73,402.5c.621.027,1.243.043,1.869.037a36.861,36.861,0,0,0,29.183-15.55c1.652-2.342,3.107-4.95,5.5-6.511l.414-.255C431.949,379.7,428.268,379.524,425.193,381.537Z" transform="translate(-398.73 -288.732)"/>
      <path id="Path_1038" data-name="Path 1038" d="M612.634,219.627c-3.022-4.387-7.892-7.18-12.91-8.97-6.766-2.411-14.228-3.234-21.179-1.423-.159.037-.313.085-.467.127a40.656,40.656,0,0,1,11.556,2.358c5.019,1.79,9.889,4.583,12.91,8.97s3.8,10.622.834,15.029c-2.815,4.2-7.366,2.284-10.345,4.87-2.73,2.363-2.963,5.948-4.965,8.949-3.755,5.613-8.981,10.09-15.486,11.79,2.236-.266,4.594-.234,6.824-.467,8.04-.834,14.387-5.842,18.752-12.385,2-3,2.236-6.585,4.965-8.949,2.979-2.586,7.531-.669,10.345-4.87C616.436,230.227,615.666,224.013,612.634,219.627Z" transform="translate(-480.253 -208.252)"/>
      <path id="Path_1039" data-name="Path 1039" d="M534.347,309.254c-4.371.457-9.251-.117-12.746,2.586-4.3,3.351-4.089,9.729-5.173,15.067-1.864,9.331-9.437,17.026-18.428,19.889l.632.058c12.7,1.036,25.4-8.5,27.929-21,1.062-5.337.876-11.716,5.173-15.067a9.59,9.59,0,0,1,3.3-1.593C534.793,309.2,534.575,309.232,534.347,309.254Z" transform="translate(-445.28 -255.584)"/>
    </g>
    <path id="Path_1040" data-name="Path 1040" d="M636.408,187.469s-12.746,25.492-16.994,35.051-43.017,23.9-48.328,24.429a6.841,6.841,0,0,0-3.792,1.827,20.889,20.889,0,0,0-4.705,7.2s2.124,14.339-.531,38.237c-.053.462-.1.924-.143,1.37-2.315,22.741,2.533,28.1,2.533,28.1s-51.514,19.65-49.921-5.842a115.521,115.521,0,0,0-.069-18.789,78.909,78.909,0,0,0-3.048-14.8c-1.259-4.4-2.762-9.23-4.318-15.8a69.338,69.338,0,0,0-2.953-9.639c-.037-.1-.074-.191-.106-.281-2.655-6.591-5.311-8.72-6.83-9.411a22.953,22.953,0,0,1-4.079-2.294,214.528,214.528,0,0,1-24.817-20.861c-12.746-12.746-25.492-43.017-25.492-43.017s-3.718-17.526,4.78-31.865,4.78,28.147,4.78,28.147,15.4,20.712,19.119,30.271a15.973,15.973,0,0,0,7.435,8.742,88.165,88.165,0,0,1,11.758,7.35,68.66,68.66,0,0,0,7.908,5.162c5.937,3.186,13.049,6.782,18.975,7.727a17.892,17.892,0,0,0,2.8.239,2.9,2.9,0,0,0,2.337-1.062c1.593-1.875,1.556-5.911,1.19-9.23a46.9,46.9,0,0,0-.871-5.114s17.26-10.887,16.729,2.39a14.838,14.838,0,0,0,.4,4.365,7.568,7.568,0,0,0,5.146,5.629,12.746,12.746,0,0,0,6.373.207,6.231,6.231,0,0,0,1.88-.643c1.593-1.062,17.525-5.842,22.305-6.373s28.678-12.215,28.678-12.215l26.023-36.113s-.531-21.243,10.091-29.74S636.408,187.469,636.408,187.469Z" transform="translate(-233.783 -114.081)" fill="#fabdbd"/>
    <g id="Group_1379" data-name="Group 1379" transform="translate(208.214 37.96)" opacity="0.1">
      <path id="Path_1041" data-name="Path 1041" d="M667.242,399.63a105.885,105.885,0,0,0-.611,12.852c.053-2.8.239-6.007.611-9.666.043-.446.09-.908.144-1.37a208.284,208.284,0,0,0,1.328-24.637,213.331,213.331,0,0,1-1.328,21.45C667.354,398.722,667.285,399.184,667.242,399.63Z" transform="translate(-547.325 -259.272)"/>
      <path id="Path_1042" data-name="Path 1042" d="M595.131,289.07c-.356.207-.531.335-.531.335a45.5,45.5,0,0,1,1.02,6.9,32.571,32.571,0,0,0-.488-7.239Z" transform="translate(-513.552 -218.129)"/>
      <path id="Path_1043" data-name="Path 1043" d="M461.8,186.869c.26-3.717.648-10.383.574-16.309-.09,7.924-.8,16.007-.8,16.007Z" transform="translate(-451.176 -162.557)"/>
      <path id="Path_1044" data-name="Path 1044" d="M578.565,466.53a3.494,3.494,0,0,1-.037.621c-1.593,25.492,49.921,5.842,49.921,5.842a8.646,8.646,0,0,1-1.344-2.7C619.347,473.057,580.355,485.9,578.565,466.53Z" transform="translate(-505.999 -301.344)"/>
      <path id="Path_1045" data-name="Path 1045" d="M742.88,187.732s-12.746,25.492-16.994,35.051-43.017,23.9-48.328,24.429a6.84,6.84,0,0,0-3.792,1.827,20.888,20.888,0,0,0-4.705,7.2s.127.866.281,2.512a19.746,19.746,0,0,1,4.424-6.527,6.84,6.84,0,0,1,3.792-1.827c5.311-.531,44.079-14.87,48.328-24.43s16.994-35.051,16.994-35.051,8.981-27.271,7.993-35.428C750.054,165.942,742.88,187.732,742.88,187.732Z" transform="translate(-548.468 -155.49)"/>
      <path id="Path_1046" data-name="Path 1046" d="M514.45,316.967a78.9,78.9,0,0,0-3.048-14.8c-1.259-4.4-2.762-9.23-4.318-15.8a69.332,69.332,0,0,0-2.953-9.639c-.037-.1-.074-.191-.106-.281-2.655-6.591-5.311-8.72-6.83-9.411a22.957,22.957,0,0,1-4.079-2.294A214.529,214.529,0,0,1,468.3,243.88c-12.746-12.746-25.492-43.017-25.492-43.017a48.011,48.011,0,0,1-.786-7.743,51.19,51.19,0,0,0,.786,10.93s12.746,30.271,25.492,43.017a214.521,214.521,0,0,0,24.817,20.861,22.951,22.951,0,0,0,4.111,2.294c1.514.69,4.164,2.82,6.83,9.411.032.09.069.186.106.281a69.308,69.308,0,0,1,2.937,9.639c1.556,6.575,3.059,11.4,4.318,15.8a78.894,78.894,0,0,1,3.048,14.8c.223,2.22.356,4.636.393,7.355A92.509,92.509,0,0,0,514.45,316.967Z" transform="translate(-441.989 -173.136)"/>
    </g>
    <path id="Path_1047" data-name="Path 1047" d="M621.729,350.163a31.638,31.638,0,0,0-2.124,4.185,25.281,25.281,0,0,0-.956,7.021,56.383,56.383,0,0,1-1.508,9.835,10.889,10.889,0,0,1-.531,1.742,4.6,4.6,0,0,1-.621,1.062,4.53,4.53,0,0,1-.988.9,11.584,11.584,0,0,1-1.8.983c-7.393,3.452-15.454,6.5-23.521,5.311a34.228,34.228,0,0,1-9.788-3.293c-2.921-1.418-6.224-3.1-9.251-1.922h0a4.657,4.657,0,0,1-1.482.462,1.405,1.405,0,0,1-.3-.027c-1-.191-1-3.558-1.227-4.551-.871-3.813-1-6.9-1.524-10.218a33.508,33.508,0,0,0-1.28-5.4,63.777,63.777,0,0,1-2.767-20.011c0-.335-2.39,0-3.186-.032-.2,0-.313-.032-.266-.1a1.07,1.07,0,0,1,.159-.181,2.427,2.427,0,0,1,.951-.473l.627-.186c3.282-.929,6.9-1.317,9.358-3.627,2.549-2.384,3.187-6.192,3.075-9.676a57.616,57.616,0,0,1-.489-6.1,17.9,17.9,0,0,0,2.8.239,2.9,2.9,0,0,0,2.337-1.062,41.956,41.956,0,0,1,2.294,5.311,36.708,36.708,0,0,0,2.916,6.564,11.115,11.115,0,0,0,9.942,5.093,9.233,9.233,0,0,0,8.221-7.17c.611-3.372-.807-8.226-.775-11.732a12.745,12.745,0,0,0,6.373.207,5.772,5.772,0,0,1,.228.664c1.195,4.1,2.788,8.805,6.8,10.26,2.592.935,5.656.234,8.051,1.593a5.183,5.183,0,0,1,.531.351,5.88,5.88,0,0,1,1.407,1.492,12,12,0,0,1,1.7,5.353A29.7,29.7,0,0,1,621.729,350.163Z" transform="translate(-288.457 -191.442)" fill="#6c63ff"/>
    <path id="Path_1048" data-name="Path 1048" d="M611.692,292.746a18.1,18.1,0,0,1-16.261-1.641,46.928,46.928,0,0,0-.871-5.114s17.26-10.887,16.729,2.39A14.844,14.844,0,0,0,611.692,292.746Z" transform="translate(-305.319 -176.755)" opacity="0.1"/>
    <circle id="Ellipse_91" data-name="Ellipse 91" cx="18.057" cy="18.057" r="18.057" transform="translate(281.8 80.026)" fill="#fabdbd"/>
    <path id="Path_1049" data-name="Path 1049" d="M555.06,344.849s35.051-22.305,143.921,1.593,172.069,4.78,172.069,4.78v24.961s-122.147,13.277-168.882,0-113.263-20.935-136.561-.377Z" transform="translate(-286.797 -201.891)" fill="#f86d70"/>
    <path id="Path_1050" data-name="Path 1050" d="M555.06,344.849s35.051-22.305,143.921,1.593,172.069,4.78,172.069,4.78v24.961s-122.147,13.277-168.882,0-113.263-20.935-136.561-.377Z" transform="translate(-286.797 -201.891)" opacity="0.1"/>
    <path id="Path_1051" data-name="Path 1051" d="M557.06,346.849s33.989-22.305,142.859,1.593,171.007,4.78,171.007,4.78l.531,22.836s-121.085,13.277-167.82,0-112.732-22.528-136.03-1.97Z" transform="translate(-287.735 -202.828)" fill="#f86d70"/>
    <path id="Path_1052" data-name="Path 1052" d="M314.444,386.923s-35.051,22.305-143.922-1.593-103.56-4.78-103.56-4.78V355.59s53.639-13.277,100.373,0,113.263,20.935,136.561.377Z" transform="translate(-57.897 -208.595)" fill="#f86d70"/>
    <path id="Path_1053" data-name="Path 1053" d="M314.444,386.923s-35.051,22.305-143.922-1.593-103.56-4.78-103.56-4.78V355.59s53.639-13.277,100.373,0,113.263,20.935,136.561.377Z" transform="translate(-57.897 -208.595)" opacity="0.1"/>
    <path id="Path_1054" data-name="Path 1054" d="M313.888,386.8S279.9,409.1,171.029,385.206s-102.5-4.78-102.5-4.78L68,357.59s52.577-13.277,99.311,0,112.732,22.528,136.03,1.97Z" transform="translate(-58.403 -209.533)" fill="#f86d70"/>
    <path id="Path_1055" data-name="Path 1055" d="M570.34,248.612c-.531-3.314-1.349-7.488,1.423-9.384a5.9,5.9,0,0,1,3.287-.85c5.741-.058,11.227,3.941,16.856,2.772a9.5,9.5,0,0,0,3.718-16.925c-2.215-1.646-5.013-2.241-7.722-2.8-7.122-1.466-14.557-2.926-21.588-1.062s-13.458,8.168-12.895,15.4c.266,3.463,2.029,6.607,3.871,9.559,1.4,2.241,6.862,12.746,9.512,12.905C570.542,258.447,570.706,250.779,570.34,248.612Z" transform="translate(-286.011 -147.539)" fill="#3f3d56"/>
    <path id="Path_1056" data-name="Path 1056" d="M622.873,461.7s-36.644,9.028-48.859,0c0,0-5.311,20.712-3.717,31.333,0,0,26.023,1.593,28.678,3.186,0,0,.531-4.249,3.186-2.124,0,0,9.028-10.622,25.492-1.062C627.653,493.034,630.839,468.073,622.873,461.7Z" transform="translate(-293.802 -261.12)" fill="#6c63ff"/>
    <path id="Path_1057" data-name="Path 1057" d="M605.091,227.753a10.543,10.543,0,0,0-1.184-.743,9.48,9.48,0,0,1-5.2,15.545c-5.629,1.168-11.115-2.831-16.856-2.772a5.9,5.9,0,0,0-3.287.85c-2.772,1.9-1.96,6.07-1.429,9.384.351,2.167.207,9.836-3.521,9.628h-.064c1.025,1.248,1.981,2.092,2.719,2.124,3.718.207,3.872-7.435,3.521-9.628-.531-3.314-1.344-7.488,1.429-9.384a5.9,5.9,0,0,1,3.287-.85c5.741-.058,11.227,3.941,16.856,2.772a9.5,9.5,0,0,0,3.717-16.925Z" transform="translate(-295.467 -151.068)" opacity="0.1"/>
    <g id="Group_1380" data-name="Group 1380" transform="translate(0.013 46.843)" opacity="0.1">
      <path id="Path_1058" data-name="Path 1058" d="M95.81,176.833S56.1,160.136,50.9,190.248c0,0-2.714,4.689,1.062,8.566,0,0,.813-2.077,4.652.074a19.968,19.968,0,0,0,4.334,1.758,9.75,9.75,0,0,0,6.171-.329h0s13.059-.706,24.042-17.791c0,0,4.705-2.91,4.944-4l-7.871.531s.6,5.762-2.655,9.219c0,0,2.894-8.938,1.5-9.193-.281-.053-4.158.462-4.158.462s1,10.016-4.249,15.2c0,0,4.875-10.191,2.751-15.019l-5.8,1.121s1.593,10.537-4.153,16.67c0,0,4.721-10.834,2.9-16.341L68.8,183.047s1.344,10.314-3.463,15.4c0,0,4.2-13.07,2.22-14.87,0,0-5,2.029-6.076,3.186,0,0,.8,7.435-2.262,10.09,0,0,1.88-9.028.951-9.4,0,0-5.815,4.376-7.584,8.152,0,0,2.209-5.768,6.851-9.028a12.227,12.227,0,0,0-6.9.972s2.013-3.829,8.311-2.013c0,0,4.668-3.229,5.6-3.186,0,0-5.959-2.655-10.266-2.331,0,0,4.615-2.655,11.726,1.784l5.544-2.007s-7.7-3.946-11.556-3.93c0,0,5.13-1.981,13,3.542l5.677-1.163s-6.373-3.9-10.669-4.812c0,0,5.157-.813,12.31,4.546l3.887-.329s-4.705-2.767-6.129-3.441-1.36-1.115-1.36-1.115a18.535,18.535,0,0,1,9.119,4.387S95.773,177.327,95.81,176.833Z" transform="translate(-49.953 -172.217)" fill="#6c63ff"/>
    </g>
    <g id="Group_1381" data-name="Group 1381" transform="translate(5.832 -0.004)" opacity="0.1">
      <path id="Path_1059" data-name="Path 1059" d="M99.482,105.538S85.387,73,65.158,87.922c0,0-4.286,1.243-4.249,5.683,0,0,1.668-.77,2.719,2.693a16.67,16.67,0,0,0,1.593,3.516,7.966,7.966,0,0,0,3.818,3.309h0s8.157,7.021,24.429,3.128c0,0,4.456.956,5.22.441l-4.976-4.174s-2.921,3.765-6.84,3.951c0,0,6.814-3.664,6.129-4.61-.138-.191-2.73-2.092-2.73-2.092s-5.114,6.522-11.153,6.622c0,0,8.7-3.282,10.191-7.355l-4.084-2.655s-5.066,7.164-11.965,7.536c0,0,8.975-3.718,11.03-8.051L79.922,93.8s-5.077,6.9-10.818,7.164c0,0,9.936-5.374,9.782-7.568,0,0-4.126-1.646-5.433-1.551,0,0-3.755,4.859-7.106,4.721,0,0,6.261-4.3,5.916-5.045,0,0-5.948-.712-9.15.531A18.123,18.123,0,0,1,72.328,90.6a9.955,9.955,0,0,0-4.642-3.346s3.378-1.131,6.086,3.537c0,0,4.61.738,5.146,1.291,0,0-2.018-4.987-4.78-7.233,0,0,4.249,1.062,5.948,7.738l4.434,1.97s-2.321-6.729-4.652-8.911c0,0,4.18,1.742,5.709,9.506l4.031,2.544s-1.567-5.948-3.6-8.911c0,0,3.526,2.448,4.727,9.708l2.5,2.018s-1.221-4.323-1.684-5.534-.17-1.434-.17-1.434a15.3,15.3,0,0,1,2.916,7.8S99.2,105.814,99.482,105.538Z" transform="translate(-60.91 -84.006)" fill="#6c63ff"/>
    </g>
  </g>
</svg>
