<svg xmlns="http://www.w3.org/2000/svg" xmlns:xlink="http://www.w3.org/1999/xlink" width="1080" height="838" viewBox="0 0 1080 838">
  <defs>
    <linearGradient id="linear-gradient" x1="0.5" y1="1" x2="0.5" gradientUnits="objectBoundingBox">
      <stop offset="0" stop-color="gray" stop-opacity="0.251"/>
      <stop offset="0.54" stop-color="gray" stop-opacity="0.122"/>
      <stop offset="1" stop-color="gray" stop-opacity="0.102"/>
    </linearGradient>
    <linearGradient id="linear-gradient-2" x1="0" y1="0.5" x2="1" y2="0.5" xlink:href="#linear-gradient"/>
    <clipPath id="clip-swiperTwoGraphic">
      <rect width="1080" height="838"/>
    </clipPath>
  </defs>
  <g id="swiperTwoGraphic" clip-path="url(#clip-swiperTwoGraphic)">
    <rect width="1080" height="838" fill="#fff"/>
    <g id="Group_139" data-name="Group 139" transform="translate(0.02 111)">
      <path id="Path_154" data-name="Path 154" d="M677.293,569.723c20.863-1.19,46.749-15.341,66.876-21.6Q779.9,537.04,815.916,526.8q125.378-35.675,253.446-60.8,11.951-2.351,23.941-4.588a169.465,169.465,0,0,0-55.944-67.187,171.877,171.877,0,0,0,.944-17.729c0-93.592-74.8-169.464-167.095-169.464a164.432,164.432,0,0,0-81.093,21.288c-65.328-42.973-150.593-68.981-243.883-68.981-132.562,0-248.934,52.517-314.875,131.6L541.267,343.3l190.073,32.1c-216.685,6.467-434.04,12.9-650.1-2.285A171.268,171.268,0,0,0,56.579,589.293h0c0,3.389.142,6.75.4,10.082,5.5,1.577,10.819,3.106,15.586,4.107q114.8,24.252,231.082,40.594C246.519,679.3,176.953,684.282,111.059,699.2c31.909,26.339,75.24,42.482,122.989,42.482H945.023c76.986,0,139.387-53.593,139.387-119.714h0a170.1,170.1,0,0,0,22.657-62.2C964.612,573.518,820.381,561.576,677.293,569.723Z" transform="translate(-28.06 -125.732)" fill="#6c63ff" opacity="0.1"/>
      <path id="Path_155" data-name="Path 155" d="M1107.979,531.5a169.927,169.927,0,0,0-71.747-139.17,174.344,174.344,0,0,0,.944-17.72c0-93.592-74.834-169.436-167.095-169.436a164.527,164.527,0,0,0-81.1,21.279c-65.327-42.992-150.6-69.009-243.892-69.009-151.745,0-282.362,68.868-340.288,167.624-3.219-.189-6.457-.293-9.724-.293-92.27,0-167.095,75.872-167.095,169.464a170.426,170.426,0,0,0,27.49,93.148h0c0,84.208,79.479,152.472,177.479,152.472H943.943c76.977,0,139.378-53.6,139.378-119.723h0A170.419,170.419,0,0,0,1107.979,531.5Z" transform="translate(-28 -125.626)" fill="#6c63ff" opacity="0.1"/>
      <path id="Path_156" data-name="Path 156" d="M948.036,431.522a10.515,10.515,0,0,0-4.607-2.02c-1.766-.406-3.569-.661-5.362-.944l-23.243-3.351a27.365,27.365,0,0,0-7.118-.378,9.033,9.033,0,0,0-6.193,3.21,4.825,4.825,0,0,0-1.077,3.021,7.974,7.974,0,0,0,1.057,3.134,10.486,10.486,0,0,1,.576,1.388,31.749,31.749,0,0,0,.831,3.163,2.681,2.681,0,0,0,.4.623,1.067,1.067,0,0,1,0,.16c-.255,1.3.566,2.662.2,3.918-.32,1.076-1.369,1.727-2.029,2.624a3.946,3.946,0,0,0-.094,4.352c.708,1.1,1.992,1.841,2.36,3.1.481,1.652-.821,3.248-1.982,4.522a70.045,70.045,0,0,0-5.91,7.449,4.616,4.616,0,0,0-.944,2.219c-.1,1.643,1.473,3.087,1.2,4.72-.217,1.284-1.472,2.067-2.558,2.832-4.012,2.643-7.232,6.892-7.552,11.7a40.972,40.972,0,0,0-9.138-20.769c-1.35-1.624-2.832-3.257-3.389-5.315-.208-.821-.246-1.7-.529-2.492-.944-2.5-3.946-3.578-5.258-5.881-.944-1.624-.944-3.71-2.115-5.135s-3.011-1.747-4.021-3.125a20.007,20.007,0,0,1-1.284-2.908,6.355,6.355,0,0,0-1.746-2.1,5.135,5.135,0,0,0-.435-.311,1.5,1.5,0,0,0,.5-1.114c0-1.1-1.1-1.832-2.049-2.379-1.227-.7-2.426-1.454-3.6-2.237a8.408,8.408,0,0,0,3.219-2.634,8.657,8.657,0,0,0,1.228-5.664,7.149,7.149,0,0,0-1.69-4.333c-.594-.633-1.34-1.086-1.964-1.68-1.614-1.577-2.162-3.908-2.832-6.061-.887-2.832-2.275-5.806-4.862-7.307-1.246-.727-2.7-1.067-3.918-1.832s-2.237-2.209-1.812-3.6c.283-.944,1.161-1.6,1.756-2.4a4.777,4.777,0,0,0-1.2-6.608c-.7-.444-1.557-.831-1.7-1.642a3,3,0,0,1-2.19-2.322,8.952,8.952,0,0,1,0-3.361q.368-2.634.727-5.249a3.418,3.418,0,0,0,2.624,0,23.1,23.1,0,0,0,2.832,3.7,36.986,36.986,0,0,1,6.608,11.47c.538,1.51,1.086,3.2,2.483,4,.481.274,1.029.415,1.5.708a5.613,5.613,0,0,1,1.473,1.51c1.133,1.5,2.266,2.993,3.389,4.494l.057.227a1.32,1.32,0,0,0,.151.378,1.255,1.255,0,0,0,.812.415c3.474.8,7.373,1.539,10.384-.359,2.719-1.7,3.908-5.06,6.212-7.307,1.633-1.6,3.946-2.832,4.409-5.079a16.683,16.683,0,0,1-1.624-.595c.472-.472.944-1.019,1.586-1.643a20,20,0,0,0,2.511-2.993,19.27,19.27,0,0,0,1.888-4.229q2.729-7.779,5.476-15.567c.868-2.454,1.737-4.928,2.832-7.316,1.133-2.587,2.474-5.069,3.71-7.609a101,101,0,0,0,7.344-20.674,7.545,7.545,0,0,0,.293-3.011c-.264-1.633-1.5-2.917-2.681-4.078a19.679,19.679,0,0,0-4.022-3.332,6.609,6.609,0,0,0-5.041-.812c-2.417.708-3.937,3.181-4.494,5.664s-.349,5.041-.585,7.552c-.34,3.635-1.586,7.146-1.888,10.79-.161,2.105,0,4.239-.255,6.344a23.149,23.149,0,0,1-2.832,7.816,50.6,50.6,0,0,1-12.206,15.048c-.576.481-1.171.944-1.737,1.463a9.015,9.015,0,0,1,.123-1.227,7.39,7.39,0,0,0-1.2.425,3.594,3.594,0,0,0-.142-1.416c-.755-2.256-4.116-2.832-4.72-5.126a10.55,10.55,0,0,1-.16-1.718c-.2-2.011-1.567-3.71-2.039-5.664-.434-1.8-.1-3.776-.944-5.447a15.237,15.237,0,0,0-2.511-2.832,11.114,11.114,0,0,1-2.389-4.5c-.122-.463-.236-.944-.368-1.407a6.435,6.435,0,0,0-.34-3.106c-.859-2.134-3.078-3.5-3.88-5.664-.623-1.68-.349-3.776-1.53-5.079a5.522,5.522,0,0,0-2.237-1.35,49.773,49.773,0,0,0-13.472-3.181c-2.586-.236-5.437-.368-7.288-2.19-2.162-2.115-2.266-5.919-4.8-7.552-2.228-1.444-5.381-.378-7.109,1.652a9.049,9.049,0,0,0-.717.944,10.11,10.11,0,0,1-.2-3.871c0-.321.066-.651.095-.944a18.88,18.88,0,0,0,10.233-8.081v.057l.113.293c.274.689.708,1.35,1.35,1.426h0a1.889,1.889,0,0,0,1.171-.425,9.706,9.706,0,0,0,1.567-1.359q.359-.4.679-.821a10.693,10.693,0,0,0,1.114-1.888,11.218,11.218,0,0,0,.944-3.163c.17-1.095.189-2.218.378-3.314a20.323,20.323,0,0,1,.689-2.5c.094-.274.189-.547.274-.821s.208-.642.3-.944a21.877,21.877,0,0,0,.944-5.985v-1.02a9.96,9.96,0,0,0-3.172-7.033c-1.624-1.331-3.776-1.888-4.966-3.691a17.591,17.591,0,0,1-1.4-4.182,9.44,9.44,0,0,0-7.42-6.674,8.259,8.259,0,0,0-5.872,1.614h0l-.132.1h0a9.446,9.446,0,0,0-2.341,2.606,7.789,7.789,0,0,1-3.323-1.888c-.944-.878-1.671-1.983-2.624-2.832a6.75,6.75,0,0,0-6.722-1.416,8.034,8.034,0,0,0-4.805,5.5c-.519,1.945-.424,4.182-1.51,5.806-.84,1.265-2.219,1.888-3.182,3.04a5.726,5.726,0,0,0-1.19,2.521h0a6.841,6.841,0,0,0-.16,1.577h0a2.862,2.862,0,0,0,.057.7v.113a4.958,4.958,0,0,0,.16.765h0a6.6,6.6,0,0,0,1.406,2.587,6.214,6.214,0,0,0,2.275,1.643,9.233,9.233,0,0,0,1.1.349l1.123.255.4.094A18.823,18.823,0,0,0,790,305.861a7.468,7.468,0,0,1-.095.793,65.3,65.3,0,0,0,.491,11.13c.132,1.463.208,3.077-.689,4.239a8.035,8.035,0,0,1-1.369,1.218c.51-.661,1.029-1.312,1.558-1.964-1.331-1.34-3.436-1.51-5.325-1.378a24.672,24.672,0,0,0-10.384,3.172c-2.114,1.218-4.286,2.832-6.7,2.549-1.425-.16-2.832-.944-4.22-.566a8.551,8.551,0,0,0-2.162,1.284,2.928,2.928,0,0,1-1.775.548c-1.483-1.822-3.776-3.059-5.551-4.541a43.75,43.75,0,0,1-5.522-5.919c-3.059-3.691-6.108-7.392-9.11-11.121-2.53-3.134-5.126-6.523-5.57-10.535a10.492,10.492,0,0,1-.066-1.2,30.548,30.548,0,0,1,.718-5.664,2.826,2.826,0,0,0,0-1.369c-.283-.944-1.369-1.293-2.3-1.5h0c.123-.727.208-1.473.255-2.181.529-8.119-.047-16.37,1.671-24.319.651-3.059,1.718-6.155,3.917-8.374,3.446-3.484,9.214-4.324,11.857-8.449,2.209-3.436,1.331-8.3-1.445-11.329s-7.052-4.267-11.12-4.116a5.739,5.739,0,0,0-3.239.869,6.885,6.885,0,0,0-1.963,2.983l-4.05,9.846a59.6,59.6,0,0,0-2.964,7.911c-1.133,4.135-1.388,8.5-2.284,12.669,0,3.21-2.068,7.212-3.2,10.167-1.265,3.323-2.634,6.608-3.776,10-.283.85-1.274,3.37-1.888,5.664a3.449,3.449,0,0,0-.642.481,17.145,17.145,0,0,0-1.341,1.992c-.859,1.133-2.256,1.737-3.2,2.832s-1.142,3.106.17,3.654a3.85,3.85,0,0,0,.821.179,3.2,3.2,0,0,1,.51.085c1.416.4,1.973,2.181,1.765,3.653s-.944,2.832-1.067,4.3c-.255,2.606,1.274,5.032,2.747,7.222a62.273,62.273,0,0,0,5.041,6.788c1.331,1.492,2.833,2.832,4.173,4.267,5.107,5.249,9.167,11.385,13.755,17.087a37.921,37.921,0,0,0,5.6,5.872,42.192,42.192,0,0,0,4.239,2.917l7.892,5a8.648,8.648,0,0,0,2.984,1.406,3.956,3.956,0,0,0,1.057,0c.047.236.085.463.142.7.614,2.473,1.964,4.72,2.114,7.241s-.075,5.1.1,7.647c.17,2.351.689,4.72.821,7.033.265,4.456-.831,8.855-1.888,13.217-1.6,6.382-2.558,12.9-5.664,18.683-.869,1.6-1.888,3.219-1.888,5.041a2.614,2.614,0,0,0,.057.661h0l-1.416.8c-.415.236-.83.472-1.208.718-1.794,1.171-3.71,2.464-4.446,4.484-.6,1.633-.321,3.5-1.039,5.088a2.168,2.168,0,0,1-.113.208c-.755,1.473-2.256,2.568-2.6,4.182h0c-.255,1.237.236,2.549,0,3.776v.047a13.658,13.658,0,0,0-.51,1.888,2.238,2.238,0,0,0,.057.623A3.6,3.6,0,0,0,741.858,438a7.539,7.539,0,0,0,1.1.878q.6.4,1.246.736l.246.132c.358.189.717.368,1.086.538l.245.1c.425.189.859.359,1.293.51l.3.094c.34.113.689.217,1.039.3l.236.075.217.047.945.2.349.066q.622.1,1.274.17h.378c.321,0,.632.047.944.057h1.727a10.586,10.586,0,0,0,1.331-.123h.142c.4-.057.793-.123,1.189-.208l.3-.066c.368-.085.736-.17,1.1-.283l.2-.057c.444-.132.888-.274,1.322-.444a34.7,34.7,0,0,0,4.361-2.162c.944-.519,1.888-1.048,2.832-1.529a21.945,21.945,0,0,1,2.152-.944,12.148,12.148,0,0,1,5.664-.944,22.182,22.182,0,0,1,2.832.576v.312q1.152,6.8,2.275,13.594a27.644,27.644,0,0,1,3.908-2.351,8.68,8.68,0,0,0-.5,2.124,8.451,8.451,0,0,0,0,1.69,3.668,3.668,0,0,1-.265,2.6c-.331.434-.944.68-1.123,1.171a3.99,3.99,0,0,0-.094,1.539,2.454,2.454,0,0,1-2.247,2.285,3.588,3.588,0,0,1-1.425,4.211,4.983,4.983,0,0,0-1.095.717,3.27,3.27,0,0,0-.633,1.426,25.225,25.225,0,0,1-7.392,12.15,23.77,23.77,0,0,0-3.654,3.569,16.257,16.257,0,0,0-1.652,3.257q-3.776,9.232-7.665,18.475a41.015,41.015,0,0,0-3.286,10.658c-1.133,10.177-10.2,18.805-8.5,28.906a14.161,14.161,0,0,0,2.945,6.9c1.888,2.275,4.72,3.578,7.552,4.635,7.278,2.832,14.953,4.38,22.6,5.938l12.008,2.464a52.463,52.463,0,0,0,7.156,1.133c2.9.2,5.872-.076,8.695.661,1.746.453,3.417,1.293,5.221,1.388,1.548.085,3.455-.246,4.371,1.019s.208,2.936,1.076,4.059c1.4,1.784,4.805,0,6.325,1.68a7.831,7.831,0,0,1,.944,2.086,3.781,3.781,0,0,0,.944,1.19,7.963,7.963,0,0,1,.113,1.614,27.844,27.844,0,0,1-1.359,6.438q-1.7,5.749-3.389,11.508a25.517,25.517,0,0,0-.944,4.154,9.945,9.945,0,0,0,0,2.058,5.652,5.652,0,0,0,3.389,4.919,6.211,6.211,0,0,0,4.588-.566,20.282,20.282,0,0,0,3.776-2.549,25.79,25.79,0,0,0,5.447-5.608c4.72-7.061,3.191-16.615,6.5-24.422,2.2-5.211,6.485-9.44,7.911-14.935a5.978,5.978,0,0,0,.113-3.228c-.594-1.888-2.605-2.964-4.484-3.644H846a38.733,38.733,0,0,0-4.72-1.35c-.4-.085-.8-.151-1.208-.217a7.41,7.41,0,0,1-2.087-2.719,6.32,6.32,0,0,0-.444-1.633,1.7,1.7,0,0,0-1.359-.755c-.944-.094-2.209.245-3.238.17-2.1-.151-3.5-2.219-5.39-3.172s-3.937-.717-5.947-.576a5.5,5.5,0,0,1-2.152-.132A8.087,8.087,0,0,1,817.183,539a9.5,9.5,0,0,0-8.317-1.671,9.072,9.072,0,0,1-2.832.642c-1.841-.1-3.143-1.746-4.5-2.993-3.72-3.408-9.016-4.3-13.528-6.542a3.09,3.09,0,0,1-1.624-1.4c-.519-1.284.652-2.568,1.709-3.446l7.76-6.448c8.5-7.061,19.116-12.376,23.063-22.732a13.139,13.139,0,0,1,1.888-3.88,5.258,5.258,0,0,1,1.047-.944,7.931,7.931,0,0,1,5.806-1.133,19.611,19.611,0,0,1,6.835,2.983q5.069,3.068,9.865,6.608a87.3,87.3,0,0,1,9.016,7.4c4.956,4.72,9.081,10.318,13.7,15.407s9.894,9.837,16.3,12.272,14.161,2.332,19.664-1.756c6.353-4.72,8.393-13.16,10-20.9,3.54-3.417,4.607-8.619,6.335-13.217,1.086-2.917,2.473-5.664,3.644-8.572,1.4-3.417,2.492-6.948,3.587-10.469a50.337,50.337,0,0,0,2.511-10.922c.453-5.882-1.123-12.14.529-17.663,2.181-.481,4.163-1.709,6.306-2.426,3.191-1.048,6.609-.878,9.988-.859h.217a5.156,5.156,0,0,0,3.323-.784c1.133-.944,1.312-2.558,1.369-4.022C950.972,437.923,950.746,433.863,948.036,431.522ZM811.255,270.488a7.014,7.014,0,0,1-2.388.17Z" transform="translate(-66.041 -129.477)" fill="url(#linear-gradient)"/>
      <path id="Path_157" data-name="Path 157" d="M819.257,334.743a10.387,10.387,0,0,1-3.928,2.086l-6.693,2.4c-3.634,1.3-7.429,2.615-11.262,2.143-2.143-.264-11.329-1.614-12.716-3.285-2.114-2.587,5.3-6.391,7.826-8.572a10.688,10.688,0,0,0,1.585-1.4c.944-1.152.822-2.766.689-4.22a65.128,65.128,0,0,1-.491-11.111,22.464,22.464,0,0,1,.377-2.634c.944-4.342,4.984-2.757,8.175-1.6a63.905,63.905,0,0,1,11.093,4.8,7.955,7.955,0,0,1,2.737,2.322c1.4,2.115.841,4.89.614,7.552-.2,2.067-.189,4.05,1.1,5.551a14.308,14.308,0,0,1,1.785,1.888A3.542,3.542,0,0,1,819.257,334.743Z" transform="translate(-70.324 -134.012)" fill="#be6f72"/>
      <path id="Path_158" data-name="Path 158" d="M722.838,262.279c.944-4.182,1.151-8.5,2.284-12.641a59.141,59.141,0,0,1,2.964-7.883l4.163-9.714a6.856,6.856,0,0,1,1.964-2.974,5.814,5.814,0,0,1,3.238-.869c4.068-.151,8.345,1.114,11.121,4.107s3.654,7.835,1.444,11.262c-2.643,4.125-8.411,4.956-11.857,8.43-2.2,2.218-3.266,5.306-3.918,8.355-1.718,7.93-1.142,16.153-1.671,24.252-.17,2.521-.661,5.4-2.832,6.7a8.261,8.261,0,0,1-4.23.821l-6.193.1c-1.038,0-4.8.651-5.494-.132-1.208-1.369,1.548-8.185,2.049-9.7,1.114-3.37,2.483-6.656,3.776-9.969C720.77,269.473,722.838,265.479,722.838,262.279Z" transform="translate(-66.364 -129.585)" fill="#be6f72"/>
      <path id="Path_159" data-name="Path 159" d="M856.963,577.955c-1.426,5.457-5.711,9.7-7.911,14.906-3.314,7.789-1.822,17.314-6.5,24.356a25.723,25.723,0,0,1-5.447,5.617,20.217,20.217,0,0,1-3.776,2.539,6.212,6.212,0,0,1-4.588.567,5.651,5.651,0,0,1-3.389-4.909,9.9,9.9,0,0,1,0-2.048,25.384,25.384,0,0,1,.944-4.144q1.7-5.73,3.389-11.479a27.807,27.807,0,0,0,1.36-6.419c.123-2.379-1.388-5.475-.746-7.694.293-1,1.388-1.888,1.888-2.728a15.807,15.807,0,0,0,1.624-3.861c.774-2.634,1.3-5.448,2.926-7.666a18.005,18.005,0,0,1,3.682-3.446,9.763,9.763,0,0,1,3.512-1.973,8.6,8.6,0,0,1,3.776.18,37.059,37.059,0,0,1,4.72,1.34h.085c1.888.68,3.889,1.727,4.484,3.635A5.935,5.935,0,0,1,856.963,577.955Z" transform="translate(-72.619 -148.682)" fill="#3f3d56"/>
      <path id="Path_160" data-name="Path 160" d="M962.251,454.531c-.056,1.463-.236,3.1-1.369,4.012a5.152,5.152,0,0,1-3.322.784H957.3c-3.37,0-6.8-.189-9.988.859-2.426.8-4.654,2.275-7.184,2.568-3.483.4-6.759-1.51-9.846-3.172a97.98,97.98,0,0,0-8.94-4.248c-2-.821-6.089-1.35-7.052-3.54a32.371,32.371,0,0,1-.831-3.153,10.52,10.52,0,0,0-.576-1.388,7.973,7.973,0,0,1-1.057-3.125,4.821,4.821,0,0,1,1.076-3.021,9.053,9.053,0,0,1,6.183-3.181,27.377,27.377,0,0,1,7.118.378l23.243,3.342c1.793.255,3.6.51,5.362.944a10.521,10.521,0,0,1,4.607,2.02C962.166,446.912,962.393,450.962,962.251,454.531Z" transform="translate(-77.461 -141.318)" fill="#3f3d56"/>
      <path id="Path_161" data-name="Path 161" d="M932.568,461.055c-2.832,5.976-.793,13.047-1.3,19.655a50.1,50.1,0,0,1-2.511,10.894c-1.095,3.512-2.19,7.033-3.587,10.441-1.171,2.832-2.558,5.664-3.644,8.553-1.728,4.607-2.832,9.79-6.335,13.216-1.6,7.722-3.644,16.162-10,20.844-5.523,4.078-13.217,4.22-19.664,1.756s-11.687-7.184-16.3-12.272-8.742-10.63-13.7-15.369a85.864,85.864,0,0,0-9.034-7.392q-4.8-3.484-9.866-6.552a19.755,19.755,0,0,0-6.835-2.974,7.928,7.928,0,0,0-5.806,1.133,5.259,5.259,0,0,0-1.048.944,13,13,0,0,0-1.888,3.87c-3.965,10.328-14.6,15.634-23.1,22.676l-7.76,6.429c-1.057.878-2.228,2.162-1.708,3.436a3.089,3.089,0,0,0,1.624,1.4c4.512,2.228,9.809,3.125,13.528,6.523,1.359,1.246,2.662,2.889,4.5,2.983a9.042,9.042,0,0,0,2.832-.633,9.526,9.526,0,0,1,8.317,1.661,8.083,8.083,0,0,0,2.266,1.558,5.5,5.5,0,0,0,2.152.132c2.011-.142,4.144-.321,5.948.576s3.285,3.011,5.39,3.163c1.029.075,2.256-.265,3.238-.17a1.7,1.7,0,0,1,1.36.755,6.245,6.245,0,0,1,.443,1.623c.387,1.331,1.69,2.143,2.539,3.238,1.3,1.681,1.492,3.965,1.36,6.089a25.982,25.982,0,0,1-8.27,17.389,10.235,10.235,0,0,1-5.089,2.832,4.72,4.72,0,0,1-5.041-2.237,7.759,7.759,0,0,0-.944-2.077c-1.52-1.671-4.928.1-6.325-1.681-.869-1.114-.245-2.9-1.076-4.05s-2.832-.944-4.371-1.01c-1.8-.094-3.474-.944-5.221-1.388-2.832-.736-5.8-.463-8.695-.661a52.475,52.475,0,0,1-7.156-1.133l-12.008-2.454c-7.647-1.558-15.321-3.134-22.6-5.919-2.785-1.057-5.588-2.36-7.552-4.626a14.16,14.16,0,0,1-2.946-6.891c-1.709-10.073,7.354-18.682,8.5-28.831.406-3.7,1.888-7.193,3.285-10.63q3.842-9.214,7.665-18.437a16.418,16.418,0,0,1,1.6-3.266,23.7,23.7,0,0,1,3.654-3.559,25.141,25.141,0,0,0,7.392-12.122,3.262,3.262,0,0,1,.633-1.425,5.306,5.306,0,0,1,1.095-.708,3.588,3.588,0,0,0,1.426-4.2,2.454,2.454,0,0,0,2.247-2.284,3.946,3.946,0,0,1,.094-1.529c.227-.491.793-.736,1.123-1.171a3.648,3.648,0,0,0,.264-2.587,8.4,8.4,0,0,1,0-1.69,8.675,8.675,0,0,1,2.53-5.277c2.256-2.219,5.466-1.642,8.581-2.171a49.147,49.147,0,0,0,9.062-2.9,89.034,89.034,0,0,1,25.593-5.919,55.876,55.876,0,0,1,25.848,4.116,14.715,14.715,0,0,1,3.333,1.888,6.321,6.321,0,0,1,1.746,2.086,19.417,19.417,0,0,0,1.284,2.9c1.01,1.378,2.917,1.822,4.022,3.125s1.2,3.5,2.114,5.117c1.312,2.3,4.352,3.37,5.258,5.872.283.793.321,1.661.529,2.483.51,2.058,2.039,3.682,3.389,5.305a40.793,40.793,0,0,1,9.138,20.769c.3-4.786,3.521-9.025,7.552-11.668,1.086-.708,2.341-1.491,2.558-2.776.273-1.624-1.3-3.068-1.2-4.72a4.626,4.626,0,0,1,.944-2.209,69.833,69.833,0,0,1,5.909-7.429c1.161-1.275,2.464-2.832,1.982-4.513-.368-1.256-1.652-1.992-2.36-3.087a3.927,3.927,0,0,1,.094-4.342c.661-.9,1.709-1.548,2.03-2.615.368-1.256-.453-2.615-.2-3.908a4.835,4.835,0,0,1,1.945-2.521,16.168,16.168,0,0,1,4.22-2.776c2.492-.944,5.268-.595,7.911-.226,4.418.613,9.374,1.558,11.867,5.258C932.946,455.069,933.758,458.581,932.568,461.055Z" transform="translate(-68.208 -141.8)" fill="#65617d"/>
      <path id="Path_162" data-name="Path 162" d="M962.249,454.531c-.057,1.463-.236,3.1-1.369,4.012a5.152,5.152,0,0,1-3.323.783H957.3c.387-1.964,2.775-3.087,3.19-5.079a4.493,4.493,0,0,0-1.038-3.427c-2.02-2.728-5.268-4.239-8.5-5.343a56.287,56.287,0,0,0-28.378-2.124,28.569,28.569,0,0,0-7.458,2.294,24.323,24.323,0,0,0-2.266,1.6,7.978,7.978,0,0,1-1.057-3.125,4.823,4.823,0,0,1,1.076-3.021,9.052,9.052,0,0,1,6.184-3.181,27.379,27.379,0,0,1,7.118.377l23.242,3.342a54.443,54.443,0,0,1,5.362.944,10.516,10.516,0,0,1,4.607,2.02C962.164,446.912,962.391,450.962,962.249,454.531Z" transform="translate(-77.46 -141.318)" opacity="0.1"/>
      <path id="Path_163" data-name="Path 163" d="M856.963,578.055c-1.426,5.457-5.711,9.7-7.911,14.906-3.314,7.788-1.822,17.314-6.5,24.356a25.734,25.734,0,0,1-5.447,5.617,20.233,20.233,0,0,1-3.776,2.539,6.211,6.211,0,0,1-4.588.566,5.65,5.65,0,0,1-3.389-4.909,9.9,9.9,0,0,1,0-2.048l.056.151c.822,1.982,2.162,4.059,4.277,4.409a5.788,5.788,0,0,0,4.361-1.539c3.116-2.5,4.928-6.231,6.656-9.827a40.855,40.855,0,0,0,3.19-8.147c.378-1.6.557-3.247.944-4.852,1.793-7.8,7.9-14.16,9.251-22.062a5.407,5.407,0,0,0,.076-1.652,8.349,8.349,0,0,0-.812-2.058,10.21,10.21,0,0,1-.717-2.284c1.888.68,3.89,1.727,4.484,3.635A5.937,5.937,0,0,1,856.963,578.055Z" transform="translate(-72.619 -148.782)" opacity="0.1"/>
      <path id="Path_164" data-name="Path 164" d="M840.213,560.849a13.685,13.685,0,0,1-4.258,5.815,20.77,20.77,0,0,1-9.167,3.965,9.122,9.122,0,0,1-4.72-.057c-2.1-.727-3.606-2.691-5.749-3.257-1.53-.415-3.172-.047-4.721-.274-2.785-.387-4.947-2.511-7.193-4.211-6.882-5.173-15.916-6.844-22.8-12.018a2.109,2.109,0,0,1-.737-.765,2.275,2.275,0,0,1-.142-1.067,21.718,21.718,0,0,1,2.067-9.072,31.633,31.633,0,0,1,3.89-5.542c6.164-7.552,12.357-15.161,19.74-21.534,3.1-2.672,6.476-5.164,10.384-6.372,2.171-.67,6.457-1.3,9.1-.17a5.278,5.278,0,0,0-1.047.944,12.989,12.989,0,0,0-1.888,3.871c-3.974,10.337-14.613,15.643-23.11,22.685l-7.76,6.429c-1.057.878-2.228,2.162-1.709,3.436a3.087,3.087,0,0,0,1.624,1.4c4.513,2.228,9.809,3.125,13.528,6.524,1.359,1.246,2.662,2.889,4.5,2.983a9.054,9.054,0,0,0,2.832-.633,9.525,9.525,0,0,1,8.317,1.661,8.091,8.091,0,0,0,2.266,1.558,5.5,5.5,0,0,0,2.153.132c2.011-.142,4.144-.321,5.947.576s3.286,3.011,5.39,3.163C838,561.094,839.231,560.735,840.213,560.849Z" transform="translate(-70.124 -145.113)" opacity="0.1"/>
      <path id="Path_165" data-name="Path 165" d="M751.253,426.353c-1.794,1.152-3.7,2.455-4.437,4.456-.6,1.633-.321,3.5-1.048,5.088s-2.36,2.69-2.719,4.39c-.255,1.236.245,2.539,0,3.776a16.293,16.293,0,0,0-.519,1.964c-.094,1.407,1.114,2.549,2.294,3.333a19.164,19.164,0,0,0,17.153,1.888,77.459,77.459,0,0,0,7.212-3.691,14.267,14.267,0,0,1,7.77-1.888c1.557.17,3.049.736,4.607.944a4.834,4.834,0,0,0,4.314-1.284,5.379,5.379,0,0,0,.944-2.237c1.312-5.183.718-10.677-.529-15.888s-3.134-10.224-4.465-15.407c-.945-3.842-1.672-7.779-3.248-11.413s-4.229-7.014-7.939-8.4a1.483,1.483,0,0,0-.944-.123,1.6,1.6,0,0,0-.613.453,29.025,29.025,0,0,0-6.477,10.894c-1.482,4.522-1.888,9.318-3.247,13.859-.585,1.888-1.341,4.418-2.832,5.862S752.942,425.268,751.253,426.353Z" transform="translate(-67.987 -138.743)" fill="#3f3d56"/>
      <path id="Path_166" data-name="Path 166" d="M786.854,443.059a5.5,5.5,0,0,1-.991,2.237,4.785,4.785,0,0,1-4.314,1.274c-1.548-.189-3.039-.765-4.6-.944a14.239,14.239,0,0,0-7.77,1.888c-2.417,1.208-4.72,2.709-7.222,3.682a19.06,19.06,0,0,1-11.451.652,18.471,18.471,0,0,1-5.664-2.492c-1.189-.774-2.388-1.888-2.294-3.332a16.188,16.188,0,0,1,.519-1.954c.245-1.237-.245-2.539,0-3.776.359-1.7,2-2.832,2.719-4.4s.444-3.446,1.039-5.079c.736-2.011,2.653-3.3,4.446-4.465s3.927-2.048,5.362-3.455a5.328,5.328,0,0,0,.5-.7,16.991,16.991,0,0,0,2.247-5.2c1.388-4.55,1.765-9.336,3.238-13.868a29.088,29.088,0,0,1,6.486-10.885,1.421,1.421,0,0,1,.6-.453,1.512,1.512,0,0,1,.944.113c3.7,1.4,6.353,4.777,7.939,8.411s2.256,7.552,3.247,11.4c1.322,5.183,3.219,10.214,4.466,15.416S788.166,437.867,786.854,443.059Z" transform="translate(-67.988 -138.738)" opacity="0.1"/>
      <path id="Path_167" data-name="Path 167" d="M817.857,323.2a18.881,18.881,0,0,1-23-10.384,22.464,22.464,0,0,1,.378-2.634c.944-4.342,4.984-2.757,8.175-1.6a63.919,63.919,0,0,1,11.093,4.805,7.952,7.952,0,0,1,2.738,2.322C818.64,317.789,818.083,320.565,817.857,323.2Z" transform="translate(-70.916 -134.013)" opacity="0.1"/>
      <circle id="Ellipse_21" data-name="Ellipse 21" cx="18.881" cy="18.881" r="18.881" transform="translate(722.358 151.367)" fill="#be6f72"/>
      <path id="Path_168" data-name="Path 168" d="M863,453.145c0,1.567-2.124,2.067-3.7,1.983-5.664-.331-11.206-1.888-16.813-1.416-7.09.642-13.6,4.56-20.712,4.918-2.738.142-5.523-.265-8.222.236-3.493.651-6.608,2.775-10.168,3.078-3.087.264-6.136-.9-9.223-.774A14.829,14.829,0,0,0,788,462.925a8.677,8.677,0,0,1,2.53-5.277c2.256-2.218,5.466-1.643,8.581-2.171a49.155,49.155,0,0,0,9.063-2.9,89.041,89.041,0,0,1,25.593-5.919,55.879,55.879,0,0,1,25.839,4.088,14.706,14.706,0,0,1,3.333,1.888,1.477,1.477,0,0,1,.066.51Z" transform="translate(-70.532 -141.801)" opacity="0.1"/>
      <path id="Path_169" data-name="Path 169" d="M802.11,340.064l-7.646-2.832-3.229-1.189a15.618,15.618,0,0,0-4.116-1.1c-3.7-.283-7.184,2.181-9.157,5.324s-2.719,6.892-3.351,10.545q-1.3,7.5-2.209,15.048a98.244,98.244,0,0,0-.991,13.726c.217,11.687,2.69,23.214,5.409,34.59a121.712,121.712,0,0,1,3.012,15.341c.226,2.134.33,4.276.557,6.419.245,2.407.642,4.786,1.039,7.175l2.275,13.566c2.832-2.011,6.052-3.776,9.535-3.88,3.087-.113,6.146,1.038,9.223.774,3.54-.293,6.674-2.417,10.167-3.068,2.7-.5,5.485-.1,8.232-.236,7.1-.359,13.622-4.286,20.7-4.918,5.617-.51,11.2,1.076,16.823,1.407,1.567.095,3.691-.406,3.691-1.982,0-1.1-1.095-1.822-2.048-2.37a101.012,101.012,0,0,1-12.792-9.129c-3.72-2.945-7.5-5.966-10.054-9.95-6.165-9.582-4.05-22.544-9.308-32.654-4.277-8.213,0-18.975,0-28.236,0-4.616,0-9.289-1.086-13.774a58.382,58.382,0,0,0-2.53-7.363l-3.672-9.3a1.519,1.519,0,0,0-.434-.708,1.444,1.444,0,0,0-.841-.255,8.856,8.856,0,0,0-6.1,1.954c-1.728,1.406-2.832,3.427-4.531,4.89C806.821,339.5,804.423,340.914,802.11,340.064Z" transform="translate(-69.604 -135.34)" fill="#e3e8f4"/>
      <path id="Path_170" data-name="Path 170" d="M816.44,334.35c.6-2.587,1.256-5.277,2.983-7.3s4.881-3.087,7.109-1.643c2.53,1.643,2.634,5.438,4.8,7.552,1.888,1.813,4.72,1.954,7.288,2.19a49.415,49.415,0,0,1,13.472,3.172,5.5,5.5,0,0,1,2.237,1.341c1.18,1.341.944,3.4,1.53,5.069.8,2.152,3.021,3.521,3.88,5.664.944,2.379,0,5.041-.793,7.486-1.425,4.39-2.322,8.949-3.71,13.358s-3.361,8.751-6.608,12.074c-1.435,1.473-3.569,2.832-5.457,1.954l-.727,5.239a8.912,8.912,0,0,0,0,3.351,3,3,0,0,0,2.19,2.322c.141.812,1,1.2,1.7,1.643a4.72,4.72,0,0,1,1.2,6.608c-.594.8-1.473,1.435-1.756,2.388-.425,1.378.585,2.832,1.812,3.587s2.672,1.1,3.918,1.831c2.587,1.492,3.974,4.428,4.862,7.279.661,2.152,1.209,4.484,2.832,6.051.623.595,1.369,1.048,1.964,1.671a7.166,7.166,0,0,1,1.69,4.333,8.6,8.6,0,0,1-1.227,5.664c-1.888,2.7-5.409,3.5-8.5,4.72-5.013,2.058-9.138,5.74-13.556,8.874a14.466,14.466,0,0,1-6.183,2.908c-3.059.406-6.07-.944-9.148-1.067a22.717,22.717,0,0,0-5.456.717l-5.664,1.227c.3-4.39-2.115-8.789-3.465-12.971-2.549-7.873-3.021-16.294-2.417-24.545s2.284-16.389,3.946-24.489c1.161-5.664,1.048-11.583,2.832-17.087,1.671-5.3,4.059-10.384,4.938-15.9C820.386,350.711,814.42,343.149,816.44,334.35Z" transform="translate(-71.595 -134.988)" fill="#3f3d56"/>
      <path id="Path_171" data-name="Path 171" d="M861.638,353.331a10.377,10.377,0,0,1,1.086,3.068,11.074,11.074,0,0,0,2.388,4.494,15.482,15.482,0,0,1,2.511,2.832c.868,1.643.538,3.644.944,5.438.472,1.954,1.841,3.653,2.039,5.664a10.39,10.39,0,0,0,.161,1.718c.613,2.285,3.974,2.832,4.72,5.117.5,1.482-.359,3.1-.2,4.654a4.108,4.108,0,0,1,.085,1.473,3,3,0,0,1-1.076,1.378,21.712,21.712,0,0,0-6.212,11.055,62.958,62.958,0,0,0-1.426,12.773l-3.691-4.881a5.6,5.6,0,0,0-1.473-1.51c-.472-.283-1.02-.425-1.5-.708-1.4-.793-1.945-2.474-2.482-3.984a36.813,36.813,0,0,0-6.609-11.442c-1.5-1.765-3.247-3.54-3.578-5.834a10.747,10.747,0,0,1,.17-3.153c.944-6.183,1.954-12.518,4.965-18,1.406-2.568,3.229-4.89,4.578-7.5C857.947,354.256,859.222,349.762,861.638,353.331Z" transform="translate(-73.849 -136.513)" fill="#3f3d56"/>
      <path id="Path_172" data-name="Path 172" d="M760.7,355.767a4.314,4.314,0,0,1-.585,2.266,2.984,2.984,0,0,1-2.983.944,8.629,8.629,0,0,1-2.983-1.4q-3.946-2.492-7.892-4.994a43.672,43.672,0,0,1-4.239-2.908,37.814,37.814,0,0,1-5.6-5.862c-4.588-5.664-8.648-11.81-13.755-16.993-1.388-1.416-2.832-2.775-4.173-4.257a62.153,62.153,0,0,1-5.041-6.778c-1.473-2.181-3-4.6-2.747-7.2.151-1.473.859-2.832,1.067-4.3s-.349-3.247-1.765-3.644a3.2,3.2,0,0,0-.51-.085,3.85,3.85,0,0,1-.821-.179c-1.312-.548-1.114-2.577-.17-3.644s2.341-1.661,3.2-2.832a17.042,17.042,0,0,1,1.341-1.992,5.106,5.106,0,0,1,2.2-1.1A34.041,34.041,0,0,1,732,290.175c.944.208,2.02.585,2.3,1.5a2.766,2.766,0,0,1,0,1.359,30.377,30.377,0,0,0-.717,5.664,10.011,10.011,0,0,0,.066,1.19c.444,4,3.04,7.392,5.57,10.516,3,3.72,6.052,7.411,9.11,11.093a43.57,43.57,0,0,0,5.522,5.9c1.888,1.567,4.333,2.832,5.806,4.843,1.2,1.624.812,3.842.944,5.8A128.594,128.594,0,0,1,760.7,355.767Z" transform="translate(-66.041 -133.012)" fill="#3f3d56"/>
      <path id="Path_173" data-name="Path 173" d="M889.909,397.3a19.872,19.872,0,0,0,2.511-2.974,19.645,19.645,0,0,0,1.888-4.22l5.475-15.529c.869-2.454,1.737-4.919,2.832-7.307,1.133-2.577,2.474-5.06,3.71-7.552a100.722,100.722,0,0,0,7.335-20.533,7.615,7.615,0,0,0,.293-3.012c-.264-1.633-1.5-2.908-2.681-4.069a19.614,19.614,0,0,0-4.022-3.323,6.608,6.608,0,0,0-5.041-.812c-2.417.708-3.937,3.181-4.494,5.664s-.349,5.022-.585,7.552c-.34,3.625-1.586,7.127-1.888,10.762-.16,2.105,0,4.229-.255,6.325a23.109,23.109,0,0,1-2.832,7.807,50.7,50.7,0,0,1-12.207,15.01,19.617,19.617,0,0,0-3.663,3.521,11.491,11.491,0,0,0-1.766,4.4,10.129,10.129,0,0,0,.765,7.146c1.539,2.624,4.493,3.776,7.316,4.361C886.415,401.311,887.293,400.009,889.909,397.3Z" transform="translate(-75.355 -135.159)" fill="#be6f72"/>
      <path id="Path_174" data-name="Path 174" d="M811.918,274.7a8.808,8.808,0,0,1,8.553-4.635,9.441,9.441,0,0,1,7.42,6.665,17.229,17.229,0,0,0,1.4,4.173c1.171,1.822,3.342,2.351,4.966,3.672a9.94,9.94,0,0,1,3.172,7.024,21.242,21.242,0,0,1-1.255,7.939,25.234,25.234,0,0,0-.944,3.323c-.189,1.1-.208,2.209-.378,3.3a10.762,10.762,0,0,1-4.333,7.146,1.887,1.887,0,0,1-1.17.425c-.737-.085-1.19-.944-1.463-1.718-1.5-4.333-1.142-9.629-3.908-13.084A14.306,14.306,0,0,0,819.5,295.6a5.768,5.768,0,0,0-2.284-.859,6.014,6.014,0,0,0-3.3,1.209,20.571,20.571,0,0,1-6.533,2.889,8.024,8.024,0,0,1-6.75-1.454c-1.3-1.076-2.256-2.691-3.7-3.531s-2.955-.793-4.38-1.369a6.486,6.486,0,0,1-2.624-9.894c.944-1.133,2.341-1.775,3.181-3.03,1.085-1.624.991-3.852,1.51-5.8a7.977,7.977,0,0,1,4.805-5.485,6.749,6.749,0,0,1,6.721,1.407c.944.85,1.7,1.945,2.625,2.832a7.552,7.552,0,0,0,6.986,1.888" transform="translate(-70.565 -131.809)" fill="#3f3d56"/>
      <path id="Path_175" data-name="Path 175" d="M829.667,422.089a3.664,3.664,0,0,0-1,4c.208.444,9.95-1.435,10.979-1.576,2.568-.368,7.07-.189,8.8-2.539,3.077-4.163-6.457-3.238-8.2-3.087C836.918,419.172,832.2,419.625,829.667,422.089Z" transform="translate(-72.795 -140.246)" opacity="0.1"/>
      <path id="Path_176" data-name="Path 176" d="M734.291,293.073a30.38,30.38,0,0,0-.718,5.664c-2.832.576-5.777-.368-8.5-1.312l-7.807-2.662a2.218,2.218,0,0,0-2.983.557c-1.256,1.3-2.983,3.776-4.72,5.239a3.85,3.85,0,0,1-.821-.179c-1.312-.548-1.114-2.577-.17-3.644s2.341-1.662,3.2-2.832a17.053,17.053,0,0,1,1.34-1.992,5.108,5.108,0,0,1,2.2-1.1,34.042,34.042,0,0,1,16.756-.633c.944.208,2.02.585,2.3,1.5A2.764,2.764,0,0,1,734.291,293.073Z" transform="translate(-66.044 -133.012)" fill="#3f3d56"/>
      <path id="Path_177" data-name="Path 177" d="M734.291,293.073a30.38,30.38,0,0,0-.718,5.664c-2.832.576-5.777-.368-8.5-1.312l-7.807-2.662a2.218,2.218,0,0,0-2.983.557c-1.256,1.3-2.983,3.776-4.72,5.239a3.85,3.85,0,0,1-.821-.179c-1.312-.548-1.114-2.577-.17-3.644s2.341-1.662,3.2-2.832a17.053,17.053,0,0,1,1.34-1.992,5.108,5.108,0,0,1,2.2-1.1,34.042,34.042,0,0,1,16.756-.633c.944.208,2.02.585,2.3,1.5A2.764,2.764,0,0,1,734.291,293.073Z" transform="translate(-66.044 -133.012)" opacity="0.1"/>
      <path id="Path_178" data-name="Path 178" d="M810.4,482.921c1.36.453,2.832,1.114,3.295,2.473l-10.932-2.776-5.664-1.444c-1-.255-4.588-.547-5.249-1.331-.944-1.152,2.408-.359,3.012-.274,1.831.274,3.663.557,5.485.887C803.783,481.07,807.087,482.081,810.4,482.921Z" transform="translate(-70.738 -143.633)" opacity="0.1"/>
      <path id="Path_179" data-name="Path 179" d="M814.647,492.939c-.944-.633-3.653-.557-4.815-.831-1.7-.406-3.37-.944-5.041-1.463-3.389-1.1-6.75-2.36-10.233-3.172-.642-.142-2.832-.179-2.728-.991s2.19-1.1,2.709-1.133c3.087-.226,6.939,1.218,9.809,2.247A43.239,43.239,0,0,1,814.647,492.939Z" transform="translate(-70.746 -143.975)" opacity="0.1"/>
      <path id="Path_180" data-name="Path 180" d="M807.853,473.655c-3.464-.944-6.608-3.1-10.177-3.512a4.134,4.134,0,0,1-2.6-.793,3.057,3.057,0,0,1-.84-1.511c2.388-.123,5.164.887,7.335,1.841a23.09,23.09,0,0,1,3.436,1.831C805.8,471.993,806.994,473.381,807.853,473.655Z" transform="translate(-70.881 -142.996)" opacity="0.1"/>
      <path id="Path_181" data-name="Path 181" d="M877.926,384.46A16.512,16.512,0,0,0,889.5,402.708c-.462,2.237-2.775,3.474-4.408,5.069-2.3,2.237-3.493,5.589-6.212,7.288-3.03,1.888-6.929,1.152-10.384.359a1.266,1.266,0,0,1-.812-.425,1.16,1.16,0,0,1-.151-.368c-1.143-4.182-1.888-8.647-.718-12.839.944-3.569,3.21-6.608,5.022-9.762S873.82,385.5,877.926,384.46Z" transform="translate(-74.909 -138.33)" fill="#3f3d56"/>
      <path id="Path_182" data-name="Path 182" d="M786.6,327.118a24.545,24.545,0,0,0-10.384,3.162c-2.115,1.209-4.286,2.832-6.7,2.539-1.425-.16-2.832-.944-4.22-.566a8.274,8.274,0,0,0-2.161,1.284,2.446,2.446,0,0,1-2.379.378l-.944,13.065c-.359,4.966-.708,10.035.482,14.878.613,2.474,1.963,4.72,2.114,7.231s-.075,5.088.1,7.628c.17,2.351.689,4.663.821,7.014.265,4.437-.83,8.836-1.888,13.15-1.6,6.363-2.558,12.867-5.664,18.626-.869,1.6-1.888,3.219-1.888,5.032a2.567,2.567,0,0,0,.057.661c-.944.519-1.822,1.01-2.624,1.52-1.794,1.161-3.71,2.455-4.447,4.465-.594,1.633-.321,3.5-1.038,5.079s-2.36,2.7-2.719,4.4c-.255,1.237.236,2.539,0,3.776a16.186,16.186,0,0,0-.519,1.954c-.094,1.416,1.1,2.558,2.294,3.333a18.481,18.481,0,0,0,5.665,2.492l5.636-22.374h0a180.4,180.4,0,0,0,12.773-29.709,63.878,63.878,0,0,1,3.691-9.78,45.9,45.9,0,0,0,2.832-5.551c.859-2.379.944-4.956,1.36-7.467a52.3,52.3,0,0,1,2.218-8.619c1.02-3.03,2.2-6.051,2.407-9.233.312-4.55-1.34-9.356.415-13.566a18.047,18.047,0,0,1,2.879-4.333c2.436-2.983,4.654-6.108,7.09-9.091C790.595,327.146,788.49,327,786.6,327.118Z" transform="translate(-67.991 -135.12)" fill="#3f3d56"/>
      <g id="Group_137" data-name="Group 137" transform="translate(718.064 139.784)" opacity="0.1">
        <path id="Path_183" data-name="Path 183" d="M817.312,271.81l-1.18.085-.132.094A6.958,6.958,0,0,0,817.312,271.81Z" transform="translate(-790.162 -271.81)"/>
        <path id="Path_184" data-name="Path 184" d="M837.38,292.208a25.441,25.441,0,0,1-1.209,5.513,25.234,25.234,0,0,0-.944,3.323c-.189,1.1-.208,2.209-.378,3.3a10.763,10.763,0,0,1-4.333,7.146,1.887,1.887,0,0,1-1.17.425c-.737-.085-1.19-.944-1.463-1.718-1.5-4.333-1.142-9.629-3.908-13.084a14.3,14.3,0,0,0-4.474-3.332,5.77,5.77,0,0,0-2.285-.859,6.014,6.014,0,0,0-3.3,1.208,20.566,20.566,0,0,1-6.533,2.889,8.024,8.024,0,0,1-6.75-1.454c-1.3-1.076-2.256-2.691-3.7-3.531s-2.955-.793-4.38-1.369a6.448,6.448,0,0,1-3.682-4.21,2.646,2.646,0,0,1-.075-.359,6.606,6.606,0,0,0,.075,3.191,6.448,6.448,0,0,0,3.682,4.211c1.426.576,3.03.585,4.38,1.369s2.4,2.454,3.7,3.531a8.025,8.025,0,0,0,6.75,1.454,20.577,20.577,0,0,0,6.533-2.889,6.014,6.014,0,0,1,3.3-1.208,5.769,5.769,0,0,1,2.285.859,14.3,14.3,0,0,1,4.409,3.361c2.766,3.455,2.407,8.751,3.908,13.084.274.783.727,1.633,1.463,1.718a1.886,1.886,0,0,0,1.236-.453,10.762,10.762,0,0,0,4.342-7.175c.17-1.1.189-2.209.378-3.3a25.2,25.2,0,0,1,.944-3.323,21.247,21.247,0,0,0,1.256-7.939C837.418,292.472,837.4,292.34,837.38,292.208Z" transform="translate(-788.631 -272.61)"/>
      </g>
      <path id="Path_185" data-name="Path 185" d="M769.25,372.81l-.642,8.619c-.095,1.171-2.332,29.039-18.834,61.608-14.161,27.934-41.717,64.317-93.743,84.765q-6.089,2.407-12.641,4.494L638.52,517a178.825,178.825,0,0,0,35.137-15.369c26.518-15.312,47.136-37.167,61.514-65.29a175.381,175.381,0,0,0,16.143-47.485H692.122V372.81Z" transform="translate(-62.167 -137.678)" fill="#6c63ff"/>
      <path id="Path_186" data-name="Path 186" d="M649.924,527.813c52.017-20.448,79.582-56.821,93.734-84.756,16.5-32.569,18.748-60.418,18.834-61.608l.642-8.619h6.609l-.642,8.619c-.085,1.171-2.331,29.039-18.833,61.608-14.161,27.934-41.717,64.308-93.734,84.756q-6.089,2.408-12.65,4.5l-.642-2.011Q646.658,529.087,649.924,527.813Z" transform="translate(-62.431 -137.679)" fill="#fff" opacity="0.1"/>
      <path id="Path_187" data-name="Path 187" d="M532.25,517,527.379,532.3q-6.561-2.1-12.65-4.5c-52.016-20.448-79.582-56.821-93.733-84.756-16.5-32.569-18.749-60.418-18.834-61.608l-.642-8.619h77.09v16.049h-59.2a175.48,175.48,0,0,0,16.19,47.485c14.378,28.123,34.986,49.977,61.5,65.28A178.422,178.422,0,0,0,532.251,517Z" transform="translate(-48.904 -137.678)" fill="#6c63ff"/>
      <path id="Path_188" data-name="Path 188" d="M521.077,527.813c-52.016-20.448-79.582-56.821-93.733-84.756-16.5-32.569-18.749-60.418-18.834-61.608l-.642-8.619H401.26l.642,8.619c.085,1.171,2.332,29.039,18.834,61.608,14.161,27.934,41.717,64.308,93.733,84.756q6.089,2.408,12.65,4.5l.642-2.011Q524.353,529.087,521.077,527.813Z" transform="translate(-48.889 -137.679)" fill="#fff" opacity="0.1"/>
      <path id="Path_189" data-name="Path 189" d="M673.032,675.546v86.54H494.92v-86.54l5.664-7.552C558.3,647.509,570,594.085,572.331,572.948a86.807,86.807,0,0,0,.595-8.8h22.025a86.966,86.966,0,0,0,.594,8.8c2.37,21.137,14.066,74.579,71.747,95.046Z" transform="translate(-54.131 -148.386)" fill="#6c63ff"/>
      <rect id="Rectangle_1068" data-name="Rectangle 1068" width="178.112" height="10.856" transform="translate(440.789 527.161)" opacity="0.1"/>
      <path id="Path_190" data-name="Path 190" d="M510.024,667.994c57.718-20.486,69.415-73.909,71.747-95.046a86.931,86.931,0,0,0,.595-8.8h-9.44a86.727,86.727,0,0,1-.595,8.8c-2.369,21.137-14.066,74.579-71.747,95.046l-5.664,7.552v86.54h9.44v-86.54Z" transform="translate(-54.13 -148.386)" fill="#fff" opacity="0.1"/>
      <path id="Path_191" data-name="Path 191" d="M466.26,372.81h15.973v16.049H467.676Q466.817,380.929,466.26,372.81Z" transform="translate(-52.527 -137.678)" opacity="0.1"/>
      <path id="Path_192" data-name="Path 192" d="M537.917,524.638l-4.871,15.294q-6.561-2.1-12.65-4.5A169.1,169.1,0,0,1,502.77,509.26,178.43,178.43,0,0,0,537.917,524.638Z" transform="translate(-54.57 -145.314)" opacity="0.1"/>
      <path id="Path_193" data-name="Path 193" d="M638.51,524.639a178.826,178.826,0,0,0,35.137-15.369,169.81,169.81,0,0,1-17.625,26.179q-6.089,2.407-12.641,4.493Z" transform="translate(-62.166 -145.315)" opacity="0.1"/>
      <path id="Path_194" data-name="Path 194" d="M711.293,372.81q-.556,8.119-1.416,16.049H695.33V372.81Z" transform="translate(-65.346 -137.678)" opacity="0.1"/>
      <path id="Path_195" data-name="Path 195" d="M600.174,572.948a61.016,61.016,0,0,1-23.214,0,86.8,86.8,0,0,0,.595-8.8h22.025a86.957,86.957,0,0,0,.595,8.8Z" transform="translate(-58.722 -148.386)" opacity="0.1"/>
      <path id="Path_196" data-name="Path 196" d="M468.26,344.65c.406,119.006,51.384,215.241,114.229,215.241S696.3,463.656,696.717,344.65Z" transform="translate(-52.639 -136.102)" fill="#4444c8"/>
      <path id="Path_197" data-name="Path 197" d="M488.557,344.65h-20.3c.406,119.006,51.384,215.241,114.229,215.241a61.72,61.72,0,0,0,10.148-.859C534.541,549.327,488.944,457.179,488.557,344.65Z" transform="translate(-52.639 -136.102)" fill="#fff" opacity="0.1"/>
      <rect id="Rectangle_1069" data-name="Rectangle 1069" width="121.148" height="31.153" transform="translate(469.271 560.287)" fill="#3f3d56"/>
      <path id="Path_198" data-name="Path 198" d="M502.754,597.748H618.238V593.5H497.09v31.153h5.664Z" transform="translate(-27.819 -33.213)" fill="#fff" opacity="0.1"/>
      <path id="Path_199" data-name="Path 199" d="M387.439,457.133c-2.181-.727-15.019-10.885-15.992-15.482s6.788-47.428,6.788-47.428a17.427,17.427,0,0,1-1.888-.142v-.689l1.6-56.265s6.542-37.761-5.815-35.562-4.607,35.562-4.607,35.562-1.407,16.936-2.4,22.015c-.944,4.9-5.268,24.857-2.322,31.059a6.791,6.791,0,0,0,.359.642h0s.491,21.288-4.843,24.2c-5.089,2.766-7.2,16.691-7.382,17.937l-.274-.113h0a14.79,14.79,0,0,1-3.937-3.6c-.113-.142-.2-.293-.3-.444a20.79,20.79,0,0,0-6.4-32.465,13.405,13.405,0,0,0-1.256-5.211c-2.455-5.249-16.049-12.112-25.706-12.273-4.456-.132-8.109,1.133-9.44,4.616-.68,1.765-.472,3.776-.755,5.608-.566,3.776-2.993,6.731-6.108,9.082a38.307,38.307,0,0,0-4.069-3.918c-3.153-2.417-9.44-10.384-9.44-10.384s-19.627-20.325-21.08-25.895-21.062-39.017-25.423-33.192S251.762,356,251.762,356s3.682,9.223,6.514,12.339,24.545,34.646,24.545,34.646l1.039,2.152c-4.588,2.417-8.78,5.495-10.262,10.29-2.171,7.061,2.577,14.161,5.862,20.769,6.4,12.9,7.316,29.341-.944,41.122-7.4,10.4-20.24,15.35-32.258,19.674a31.749,31.749,0,0,0,20.391,6.769c-2.776,8.043-12.612,10.705-21,12.2,4.4,4.229,10.7,5.768,16.738,6.7a50.148,50.148,0,0,0,8.959.708h.736l.737-.057a25.616,25.616,0,0,0,3.049-.387c4.361-.888,8.6-3.266,10.828-7.118,1.888-3.295,2.549-7.788,5.976-9.44a7.641,7.641,0,0,1,2.832-.67h1.841l14.283.142h1.822c4.031-.094,8.336-.793,10.384-4.125a11.442,11.442,0,0,0,1.293-5.239c.3-4.522,0-9.176.123-13.736,1.218,8.3,2.492,21.231-.538,26.008a44.372,44.372,0,0,1-8.855,9.6,17.01,17.01,0,0,0-2.341,2.4c-.463.33-.736.51-.736.51l-.293.878a16.625,16.625,0,0,0-2.3,5.343,3.713,3.713,0,0,0-.179,1.52c.33.67-2.36,3.436-1.577,4.6-6.721,7.883-8,19.825-8,19.825L288.164,572.05c-6.306,16.568-15.747,18.267-15.747,18.267s-22.175-14.878-22.78-15.6-9.082-4.362-9.082-4.362a9.61,9.61,0,0,0-4.361-3.984c-2.908-1.208-3.153-5.664-3.153-5.664-.359-10.526-6.542-11.328-6.542-11.328-4.985-.425-8.789.463-11.716,2.086l-.887.066c-4.286.349-9.44.736-15.1,1.114-15.756,1.038-19.5,11.243-19.5,11.243s-1.935,2.181.6,4.541,18.8,0,19.485-.056a10.556,10.556,0,0,1-3.7-.255c2.558-.094,6.08-.189,9.082-.189h.727a39.292,39.292,0,0,0-.274,4.8c0,3.021,8.355,4.956,8.355,4.956l25.442,22.657S255,607.48,265.177,617.761s19.173,1.407,19.173,1.407c10.772-2.662,41.764-40.131,41.793-40.169h0c0,1.1.651,37.535,1.888,44.851h0a4.861,4.861,0,0,0,.274,1.086c1.454,3.144-.491,11.734-1.331,15.359a42.672,42.672,0,0,0-.614,9.2s-11.621,44.37-10.658,48.269-6.3,22.015-6.3,22.015v15.1l1.265-.066a8.163,8.163,0,0,0-.453.755l-.085.16s7.751,1.69,12.962,1.209,14.161,4.012,14.161,4.012,3.03,1.435,12.357,2.039,9.327-4.116,9.327-4.116c-1.067-6.429-15.8-8.581-16.256-8.647-1.189-.746-2.3-1.558-3.219-2.256l-.189-.151a4.061,4.061,0,0,0,.161-.434c1.576-6.419-7.146-9.2-7.146-9.2v-1.567c5.664-2.908,6.788-22.865,6.788-22.865s8.5-24.677,9.686-28.793,0-10.281,0-10.281l.85-5.324s1.822-3.625,1.822-4.352a10.753,10.753,0,0,1,2.058-5.079c1.331-1.577-1.454-5.324-1.454-5.324l2.426-6.287v-6.9l5.664-25.036s5.938-29.161,3.88-38.706,2.426-14.4,2.426-14.4a11.971,11.971,0,0,1-1.246.566,36.077,36.077,0,0,0,1.463-4.022l12.745,1.577v.189h4.6s-1.454-17.937-1.454-25.168,4.9-33.183,4.9-33.183S389.62,457.86,387.439,457.133Zm-56.576-20.939c0,.708-.066,1.444-.113,2.2l-.255.387-.472-.4-.576.9-.17.085c-1.246-.642-1.888-4.314-2.785-3.521l-.123.1c-.2-.227-.4-.293-.6-.1l-.189.16v-.84a21.241,21.241,0,0,0,5.287.67C330.872,435.958,330.863,436.081,330.863,436.194Zm42.387,83.528h.274l-.453,1.19C373.128,520.515,373.184,520.128,373.25,519.722ZM326.719,733.8l-1.737-.434.944-.16.878.576.1.076Zm17.748-2.539c-.576-.3-1.161-.652-1.728-1.01C342.928,730.356,343.674,730.743,344.467,731.263Z" transform="translate(-36.428 -133.686)" fill="url(#linear-gradient-2)"/>
      <path id="Path_200" data-name="Path 200" d="M362.28,390.03l-11.432,29.794h2.775L342.87,428.4l19.41,2.417Z" transform="translate(-19.189 -21.827)" fill="#f86d70"/>
      <path id="Path_201" data-name="Path 201" d="M362.28,390.03l-11.432,29.794-2.879-.774-5.1,9.346,19.41,2.417Z" transform="translate(-19.189 -21.827)" opacity="0.1"/>
      <path id="Path_202" data-name="Path 202" d="M344.44,407.011h17.927l6.58-54.141H344.44Z" transform="translate(-19.277 -19.747)" fill="#f86d70"/>
      <path id="Path_203" data-name="Path 203" d="M344.44,407.011h17.927l6.58-54.141H344.44Z" transform="translate(-19.277 -19.747)" opacity="0.1"/>
      <path id="Path_204" data-name="Path 204" d="M335.242,486.681l3.87-.651,8.893-1.511s26.707-6.023,32.22-6.514a34.432,34.432,0,0,0,9.667-2.756c1.444-.623,2.36-1.1,2.36-1.1l-9.62-17.568-14.925-11.064s-9.44-2.011-13.434-7.505a8.846,8.846,0,0,1-1.237-8.383c2.436-7.552-14.548,7.222-14.548,7.222s.16,3.54,0,8.053c0,.887-.085,1.813-.151,2.757a18.581,18.581,0,0,1-.151,1.888c-.415,4.484-1.265,9.1-2.945,11.857C331.135,468.149,335.242,486.681,335.242,486.681Z" transform="translate(-45.093 -140.738)" fill="#fbbebe"/>
      <path id="Path_205" data-name="Path 205" d="M338.79,445.307h.378c.68,0,1.227-1.444,1.888-1.51,5.315-.51,10.167-1.624,13.538-5.39a8.855,8.855,0,0,1-1.237-8.374c2.436-7.553-14.548,7.212-14.548,7.212S338.988,440.794,338.79,445.307Z" transform="translate(-45.393 -140.76)" opacity="0.1"/>
      <path id="Path_206" data-name="Path 206" d="M316.89,422.434a20.684,20.684,0,0,0,20.693,20.693,14.394,14.394,0,0,0,2.02-.095,20.693,20.693,0,1,0-22.714-20.6Z" transform="translate(-44.168 -139.297)" fill="#fbbebe"/>
      <path id="Path_207" data-name="Path 207" d="M306.748,390.117c-.68,1.756-.472,3.719-.746,5.579-1.01,6.712-7.835,10.734-14.01,13.547s-13.141,6.146-15.1,12.631c-2.153,7.014,2.549,14.047,5.815,20.627,6.363,12.82,7.269,29.171-.944,40.9-7.3,10.384-20.014,15.312-31.984,19.636a31.531,31.531,0,0,0,20.25,6.74c-2.747,8-12.518,10.649-20.844,12.121,4.371,4.211,10.63,5.74,16.625,6.665,4.371.68,8.855,1.123,13.217.245s8.5-3.248,10.743-7.08c1.888-3.276,2.53-7.741,5.938-9.393a10.742,10.742,0,0,1,4.843-.708l14.161.151c4.409,0,9.629-.34,11.9-4.107a11.329,11.329,0,0,0,1.284-5.211c.614-9.289-1.171-19.107,2.653-27.585,1.152-2.558-6.24-6.608-5.466-9.318,2.662-9.318,3.332-16.653,3.3-26.348,0-7.505,4.881-13.972,8.912-20.306s7.4-14.331,4.22-21.128C337.929,390.193,310.986,379.176,306.748,390.117Z" transform="translate(-40.379 -138.389)" fill="#3f3d56"/>
      <path id="Path_208" data-name="Path 208" d="M330.13,756.266l3.606,2.388.557.368.1.066,4.276,2.832,9.988,1.681,8.78-.6s2.53-5.287-1.445-5.164a8.272,8.272,0,0,1-3.625-1.048l-.547-.274h0c-.576-.3-1.152-.642-1.718-1h0c-1.18-.746-2.294-1.558-3.191-2.247-1.322-1.02-2.2-1.794-2.2-1.794Z" transform="translate(-44.909 -158.869)" fill="#fbbebe"/>
      <path id="Path_209" data-name="Path 209" d="M334,758.969l.557.369.1.066,4.277,2.832,9.988,1.68,8.78-.6s2.53-5.287-1.444-5.164a8.27,8.27,0,0,1-3.625-1.048c.7.547,1.284,1.142,1.34,1.643.16,1.35-6.495,3.776-6.495,3.776l-9.384-2.483s-1.6-.453-3.776-1.019l-.208-.057Z" transform="translate(-45.125 -159.184)" opacity="0.1"/>
      <path id="Path_210" data-name="Path 210" d="M317,761.194s7.694,1.68,12.867,1.2,14.085,3.974,14.085,3.974,3.011,1.416,12.272,2.021,9.261-4.1,9.261-4.1c-1.057-6.391-15.69-8.5-16.143-8.591h0a18.031,18.031,0,0,1,1.718,1h0c1.038.679,2.162,1.567,2.247,2.285.16,1.34-6.5,3.776-6.5,3.776l-9.384-2.473s-1.6-.462-3.776-1.029h-.208a80.431,80.431,0,0,0-9.837-2.03c-4.041-.434-6.108,3-6.533,3.776A1.115,1.115,0,0,0,317,761.194Z" transform="translate(-44.174 -159.105)" fill="#3f3d56"/>
      <path id="Path_211" data-name="Path 211" d="M188.54,581.05l4.088,3.134s1.189-.057,2.964-.113h.566c2.54-.094,6.042-.189,9.016-.189a28.58,28.58,0,0,1,5.749.321c2.039.717,5.664-11.668,5.664-11.668l-4.1-.944-1.359-.321-.944-.227-3.333-.784-10.1,1.152-7.1,4.569Z" transform="translate(-36.985 -148.728)" fill="#fbbebe"/>
      <path id="Path_212" data-name="Path 212" d="M188.54,581.05l4.088,3.134s1.189-.057,2.964-.113a3.578,3.578,0,0,1-1.888-1.69c-2.643-7.335,10.469-10.469,10.469-10.469l6.108-.264,1.189-.057h.944l-1.359-.32-.944-.227-3.332-.784-10.1,1.152-7.1,4.569Z" transform="translate(-36.985 -148.728)" opacity="0.1"/>
      <path id="Path_213" data-name="Path 213" d="M179.922,584.141c2.473,2.285,18.673,0,19.353-.057a10.2,10.2,0,0,1-3.672-.255,4.049,4.049,0,0,1-2.832-2.03c-2.643-7.345,10.469-10.469,10.469-10.469l6.108-.264,1.18-.057,14.85-.642.718-4.088s-4.824.453-12.4,1.057c-4.258.349-9.44.736-15.039,1.1-15.643,1.039-19.362,11.187-19.362,11.187S177.4,581.8,179.922,584.141Z" transform="translate(-36.43 -148.505)" fill="#3f3d56"/>
      <path id="Path_214" data-name="Path 214" d="M372.39,392.267a4.179,4.179,0,0,0,.359.642l3.606,5.287,9.384.944.1-3.719,1.577-55.963s6.5-37.535-5.778-35.373-4.569,35.373-4.569,35.373-1.4,16.842-2.379,21.9C373.74,366.25,369.464,386.131,372.39,392.267Z" transform="translate(-47.217 -133.827)" fill="#fbbebe"/>
      <path id="Path_215" data-name="Path 215" d="M350.14,544.516l2.672,4.569,5.976,10.224s10.838,3.974,13.613.944c1.52-1.652,3.163-7.42,4.314-12.273.944-3.927,1.577-7.241,1.577-7.241Z" transform="translate(-46.029 -147.076)" fill="#fbbebe"/>
      <path id="Path_216" data-name="Path 216" d="M350.14,544.519l2.672,4.569a3.134,3.134,0,0,0,.453-.482c3.021-3.852,16.322-.821,23.45-.576.944-3.927,1.577-7.241,1.577-7.241Z" transform="translate(-46.029 -147.079)" opacity="0.1"/>
      <path id="Path_217" data-name="Path 217" d="M206.16,583.641a28.634,28.634,0,0,1,5.749.321c2.039.718,5.664-11.668,5.664-11.668l-5.457-1.284,14.85-.642.717-4.088s-4.824.453-12.4,1.057a15.575,15.575,0,0,0-4.125,3.446l-.227.283C207.774,574.946,206.6,579.95,206.16,583.641Z" transform="translate(-37.971 -148.505)" opacity="0.1"/>
      <path id="Path_218" data-name="Path 218" d="M330.13,756.264l4.163,2.757c6.212-1.124,11.886-2.889,12.556-5.664a.965.965,0,0,0,0-.132c-1.322-1.02-2.2-1.794-2.2-1.794Z" transform="translate(-44.909 -158.866)" opacity="0.1"/>
      <path id="Path_219" data-name="Path 219" d="M317.09,761.122a144.107,144.107,0,0,0,16.37-1.756,80.487,80.487,0,0,0-9.846-2.049C319.582,756.883,317.515,760.32,317.09,761.122Z" transform="translate(-44.179 -159.194)" opacity="0.1"/>
      <path id="Path_220" data-name="Path 220" d="M206.64,586.978c0,3.011,8.3,4.937,8.3,4.937l25.272,22.5s15.879,7.1,25.98,17.323S285.2,633.18,285.2,633.18c10.705-2.643,41.538-39.942,41.538-39.942s.717,42.6,2.162,45.72-.481,11.668-1.322,15.284a42.488,42.488,0,0,0-.6,9.138s-11.546,44.153-10.583,48-6.259,21.9-6.259,21.9v15.039s28.274-1.086,29.832-7.458-7.09-9.148-7.09-9.148v-1.567c5.664-2.889,6.731-22.733,6.731-22.733s8.43-24.545,9.629-28.633,0-10.234,0-10.234l.84-5.286s1.8-3.616,1.8-4.333a10.7,10.7,0,0,1,2.049-5.051c1.322-1.567-1.444-5.3-1.444-5.3l2.407-6.259v-6.853l5.664-24.9s5.9-29,3.852-38.507,2.407-14.312,2.407-14.312c-9.658,5.06-14.529-6.2-16.124-11.045-.406-1.246-.6-2.077-.6-2.077s-13.264-4.89-25.612-3.72a29.483,29.483,0,0,0-7.354,1.558c-13.717,4.937-15.879,25.385-15.879,25.385l-12.15,18.532c-6.259,16.483-15.643,18.163-15.643,18.163s-22.015-14.793-22.657-15.52-9.025-4.333-9.025-4.333a9.535,9.535,0,0,0-4.333-3.965c-2.889-1.208-3.125-5.664-3.125-5.664-.359-10.47-6.5-11.329-6.5-11.329C206.517,561.961,206.64,583.976,206.64,586.978Z" transform="translate(-37.998 -147.075)" fill="#3f3d56"/>
      <rect id="Rectangle_1070" data-name="Rectangle 1070" width="12.99" height="40.301" transform="translate(304.111 381.08) rotate(180)" fill="#f86d70"/>
      <rect id="Rectangle_1071" data-name="Rectangle 1071" width="12.99" height="40.301" transform="translate(304.111 381.08) rotate(180)" opacity="0.1"/>
      <path id="Path_221" data-name="Path 221" d="M372.44,397.41a.638.638,0,0,0,0,.085,4.2,4.2,0,0,0,.359.642l3.606,5.286,9.384.944.1-3.72C382.966,400.421,376.3,399.619,372.44,397.41Z" transform="translate(-47.277 -139.055)" opacity="0.1"/>
      <path id="Path_222" data-name="Path 222" d="M372.109,398.18s.481,21.165-4.815,24.054-7.354,17.937-7.354,17.937,16.049,10.554,19.627,15.2,11.791,15.709,10.1,18.352,4.1,14.68,4.1,14.68-10.592,21.656-8.185,29.841,2.643,29.832,2.643,29.832H392.8s-1.444-17.8-1.444-25.026,4.805-32.966,4.805-32.966,2.171-25.263,0-25.98-14.916-10.828-15.879-15.407,6.74-47.2,6.74-47.2S377.159,401.069,372.109,398.18Z" transform="translate(-46.577 -139.098)" fill="#f86d70"/>
      <path id="Path_223" data-name="Path 223" d="M336.12,478.615a20.6,20.6,0,0,0,3.144,8.251l8.893-1.51s26.707-6.023,32.22-6.514a34.438,34.438,0,0,0,9.667-2.757A42.634,42.634,0,0,0,378.1,456.5l-3.389-3.143a56.783,56.783,0,0,0-17.087-10.923c.4.33,28.415,24.253,22.279,28.944s-22.657-6.731-22.657-6.731L338.461,448.5l-.68-.585L336.7,449.6a15.842,15.842,0,0,1,1.615.774,27.642,27.642,0,0,1,13.216,16.427C355.388,479.785,336.12,478.615,336.12,478.615Z" transform="translate(-45.244 -141.574)" opacity="0.1"/>
      <path id="Path_224" data-name="Path 224" d="M330,544.271s17.8,9.865,22.128,4.333c.944-1.218,2.936-1.747,5.419-1.888-.406-1.246-.6-2.077-.6-2.077s-13.264-4.89-25.612-3.72C330.519,542.958,330,544.271,330,544.271Z" transform="translate(-44.901 -147.076)" fill="#444053"/>
      <path id="Path_225" data-name="Path 225" d="M338.194,447.935l19.466,16.747s16.454,11.461,22.657,6.731-22.289-28.954-22.289-28.954h0a57.591,57.591,0,0,1,17.078,10.894L378.5,456.5c8.912,8.26,10.922,8.26,11.224,20.4.076,2.993-.944,7.288-1.727,8.062-2.889,2.832-4.909,23.4-4.465,25.81s-5.381,23.186-3.493,28.963-23.6-2.889-27.915,2.653S330,538.053,330,538.053s9.865-25.272,12.272-26.952,5.3-14.68,0-20.693-5.768-11.791-5.768-11.791,19.258,1.19,15.4-11.791a27.245,27.245,0,0,0-14.8-17.2Z" transform="translate(-44.901 -141.576)" fill="#e8e8f0"/>
      <path id="Path_226" data-name="Path 226" d="M365,493.38s-7.467,14.076-17.125,17.729c-.312.113-.614.217-.944.312C336.851,514.489,365.757,497.742,365,493.38Z" transform="translate(-45.729 -144.425)" opacity="0.1"/>
      <path id="Path_227" data-name="Path 227" d="M254.657,359.592s3.606,9.148,6.5,12.273,24.3,34.41,24.3,34.41l1.813,3.776,1.558,3.219,13.717-1.444.944-5.532-.528-.642c-1.379-1.652-5.136-6.089-7.656-8.024-3.125-2.4-9.384-10.337-9.384-10.337s-19.485-20.221-20.929-25.753-20.939-38.706-25.262-32.966S254.657,359.592,254.657,359.592Z" transform="translate(-39.814 -135.165)" fill="#fbbebe"/>
      <g id="Group_138" data-name="Group 138" transform="translate(230.514 247.131)" opacity="0.1">
        <path id="Path_228" data-name="Path 228" d="M296.31,519.1a10.759,10.759,0,0,0-4.843.7c-3.4,1.652-4.041,6.117-5.929,9.393-2.209,3.833-6.419,6.2-10.752,7.08a24.1,24.1,0,0,1-2.606.359,29.6,29.6,0,0,0,8.27-.359c4.333-.878,8.543-3.247,10.753-7.08,1.888-3.276,2.53-7.741,5.929-9.393a7.559,7.559,0,0,1,2.832-.661Z" transform="translate(-272.18 -392.994)"/>
        <path id="Path_229" data-name="Path 229" d="M332.254,439.207c0-7.505,4.881-13.972,8.9-20.306s7.4-14.33,4.22-21.127c-2.719-5.806-19.108-13.594-28.567-12.055,9.261,1.2,20.675,7.3,22.9,12.055,3.181,6.8-.2,14.793-4.22,21.127s-8.921,12.8-8.9,20.306c0,9.686-.651,16.993-3.314,26.348-.764,2.69,6.608,6.759,5.475,9.308-3.833,8.5-2.039,18.3-2.653,27.585a11.468,11.468,0,0,1-1.293,5.211c-1.888,3.106-5.759,3.908-9.525,4.078h3.295c4.4,0,9.62-.34,11.895-4.106a11.47,11.47,0,0,0,1.293-5.211c.614-9.289-1.18-19.1,2.653-27.585,1.152-2.549-6.24-6.608-5.475-9.308C331.6,456.238,332.273,448.893,332.254,439.207Z" transform="translate(-274.592 -385.521)"/>
      </g>
      <path id="Path_230" data-name="Path 230" d="M290.12,414.639l1.558,3.219,13.717-1.445.944-5.532-.529-.642C304.347,410.957,293.386,416.235,290.12,414.639Z" transform="translate(-42.67 -139.773)" opacity="0.1"/>
      <path id="Path_231" data-name="Path 231" d="M340.814,450.862s-3.37-5.287-5.3-3.852-2.672-4.333-3.776-3.37-4.324,3.644-5.664-.1c-1.048-2.983-12.452-21.855-17.078-29.444-1.189-1.964-1.935-3.172-1.935-3.172s-12.99,6.5-16.115,4.333v4.569l2.643.245L307.754,446.5s4.456,7.09,4.154,9.563,5.711,13.3,6.674,14.019,11.329,12.754,11.329,12.754,5.3,25.989.717,33.211-12.508,12.508-12.508,12.508-2.389,6.976-2.039,7.7-2.775,3.852-1.331,4.815,3.37,7.694,3.37,7.694,6.74-10.828,10.384-12.508,8.307-23.828,8.307-23.828,1.331-13.046,1.435-21.467S337.925,450.862,340.814,450.862Z" transform="translate(-42.716 -139.811)" opacity="0.1"/>
      <path id="Path_232" data-name="Path 232" d="M340.044,450.862s-3.361-5.287-5.287-3.852-2.681-4.333-3.776-3.37-4.314,3.644-5.664-.1c-1.057-2.983-12.461-21.855-17.078-29.444L306.3,410.92s-12.99,6.5-16.124,4.333v4.569l2.653.245,14.16,26.433s4.465,7.09,4.154,9.563,5.664,13.3,6.674,14.019,11.328,12.754,11.328,12.754,5.3,25.989.727,33.211a44.264,44.264,0,0,1-8.714,9.648,16.841,16.841,0,0,0-5.664,9.082,3.584,3.584,0,0,0-.17,1.51c.349.717-2.776,3.852-1.331,4.814s3.389,7.722,3.389,7.722,6.74-10.828,10.384-12.508,8.317-23.828,8.317-23.828,1.322-13.047,1.435-21.467S337.212,450.862,340.044,450.862Z" transform="translate(-42.673 -139.811)" fill="#f86d70"/>
      <path id="Path_233" data-name="Path 233" d="M308.007,569.21s10.111,1.888,14.161,4.805-15.4-4.569-15.4-4.569Z" transform="translate(-43.601 -148.669)" opacity="0.1"/>
      <path id="Path_234" data-name="Path 234" d="M333.83,596.35s10.545,8.789,8.657,16.729-6.759,27.915-6.759,27.915Z" transform="translate(-45.116 -150.188)" opacity="0.1"/>
      <path id="Path_235" data-name="Path 235" d="M235.314,578.45s-14.859,1.624-13.9,3.55,13.9-1.775,13.9-1.775Z" transform="translate(-38.823 -149.186)" opacity="0.1"/>
      <path id="Path_236" data-name="Path 236" d="M356.558,655.58s.944,1.2-4.569,0-1.444-4.9-1.444-4.9Z" transform="translate(-45.97 -153.228)" opacity="0.1"/>
      <path id="Path_237" data-name="Path 237" d="M354.272,673.428s-7.552,1.2-11.6,0S354.272,673.428,354.272,673.428Z" transform="translate(-45.573 -154.471)" opacity="0.1"/>
      <path id="Path_238" data-name="Path 238" d="M337.4,742.257s-1.322-1.445-7.939,1.2-9.261,2.766-11.187,1.888S337.4,742.257,337.4,742.257Z" transform="translate(-44.238 -158.331)" opacity="0.1"/>
      <path id="Path_239" data-name="Path 239" d="M345.764,576.28l-9.384,13.056S341.431,577.9,345.764,576.28Z" transform="translate(-45.258 -149.065)" opacity="0.1"/>
      <path id="Path_240" data-name="Path 240" d="M326.19,449.15s-.406,4.333-6.457,6.023-7.2,3.059-7.2,3.059" transform="translate(-43.924 -141.95)" opacity="0.1"/>
      <path id="Path_241" data-name="Path 241" d="M309.372,415.88s-7.987,5.664-16.322,4.465" transform="translate(-42.834 -140.088)" opacity="0.1"/>
      <path id="Path_242" data-name="Path 242" d="M316.78,544.057s2.332,1.463,7.93-4.937" transform="translate(-44.162 -146.985)" opacity="0.1"/>
      <path id="Path_243" data-name="Path 243" d="M377.95,472c.226-1.171-.585-2.256-1.35-3.172l-1.567-1.888A7.262,7.262,0,0,0,374,465.885c-.944-.727-2.152-.944-3.134-1.6" transform="translate(-47.189 -142.798)" opacity="0.1"/>
      <path id="Path_244" data-name="Path 244" d="M911.087,123.844s-79.478-4.8-70.133,50.9c0,0-1.888,9.846,7.061,14.312,0,0,.142-4.125,8.157-2.719a37.289,37.289,0,0,0,8.638.415,17.994,17.994,0,0,0,10.554-4.361h0s22.345-9.233,31.03-45.748c0,0,6.429-7.968,6.174-10.016l-13.415,5.73s4.588,9.676.944,17.72c0,0-.434-17.37-3.012-16.993-.519.085-6.967,3.351-6.967,3.351s7.883,16.851,1.935,29.1c0,0,2.256-20.769-4.4-27.887l-9.44,5.513s9.214,17.408,2.964,31.616c0,0,1.6-21.788-4.956-30.275l-8.553,6.674s8.657,17.163,3.38,28.944c0,0-.689-25.366-5.23-27.283,0,0-7.486,6.608-8.628,9.308,0,0,5.929,12.461,2.247,19.032,0,0-2.256-16.9-4.107-16.993,0,0-7.458,11.2-8.232,18.881,0,0,.321-11.413,6.429-19.938,0,0-7.212,1.237-11.423,5.91,0,0,1.161-7.911,13.264-8.6,0,0,6.165-8.5,7.807-9.016,0,0-12.027-1-19.325,2.228,0,0,6.419-7.467,21.534-4.069l8.449-6.9s-15.841-2.162-22.563.227c0,0,7.732-6.608,24.838-1.794l9.2-5.494s-13.509-2.908-21.552-1.888c0,0,8.5-4.579,24.252.387l6.609-2.955s-9.894-1.945-12.792-2.256-3.049-1.1-3.049-1.1a34.316,34.316,0,0,1,18.588,2.068S911.333,124.722,911.087,123.844Z" transform="translate(-73.452 -123.74)" fill="#6c63ff" opacity="0.1"/>
      <path id="Path_245" data-name="Path 245" d="M809.552,138.857s-35.874-2.171-31.673,23c0,0-.84,4.456,3.181,6.476,0,0,.066-1.888,3.691-1.237a16.533,16.533,0,0,0,3.9.189,8.089,8.089,0,0,0,4.767-1.973h0s10.1-4.163,14.028-20.665c0,0,2.9-3.606,2.785-4.531l-6.061,2.587s2.077,4.38.444,8.015c0,0-.2-7.854-1.36-7.666-.236,0-3.153,1.51-3.153,1.51s3.569,7.618.878,13.16c0,0,1.02-9.384-1.992-12.6l-4.267,2.492s4.172,7.864,1.34,14.283c0,0,.727-9.846-2.237-13.679l-3.861,3.049s3.908,7.76,1.529,13.075c0,0-.312-11.461-2.37-12.32,0,0-3.38,2.983-3.9,4.21,0,0,2.681,5.664,1.019,8.591,0,0-1.019-7.637-1.888-7.666,0,0-3.361,5.06-3.719,8.5a18.456,18.456,0,0,1,2.908-9.016,10.16,10.16,0,0,0-5.164,2.672s.529-3.569,5.995-3.889c0,0,2.833-3.833,3.531-4.069,0,0-5.437-.453-8.732,1.01,0,0,2.9-3.38,9.733-1.888l3.776-3.115s-7.156-.944-10.2.1c0,0,3.493-2.983,11.224-.812l4.154-2.483s-6.1-1.322-9.742-.84c0,0,3.842-2.077,10.96.17l2.974-1.331s-4.475-.887-5.787-1.02-1.379-.5-1.379-.5a15.475,15.475,0,0,1,8.4.944S809.665,139.254,809.552,138.857Z" transform="translate(-69.946 -124.583)" fill="#6c63ff" opacity="0.1"/>
      <ellipse id="Ellipse_22" data-name="Ellipse 22" cx="37.96" cy="6.419" rx="37.96" ry="6.419" transform="translate(826.958 601.504)" fill="#6c63ff"/>
      <path id="Path_246" data-name="Path 246" d="M958.739,755.543a10.993,10.993,0,0,0,3.616-5.466c.472-2.162-.453-4.72-2.53-5.56-2.323-.887-4.805.727-6.684,2.351S949.1,750.35,946.646,750a9.912,9.912,0,0,0,3.059-9.261,3.887,3.887,0,0,0-.849-1.888c-1.293-1.378-3.625-.793-5.174.293-4.909,3.455-6.278,10.129-6.306,16.124-.491-2.162-.075-4.418-.085-6.608s-.623-4.72-2.5-5.881a7.464,7.464,0,0,0-3.776-.887c-2.2-.086-4.664.142-6.165,1.756-1.888,2-1.388,5.362.236,7.552s4.107,3.6,6.391,5.117a14.152,14.152,0,0,1,4.56,4.352,3.906,3.906,0,0,1,.34.784h13.839A38.5,38.5,0,0,0,958.739,755.543Z" transform="translate(-78.122 -158.117)" fill="#6c63ff"/>
    </g>
  </g>
</svg>
