<svg xmlns="http://www.w3.org/2000/svg" xmlns:xlink="http://www.w3.org/1999/xlink" width="1080" height="838" viewBox="0 0 1080 838">
  <defs>
    <linearGradient id="linear-gradient" x1="0.5" y1="1" x2="0.5" gradientUnits="objectBoundingBox">
      <stop offset="0" stop-color="gray" stop-opacity="0.251"/>
      <stop offset="0.54" stop-color="gray" stop-opacity="0.122"/>
      <stop offset="1" stop-color="gray" stop-opacity="0.102"/>
    </linearGradient>
    <linearGradient id="linear-gradient-2" y1="1" y2="-0.001" xlink:href="#linear-gradient"/>
    <clipPath id="clip-swiperThreeGraphic">
      <rect width="1080" height="838"/>
    </clipPath>
  </defs>
  <g id="swiperThreeGraphic" clip-path="url(#clip-swiperThreeGraphic)">
    <rect width="1080" height="838" fill="#fff"/>
    <g id="Group_153" data-name="Group 153" transform="translate(-2 1)">
      <path id="Path_247" data-name="Path 247" d="M769.639,189.592c-45.091,28.518-103.577,26.662-154.821,11.838s-98.33-41.262-148.241-60.043a523.521,523.521,0,0,0-130.249-30.672c-63.637-6.58-134.7,1.429-179.041,47.533C107.909,209.6,111.695,302.223,165.1,349.341c27.163,23.974,62.741,35.738,93.765,54.455s59.723,49.8,57.089,85.937c-2.442,33.445-30.875,59.115-60.3,75.219-22.748,12.446-50.765,26.033-53.505,51.81-2.645,24.945,20.9,44.493,43.4,55.606,73.374,36.26,163.769,35.908,236.855-.917,26.075-13.139,50.05-30.608,77.395-40.846,71.806-26.886,150.918.181,226.947,10.078a500.533,500.533,0,0,0,193.033-12.7c37.647-10.046,75.443-25.4,101.891-54.017,19.069-20.637,30.928-46.744,42.116-72.521q17.842-41.251,34.3-83.079c6.591-16.744,13.075-33.807,14.771-51.724,3.083-32.453-9.9-64.533-27.589-91.931-42.019-65.045-112.738-110.775-189.311-122.39S798.338,163.41,738.935,213.034" transform="translate(-90.205 -54.874)" fill="#6c63ff" opacity="0.1"/>
      <ellipse id="Ellipse_23" data-name="Ellipse 23" cx="144.764" cy="28.304" rx="144.764" ry="28.304" transform="translate(0 779.012)" fill="#6c63ff" opacity="0.1"/>
      <ellipse id="Ellipse_24" data-name="Ellipse 24" cx="303.457" cy="28.304" rx="303.457" ry="28.304" transform="translate(271.366 719.896)" fill="#6c63ff" opacity="0.1"/>
      <path id="Path_248" data-name="Path 248" d="M824.35,582.175S866.892,506.818,931,485.125c26.886-9.118,50.359-26.257,66.41-49.677a220.978,220.978,0,0,0,19.6-35.269" transform="translate(-43.547 -35.497)" fill="none" stroke="#535461" stroke-miterlimit="10" stroke-width="2"/>
      <path id="Path_249" data-name="Path 249" d="M1045.3,389.092C1038,396.174,1004,403.5,1004,403.5s8.351-33.754,15.645-40.846a18.421,18.421,0,0,1,25.66,26.438Z" transform="translate(-31.603 -38.337)" fill="#6c63ff"/>
      <path id="Path_250" data-name="Path 250" d="M1027.349,446.685c-9.982,1.973-42.5-10.355-42.5-10.355s25.35-23.8,35.322-25.787a18.427,18.427,0,1,1,7.178,36.147Z" transform="translate(-32.877 -34.832)" fill="#6c63ff"/>
      <path id="Path_251" data-name="Path 251" d="M960.961,508.622c-9.6-3.327-31.461-30.384-31.461-30.384s33.9-7.764,43.513-4.436a18.429,18.429,0,1,1-12.051,34.821Z" transform="translate(-36.556 -30.657)" fill="#6c63ff"/>
      <path id="Path_252" data-name="Path 252" d="M901.043,544.386C891.007,542.733,864.9,519.74,864.9,519.74s32.1-13.374,42.136-11.731a18.418,18.418,0,1,1-5.994,36.346Z" transform="translate(-40.851 -28.337)" fill="#6c63ff"/>
      <path id="Path_253" data-name="Path 253" d="M958.26,411.12c0,10.174,18.407,39.684,18.407,39.684s18.429-29.5,18.439-39.673a18.429,18.429,0,0,0-36.847,0Z" transform="translate(-34.644 -35.964)" fill="#6c63ff"/>
      <path id="Path_254" data-name="Path 254" d="M888.4,454.123c3.04,9.7,29.424,32.357,29.424,32.357s8.767-33.658,5.728-43.363a18.438,18.438,0,0,0-35.194,11.006Z" transform="translate(-39.348 -33.502)" fill="#6c63ff"/>
      <path id="Path_255" data-name="Path 255" d="M826.07,504.721c1.355,10.089,23.548,36.868,23.548,36.868s14.323-31.685,12.969-41.774a18.422,18.422,0,0,0-36.517,4.906Z" transform="translate(-43.444 -29.934)" fill="#6c63ff"/>
      <path id="Path_256" data-name="Path 256" d="M1045.3,389.092C1038,396.174,1004,403.5,1004,403.5s8.351-33.754,15.645-40.846a18.421,18.421,0,0,1,25.66,26.438Z" transform="translate(-31.603 -38.337)" opacity="0.25"/>
      <path id="Path_257" data-name="Path 257" d="M1027.349,446.685c-9.982,1.973-42.5-10.355-42.5-10.355s25.35-23.8,35.322-25.787a18.427,18.427,0,1,1,7.178,36.147Z" transform="translate(-32.877 -34.832)" opacity="0.25"/>
      <path id="Path_258" data-name="Path 258" d="M960.961,508.622c-9.6-3.327-31.461-30.384-31.461-30.384s33.9-7.764,43.513-4.436a18.429,18.429,0,1,1-12.051,34.821Z" transform="translate(-36.556 -30.657)" opacity="0.25"/>
      <path id="Path_259" data-name="Path 259" d="M901.043,544.386C891.007,542.733,864.9,519.74,864.9,519.74s32.1-13.374,42.136-11.731a18.418,18.418,0,1,1-5.994,36.346Z" transform="translate(-40.851 -28.337)" opacity="0.25"/>
      <path id="Path_260" data-name="Path 260" d="M958.26,411.12c0,10.174,18.407,39.684,18.407,39.684s18.429-29.5,18.439-39.673a18.429,18.429,0,0,0-36.847,0Z" transform="translate(-34.644 -35.964)" opacity="0.25"/>
      <path id="Path_261" data-name="Path 261" d="M888.4,454.123c3.04,9.7,29.424,32.357,29.424,32.357s8.767-33.658,5.728-43.363a18.438,18.438,0,0,0-35.194,11.006Z" transform="translate(-39.348 -33.502)" opacity="0.25"/>
      <path id="Path_262" data-name="Path 262" d="M826.07,504.721c1.355,10.089,23.548,36.868,23.548,36.868s14.323-31.685,12.969-41.774a18.422,18.422,0,0,0-36.517,4.906Z" transform="translate(-43.444 -29.934)" opacity="0.25"/>
      <path id="Path_263" data-name="Path 263" d="M826.65,584.657S835,498.528,884.763,452.722a131.177,131.177,0,0,0,40.59-72.329,220.793,220.793,0,0,0,3.627-40.164" transform="translate(-43.394 -39.482)" fill="none" stroke="#535461" stroke-miterlimit="10" stroke-width="2"/>
      <path id="Path_264" data-name="Path 264" d="M954.058,314.536c-3.807,9.438-31.92,29.862-31.92,29.862s-6.057-34.245-2.25-43.726a18.418,18.418,0,0,1,34.127,13.768Z" transform="translate(-37.279 -42.829)" fill="#6c63ff"/>
      <path id="Path_265" data-name="Path 265" d="M961.254,374.747c-8.319,5.855-43.044,7.764-43.044,7.764s13.534-31.994,21.852-37.892a18.418,18.418,0,1,1,21.192,30.129Z" transform="translate(-37.307 -39.413)" fill="#6c63ff"/>
      <path id="Path_266" data-name="Path 266" d="M926.22,458.232c-10.131.853-41.07-15.027-41.07-15.027S913,422.377,923.138,421.524a18.419,18.419,0,1,1,3.082,36.708Z" transform="translate(-39.505 -34.082)" fill="#6c63ff"/>
      <path id="Path_267" data-name="Path 267" d="M885.742,515.26c-9.843,2.549-43.022-7.871-43.022-7.871S866.652,482.146,876.5,479.6a18.421,18.421,0,1,1,9.246,35.663Z" transform="translate(-42.325 -30.256)" fill="#6c63ff"/>
      <path id="Path_268" data-name="Path 268" d="M883.979,369.714c4.127,9.3,32.911,28.8,32.911,28.8s4.9-34.426.778-43.726a18.425,18.425,0,1,0-33.69,14.931Z" transform="translate(-39.688 -39.244)" fill="#6c63ff"/>
      <path id="Path_269" data-name="Path 269" d="M837.528,437.348c6.719,7.636,40.025,17.65,40.025,17.65s-5.631-34.319-12.339-41.966a18.44,18.44,0,1,0-27.728,24.316Z" transform="translate(-42.978 -35.06)" fill="#6c63ff"/>
      <path id="Path_270" data-name="Path 270" d="M801.06,508.859c5.332,8.67,36.463,24.167,36.463,24.167s.256-34.778-5.066-43.449a18.423,18.423,0,0,0-31.4,19.282Z" transform="translate(-45.277 -30.137)" fill="#6c63ff"/>
      <path id="Path_271" data-name="Path 271" d="M281.84,0V752.36H822.973V0Z" transform="translate(18.737)" fill="url(#linear-gradient)"/>
      <rect id="Rectangle_1072" data-name="Rectangle 1072" width="531.641" height="28.678" transform="translate(305.323 6.602)" fill="#f6f7f9"/>
      <g id="Group_140" data-name="Group 140" transform="translate(305.323 6.602)" opacity="0.2">
        <rect id="Rectangle_1073" data-name="Rectangle 1073" width="531.641" height="28.678" fill="#6c63ff"/>
      </g>
      <rect id="Rectangle_1074" data-name="Rectangle 1074" width="531.641" height="710.479" transform="translate(305.323 35.279)" fill="#f6f7f9"/>
      <circle id="Ellipse_25" data-name="Ellipse 25" cx="4.863" cy="4.863" r="4.863" transform="translate(314.441 16.072)" fill="#f6f7f9"/>
      <circle id="Ellipse_26" data-name="Ellipse 26" cx="4.863" cy="4.863" r="4.863" transform="translate(327.623 16.072)" fill="#f6f7f9"/>
      <circle id="Ellipse_27" data-name="Ellipse 27" cx="4.863" cy="4.863" r="4.863" transform="translate(340.805 16.072)" fill="#f6f7f9"/>
      <g id="Group_141" data-name="Group 141" transform="translate(400.208 79.08)" opacity="0.2">
        <rect id="Rectangle_1075" data-name="Rectangle 1075" width="341.861" height="13.384" fill="#6c63ff"/>
      </g>
      <rect id="Rectangle_1076" data-name="Rectangle 1076" width="45.421" height="13.384" transform="translate(696.647 79.08)" fill="#4444c8"/>
      <g id="Group_142" data-name="Group 142" transform="translate(351.214 352.6)" opacity="0.2">
        <rect id="Rectangle_1077" data-name="Rectangle 1077" width="215.131" height="154.096" fill="#6c63ff" opacity="0.2"/>
      </g>
      <g id="Group_143" data-name="Group 143" transform="translate(351.214 152.71)" opacity="0.2">
        <rect id="Rectangle_1078" data-name="Rectangle 1078" width="215.131" height="154.096" fill="#6c63ff" opacity="0.2"/>
      </g>
      <g id="Group_144" data-name="Group 144" transform="translate(351.214 549.889)" opacity="0.2">
        <rect id="Rectangle_1079" data-name="Rectangle 1079" width="215.131" height="154.096" fill="#6c63ff" opacity="0.2"/>
      </g>
      <g id="Group_145" data-name="Group 145" transform="translate(575.943 352.6)" opacity="0.2">
        <rect id="Rectangle_1080" data-name="Rectangle 1080" width="215.131" height="154.096" fill="#6c63ff" opacity="0.2"/>
      </g>
      <g id="Group_146" data-name="Group 146" transform="translate(575.943 152.71)" opacity="0.2">
        <rect id="Rectangle_1081" data-name="Rectangle 1081" width="215.131" height="154.096" fill="#6c63ff" opacity="0.2"/>
      </g>
      <g id="Group_147" data-name="Group 147" transform="translate(575.943 549.889)" opacity="0.2">
        <rect id="Rectangle_1082" data-name="Rectangle 1082" width="215.131" height="154.096" fill="#6c63ff" opacity="0.2"/>
      </g>
      <path id="Path_272" data-name="Path 272" d="M1025.094,692.73s7.614,9.95-3.509,24.966-20.263,27.729-16.584,37.071c0,0,16.776-27.9,30.437-28.283S1040.121,709.506,1025.094,692.73Z" transform="translate(-31.592 -16.047)" fill="#3acc6c"/>
      <path id="Path_273" data-name="Path 273" d="M1025.068,692.73a12.262,12.262,0,0,1,1.557,3.114c13.331,15.656,20.423,30.267,7.615,30.64-11.923.341-26.246,21.671-29.669,27.057a11.765,11.765,0,0,0,.405,1.227s16.776-27.9,30.437-28.283S1040.094,709.506,1025.068,692.73Z" transform="translate(-31.565 -16.047)" opacity="0.1"/>
      <path id="Path_274" data-name="Path 274" d="M1037.17,704.76c0,3.5-.4,6.335-.875,6.335s-.885-2.837-.885-6.335.49-1.856.981-1.856S1037.17,701.251,1037.17,704.76Z" transform="translate(-29.515 -15.397)" fill="#ffd037"/>
      <path id="Path_275" data-name="Path 275" d="M1041.983,708.69c-3.071,1.674-5.759,2.688-5.983,2.26s2.069-2.133,5.141-3.807,1.866-.448,2.133,0S1045.055,707.047,1041.983,708.69Z" transform="translate(-29.477 -15.146)" fill="#ffd037"/>
      <path id="Path_276" data-name="Path 276" d="M987.175,692.73s-7.615,9.95,3.509,24.966,20.263,27.729,16.584,37.071c0,0-16.776-27.9-30.437-28.283S972.127,709.506,987.175,692.73Z" transform="translate(-33.858 -16.047)" fill="#3acc6c"/>
      <path id="Path_277" data-name="Path 277" d="M987.175,692.73a12.233,12.233,0,0,0-1.557,3.114c-13.331,15.656-20.424,30.267-7.615,30.64,11.934.341,26.246,21.671,29.669,27.057a9.7,9.7,0,0,1-.405,1.227s-16.776-27.9-30.437-28.283S972.127,709.506,987.175,692.73Z" transform="translate(-33.858 -16.047)" opacity="0.1"/>
      <path id="Path_278" data-name="Path 278" d="M972.84,704.76c0,3.5.395,6.335.885,6.335s.875-2.837.875-6.335-.491-1.856-.97-1.856S972.84,701.251,972.84,704.76Z" transform="translate(-33.675 -15.397)" fill="#ffd037"/>
      <path id="Path_279" data-name="Path 279" d="M968.408,708.69c3.082,1.674,5.759,2.688,5.993,2.26s-2.08-2.133-5.151-3.807-1.867-.448-2.133,0S965.336,707.047,968.408,708.69Z" transform="translate(-34.095 -15.146)" fill="#ffd037"/>
      <ellipse id="Ellipse_28" data-name="Ellipse 28" cx="79.56" cy="12.211" rx="79.56" ry="12.211" transform="translate(893.85 790.423)" fill="#6c63ff" opacity="0.1"/>
      <path id="Path_280" data-name="Path 280" d="M1048.456,738.618l-.384,3.1-.533,4.394-.224,1.823-.533,4.394-.235,1.834-.534,4.383-6.089,49.911c-.544,4.458-7.818,7.924-16.605,7.924H991.688c-8.788,0-16-3.466-16.595-7.924l-6.1-49.932-.533-4.383-.224-1.834-.544-4.394-.224-1.824-.534-4.394-.384-3.1c-.3-2.463,3.68-4.6,8.607-4.6h64.7C1044.82,734,1048.766,736.133,1048.456,738.618Z" transform="translate(-34.094 -13.303)" fill="#65617d"/>
      <path id="Path_281" data-name="Path 281" d="M955.828,683.01l-.533,4.383H875.224l-.534-4.383Z" transform="translate(58.151 45.408)" fill="#9d9cb5"/>
      <path id="Path_282" data-name="Path 282" d="M955.024,688.84l-.533,4.395H875.944l-.544-4.395Z" transform="translate(58.198 45.795)" fill="#9d9cb5"/>
      <path id="Path_283" data-name="Path 283" d="M954.208,694.67l-.533,4.394H876.653l-.533-4.394Z" transform="translate(58.246 46.183)" fill="#9d9cb5"/>
      <path id="Path_284" data-name="Path 284" d="M683.837,229.66s-1.952-4.874,11.209-3.658,50.945,5.418,67.284,1.738,26.075-4.852,25.1,0-28.272,15.816-28.272,15.816l-35.354,3.658-26.076-4.149-14-8.287Z" transform="translate(-52.895 -47.174)" fill="#6c63ff"/>
      <path id="Path_285" data-name="Path 285" d="M787.464,227.741c-.981,4.852-28.272,15.816-28.272,15.816l-35.354,3.658-26.076-4.138L683.77,234.79l.1-5.119a2.132,2.132,0,0,1,.746-2.357c1.2-1.066,4.021-1.9,10.462-1.3,13.171,1.216,50.946,5.407,67.284,1.728,13.31-3,22.247-4.33,24.529-2.133A2.132,2.132,0,0,1,787.464,227.741Z" transform="translate(-52.893 -47.175)" opacity="0.1"/>
      <path id="Path_286" data-name="Path 286" d="M809.686,300.863a152.6,152.6,0,0,0-62.731,27.782,11.632,11.632,0,0,0-5-5.94,17.568,17.568,0,0,0-5.076-2.133c-1.632-.416-3.2.576-4.639,2.005a26.277,26.277,0,0,0-4.128,6.111c-24.859-17.064-62.57-27.952-62.57-27.952v-3.413a18.892,18.892,0,0,1,.245-2.4c.128-.917.288-1.728.491-2.72,3.2-16.274,15.848-53.463,15.848-53.463h14.3l27.728,5.759,31.195-1.909,31.419-6.537,4.074-.853c6.793,5.332,14.5,42.659,17.533,58.55.384,2.016.682,3.679.906,4.906C809.547,300.042,809.686,300.863,809.686,300.863Z" transform="translate(-54.105 -46.465)" fill="#6c63ff"/>
      <path id="Path_287" data-name="Path 287" d="M670.7,293.6c.821-15.624,13.235-49.485,15.336-55.105h-3.914s-13.4,39.46-16.115,54.86a.378.378,0,0,0,0,.117c-.075.416-.149.821-.2,1.205-.128.917-.213,1.728-.245,2.4v3.413s37.711,10.9,62.571,27.952a26.248,26.248,0,0,1,4.127-6.111C722.755,313.688,686.719,299.61,670.7,293.6Z" transform="translate(-54.103 -46.246)" fill="#6c63ff"/>
      <path id="Path_288" data-name="Path 288" d="M804.516,298.616c-.1-.544-.214-1.173-.342-1.867-.16-.9-.352-1.909-.565-3.039h0c-3.029-15.912-10.74-53.249-17.533-58.55l-4.074.853c2.474,6.644,18.418,50.029,17.064,58.5-26.662,5.332-53.687,22.663-61.856,28.2a11.636,11.636,0,0,1,5,5.94,152.6,152.6,0,0,1,62.731-27.781S804.782,300.045,804.516,298.616Z" transform="translate(-49.34 -46.467)" fill="#6c63ff"/>
      <path id="Path_289" data-name="Path 289" d="M671.621,292.674c.81-15.624,13.235-49.485,15.336-55.094h-3.924s-13.4,39.46-16.115,54.849v.117q-.117.64-.192,1.216c-.128.917-.213,1.728-.245,2.4v3.413s37.7,10.889,62.57,27.953a25.832,25.832,0,0,1,4.117-6.111C723.665,312.8,687.639,298.689,671.621,292.674Z" transform="translate(-54.042 -46.307)" opacity="0.1"/>
      <path id="Path_290" data-name="Path 290" d="M670.7,293.6c.821-15.624,13.235-49.485,15.336-55.105h-3.914s-13.4,39.46-16.115,54.86a.378.378,0,0,0,0,.117c-.075.416-.149.821-.2,1.205-.128.917-.213,1.728-.245,2.4v3.413s37.711,10.9,62.571,27.952a26.248,26.248,0,0,1,4.127-6.111C722.755,313.688,686.719,299.61,670.7,293.6Z" transform="translate(-54.103 -46.246)" fill="#6c63ff"/>
      <path id="Path_291" data-name="Path 291" d="M803.6,297.7l-.341-1.866c-.171-.9-.352-1.9-.566-3.039h0c-3.018-15.9-10.74-53.239-17.533-58.55l-4.063.864c2.474,6.644,18.418,50.029,17.064,58.5-26.663,5.333-53.7,22.663-61.856,28.187a11.652,11.652,0,0,1,5,5.951,152.448,152.448,0,0,1,62.72-27.793S803.871,299.146,803.6,297.7Z" transform="translate(-49.4 -46.529)" opacity="0.1"/>
      <path id="Path_292" data-name="Path 292" d="M804.516,298.616c-.1-.544-.214-1.173-.342-1.867-.16-.9-.352-1.909-.565-3.039h0c-3.029-15.912-10.74-53.249-17.533-58.55l-4.074.853c2.474,6.644,18.418,50.029,17.064,58.5-26.662,5.332-53.687,22.663-61.856,28.2a11.636,11.636,0,0,1,5,5.94,152.6,152.6,0,0,1,62.731-27.781S804.782,300.045,804.516,298.616Z" transform="translate(-49.34 -46.467)" fill="#6c63ff"/>
      <path id="Path_293" data-name="Path 293" d="M679.173,257.021s24.742,15.571,30.523-7.231l5.5,1.472s1.813,25.265-37.668,10.846Z" transform="translate(-53.308 -45.495)" opacity="0.1"/>
      <path id="Path_294" data-name="Path 294" d="M679.173,255.191s24.742,15.57,30.523-7.231l5.5,1.472s1.813,25.265-37.668,10.846Z" transform="translate(-53.308 -45.617)" fill="#6c63ff"/>
      <path id="Path_295" data-name="Path 295" d="M752.07,250.542s3.2,18.631,37.1,9.6l-1.195-3.519s-23.153,9.6-31.547-7.071Z" transform="translate(-48.352 -45.511)" opacity="0.1"/>
      <path id="Path_296" data-name="Path 296" d="M752.07,248.712s3.2,18.631,37.1,9.6l-1.195-3.519s-23.153,9.6-31.547-7.071Z" transform="translate(-48.352 -45.632)" fill="#6c63ff"/>
      <path id="Path_297" data-name="Path 297" d="M730.91,250.485v38.884h6.015s8.318-3,8.126-20.476-1.461-22.183-1.461-22.183Z" transform="translate(-49.759 -45.699)" opacity="0.1"/>
      <path id="Path_298" data-name="Path 298" d="M730,249.575v38.884h6.015s8.319-3,8.127-20.477S742.67,245.8,742.67,245.8Z" transform="translate(-49.819 -45.76)" fill="#6c63ff"/>
      <path id="Path_299" data-name="Path 299" d="M789.773,237.587c-2.453,4.564-24.721,12.062-28.656,13.352l-.6.192s-1.407.363-3.764.853c-7.167,1.493-23.143,4.266-35.194,1.834-1.749-.341-3.562-.715-5.407-1.066l-4.266-.928c-13.864-3.082-28.208-7.113-30.757-10.665,0,0,.693-11.593,3.029-11.283S712.57,241.16,712.57,241.16l.373.053c.672.085,2.2.277,4.341.523,8.468.928,26.31,2.4,35.909-.171.458-.128.885-.256,1.3-.405.726-.245,1.483-.5,2.261-.789C769.1,236,787.6,228.17,787.6,228.17S792.481,232.564,789.773,237.587Z" transform="translate(-53.068 -46.932)" opacity="0.1"/>
      <path id="Path_300" data-name="Path 300" d="M787.464,227.67c-.981,4.853-28.272,15.816-28.272,15.816l-35.354,3.658-26.076-4.138L683.77,234.72l.1-5.119a2.132,2.132,0,0,1,.746-2.357c4.639,1.408,27.729,11.123,27.729,11.123l.373.053c.672.085,2.2.277,4.34.523,8.468.928,26.31,2.4,35.908-.171.458-.128.885-.256,1.3-.405.725-.235,1.482-.5,2.261-.789,11.166-3.957,27.366-10.74,30.363-12A2.132,2.132,0,0,1,787.464,227.67Z" transform="translate(-52.893 -47.104)" opacity="0.1"/>
      <path id="Path_301" data-name="Path 301" d="M789.773,235.748c-2.453,4.565-24.721,12.051-28.656,13.342l-.6.2s-1.407.352-3.764.842c-7.167,1.493-23.143,4.266-35.194,1.834-1.749-.341-3.562-.715-5.407-1.066l-4.266-.928c-13.864-3.082-28.208-7.113-30.757-10.665,0,0,.693-11.593,3.029-11.273S712.57,239.31,712.57,239.31l.373.053c.672.085,2.2.288,4.341.522,8.468.928,26.31,2.4,35.909-.171.458-.128.885-.256,1.3-.405.726-.235,1.483-.5,2.261-.789,12.35-4.372,30.842-12.2,30.842-12.2S792.481,230.746,789.773,235.748Z" transform="translate(-53.068 -47.055)" fill="#6c63ff"/>
      <circle id="Ellipse_29" data-name="Ellipse 29" cx="3.903" cy="3.903" r="3.903" transform="translate(681.471 197.107)" opacity="0.1"/>
      <circle id="Ellipse_30" data-name="Ellipse 30" cx="3.903" cy="3.903" r="3.903" transform="translate(681.471 196.126)" fill="#6c63ff"/>
      <path id="Path_302" data-name="Path 302" d="M716.233,239.032l-1.067,11.006-4.266-.928,1.066-10.6C712.564,238.617,714.1,238.819,716.233,239.032Z" transform="translate(-51.089 -46.245)" opacity="0.1"/>
      <path id="Path_303" data-name="Path 303" d="M715.332,239.032l-1.067,11.006L710,249.111l1.066-10.6C711.652,238.617,713.2,238.819,715.332,239.032Z" transform="translate(-51.149 -46.245)" fill="#6c63ff"/>
      <path id="Path_304" data-name="Path 304" d="M755.739,248.33l-.6.2s-1.4.352-3.765.842l-3.637-10.441c.458-.128.9-.256,1.311-.405.725-.235,1.483-.5,2.261-.789Z" transform="translate(-48.64 -46.296)" opacity="0.1"/>
      <path id="Path_305" data-name="Path 305" d="M756.659,248.33l-.6.2s-1.408.352-3.765.842l-3.636-10.441c.458-.128.885-.256,1.3-.405.725-.235,1.482-.5,2.261-.789Z" transform="translate(-48.579 -46.296)" fill="#6c63ff"/>
      <g id="Group_148" data-name="Group 148" transform="translate(391.436 171.735)" opacity="0.5">
        <path id="Path_306" data-name="Path 306" d="M498.322,221.116a28.157,28.157,0,0,1,14.174,3.935s12.99,1.578,20.071,0,10.665-7.081,12.009-5.514,1.376,16.339,1.376,16.339l-6.1,16.338-13.779,10.228-21.841-6.292L497,237.668Z" transform="translate(-456.746 -219.259)" fill="#6c63ff"/>
        <path id="Path_307" data-name="Path 307" d="M545.952,235.9l-6.1,16.339-13.779,10.228-21.842-6.292L497,237.665l1.376-16.531h.32a28.922,28.922,0,0,1,13.864,3.946s12.99,1.578,20.071,0c6.73-1.493,10.27-6.548,11.731-5.695h0a.662.662,0,0,1,.224.171C545.952,221.114,545.952,235.9,545.952,235.9Z" transform="translate(-456.746 -219.257)" opacity="0.1"/>
        <path id="Path_308" data-name="Path 308" d="M545.952,235.888l-6.1,16.339-13.779,10.227-21.842-6.292L497,237.659l1.376-16.53h.32c1.216,5.215,6.4,21.682,22.908,22.844,16.978,1.184,21.8-19.015,22.8-24.582a.665.665,0,0,1,.224.171C545.952,221.107,545.952,235.888,545.952,235.888Z" transform="translate(-456.746 -219.251)" opacity="0.1"/>
        <path id="Path_309" data-name="Path 309" d="M500.832,221.1s3.541,23.025,23.228,24.4,23.025-25.979,23.025-25.979,28.539,9.353,35.194,26.033,11.614,30.064,11.614,30.064-2.133,3.733-4.533,4.127-18.7,11.614-18.7,11.614-.192,31.888,1.578,33.85,1.184,10.43-4.138,10.036-42.115-8.66-73.587-1.77c0,0-13.181,4.725-12.8-2.954s.981-37.786.981-37.786-19.879-8.66-21.052-8.66-4.138-1.557-.992-6.687,7.092-22.631,7.092-22.631S475.641,229.63,500.832,221.1Z" transform="translate(-459.255 -219.242)" fill="#6c63ff"/>
        <path id="Path_310" data-name="Path 310" d="M555.63,259.77s5.908,4.33,4.532,7.679S555.63,259.77,555.63,259.77Z" transform="translate(-452.848 -216.566)" opacity="0.1"/>
        <path id="Path_311" data-name="Path 311" d="M563.776,263.67a10.665,10.665,0,0,0,0,5.876" transform="translate(-452.334 -216.307)" opacity="0.1"/>
        <path id="Path_312" data-name="Path 312" d="M567.538,273.8s.789,5.332-1.568,5.9" transform="translate(-452.16 -215.633)" opacity="0.1"/>
        <path id="Path_313" data-name="Path 313" d="M492.652,258.48s-11.017,9.6-7.284,13.384" transform="translate(-457.57 -216.652)" opacity="0.1"/>
        <path id="Path_314" data-name="Path 314" d="M485.69,280.26s-.181,10.036,2.858,10.825" transform="translate(-457.498 -215.204)" opacity="0.1"/>
        <path id="Path_315" data-name="Path 315" d="M515.4,312.117s7.465-5.108,9.449-4.916" transform="translate(-455.522 -213.413)" opacity="0.1"/>
        <path id="Path_316" data-name="Path 316" d="M522.4,317.134s8.084-5.716,10.249-5.333" transform="translate(-455.057 -213.108)" opacity="0.1"/>
      </g>
      <g id="Group_149" data-name="Group 149" transform="translate(613.952 367.318)" opacity="0.5">
        <path id="Path_317" data-name="Path 317" d="M687,402.65s64.394,3.05,96.41,1.173l-.7,8.447-56.652,7.465-16.766-5.162Z" transform="translate(-666.63 -402.65)" fill="#6c63ff"/>
        <path id="Path_318" data-name="Path 318" d="M783.453,403.823l-.7,8.447-56.641,7.465-16.776-5.162L687,402.65s1.322.075,3.679.171h0c13.971.608,64.277,2.57,91.9,1.066Z" transform="translate(-666.63 -402.65)" opacity="0.1"/>
        <path id="Path_319" data-name="Path 319" d="M807.012,523.93c-12.435,7.465-55.6.234-55.6.234L739.45,481.505l-13.374,43.4c-18.994,6.8-58.177-3.05-58.177-3.05L683.15,428l2.634-12.936,2.485-12.414,24.166,7.274s7.263,4.927,37.529,3.519,34.714-9.6,34.714-9.6c1.333.384,2.6,5.087,3.882,10.931,1.856,8.532,3.743,19.474,5.972,23.09C798.33,443.944,807.012,523.93,807.012,523.93Z" transform="translate(-667.9 -402.65)" fill="#6c63ff"/>
        <path id="Path_320" data-name="Path 320" d="M787.489,415.634c-26.982,14.813-50.21,14.408-50.21,14.408-5.749.7-52.609-14.11-52.609-14.11l2.485-12.4,24.167,7.273s7.262,4.927,37.529,3.519,34.713-9.6,34.713-9.6C784.94,405.1,786.209,409.79,787.489,415.634Z" transform="translate(-666.785 -402.591)" opacity="0.1"/>
        <path id="Path_321" data-name="Path 321" d="M783.453,403.823l-.7,8.447-56.641,7.465-16.776-5.162L687,402.65s1.322.075,3.679.171h0l20.477,6.164s7.263,4.927,37.529,3.519c23.772-1.066,31.621-6.4,33.893-8.628Z" transform="translate(-666.63 -402.65)" opacity="0.1"/>
        <path id="Path_322" data-name="Path 322" d="M787.489,414.755c-26.982,14.813-50.21,14.408-50.21,14.408-5.749.7-52.609-14.109-52.609-14.109l2.485-12.4,24.167,7.274s7.262,4.927,37.529,3.519,34.713-9.6,34.713-9.6C784.94,404.207,786.209,408.911,787.489,414.755Z" transform="translate(-666.785 -402.65)" fill="#6c63ff"/>
        <circle id="Ellipse_31" data-name="Ellipse 31" cx="2.464" cy="2.464" r="2.464" transform="translate(72.606 19.346)" opacity="0.1"/>
        <circle id="Ellipse_32" data-name="Ellipse 32" cx="2.464" cy="2.464" r="2.464" transform="translate(72.606 18.407)" fill="none" stroke="#6c63ff" stroke-miterlimit="10" stroke-width="1"/>
        <path id="Path_323" data-name="Path 323" d="M679.23,463.58s4.34,12.9,7.391,12.67S679.23,463.58,679.23,463.58Z" transform="translate(-667.147 -398.599)" opacity="0.1"/>
        <path id="Path_324" data-name="Path 324" d="M676.59,475.46s2.7,7.743,5.514,9.033" transform="translate(-667.322 -397.809)" opacity="0.1"/>
        <path id="Path_325" data-name="Path 325" d="M676.59,483.05s4.266,5.4,6.794,6.687" transform="translate(-667.322 -397.305)" opacity="0.1"/>
        <path id="Path_326" data-name="Path 326" d="M784,437.3s3.989,5.983,0,7.273" transform="translate(-660.181 -400.346)" opacity="0.1"/>
        <path id="Path_327" data-name="Path 327" d="M785.865,446.5c-4.629-5.492-1.771,7.466-1.771,7.466S787.049,447.913,785.865,446.5Z" transform="translate(-660.233 -399.825)" opacity="0.1"/>
        <path id="Path_328" data-name="Path 328" d="M788.253,452.69s-7.039,10.441-5.631,11.614" transform="translate(-660.286 -399.323)" opacity="0.1"/>
        <path id="Path_329" data-name="Path 329" d="M701.71,438.4c-8.628,0-17.629-3.9-18.13-4.138l.384-.864c.171.085,17.395,7.561,26.715,1.952,3.519-2.133,5.493-5.887,5.876-11.2l.939.075c-.405,5.631-2.538,9.6-6.335,11.923A18.126,18.126,0,0,1,701.71,438.4Z" transform="translate(-666.857 -401.221)" opacity="0.1"/>
        <path id="Path_330" data-name="Path 330" d="M701.71,437.518c-8.628,0-17.629-3.9-18.13-4.138l.384-.853c.171.075,17.395,7.551,26.715,1.941,3.519-2.133,5.493-5.887,5.876-11.2l.939.075c-.405,5.631-2.538,9.6-6.335,11.923A18.124,18.124,0,0,1,701.71,437.518Z" transform="translate(-666.857 -401.279)" fill="#6c63ff"/>
        <path id="Path_331" data-name="Path 331" d="M767.909,439.01a14.6,14.6,0,0,1-6.4-1.376c-7-3.37-8.127-11.625-8.18-11.977l.939-.117c0,.085,1.12,8.116,7.658,11.251,5.823,2.805,14.088,1.067,24.529-5.332l.48.8C779.5,436.759,773.135,439.01,767.909,439.01Z" transform="translate(-662.221 -401.128)" opacity="0.1"/>
        <path id="Path_332" data-name="Path 332" d="M767.909,438.13a14.6,14.6,0,0,1-6.4-1.376c-7-3.37-8.127-11.625-8.18-11.977l.939-.117c0,.085,1.12,8.116,7.658,11.251,5.823,2.805,14.088,1.067,24.529-5.332l.48.8C779.5,435.879,773.135,438.13,767.909,438.13Z" transform="translate(-662.221 -401.187)" fill="#6c63ff"/>
      </g>
      <path id="Path_333" data-name="Path 333" d="M503.34,404s12.1,16.9,20.327,15.261S532.7,415.817,540.006,404L546,417.79l-7.06,17.064-8.361,10.825-17.725-2.783-5.738-19.368Z" transform="translate(-64.888 -35.243)" fill="#6c63ff"/>
      <path id="Path_334" data-name="Path 334" d="M546,417.781l-7.06,17.064-8.361,10.825-17.725-2.784-5.738-19.367L503.34,404s1.067,1.472,2.73,3.5c4.063,4.852,11.8,12.915,17.6,11.731,8.105-1.621,9.012-3.4,16.05-14.781l.288-.48Z" transform="translate(-64.888 -35.244)" opacity="0.1"/>
      <path id="Path_335" data-name="Path 335" d="M546,417.779l-7.06,17.063-8.361,10.825-17.725-2.784-5.738-19.367L503.34,404s1.067,1.472,2.73,3.5c2.645,8.532,8.329,22.215,17.6,22.1,10.462-.117,14.685-17.448,16.05-25.116l.288-.48Z" transform="translate(-64.888 -35.243)" opacity="0.1"/>
      <path id="Path_336" data-name="Path 336" d="M497.866,403.665s-4.106-.491-1.973,4.6,6.068,21.82,4.106,25.265-.981,12.8-9.513,14.611l2.453,9.673s.491,21.33-.491,24.454-1.152,20.338-.821,22.14.171,13.619-1.141,14.12-2.133,6.228,2.133,7.209,22.471,1.482,25.756,2.463,26.577,0,26.577,0,9.844-1.312,12.307-2.133,2.954-2.784,2.133-6.559-4.6-31.173-3.775-34.618.992-37.082.992-37.082-6.4-2.133-6.4-8.372-2.464-22.972,2.624-33.466c0,0-4.106-2.815-4.757-2.314s-6.847-1.3-6.847-1.3-3.2,28.549-16.584,28.71-19.346-28.71-19.346-28.71S505.416,399.73,497.866,403.665Z" transform="translate(-65.813 -35.409)" fill="#6c63ff"/>
      <path id="Path_337" data-name="Path 337" d="M515.49,489.38s2.762,6.729,7.369,7.711S515.49,489.38,515.49,489.38Z" transform="translate(-64.08 -29.566)" opacity="0.1"/>
      <path id="Path_338" data-name="Path 338" d="M511.49,494.3s8.916,7.22,8.532,8.7" transform="translate(-64.346 -29.239)" opacity="0.1"/>
      <path id="Path_339" data-name="Path 339" d="M494.72,454.3s7.06,4.757,7.06,8.2" transform="translate(-65.461 -31.899)" opacity="0.1"/>
      <path id="Path_340" data-name="Path 340" d="M499.384,468.821s-1.962-6.89-3.274-8.361" transform="translate(-65.369 -31.489)" opacity="0.1"/>
      <path id="Path_341" data-name="Path 341" d="M496.11,470.76s2.954,5.908,3.274,7.551" transform="translate(-65.369 -30.804)" opacity="0.1"/>
      <path id="Path_342" data-name="Path 342" d="M550.325,459.53s-9.182,2.794-8.372,6.239" transform="translate(-62.324 -31.551)" opacity="0.1"/>
      <path id="Path_343" data-name="Path 343" d="M541.91,490.229s12.03-13.95,8.415-13.619S541.91,490.229,541.91,490.229Z" transform="translate(-62.324 -30.416)" opacity="0.1"/>
      <g id="Group_150" data-name="Group 150" transform="translate(423.6 366.088)" opacity="0.1">
        <path id="Path_344" data-name="Path 344" d="M546.447,437.924c0-2.88-.522-8-.586-13.7-.064,6.548.586,12.606.586,15.837,0,6.1,6.111,8.265,6.4,8.361v-2.133S546.447,444.163,546.447,437.924Z" transform="translate(-485.662 -399.986)"/>
        <path id="Path_345" data-name="Path 345" d="M555.242,516.263a16.434,16.434,0,0,1,.288,1.7,10.651,10.651,0,0,0-.288-3.828c-.7-3.2-3.562-23.74-3.861-31.76C551.061,487.852,554.5,512.679,555.242,516.263Z" transform="translate(-485.295 -396.12)"/>
        <path id="Path_346" data-name="Path 346" d="M491.35,496.1c0-5.855.331-13.928.971-16,.523-1.663.629-8.468.618-14.483,0,5.4-.16,10.878-.618,12.35C491.6,480.295,491.318,490.3,491.35,496.1Z" transform="translate(-489.285 -397.234)"/>
        <path id="Path_347" data-name="Path 347" d="M497.5,405.8c7.54-3.936,7.38-1.312,7.38-1.312s5.908,28.88,19.346,28.71,16.637-28.71,16.637-28.71,6.239,1.8,6.89,1.3,2.837,1.067,4.042,1.834c.224-.565.458-1.12.725-1.653,0,0-4.106-2.815-4.767-2.314s-6.89-1.3-6.89-1.3-3.2,28.549-16.584,28.71-19.346-28.71-19.346-28.71.16-2.623-7.38,1.312c0,0-3.338-.384-2.41,3.3C495.673,405.585,497.5,405.8,497.5,405.8Z" transform="translate(-489.044 -401.497)"/>
        <path id="Path_348" data-name="Path 348" d="M490.476,513.961c1.067-.395,1.355-7.7,1.29-11.731-.053,4.053-.427,9.268-1.29,9.6s-1.28,2.133-.949,3.871C489.7,514.782,490.039,514.111,490.476,513.961Z" transform="translate(-489.414 -394.8)"/>
        <path id="Path_349" data-name="Path 349" d="M499.934,433.8a9.171,9.171,0,0,0,.5-4.383,5.618,5.618,0,0,1-.5,2.25c-1.973,3.445-.992,12.8-9.524,14.611l.512,2C498.9,446.217,498,437.184,499.934,433.8Z" transform="translate(-489.347 -399.64)"/>
      </g>
      <path id="Path_350" data-name="Path 350" d="M546.582,592.04c-4.031,7.337-44.952,0-44.952,0l.107-.736.811-5.684h43.118l.821,5.673Z" transform="translate(-65.002 -23.168)" fill="#6c63ff"/>
      <path id="Path_351" data-name="Path 351" d="M546.582,591.705c-4.031,7.338-44.952,0-44.952,0l.107-.736c1.962,0,31.568-.7,44.792,0Z" transform="translate(-65.002 -22.833)" opacity="0.1"/>
      <path id="Path_352" data-name="Path 352" d="M503.8,591.66h0s-7.338,1.835-18.717,32.656-15.411,70.644-15.411,70.644-6.4,10.836,20.914,11.561c0,0-2.2,7.156,13.214,6.057s13.192-1.088,13.192-1.088,9.908-6.239,14.312-5.14,7.156,1.472,11.923,5.5,20.007,2.389,20.188-.725a28.793,28.793,0,0,0,0-4.6s23.3,1.472,18.9-15.411-8.073-44.589-8.073-44.589-11.923-54.124-25.51-54.86S503.8,591.66,503.8,591.66Z" transform="translate(-67.17 -22.788)" fill="#6c63ff"/>
      <rect id="Rectangle_1083" data-name="Rectangle 1083" width="93.978" height="0.736" transform="matrix(0.092, -0.996, 0.996, 0.092, 423.085, 683.758)" opacity="0.1"/>
      <rect id="Rectangle_1084" data-name="Rectangle 1084" width="98.532" height="0.736" transform="translate(449.427 688.637) rotate(-89.78)" opacity="0.1"/>
      <path id="Path_353" data-name="Path 353" d="M535.18,611.6" transform="translate(-62.771 -21.441)" fill="none" stroke="#6c63ff" stroke-miterlimit="10" stroke-width="1"/>
      <rect id="Rectangle_1085" data-name="Rectangle 1085" width="0.736" height="98.97" transform="translate(472.101 590.11) rotate(-2.13)" opacity="0.1"/>
      <path id="Path_354" data-name="Path 354" d="M557.885,705.3c-1.28-56.363-10.878-94.949-11-95.29l.714-.182c.1.384,9.748,39.044,11.017,95.5Z" transform="translate(-61.993 -21.559)" opacity="0.1"/>
      <path id="Path_355" data-name="Path 355" d="M502.865,596.8s-1.28.736,0,4.266" transform="translate(-64.958 -22.425)" opacity="0.1"/>
      <path id="Path_356" data-name="Path 356" d="M506.377,596.8s-3.487,2.2,0,5.876" transform="translate(-64.789 -22.425)" opacity="0.1"/>
      <path id="Path_357" data-name="Path 357" d="M536.9,596.8s4.767,4.586,3.669,5.876" transform="translate(-62.657 -22.425)" opacity="0.1"/>
      <path id="Path_358" data-name="Path 358" d="M540.5,595.77s.747,5.5,3.5,6.974" transform="translate(-62.417 -22.493)" opacity="0.1"/>
      <g id="Group_151" data-name="Group 151" transform="translate(641.408 561.698)" opacity="0.5">
        <path id="Path_359" data-name="Path 359" d="M723.185,587.692s18-7.166,25.788,1.578-5.332,19.389-5.332,19.389l-5.5,10.985-12.948-1.418-3.05-15.187Z" transform="translate(-691.75 -584.912)" fill="#6c63ff"/>
        <path id="Path_360" data-name="Path 360" d="M743.641,608.607l-5.5,10.985-12.948-1.376-3.05-15.176,1.067-15.347.288-.107c2.282-.842,17.693-6.217,25.062,1.184a5.808,5.808,0,0,1,.437.448C756.758,597.921,743.641,608.607,743.641,608.607Z" transform="translate(-691.75 -584.913)" opacity="0.1"/>
        <path id="Path_361" data-name="Path 361" d="M743.641,608.44l-5.5,10.985-12.948-1.376-3.05-15.176,1.067-15.347.288-.106c2.229,12.211,8.18,17.362,9.182,18.13l.149.107,3.658-.3c7.114-3.924,10.868-13.256,12.073-16.786a5.668,5.668,0,0,1,.437.448C756.758,597.754,743.641,608.44,743.641,608.44Z" transform="translate(-691.75 -584.747)" opacity="0.1"/>
        <path id="Path_362" data-name="Path 362" d="M776.975,650.255s-3.968,50.53-2.89,56.63-2.293,6.559-2.293,6.559-14.355,3.2-17.064,1.066-7.326-2.549-7.326-2.549-10.665,2.442-15.422.619-12.67-1.067-12.67-1.067-6.1,3.669-7.785,2.9-3.818-.458-8.7-1.824-7.636-2.6-5.045-10.995.32-34.96.16-38.17-1.674-10.985-3.818-20.263,3.657-7.327,3.657-7.327c13.6-7.017,7.945-20.764,5.813-26.865s1.216-6.4,2.89-6.4,8.095-5.492,8.095-5.492l2.6-2.336,7.934-7.124c1.973,13.342,8.372,18.94,9.438,19.773l.15.117,3.658-.309c8.852-4.874,12.51-18.13,12.51-18.13,1.066,1.813,3.445,3.882,6.1,5.8a104.459,104.459,0,0,0,10.846,6.719c6.4,3.818,1.685,7.636,1.685,7.636-7.785,26.556,3.2,27.729,3.2,27.729C780.792,638.15,776.975,650.255,776.975,650.255Z" transform="translate(-693.644 -584.734)" fill="#6c63ff"/>
        <path id="Path_363" data-name="Path 363" d="M715.673,601.69s-2.293,1.226-2.293,2.591" transform="translate(-692.332 -583.798)" opacity="0.1"/>
        <path id="Path_364" data-name="Path 364" d="M716.981,604.12s-3.05,3.2-2.517,4.127" transform="translate(-692.264 -583.636)" opacity="0.1"/>
        <path id="Path_365" data-name="Path 365" d="M716.919,608s-2.293,2.442-1.376,3.818" transform="translate(-692.202 -583.379)" opacity="0.1"/>
        <path id="Path_366" data-name="Path 366" d="M732.224,609.119l-9.6,9.268c-.352-10.3-5.332-18.547-7.785-22.023l7.935-7.124C724.716,602.688,731.168,608.287,732.224,609.119Z" transform="translate(-692.235 -584.626)" opacity="0.1"/>
        <path id="Path_367" data-name="Path 367" d="M733.083,607.4l-9.6,9.279c-.341-10.313-5.332-18.546-7.775-22.033l7.935-7.124C725.617,600.968,732.017,606.568,733.083,607.4Z" transform="translate(-692.177 -584.74)" fill="#6c63ff"/>
        <path id="Path_368" data-name="Path 368" d="M755.04,596.47c-3.839,5.993-10.974,21.82-10.974,21.82l-7.636-9.46c8.852-4.885,12.51-18.13,12.51-18.13C750.006,592.47,752.385,594.539,755.04,596.47Z" transform="translate(-690.8 -584.529)" opacity="0.1"/>
        <path id="Path_369" data-name="Path 369" d="M754.159,594.748c-3.829,6-10.974,21.831-10.974,21.831l-7.615-9.449C744.422,602.257,748.08,589,748.08,589,749.147,590.759,751.525,592.829,754.159,594.748Z" transform="translate(-690.857 -584.642)" fill="#6c63ff"/>
        <path id="Path_370" data-name="Path 370" d="M747.9,686.14s-1.632,13.865-2.57,14.653" transform="translate(-690.208 -578.183)" opacity="0.1"/>
        <path id="Path_371" data-name="Path 371" d="M760.33,688.43s1.834,9.918,1.066,12.212" transform="translate(-689.211 -578.031)" opacity="0.1"/>
        <path id="Path_372" data-name="Path 372" d="M723.737,689s-1.675,9.311,0,10.377" transform="translate(-691.693 -577.994)" opacity="0.1"/>
        <path id="Path_373" data-name="Path 373" d="M714.47,687.71s-1.387,10.995-1.067,12.979" transform="translate(-692.334 -578.079)" opacity="0.1"/>
        <path id="Path_374" data-name="Path 374" d="M762.728,637.47s-4.266,3.359-3.968,4.266" transform="translate(-689.316 -581.419)" opacity="0.1"/>
        <path id="Path_375" data-name="Path 375" d="M765.666,639.48s-8.169,6.868-4.085,6.1S765.666,639.48,765.666,639.48Z" transform="translate(-689.204 -581.286)" opacity="0.1"/>
      </g>
      <path id="Path_376" data-name="Path 376" d="M354.863,461.325l.053-.075-.1-.075h0l-.576-.384.117.085a1.909,1.909,0,0,0-2.517.555l-.234.331h0L338.653,480.4l-2.261,3.317c-6.836-2.058-17.938,6.6-23.559,11.571-.352.309-.682.6-.981.874-.448-1-.714-1.642-.714-1.642-.277,3.05-11.049,7.625-13.566,9.289a9.062,9.062,0,0,1-3.754,1.258c.363-11.592-8.606-23.793-8.606-23.793L263.3,453.39a24.615,24.615,0,0,1,2.24-14.792c.181-.363.363-.725.565-1.067h.107a24.252,24.252,0,0,0-1.376,7.284c.053,1.887,1.8,11.038,4.266,10.665a1.344,1.344,0,0,0,1.258-.6c1.962-2.282,2.133-6.164,2.037-9.758a19.994,19.994,0,0,1-.352,3.146c.16-2.986-.181-6.143-.181-8.393,0-.9,0-1.781.064-2.677h.267v0h.277a29.448,29.448,0,0,0,13.384-6.207,7.178,7.178,0,0,0,5.034-2.357,4.9,4.9,0,0,1-.949,4.565c2.933-.139,5.418-2.421,6.548-5.1a17.789,17.789,0,0,0,.832-8.532,59.279,59.279,0,0,1-.629-8.671,31.891,31.891,0,0,0,.256-4.724,9.108,9.108,0,0,0-.256-1.429h.085a2.132,2.132,0,0,0,1.525-.6c1.216-.939,1.61-2.773,1.92-4.181a35.6,35.6,0,0,0,1.13-9.929c-.064,1.013-.192,2.037-.341,3.05.267-3.839-.267-7.572-2.8-10.355-1.749-1.909-4.191-3.029-6.537-4.148a4.79,4.79,0,0,1-2.133-1.525,6.172,6.172,0,0,1-.661-2.645c-.821-5.61-6.1-9.513-11.358-11.731-6.762-2.943-14.931-4.2-21.383-.7-3.2,1.7-5.652,4.351-8.532,6.516-3.6,2.741-7.764,4.661-11.614,7.049s-7.465,5.418-9.353,9.534c-2.826,6.4-.7,13.651-.352,20.594.565,10.931-3.935,22.4-12.851,28.8a11.525,11.525,0,0,0-2.826,2.442,3.05,3.05,0,0,0-.235,3.487c.459.6,1.184.938,1.685,1.5,1.013,1.152.811,2.912.416,4.383A27.483,27.483,0,0,1,205,458.936c.16,1.13,1.557,1.578,2.7,1.749a62.121,62.121,0,0,0,9.118.661h1.312c-.139.352-.288.725-.437,1.12-1.653,4.351-3.8,11.049-3.082,15.144,1.066,6.463,4.479,36.015,2.794,41.2s2.709,42.766,2.709,42.766.587,2.9,1.6,7.231c-2.634,6.207-5.642,13.1-7.145,15.859-3.029,5.535-1.536,33.8,8.905,46.36,0,0,4.266,6.1,3.2,8.308s.192,6.1.192,6.1L228.517,682a94.754,94.754,0,0,1-.768,11.177c-4.458,5.514-11.326,13.555-14.557,14.867-5,2.037-42.307,47.288-42.307,47.288s.3.544.885,1.429l-1.067,1.216-7.156,8.3-.565.65c-1.344-.256-10.292-1.877-17.384-2.389h-.7v-.128a26.529,26.529,0,0,0-7.465.2,2.4,2.4,0,0,0-1.237.64c-2.421,2.965-3.722,49.506-3.722,49.506s2.581,23.3,10.665,24.6a4.261,4.261,0,0,0,1.28.234h.352a11.136,11.136,0,0,0,9.6-5.983,9.268,9.268,0,0,0,.8-2.133s-.938-4.149,1.578-9.875,7.22-15.805,7.22-15.805,8.532-8.969,7.007-13.32c.235-.352.512-.736.81-1.173,3.2-4.564,9.684-13.576,14.931-19.591a15.446,15.446,0,0,1,1.066-1.152,26.2,26.2,0,0,0,5.951,1.717s8.02-3.135,11-10.153c1.269-2.986,6.25-8.276,11.55-13.363l-.171,1.354-.181,44.515a31.809,31.809,0,0,0,5.482,3.018v1.067a142.887,142.887,0,0,1-1.152,18.973l-.16.992c-.661-.469-1.237-.629-1.6-.266-1.642,1.664-2.666,12.286-2.762,17.181v.49c-.267,4.885-3.05,11.987,5.332,12.35,6.271.267,33.306.672,47.768.885a32.156,32.156,0,0,0,21.33-7.561c4.6-3.935,7.38-8.617,1.12-12.062-.384-.213-.789-.416-1.237-.619l-13.864-2.133-23.687-12.094s-.139-7.316-2.986-6.1a8.02,8.02,0,0,0-2.4.949c-.139-.267-.288-.554-.427-.853a27.25,27.25,0,0,1-2.922-12.328,8.726,8.726,0,0,1,.053-1.173,23.562,23.562,0,0,0,1.962-2.016s-.181-16.627,1.685-19.762,7.647-34.917,7.647-34.917.181-5.908,3.914-9.417,2.421-13.672,2.421-13.672,5.226-2.773,6.9-11.817,7.092-28.8,7.092-28.8,11.187-29.19,10.451-47.651,1.066-28.08,1.066-28.08l2.325-42.915v-.661c.928.7,1.557,1.28,1.557,1.28v-.469c.341.288.533.469.533.469s1.194-19.474.789-27.2c6.527-2.218,16.466-5.866,17.064-7.721.832-2.762,12.03-11.5,12.03-11.5a1.855,1.855,0,0,1-.683-.256c.352-.16.715-.352,1.066-.555,7.337-3.925,20.967-15.4,18.674-22.4l14.931-21.426A3.636,3.636,0,0,0,354.863,461.325Z" transform="translate(-89.544 -38.177)" fill="url(#linear-gradient-2)"/>
      <path id="Path_377" data-name="Path 377" d="M309.184,505.146a9.725,9.725,0,0,1-3.573,1.354c-4.661.139-8.532-12.478-8.532-12.478s1.322-1.344,3.434-3.2c6.25-5.556,19.357-15.816,25.5-10.078C332.946,487.155,317.258,500.806,309.184,505.146Z" transform="translate(-78.601 -30.253)" fill="#ecb4b6"/>
      <path id="Path_378" data-name="Path 378" d="M243.9,787.3l-17.2,18.568s-15.912.181-12.8-8.6a32.1,32.1,0,0,0,1.322-5.844,143.637,143.637,0,0,0,1.12-18.791c0-4.117-.064-7.008-.064-7.008s25.052-10.974,22.492.459a21.479,21.479,0,0,0-.512,4.351,27.239,27.239,0,0,0,2.858,12.211A27.649,27.649,0,0,0,243.9,787.3Z" transform="translate(-84.158 -11.516)" fill="#ecb4b6"/>
      <path id="Path_379" data-name="Path 379" d="M243.9,785.94l-17.2,18.568s-15.912.181-12.8-8.6a32.1,32.1,0,0,0,1.322-5.844c2.272,1.759,5.535,6.942,5.535,6.942s10.974,3.2,13.992-6.4c1.685-5.332,4.351-8.031,6.4-9.321A27.643,27.643,0,0,0,243.9,785.94Z" transform="translate(-84.158 -10.159)" opacity="0.1"/>
      <path id="Path_380" data-name="Path 380" d="M284.012,813.919a31.289,31.289,0,0,1-20.946,7.466c-14.184-.2-40.686-.618-46.84-.874-8.233-.363-5.5-7.391-5.236-12.233v-.48c.1-4.853,1.067-15.368,2.709-17.01s7.263,7.316,7.263,7.316,10.974,3.2,13.992-6.4,9.15-10.526,9.15-10.526c2.783-1.205,2.922,6.036,2.922,6.036l23.228,11.976,13.63,2.133c.437.2.832.406,1.205.608C291.254,805.387,288.523,810.016,284.012,813.919Z" transform="translate(-84.367 -10.176)" fill="#c17174"/>
      <circle id="Ellipse_33" data-name="Ellipse 33" cx="1.002" cy="1.002" r="1.002" transform="translate(155.728 783.277)" fill="#fff" opacity="0.25"/>
      <circle id="Ellipse_34" data-name="Ellipse 34" cx="1.002" cy="1.002" r="1.002" transform="translate(165.155 787.949)" fill="#fff" opacity="0.25"/>
      <circle id="Ellipse_35" data-name="Ellipse 35" cx="1.002" cy="1.002" r="1.002" transform="translate(169.997 790.114)" fill="#fff" opacity="0.25"/>
      <circle id="Ellipse_36" data-name="Ellipse 36" cx="1.002" cy="1.002" r="1.002" transform="translate(180.054 793.974)" fill="#fff" opacity="0.25"/>
      <circle id="Ellipse_37" data-name="Ellipse 37" cx="1.002" cy="1.002" r="1.002" transform="translate(174.935 792.332)" fill="#fff" opacity="0.25"/>
      <path id="Path_381" data-name="Path 381" d="M284.012,812.615a31.288,31.288,0,0,1-20.946,7.465c-14.184-.2-40.686-.618-46.84-.874-8.233-.363-5.5-7.391-5.236-12.233l51.693,3.2s21.17-3.2,22.4-9.513C291.254,804.083,288.523,808.712,284.012,812.615Z" transform="translate(-84.367 -8.872)" fill="#c17174"/>
      <path id="Path_382" data-name="Path 382" d="M284.012,812.615a31.288,31.288,0,0,1-20.946,7.465c-14.184-.2-40.686-.618-46.84-.874-8.233-.363-5.5-7.391-5.236-12.233l51.693,3.2s21.17-3.2,22.4-9.513C291.254,804.083,288.523,808.712,284.012,812.615Z" transform="translate(-84.367 -8.872)" fill="#fff" opacity="0.25"/>
      <path id="Path_383" data-name="Path 383" d="M191.43,742.678a35.7,35.7,0,0,0-5.183,5.2c-5.13,5.951-11.475,14.93-14.621,19.389-1.216,1.749-1.952,2.848-1.952,2.848l-6.868-1.014s-7.4-11.337-7.305-11.6,5.866-12.446,5.866-12.446l2.229-2.613,7.028-8.212,3.2-3.711S197.626,738.2,191.43,742.678Z" transform="translate(-88.013 -13.535)" fill="#ecb4b6"/>
      <path id="Path_384" data-name="Path 384" d="M171.625,766.549c-1.216,1.749-1.952,2.847-1.952,2.847l-6.868-1.013s-7.4-11.337-7.305-11.6,5.866-12.467,5.866-12.467l2.229-2.613.725.138h1.749c-6.132,6.4.448,20.477.448,20.477S169.354,762.582,171.625,766.549Z" transform="translate(-88.013 -12.792)" opacity="0.1"/>
      <path id="Path_385" data-name="Path 385" d="M165.311,781s-4.575,9.876-7.049,15.549-1.557,9.78-1.557,9.78a9.606,9.606,0,0,1-.779,2.133,10.772,10.772,0,0,1-9.364,5.93h-.448c-8.34-.213-10.985-24.422-10.985-24.422s1.28-46.083,3.658-49.058a2.282,2.282,0,0,1,1.205-.64,25.614,25.614,0,0,1,7.348-.2c7.54.544,17.234,2.4,17.234,2.4h1.738c-6.132,6.4.448,20.487.448,20.487s2.933.266,5.215,4.383S165.311,781,165.311,781Z" transform="translate(-89.367 -12.912)" fill="#c17174"/>
      <circle id="Ellipse_38" data-name="Ellipse 38" cx="1.002" cy="1.002" r="1.002" transform="translate(64.874 753.373)" fill="#fff" opacity="0.25"/>
      <circle id="Ellipse_39" data-name="Ellipse 39" cx="1.002" cy="1.002" r="1.002" transform="translate(64.373 761.361)" fill="#fff" opacity="0.25"/>
      <path id="Path_386" data-name="Path 386" d="M155.3,808.274a10.772,10.772,0,0,1-9.364,5.93H145.5c-8.34-.213-11-24.422-11-24.422s1.28-46.083,3.658-49.059a2.285,2.285,0,0,1,1.205-.64,25.616,25.616,0,0,1,7.348-.2c-.139,8.286-.533,34.469,0,37.071S151.969,801.331,155.3,808.274Z" transform="translate(-89.409 -12.924)" fill="#c17174"/>
      <path id="Path_387" data-name="Path 387" d="M155.3,808.274a10.772,10.772,0,0,1-9.364,5.93H145.5c-8.34-.213-11-24.422-11-24.422s1.28-46.083,3.658-49.059a2.285,2.285,0,0,1,1.205-.64,25.616,25.616,0,0,1,7.348-.2c-.139,8.286-.533,34.469,0,37.071S151.969,801.331,155.3,808.274Z" transform="translate(-89.409 -12.924)" fill="#fff" opacity="0.25"/>
      <path id="Path_388" data-name="Path 388" d="M145.485,814.2c-8.34-.213-11-24.423-11-24.423s1.28-46.083,3.658-49.058a2.279,2.279,0,0,1,1.205-.64c1.749,2.6,3.285,8.361,1.9,21.031-2.6,24.006.533,25.521.533,25.521S145.7,807.033,145.485,814.2Z" transform="translate(-89.41 -12.899)" fill="#c17174"/>
      <path id="Path_389" data-name="Path 389" d="M145.485,814.2c-8.34-.213-11-24.423-11-24.423s1.28-46.083,3.658-49.058a2.279,2.279,0,0,1,1.205-.64c1.749,2.6,3.285,8.361,1.9,21.031-2.6,24.006.533,25.521.533,25.521S145.7,807.033,145.485,814.2Z" transform="translate(-89.41 -12.899)" opacity="0.1"/>
      <path id="Path_390" data-name="Path 390" d="M309.184,504.413a9.721,9.721,0,0,1-3.573,1.355c-4.661.139-8.532-12.478-8.532-12.478s1.322-1.344,3.434-3.2C302.039,493.5,306.241,502.707,309.184,504.413Z" transform="translate(-78.601 -29.519)" opacity="0.1"/>
      <path id="Path_391" data-name="Path 391" d="M280.673,499.918s3.839.277,6.3-1.365,13.032-6.175,13.31-9.193c0,0,6.3,15.357,9.876,15.912,0,0-10.974,8.639-11.8,11.379s-22.225,9.471-22.225,9.471Z" transform="translate(-79.993 -29.568)" fill="#ff748e"/>
      <path id="Path_392" data-name="Path 392" d="M280.673,499.918s3.839.277,6.3-1.365,13.032-6.175,13.31-9.193c0,0,6.3,15.357,9.876,15.912,0,0-10.974,8.639-11.8,11.379s-22.225,9.471-22.225,9.471Z" transform="translate(-79.993 -29.568)" opacity="0.1"/>
      <path id="Path_393" data-name="Path 393" d="M190.488,742.678a35.709,35.709,0,0,0-5.183,5.2c-8.276-3.466-13.608-10.548-15.635-13.651l3.2-3.711S196.684,738.2,190.488,742.678Z" transform="translate(-87.071 -13.535)" opacity="0.1"/>
      <path id="Path_394" data-name="Path 394" d="M229.618,669S216.2,686.928,211.3,688.943s-41.476,46.818-41.476,46.818,7.86,14.451,22.311,16.819c0,0,7.86-3.1,10.793-10.057s25.969-26.6,25.969-26.6Z" transform="translate(-87.061 -17.625)" fill="#5e5a6b"/>
      <path id="Path_395" data-name="Path 395" d="M229.618,669S216.2,686.928,211.3,688.943s-41.476,46.818-41.476,46.818,7.86,14.451,22.311,16.819c0,0,7.86-3.1,10.793-10.057s25.969-26.6,25.969-26.6Z" transform="translate(-87.061 -17.625)" opacity="0.1"/>
      <path id="Path_396" data-name="Path 396" d="M187.78,725.255a58.47,58.47,0,0,0,12.211,0C207.211,724.561,201.772,728.956,187.78,725.255Z" transform="translate(-85.867 -13.89)" opacity="0.1"/>
      <path id="Path_397" data-name="Path 397" d="M184.69,729.62s9.6,5.482,13.31,2.741S194.427,735.006,184.69,729.62Z" transform="translate(-86.072 -13.595)" opacity="0.1"/>
      <path id="Path_398" data-name="Path 398" d="M238.612,766.085a21.483,21.483,0,0,0-.512,4.351c-7.412,6.73-16.339,4.65-21.916,2.2,0-4.117-.064-7.007-.064-7.007S241.172,754.61,238.612,766.085Z" transform="translate(-83.983 -11.518)" opacity="0.1"/>
      <path id="Path_399" data-name="Path 399" d="M283.543,542.136l-.266,5.055-2.282,42.5s-1.834,9.513-1.066,27.793-10.281,47.245-10.281,47.245-5.333,19.57-6.953,28.528-6.761,11.731-6.761,11.731,1.28,10.057-2.378,13.534-3.839,9.321-3.839,9.321-5.674,31.461-7.465,34.576-1.653,19.57-1.653,19.57c-11.881,14.078-29.254,1.28-29.254,1.28l.181-44.078s4.938-40.6,8.6-46.275,3.658-21.212,3.658-21.212l-1.632-36.26s-1.3-3.84-.181-6.036-3.125-8.223-3.125-8.223c-10.249-12.446-11.731-40.431-8.734-45.859s11.859-27.43,11.859-27.43L234.2,540.76l22.108.65Z" transform="translate(-84.474 -26.151)" fill="#5e5a6b"/>
      <path id="Path_400" data-name="Path 400" d="M230.1,744.15s2.89,10.014,5.215,11.113S230.1,744.15,230.1,744.15Z" transform="translate(-83.054 -12.629)" opacity="0.1"/>
      <path id="Path_401" data-name="Path 401" d="M233.83,712.9s7.465,5.908,10.665,5.9S233.83,712.9,233.83,712.9Z" transform="translate(-82.806 -14.706)" opacity="0.1"/>
      <path id="Path_402" data-name="Path 402" d="M279.8,485.169v12.073l-7.967-3.434-7.945-3.423-17.3-17.01s-13.683-8.884-21-16.978c-4.181-4.618-6.282-8.98-2.6-11.283a22.923,22.923,0,0,0,4.789-4.191,78.732,78.732,0,0,0,9.534-14.078c.117-.2.235-.405.341-.608,3.562-6.537,5.919-12.115,5.919-12.115s10.025,3.2,16.467,7.764c.523.363,1.013.736,1.482,1.12,3.594,2.944,5.386,6.4,2.069,9.769a25.581,25.581,0,0,0-2.357,2.816h0a23.109,23.109,0,0,0-1.472,2.3c-.192.363-.384.715-.555,1.066a24.594,24.594,0,0,0-2.2,14.643Z" transform="translate(-83.653 -34.57)" fill="#ecb4b6"/>
      <path id="Path_403" data-name="Path 403" d="M274.8,400.434c.416.725.992,1.344,1.376,2.079a9.99,9.99,0,0,1,.608,5.119,29.114,29.114,0,0,0,.533,8.169c.565,2.41,1.621,4.735,1.706,7.209.117,3.487-1.7,6.719-3.445,9.737a7.007,7.007,0,0,0,5.013-2.336,4.864,4.864,0,0,1-.917,4.511c2.869-.139,5.332-2.4,6.4-5.044a17.584,17.584,0,0,0,.821-8.532,58.226,58.226,0,0,1-.618-8.585,31.4,31.4,0,0,0,.245-4.682c-.267-3.1-2.133-5.8-4.01-8.319l-3.711-5.1a2.623,2.623,0,0,0-1.066-.97C274.223,392.2,273.818,398.664,274.8,400.434Z" transform="translate(-80.113 -35.943)" fill="#464353"/>
      <path id="Path_404" data-name="Path 404" d="M262.638,432.774a25.556,25.556,0,0,0-2.357,2.815h0a23.1,23.1,0,0,0-1.472,2.3c-.192.363-.384.715-.555,1.067A28.8,28.8,0,0,1,236.7,427.314c-.117-.16-.235-.32-.341-.49.117-.2.235-.405.341-.608,3.562-6.537,5.919-12.115,5.919-12.115s10.025,3.2,16.467,7.764c.523.362,1.013.736,1.482,1.12C264.121,425.949,265.912,429.361,262.638,432.774Z" transform="translate(-82.637 -34.571)" opacity="0.1"/>
      <path id="Path_405" data-name="Path 405" d="M288.971,411.234a28.8,28.8,0,0,1-23.587,28.327,29.139,29.139,0,0,1-5.219.468H259.1a28.8,28.8,0,1,1,29.861-28.8Z" transform="translate(-82.969 -36.675)" fill="#ecb4b6"/>
      <path id="Path_406" data-name="Path 406" d="M262.569,477.864s14.5,8.18,10.793,1.28l-18.93-27.985h0l21.49,27.611s13.715,18.845,6.218,31.824c0,0-1.066,10.793.181,13.352s-.363,29.862-.363,29.862-5.13-4.757-7.871-3.85S252,552.487,252,552.487Z" transform="translate(-81.598 -32.107)" opacity="0.1"/>
      <path id="Path_407" data-name="Path 407" d="M280.635,542.1l-.267,5.055c-1.738-1.258-4.159-2.666-5.77-2.133-2.741.917-22.119,2.571-22.119,2.571l.885-6.3Z" transform="translate(-81.566 -26.115)" opacity="0.1"/>
      <path id="Path_408" data-name="Path 408" d="M263.081,477.864s14.515,8.18,10.793,1.28l-18.93-27.985h0l21.49,27.611s13.715,18.845,6.217,31.824c0,0-1.066,10.793.181,13.352s-.363,29.862-.363,29.862-5.119-4.757-7.86-3.85-22.13,2.57-22.13,2.57Z" transform="translate(-81.566 -32.107)" fill="#464353"/>
      <path id="Path_409" data-name="Path 409" d="M273.591,492.648c-.843,8.8-4.458,19.261-4.458,19.261s-2.56,25.969-5.876,33.69-1.834,18.29-3.658,37.86c-.661,7.049-2.933,11.891-5.994,15.155-5.034,5.332-12.222,6.495-17.9,6.164l-1.344-.107c-9.151-.907-17.928-44.984-17.928-44.984s-4.2-37.5-2.56-42.659-1.621-34.351-2.719-40.75c-.7-4.063,1.4-10.665,3.018-14.995.949-2.5,1.728-4.266,1.728-4.266s3.114-9.876,8.233-14.995a7.552,7.552,0,0,1,5.428-2.282,13.576,13.576,0,0,1,6.772,2.133,1.871,1.871,0,0,1,.235.16s33.3,34.021,36.4,41.881C273.836,486.121,273.921,489.257,273.591,492.648Z" transform="translate(-84.322 -32.866)" opacity="0.1"/>
      <path id="Path_410" data-name="Path 410" d="M272.571,492.137c-.853,8.788-4.468,19.25-4.468,19.25s-2.56,25.98-5.855,33.658-1.824,18.29-3.658,37.86c-.661,7.039-2.933,11.881-5.994,15.155-5.034,5.332-12.222,6.484-17.9,6.164l-1.344-.107c-9.15-.917-17.928-44.995-17.928-44.995s-4.2-37.487-2.559-42.606-1.642-34.383-2.741-40.793c-.7-4.053,1.4-10.665,3.018-14.994.949-2.5,1.728-4.213,1.728-4.213s3.114-9.876,8.233-14.995a7.465,7.465,0,0,1,5.428-2.272,13.354,13.354,0,0,1,6.772,2.133l.235.149s33.3,34.021,36.4,41.881C272.806,485.6,272.923,488.746,272.571,492.137Z" transform="translate(-84.39 -32.899)" fill="#ff748e"/>
      <path id="Path_411" data-name="Path 411" d="M234.355,614.38s-7.551,6.719-10.153,6.4S234.355,614.38,234.355,614.38Z" transform="translate(-83.469 -21.256)" opacity="0.1"/>
      <path id="Path_412" data-name="Path 412" d="M236.248,620.436s-7.956,3.69-10.334,4.266S233.176,619.487,236.248,620.436Z" transform="translate(-83.357 -20.86)" opacity="0.1"/>
      <path id="Path_413" data-name="Path 413" d="M264.44,525.771s11.8.139,13.576,3.839S268.237,524.256,264.44,525.771Z" transform="translate(-80.77 -27.158)" opacity="0.1"/>
      <path id="Path_414" data-name="Path 414" d="M262.89,531.8s9.055,1.92,11.8,4.117S262.89,531.8,262.89,531.8Z" transform="translate(-80.873 -26.746)" opacity="0.1"/>
      <path id="Path_415" data-name="Path 415" d="M249.005,510.84s-1.066,37.167-5.14,41.977S249.005,510.84,249.005,510.84Z" transform="translate(-82.207 -28.14)" opacity="0.1"/>
      <path id="Path_416" data-name="Path 416" d="M239.218,609.517s-7.572,32.784,7.615,34.81S257.327,607,257.327,607Z" transform="translate(-82.573 -21.747)" opacity="0.1"/>
      <path id="Path_417" data-name="Path 417" d="M238.7,609.006s-7.529,32.784,7.625,34.831,10.484-37.327,10.484-37.327Z" transform="translate(-82.606 -21.779)" fill="#ecb4b6"/>
      <path id="Path_418" data-name="Path 418" d="M290.013,408.055a11.086,11.086,0,0,1-1.067-1.994c-2.016-4.2-7.2-2.133-11-.139l-2.026,2.613a16.265,16.265,0,0,0-2.314,3.573,27.017,27.017,0,0,0-.97,3.2c-.523,1.856-1.29,3.626-1.984,5.439a63.231,63.231,0,0,0-4.042,18.813,29.164,29.164,0,0,1-5.226.469h-.128V439.9c.192-.725.352-1.461.5-2.2h0a38.052,38.052,0,0,0,.288-12.585v-.277c-.139-.928-.32-1.866-.395-2.794-.352.64-.693,1.29-1.066,1.951-2.293,4.266-4.7,8.532-9.033,10.4a18.529,18.529,0,0,1-5.492,1.237,31.333,31.333,0,0,0-6.868,1.141,4.268,4.268,0,0,0-1.994,1.205,5.887,5.887,0,0,0-1,3.007,24.235,24.235,0,0,1-1.067,4.17,36.557,36.557,0,0,1-8.958,13.352l-.992.96a18.572,18.572,0,0,1-5.93,4.106,18.132,18.132,0,0,1-6.282.938c.949-2.5,1.728-4.213,1.728-4.213s3.114-9.875,8.233-14.995a7.465,7.465,0,0,1,5.428-2.272,80.544,80.544,0,0,0,9.876-14.685,28.795,28.795,0,1,1,51.8-20.263Z" transform="translate(-84.192 -36.674)" opacity="0.1"/>
      <path id="Path_419" data-name="Path 419" d="M292.623,386.805c-1.706-1.9-4.106-3.007-6.4-4.106a4.877,4.877,0,0,1-2.08-1.515,6.336,6.336,0,0,1-.64-2.613c-.8-5.567-5.983-9.417-11.134-11.678-6.633-2.912-14.6-4.159-20.967-.7-3.093,1.685-5.535,4.319-8.329,6.463-3.541,2.709-7.615,4.607-11.39,6.975s-7.38,5.332-9.172,9.449c-2.773,6.292-.693,13.512-.341,20.381.544,10.835-3.861,22.151-12.606,28.56a11.009,11.009,0,0,0-2.773,2.421,3.04,3.04,0,0,0-.224,3.445c.437.6,1.162.938,1.642,1.493,1,1.141.8,2.879.405,4.351a27.218,27.218,0,0,1-7.316,12.51c.149,1.131,1.514,1.568,2.634,1.738a59.887,59.887,0,0,0,8.948.651,15.038,15.038,0,0,0,12.51-5.045c5.332-5.012,9.844-11.273,11.049-18.482a6.09,6.09,0,0,1,1-3.008,4.511,4.511,0,0,1,1.994-1.205c3.978-1.365,8.532-.693,12.36-2.378,4.991-2.133,7.465-7.465,10.078-12.35.085.928.256,1.867.405,2.805a37.927,37.927,0,0,1-.747,15.058c-.715,2.784-1.749,5.557-1.674,8.425.053,2.133,2.218,13.278,5.066,9.94s1.8-10.718,1.8-14.856a63.507,63.507,0,0,1,4.191-22.663c.682-1.8,1.461-3.583,1.984-5.439a29.134,29.134,0,0,1,.96-3.2,16.716,16.716,0,0,1,2.325-3.573l2.037-2.613c3.8-2.016,8.98-4.063,11,.139.768,1.61,1.184,3.392,3.2,1.824,1.184-.928,1.568-2.752,1.877-4.138C295.566,398.057,296.611,391.221,292.623,386.805Z" transform="translate(-84.968 -37.895)" fill="#464353"/>
      <path id="Path_420" data-name="Path 420" d="M253.089,480.869c-.779-19.7-28.347-23.772-34.778-5.141a2.688,2.688,0,0,0-.128.384c-4.213,12.616-2.378,44.568-2.378,44.568s.544,21.458,2.56,28.592,7.679,27.611,7.679,30.928,5.258,15.912,7.465,16.829,3.327,8.041,3.871,9.321,2.133,17.927,2.133,17.927S260.181,623,260.544,619.7s-4.575-19.389-4.575-19.389-3.637-6.58-4.106-11.88-3.328-7.711-2.762-11.369-1.653-5.482-1.653-7.86-1.642-8.777-1.642-8.777-3.477-2.751-2.922-6.036-4.938-9.876-3.477-12.254,1.824-8.233,1.824-8.233,1.834-26.332,3.114-33.466,8.777-18.653,8.777-18.653S253.11,481.456,253.089,480.869Z" transform="translate(-84.03 -31.272)" opacity="0.1"/>
      <path id="Path_421" data-name="Path 421" d="M252.372,596.468c-5.034,5.332-12.222,6.484-17.9,6.164-.661-2.5-1.621-5.567-3.018-6.143-2.218-.917-7.465-13.534-7.465-16.818s-5.663-23.783-7.679-30.928-2.559-28.582-2.559-28.582-1.834-31.994,2.378-44.579a1.109,1.109,0,0,1,.128-.373c6.4-18.642,34-14.558,34.778,5.141v.906s-7.465,11.518-8.777,18.653-3.093,33.466-3.093,33.466-.373,5.855-1.834,8.233,4.021,8.969,3.477,12.254,2.922,6.036,2.922,6.036,1.642,6.4,1.642,8.788,2.2,4.2,1.653,7.86,2.378,6.036,2.848,11.337A29.571,29.571,0,0,0,252.372,596.468Z" transform="translate(-84.167 -31.307)" opacity="0.1"/>
      <path id="Path_422" data-name="Path 422" d="M252.059,480.359c-.779-19.7-28.347-23.772-34.778-5.14l-.128.373c-4.213,12.627-2.378,44.579-2.378,44.579s.544,21.447,2.559,28.581,7.679,27.622,7.679,30.928,5.258,15.912,7.465,16.829,3.327,8.052,3.871,9.332,2.133,17.917,2.133,17.917,20.668-1.28,21.031-4.565-4.565-19.389-4.565-19.389-3.647-6.591-4.117-11.891-3.391-7.679-2.837-11.337-1.653-5.492-1.653-7.871-1.642-8.777-1.642-8.777-3.477-2.741-2.922-6.036-4.938-9.875-3.477-12.254,1.824-8.222,1.824-8.222,1.834-26.342,3.114-33.477,8.777-18.653,8.777-18.653A4.658,4.658,0,0,0,252.059,480.359Z" transform="translate(-84.099 -31.306)" fill="#ff748e"/>
      <path id="Path_423" data-name="Path 423" d="M217.88,527.341c.544-.554,10.974-12.072,14.259-7.956S217.88,527.341,217.88,527.341Z" transform="translate(-83.866 -27.631)" opacity="0.1"/>
      <path id="Path_424" data-name="Path 424" d="M218.78,535.641c.405-.416,10.42-.821,12.894-6.4S218.78,535.641,218.78,535.641Z" transform="translate(-83.806 -27.015)" opacity="0.1"/>
      <g id="Group_152" data-name="Group 152" transform="translate(116.641 356.141)" opacity="0.1">
        <path id="Path_425" data-name="Path 425" d="M208.211,440.583a2.827,2.827,0,0,1,.544.992,4.266,4.266,0,0,0-.544-3.733c-.491-.565-1.205-.9-1.653-1.493,0,0-.053-.1-.085-.149a2.826,2.826,0,0,0,.085,2.89C207.059,439.688,207.72,440.029,208.211,440.583Z" transform="translate(-201.289 -389.243)"/>
        <path id="Path_426" data-name="Path 426" d="M221.238,407.9v-3.114c-.192-3.733-.885-7.562-1.067-11.3-.224,4.586.8,9.4,1.067,14.046C221.238,407.632,221.228,407.749,221.238,407.9Z" transform="translate(-200.357 -392.083)"/>
        <path id="Path_427" data-name="Path 427" d="M261.566,450.5c-2.538,2.976-4.533-5.588-4.97-8.969a14.117,14.117,0,0,0-.1,1.77c.064,2.133,2.219,13.278,5.066,9.94,1.93-2.261,2.133-6.111,2.005-9.662C263.432,446.3,263.006,448.814,261.566,450.5Z" transform="translate(-197.94 -388.888)"/>
        <path id="Path_428" data-name="Path 428" d="M262.571,421.516a36.7,36.7,0,0,1,.395,4.33,37.491,37.491,0,0,0-.395-7.082c-.139-.928-.32-1.866-.405-2.8-2.634,4.927-5.076,10.2-10.068,12.361-3.871,1.674-8.383,1.013-12.36,2.378a4.263,4.263,0,0,0-1.994,1.205,5.95,5.95,0,0,0-1,3.008c-1.216,7.209-5.738,13.47-11.059,18.482a15.037,15.037,0,0,1-12.51,5.045,61.141,61.141,0,0,1-8.937-.651,6.745,6.745,0,0,1-1.344-.352c-.416.47-.853.917-1.3,1.355.149,1.13,1.525,1.568,2.645,1.738a59.7,59.7,0,0,0,8.937.65,15.036,15.036,0,0,0,12.51-5.044c5.332-5.012,9.844-11.272,11.059-18.482a5.982,5.982,0,0,1,1-3.007,4.395,4.395,0,0,1,1.994-1.205c3.978-1.365,8.532-.693,12.36-2.378,4.991-2.133,7.465-7.465,10.068-12.35C262.251,419.639,262.433,420.578,262.571,421.516Z" transform="translate(-201.59 -390.588)"/>
        <path id="Path_429" data-name="Path 429" d="M290.508,399.262c-.309,1.386-.7,3.2-1.888,4.138-2,1.557-2.41-.213-3.2-1.824-2.016-4.2-7.2-2.133-11-.139l-2.037,2.613a16.267,16.267,0,0,0-2.314,3.573,25.15,25.15,0,0,0-.96,3.2c-.533,1.856-1.3,3.626-1.994,5.428a63.824,63.824,0,0,0-4.181,22.662v1.131A63.675,63.675,0,0,1,267.11,419c.693-1.8,1.461-3.583,1.995-5.439a25.091,25.091,0,0,1,.96-3.2,16.249,16.249,0,0,1,2.314-3.573l2.037-2.613c3.8-2.016,8.98-4.063,11,.139.779,1.611,1.184,3.391,3.2,1.824,1.184-.928,1.578-2.751,1.888-4.138a36.167,36.167,0,0,0,1.067-9.833A47.05,47.05,0,0,1,290.508,399.262Z" transform="translate(-197.511 -392.17)"/>
      </g>
      <path id="Path_430" data-name="Path 430" d="M312.208,498.713l.565.384a2.261,2.261,0,0,1-.586-3.2l25.425-36.836a2.25,2.25,0,0,1,3.146-.576l-.565-.395a3.637,3.637,0,0,1,.928,5.055l-23.857,34.628A3.647,3.647,0,0,1,312.208,498.713Z" transform="translate(-77.624 -31.647)" fill="#464353"/>
      <path id="Path_431" data-name="Path 431" d="M1.856,0h.523V49.335H1.856A1.856,1.856,0,0,1,0,47.48V1.866A1.856,1.856,0,0,1,1.856.011Z" transform="translate(261.311 425.529) rotate(34.56)" fill="#9f9eff"/>
      <rect id="Rectangle_1086" data-name="Rectangle 1086" width="0.459" height="4.021" rx="0.17" transform="translate(259.467 431.977) rotate(34.56)" fill="#464353"/>
      <path id="Path_432" data-name="Path 432" d="M843.916,341.375A18.418,18.418,0,1,1,825.5,323a18.418,18.418,0,0,1,18.418,18.375Zm-20.551,9.748,13.672-13.662a1.194,1.194,0,0,0,0-1.674l-1.685-1.685a1.173,1.173,0,0,0-1.674,0l-11.145,11.145-5.2-5.183a1.2,1.2,0,0,0-1.685,0l-1.675,1.685a1.173,1.173,0,0,0,0,1.674l7.721,7.722a1.174,1.174,0,0,0,1.674,0Z" transform="translate(-44.695 -40.628)" fill="#5a8f40"/>
      <path id="Path_433" data-name="Path 433" d="M634.706,530.918A18.418,18.418,0,1,1,616.288,512.5,18.417,18.417,0,0,1,634.706,530.918Zm-20.551,9.747L627.87,527a1.182,1.182,0,0,0,0-1.685l-1.728-1.621a1.183,1.183,0,0,0-1.685,0l-11.145,11.091-5.2-5.2a1.173,1.173,0,0,0-1.674,0l-1.685,1.674a1.206,1.206,0,0,0,0,1.685l7.721,7.721a1.183,1.183,0,0,0,1.685,0Z" transform="translate(-58.603 -28.029)" fill="#5a8f40"/>
      <path id="Path_434" data-name="Path 434" d="M634.706,719.578a18.418,18.418,0,1,1-18.418-18.418A18.418,18.418,0,0,1,634.706,719.578Zm-20.551,9.748,13.715-13.662a1.182,1.182,0,0,0,0-1.685L626.2,712.3a1.184,1.184,0,0,0-1.685,0l-11.145,11.144-5.2-5.2a1.172,1.172,0,0,0-1.674,0l-1.686,1.674a1.206,1.206,0,0,0,0,1.685l7.721,7.722a1.184,1.184,0,0,0,1.685,0Z" transform="translate(-58.603 -15.487)" fill="#5a8f40"/>
    </g>
  </g>
</svg>
