<svg xmlns="http://www.w3.org/2000/svg" xmlns:xlink="http://www.w3.org/1999/xlink" width="850" height="400" viewBox="0 0 850 400">
  <defs>
    <clipPath id="clip-custom_1">
      <rect width="850" height="400"/>
    </clipPath>
  </defs>
  <g id="custom_1" data-name="custom – 1" clip-path="url(#clip-custom_1)">
    <g id="Group_3" data-name="Group 3" transform="translate(-63 -4)">
      <g id="Rectangle_1" data-name="Rectangle 1" transform="translate(76 16)" fill="none" stroke="#0072ce" stroke-width="0">
        <rect width="824" height="375" stroke="none"/>
        <rect x="5.5" y="5.5" width="813" height="364" fill="none"/>
      </g>
      <g id="Group_2" data-name="Group 2" transform="translate(-15 -22)">
        <g id="price-tag" transform="translate(578 91)">
          <path id="Path_1" data-name="Path 1" d="M113.992,0H10.472A10.471,10.471,0,0,0,0,10.472V113.992a10.474,10.474,0,0,0,3.067,7.4L147.576,265.906a10.472,10.472,0,0,0,14.809,0L265.905,162.385a10.472,10.472,0,0,0,0-14.809L121.4,3.068A10.47,10.47,0,0,0,113.992,0ZM58.641,75.167A16.526,16.526,0,1,1,75.167,58.641,16.574,16.574,0,0,1,58.641,75.167Z" transform="translate(0 0)" fill="#65c561"/>
          <path id="Path_2" data-name="Path 2" d="M220.7,211.773a52.163,52.163,0,0,0,10.472-19.9c2.094-8.377-1.047-16.755-8.377-24.085-6.283-6.283-12.566-8.377-20.943-7.33a55.959,55.959,0,0,0-14.66,6.283l-8.377,5.236-23.038-23.038c5.236-4.189,10.472-5.236,14.66-4.189,3.142,0,7.33,2.094,11.519,5.236l8.377-8.377c-7.33-7.33-15.707-10.472-24.085-9.424a35.876,35.876,0,0,0-18.849,9.424L136.93,128l-7.33,7.33,11.519,11.519c-5.236,6.283-8.377,13.613-8.377,19.9q0,12.566,9.424,21.99c5.236,5.236,12.566,8.377,18.849,6.283,4.189-1.047,9.424-3.141,16.755-8.377l2.094-1.047L205,210.726c-6.283,4.189-11.519,6.283-17.8,5.236a26.34,26.34,0,0,1-12.566-7.33l-8.377,8.377c7.33,7.33,15.707,11.519,25.132,10.472q11,0,21.99-9.424l12.566,12.566,7.33-7.33Zm-60.736-30.368a11.817,11.817,0,0,1-11.519-3.141c-3.141-3.141-4.189-7.33-4.189-11.519,0-3.142,2.094-7.33,5.236-11.519l20.943,20.943A93.358,93.358,0,0,0,159.968,181.405Zm57.594,14.66c-1.047,3.141-3.142,5.236-5.236,7.33l-24.085-24.085c6.283-4.189,11.519-6.283,14.66-6.283,4.189-1.047,7.33,1.047,11.519,4.189C220.7,182.453,220.7,188.736,217.562,196.066Z" transform="translate(-44.78 -44.227)" fill="#fff"/>
          <path id="Path_3" data-name="Path 3" d="M78.543,68.072c6.283,0,10.472,4.189,10.472,10.472S84.826,89.015,78.543,89.015,68.072,84.826,68.072,78.543,72.26,68.072,78.543,68.072m0-10.472A20.943,20.943,0,1,0,99.487,78.543,21,21,0,0,0,78.543,57.6Z" transform="translate(-19.902 -19.902)" fill="#4778b3"/>
        </g>
        <g id="Group_1" data-name="Group 1">
          <text id="WOOKS" transform="translate(159 186)" fill="#0072ce" font-size="100" font-family="Roboto-Regular, Roboto"><tspan x="0" y="0">WOOKS</tspan></text>
          <text id="mart" transform="translate(159 327)" fill="#0072ce" font-size="161" font-family="JerseyM54, Jersey M54"><tspan x="0" y="0">mart</tspan></text>
        </g>
      </g>
    </g>
  </g>
</svg>
