<svg xmlns="http://www.w3.org/2000/svg" xmlns:xlink="http://www.w3.org/1999/xlink" width="1080" height="838" viewBox="0 0 1080 838">
  <defs>
    <clipPath id="clip-swiperFourGraphic">
      <rect width="1080" height="838"/>
    </clipPath>
  </defs>
  <g id="swiperFourGraphic" clip-path="url(#clip-swiperFourGraphic)">
    <rect width="1080" height="838" fill="#fff"/>
    <g id="Group_160" data-name="Group 160" transform="translate(2 26.001)">
      <path id="Path_471" data-name="Path 471" d="M1164.347,377.4V537.765H295.5V423.523a454.249,454.249,0,0,1,84.878-169.379L986.8,156.462A458.584,458.584,0,0,1,1039,196.257L679.515,333.384l397.974-98.918a457.929,457.929,0,0,1,44.35,58.354l-81.22,60.727,91.77-43.433a456.7,456.7,0,0,1,22.977,45.266Q1160.133,366.255,1164.347,377.4Z" transform="translate(-88.063 -82.262)" fill="#f2f2f2"/>
      <path id="Path_472" data-name="Path 472" d="M929.955,134.145a454.561,454.561,0,0,0-199.911-46c-140.986,0-267.035,63.929-350.756,164.374C522.654,221.1,772.265,166.725,929.955,134.145Z" transform="translate(-80.852 -88.141)" fill="#f2f2f2"/>
      <path id="Path_473" data-name="Path 473" d="M1164.347,367.168V644.815H302.19A13.43,13.43,0,0,1,295.5,633.2V402.71a63.084,63.084,0,0,1,63.1-63.092H1136.8a27.552,27.552,0,0,1,27.551,27.548Z" transform="translate(-88.063 -66.5)" fill="#2f2e41"/>
      <path id="Path_474" data-name="Path 474" d="M1022.322,611.429c0-11.036-5.6-19.983-12.508-19.983-4.342,0-8.166,3.536-10.409,8.9a6.274,6.274,0,0,0-2.391-.479,7.494,7.494,0,0,0-5.6,2.885c-2.022-6.691-6.308-11.307-11.271-11.307-4.639,0-8.686,4.038-10.845,10.032a6.834,6.834,0,0,0-4.281-1.61c-5.3,0-9.6,6.866-9.6,15.336a22.348,22.348,0,0,0,1.513,8.258h62.87A28.42,28.42,0,0,0,1022.322,611.429Z" transform="translate(-31.272 -44.828)" fill="#3f3d56"/>
      <path id="Path_475" data-name="Path 475" d="M435.823,607.04c0-15.8-5.6-28.6-12.509-28.6-4.342,0-8.166,5.061-10.408,12.741a4.7,4.7,0,0,0-2.391-.686c-2.091,0-4.024,1.534-5.6,4.129-2.022-9.577-6.309-16.184-11.271-16.184-4.64,0-8.686,5.78-10.846,14.359a5.809,5.809,0,0,0-4.281-2.3c-5.3,0-9.6,9.828-9.6,21.951a44.42,44.42,0,0,0,1.512,11.819H433.3a55.964,55.964,0,0,0,2.523-17.222Z" transform="translate(-81.745 -45.947)" fill="#3f3d56"/>
      <path id="Path_476" data-name="Path 476" d="M362.195,473.165h6.415a11.03,11.03,0,0,1,11,11v69.654a19.247,19.247,0,0,0,19.247,19.246h0A19.247,19.247,0,0,0,418.1,553.817V385.18a11.03,11.03,0,0,1,11-11h6.416a11.03,11.03,0,0,1,11,11V553.818a19.247,19.247,0,0,0,19.247,19.247h0a19.247,19.247,0,0,0,19.247-19.247V451.169a11.03,11.03,0,0,1,11-11h6.416a11.03,11.03,0,0,1,11,11V553.818a19.247,19.247,0,0,0,19.247,19.247h0a19.247,19.247,0,0,0,19.247-19.247V522.656a11.03,11.03,0,0,1,11-11h6.416a11.03,11.03,0,0,1,11,11v31.161a19.247,19.247,0,0,0,19.247,19.247h0a19.247,19.247,0,0,0,19.246-19.247V444.753a11.03,11.03,0,0,1,11-11h6.416a11.031,11.031,0,0,1,11,11V553.818a19.247,19.247,0,0,0,19.247,19.247h0a19.247,19.247,0,0,0,19.247-19.247V415.425a11.03,11.03,0,0,1,11-11h6.415a11.03,11.03,0,0,1,11,11V553.818a19.247,19.247,0,0,0,19.247,19.247h0a19.247,19.247,0,0,0,19.246-19.247V484.164a11.03,11.03,0,0,1,11-11h6.415a11.031,11.031,0,0,1,11,11v69.654a19.247,19.247,0,0,0,19.247,19.246h0a19.247,19.247,0,0,0,19.247-19.246V451.169a11.03,11.03,0,0,1,11-11h6.416a11.03,11.03,0,0,1,11,11V553.818a19.247,19.247,0,0,0,19.247,19.247h8.591a19.881,19.881,0,0,0,13.94-5.979,10.937,10.937,0,0,1,7.714-3.187h6.416a10.936,10.936,0,0,1,7.714,3.186,19.88,19.88,0,0,0,13.94,5.978h8.591a19.247,19.247,0,0,0,19.247-19.247V543.736a11.03,11.03,0,0,1,11-11h6.416a11.03,11.03,0,0,1,11,11v10.082A19.247,19.247,0,0,0,1001,573.064h0a19.246,19.246,0,0,0,19.246-19.247V444.753a11.031,11.031,0,0,1,11-11h6.415a11.03,11.03,0,0,1,11,11V553.817a19.247,19.247,0,0,0,19.247,19.246h0a19.246,19.246,0,0,0,19.247-19.246V484.163a11.031,11.031,0,0,1,11-11h6.415a10.97,10.97,0,0,1,8.249,3.76V370.679a38.655,38.655,0,0,0-38.656-38.655H384.529A33.334,33.334,0,0,0,351.2,365.357V484.164A11.031,11.031,0,0,1,362.195,473.165Z" transform="translate(-83.27 -67.153)" fill="#3f3d56"/>
      <rect id="Rectangle_1100" data-name="Rectangle 1100" width="5.384" height="212.679" transform="translate(811.23 285.439)" fill="#2f2e41"/>
      <path id="Path_477" data-name="Path 477" d="M910.493,386.573c.3,65.008-39.639,119.439-49.693,132.105-1.457,1.824-2.282,2.786-2.282,2.786s-1.146-1.3-3.1-3.758C844.89,504.481,810.851,457.712,805.9,400.2c-.037-.4-.073-.806-.1-1.21q-.467-5.9-.5-11.942a167.733,167.733,0,0,1,2.529-29.475c.082-.541.183-1.072.275-1.613,10.814-59.435,49.17-103.8,49.17-103.8a225.421,225.421,0,0,1,21.6,30.758c.166.275.33.55.486.825a251.514,251.514,0,0,1,13.262,25.635c.147.3.275.6.4.907C902.594,331.94,910.366,358.216,910.493,386.573Z" transform="translate(-44.19 -74.026)" fill="#6c63ff"/>
      <rect id="Rectangle_1101" data-name="Rectangle 1101" width="5.384" height="212.679" transform="translate(480.372 245.113)" fill="#2f2e41"/>
      <path id="Path_478" data-name="Path 478" d="M605.854,349.438c.343,74.368-51.979,134.9-51.979,134.9S501,424.291,500.654,349.923s51.979-134.9,51.979-134.9S605.512,275.07,605.854,349.438Z" transform="translate(-70.408 -77.222)" fill="#6c63ff"/>
      <path id="Path_479" data-name="Path 479" d="M464.147,390.744c-1.486,2.371-3.415,2.315-5.153,1.225s-2.629-2.8-1.143-5.172,6.525-3.413,6.525-3.413S465.634,388.373,464.147,390.744Z" transform="translate(-74.156 -62.733)" opacity="0.1"/>
      <path id="Path_480" data-name="Path 480" d="M788.2,416.9c-1.487,2.371-3.415,2.315-5.154,1.225s-2.629-2.8-1.143-5.172,6.525-3.413,6.525-3.413S789.685,414.533,788.2,416.9Z" transform="translate(-46.268 -60.482)" opacity="0.1"/>
      <path id="Path_481" data-name="Path 481" d="M610.651,403.345c.625,2.727-.778,4.051-2.778,4.51s-3.84-.122-4.465-2.849,2.2-7.027,2.2-7.027S610.026,400.618,610.651,403.345Z" transform="translate(-61.572 -61.477)" opacity="0.1"/>
      <path id="Path_482" data-name="Path 482" d="M900.1,494.485c.626,2.727-.777,4.051-2.777,4.51s-3.84-.121-4.466-2.849,2.2-7.027,2.2-7.027S899.478,491.757,900.1,494.485Z" transform="translate(-36.663 -53.634)" opacity="0.1"/>
      <path id="Path_483" data-name="Path 483" d="M586.653,444.441c1.075,4.687-1.336,6.963-4.774,7.752s-6.6-.209-7.675-4.9,3.782-12.078,3.782-12.078S585.577,439.753,586.653,444.441Z" transform="translate(-64.091 -58.272)" opacity="0.1"/>
      <path id="Path_484" data-name="Path 484" d="M709.572,466.317c-2.254,4.248-5.566,4.392-8.682,2.739s-4.854-4.476-2.6-8.724,10.762-6.66,10.762-6.66S711.826,462.068,709.572,466.317Z" transform="translate(-53.487 -56.684)" opacity="0.1"/>
      <path id="Path_485" data-name="Path 485" d="M832.454,510.884c-.627,4.768-3.68,6.061-7.177,5.6s-6.112-2.5-5.486-7.265,7.754-10,7.754-10S833.081,506.116,832.454,510.884Z" transform="translate(-42.951 -52.765)" opacity="0.1"/>
      <rect id="Rectangle_1102" data-name="Rectangle 1102" width="130.604" height="0.917" transform="matrix(0.696, -0.718, 0.718, 0.696, 429.791, 296.6)" fill="#3f3d56"/>
      <rect id="Rectangle_1103" data-name="Rectangle 1103" width="130.604" height="0.917" transform="matrix(0.696, -0.718, 0.718, 0.696, 438.956, 327.761)" fill="#3f3d56"/>
      <path id="Path_486" data-name="Path 486" d="M879.16,281.3l-71.533,73.834c.083-.541.184-1.072.275-1.613l70.773-73.045C878.839,280.754,879,281.029,879.16,281.3Z" transform="translate(-43.99 -71.589)" fill="#3f3d56"/>
      <rect id="Rectangle_1104" data-name="Rectangle 1104" width="130.604" height="0.917" transform="translate(765.268 355.291) rotate(-45.909)" fill="#3f3d56"/>
      <path id="Path_487" data-name="Path 487" d="M893.132,305.749l-87.123,89.918-1.292,1.338-.66-.642,1.852-1.906,86.82-89.616C892.876,305.144,893,305.447,893.132,305.749Z" transform="translate(-44.297 -69.492)" fill="#3f3d56"/>
      <path id="Path_488" data-name="Path 488" d="M543.309,291.718H531.848v-11.46h11.461Zm-10.579-.882h9.7v-9.7h-9.7Z" transform="translate(-67.723 -71.608)" fill="#2f2e41"/>
      <path id="Path_489" data-name="Path 489" d="M857.233,431.8H845.772V420.342h11.461Zm-10.58-.882h9.7v-9.7h-9.7Z" transform="translate(-40.707 -59.553)" fill="#2f2e41"/>
      <circle id="Ellipse_53" data-name="Ellipse 53" cx="13.674" cy="13.674" r="13.674" transform="translate(332.229 91.047)" fill="#6c63ff" opacity="0.4"/>
      <circle id="Ellipse_54" data-name="Ellipse 54" cx="9.592" cy="9.592" r="9.592" transform="translate(311.002 101.66)" fill="#6c63ff" opacity="0.4"/>
      <circle id="Ellipse_55" data-name="Ellipse 55" cx="28.639" cy="28.639" r="28.639" transform="translate(913.633 41.022)" fill="#6c63ff" opacity="0.4"/>
      <circle id="Ellipse_56" data-name="Ellipse 56" cx="20.09" cy="20.09" r="20.09" transform="translate(881.323 85.998)" fill="#6c63ff" opacity="0.4"/>
      <path id="Path_490" data-name="Path 490" d="M446.572,569.452l-.871-.017a201.913,201.913,0,0,1,3.09-28.85c3.764-20.4,10.023-33.8,18.6-39.829l.5.712C447.852,515.541,446.582,568.914,446.572,569.452Z" transform="translate(-75.137 -52.632)" fill="#2f2e41"/>
      <path id="Path_491" data-name="Path 491" d="M456.59,566.192l-.871-.017c.019-.964.563-23.683,9.507-29.962l.5.713C457.144,542.951,456.594,565.96,456.59,566.192Z" transform="translate(-74.275 -49.581)" fill="#2f2e41"/>
      <circle id="Ellipse_57" data-name="Ellipse 57" cx="4.352" cy="4.352" r="4.352" transform="translate(393.357 440.21)" fill="#6c63ff"/>
      <circle id="Ellipse_58" data-name="Ellipse 58" cx="4.352" cy="4.352" r="4.352" transform="translate(391.202 477.639)" fill="#6c63ff"/>
      <path id="Path_492" data-name="Path 492" d="M455.113,504.6a19.336,19.336,0,0,1-1.314,9.9,17.618,17.618,0,0,1-2.962-18.919A19.332,19.332,0,0,1,455.113,504.6Z" transform="translate(-74.826 -53.078)" fill="#2f2e41"/>
      <path id="Path_493" data-name="Path 493" d="M468.544,516.07a19.337,19.337,0,0,1-9.975.431,17.619,17.619,0,0,1,18.114-6.213A19.338,19.338,0,0,1,468.544,516.07Z" transform="translate(-74.03 -51.857)" fill="#2f2e41"/>
      <path id="Path_494" data-name="Path 494" d="M468.455,546.441a13.551,13.551,0,0,1-6.992.3,12.35,12.35,0,0,1,12.7-4.355A13.549,13.549,0,0,1,468.455,546.441Z" transform="translate(-73.78 -49.081)" fill="#2f2e41"/>
      <path id="Path_495" data-name="Path 495" d="M373.6,723.889H0v-2.172H372.518Z" transform="translate(0 62.11)" fill="#2f2e41"/>
      <path id="Path_496" data-name="Path 496" d="M178.231,781.92s-6.554,27.408-.6,28.6,35.154.807,42.3,2,22.046-.807,22.046-6.17-15.492-8.937-15.492-8.937S204.447,785.5,203.851,784.9,178.231,781.92,178.231,781.92Z" transform="translate(-98.421 -28.436)" fill="#2f2e41"/>
      <path id="Path_497" data-name="Path 497" d="M183.611,633.481s1.787,20.258,1.787,22.046-1.787,29.791,0,30.983-1.192,9.533-1.192,12.512-9.533,52.433-7.15,71.5-3.575,17.279-1.788,19.065,1.788,1.788,1.788,5.363,19.067,6.555,19.067,6.555l20.854-131.678L206.252,630.5Z" transform="translate(-98.439 -41.466)" fill="#575a89"/>
      <path id="Path_498" data-name="Path 498" d="M183.611,633.481s1.787,20.258,1.787,22.046-1.787,29.791,0,30.983-1.192,9.533-1.192,12.512-9.533,52.433-7.15,71.5-3.575,17.279-1.788,19.065,1.788,1.788,1.788,5.363,19.067,6.555,19.067,6.555l20.854-131.678L206.252,630.5Z" transform="translate(-98.439 -41.466)" opacity="0.1"/>
      <path id="Path_499" data-name="Path 499" d="M185.876,789.843s-5.958,21.449,0,22.641,35.154-1.365,42.3-.173,22.046,1.365,22.046-4-15.491-8.937-15.491-8.937-22.046-11.917-22.642-12.513S185.876,789.843,185.876,789.843Z" transform="translate(-97.725 -28.016)" fill="#2f2e41"/>
      <path id="Path_500" data-name="Path 500" d="M178.211,611.3s-7.15,17.279,1.192,26.216,17.875,26.812,17.875,28-16.683,119.762-14.3,127.508,1.787,12.512,1.192,13.7,5.958,7.746,13.108,7.746,17.875-5.362,19.067-10.129-1.788-45.879-1.192-53.625,3.575-19.067,4.767-21.45,7.746-4.767,8.937-11.916,10.725-98.312,7.746-101.291S178.211,611.3,178.211,611.3Z" transform="translate(-98.402 -43.119)" fill="#575a89"/>
      <circle id="Ellipse_59" data-name="Ellipse 59" cx="20.258" cy="20.258" r="20.258" transform="translate(104.834 390.625)" fill="#ffb9b9"/>
      <path id="Path_501" data-name="Path 501" d="M208.159,476.012s4.171,22.046,1.192,24.429,22.642,5.958,22.642,5.958,2.979-29.2,3.575-32.175S208.159,476.012,208.159,476.012Z" transform="translate(-95.579 -55)" fill="#ffb9b9"/>
      <path id="Path_502" data-name="Path 502" d="M238.424,503.391s-7.15-20.854-36.346-14.9c0,0-5.362,1.787-3.575,3.575s3.575,1.787,1.192,3.575-5.362,0-3.575,1.787-16.087,12.513-14.9,32.771-4.171,48.858,0,53.625-2.979,25.621-1.788,29.792-7.15,9.533-3.575,11.32,67.925,12.512,69.712,0,.6-3.575,2.383-6.554,2.383-8.341,1.192-14.9-4.171-22.641-2.979-28.6,0-56.008-3.575-61.966S238.424,503.391,238.424,503.391Z" transform="translate(-98.436 -53.779)" fill="#4444c8"/>
      <path id="Path_503" data-name="Path 503" d="M222.141,636.083s-8.938,33.962,2.383,33.962,10.725-35.154,10.725-35.154Z" transform="translate(-94.664 -41.089)" fill="#ffb9b9"/>
      <path id="Path_504" data-name="Path 504" d="M231.656,468.691c0,1.728-2.5,2.824-6.381,3.075h-.006a32.471,32.471,0,0,1-4.934-.1c-2.479-.226-3.5,2.1-3.926,5.178-.691,5.07.274,12.179-.84,13.293-1.537,1.537-12.745-.006-16.248-3.492a3.238,3.238,0,0,1-1.031-1.871,9.956,9.956,0,0,0-2.991-5.559c-2.068-2.258-5.011-4.761-8.33-8.741-5.958-7.15,0-7.746,1.787-13.108s4.767-7.15,4.767-10.725,13.7-6.554,25.025-5.958,8.937,14.9,8.937,14.9.673,1.728,1.478,3.956a62.132,62.132,0,0,1,2.645,8.592,4.334,4.334,0,0,1,.048.56Z" transform="translate(-97.625 -57.808)" fill="#2f2e41"/>
      <path id="Path_505" data-name="Path 505" d="M139.671,356.8v-5.362l-16.087,1.192-2.2,8.9,4.51,5.727,10.8-6.879Z" transform="translate(10.446 30.245)" fill="#575a89"/>
      <path id="Path_506" data-name="Path 506" d="M139.671,356.8v-5.362l-16.087,1.192-2.2,8.9,4.51,5.727,10.8-6.879Z" transform="translate(10.446 30.245)" opacity="0.1"/>
      <path id="Path_507" data-name="Path 507" d="M256.411,456.267l-10.725,2.979L234.961,465.8l-4.218,2.419-6.334,3.635H224.4l-8.86,5.083-17.088,9.8a3.238,3.238,0,0,1-1.031-1.871,9.956,9.956,0,0,0-2.991-5.559l33.664-19.68,2.693-1.573,16.087-18.47Z" transform="translate(-96.76 -57.896)" fill="#575a89"/>
      <path id="Path_508" data-name="Path 508" d="M227.564,510.356s-20.258-1.192-22.046,28.6-1.192,57.8-1.192,58.392,8.342,57.2,16.087,57.2,13.7-1.192,15.492-4.171-4.767-45.879-4.767-45.879-2.979-45.283,1.787-59.583S238.289,512.143,227.564,510.356Z" transform="translate(-95.917 -51.807)" opacity="0.1"/>
      <path id="Path_509" data-name="Path 509" d="M230.307,507.612s-20.258-1.192-22.046,28.6-1.192,57.8-1.192,58.391,8.342,57.2,16.087,57.2,13.7-1.192,15.492-4.171-4.767-45.879-4.767-45.879-2.979-45.283,1.788-59.583S241.032,509.4,230.307,507.612Z" transform="translate(-95.681 -52.043)" fill="#4444c8"/>
    </g>
  </g>
</svg>
