<svg xmlns="http://www.w3.org/2000/svg" xmlns:xlink="http://www.w3.org/1999/xlink" width="1080" height="838" viewBox="0 0 1080 838">
  <defs>
    <linearGradient id="linear-gradient" x1="0.5" y1="1" x2="0.5" gradientUnits="objectBoundingBox">
      <stop offset="0" stop-color="gray" stop-opacity="0.251"/>
      <stop offset="0.54" stop-color="gray" stop-opacity="0.122"/>
      <stop offset="1" stop-color="gray" stop-opacity="0.102"/>
    </linearGradient>
    <linearGradient id="linear-gradient-2" x1="0.5" x2="0.5" xlink:href="#linear-gradient"/>
    <clipPath id="clip-swiperOneGraphic">
      <rect width="1080" height="838"/>
    </clipPath>
  </defs>
  <g id="swiperOneGraphic" clip-path="url(#clip-swiperOneGraphic)">
    <rect width="1080" height="838" fill="#fff"/>
    <g id="Group_135" data-name="Group 135" transform="translate(0.01 4.019)">
      <path id="Path_64" data-name="Path 64" d="M1099.188,585.321c-.967.706-1.858,1.393-2.806,2.061a94.588,94.588,0,0,1-10.963,6.686c-19.912,10.5-44.459,15.626-68.368,19.109C963.43,620.995,908.685,622.514,854.173,624c-147.292,4.044-294.942,8.079-441.875-1.238-58.054-3.677-117.384-9.83-169.991-28.7Q231,590.023,220.13,585.147c-14.659-6.589-28.737-14.61-40.444-24.189-11-8.979-19.922-19.293-25.253-31.02-11.117-24.421-5.234-51.852,7.46-75.789a235.51,235.51,0,0,1,17.794-27.837c9.8-13.478,20.609-26.569,30.468-40.038,35.084-47.875,57.976-108.444,25.592-157.548-9.308-14.107-22.757-26.492-30.343-41.218-9.676-18.838-8.931-39.757-5.854-60.076q.6-3.87,1.268-7.663c5.254-30.13,15.142-62.592,45.63-81.4,31.668-19.545,76.64-18.558,115.943-11.611,61.121,10.914,117.5,33.632,174.48,54.145s116.591,39.254,179.212,41.267c55.3,1.78,119.794-11.543,156.493-46.172,35.645-33.632,102.649-36.2,150.94-15.878,33.149,13.943,57.879,39.06,68.31,67.313a87.872,87.872,0,0,1,4.538,17.532,80.87,80.87,0,0,1,.813,16.536c-.145,2.729-.426,5.428-.813,8.1-8.069,55.751-66.152,99.726-101.459,149.527-17.252,24.324-29.433,53.545-17.571,79.775,18.093,39.97,81.014,54.183,119.01,83.926a89.4,89.4,0,0,1,18.674,19.158C1133.45,528.457,1126.648,564.209,1099.188,585.321Z" transform="translate(-45.36 -21.485)" fill="#4444c8" opacity="0.1"/>
      <g id="flowers" transform="translate(-0.01 -0.019)">
        <path id="Path_65" data-name="Path 65" d="M293.131,339.934S248.623,261.059,181.552,238.34c-28.146-9.54-52.713-27.479-69.51-52A230.284,230.284,0,0,1,91.53,149.46" transform="translate(-43.5 -25.594)" fill="none" stroke="#535461" stroke-miterlimit="10" stroke-width="2"/>
        <path id="Path_66" data-name="Path 66" d="M47.744,133.261c7.644,7.383,43.231,15.123,43.231,15.123S82.266,113.049,74.6,105.627A19.283,19.283,0,1,0,47.743,133.3Z" transform="translate(-41.89 -23.995)" fill="#4444c8"/>
        <path id="Path_67" data-name="Path 67" d="M68.229,199.179c10.44,2.071,44.508-10.827,44.508-10.827s-26.56-24.924-37.009-26.995a19.281,19.281,0,1,0-7.5,37.826Z" transform="translate(-42.24 -25.968)" fill="#4444c8"/>
        <path id="Path_68" data-name="Path 68" d="M143.621,270.749c10.063-3.483,32.9-31.8,32.9-31.8s-35.49-8.118-45.543-4.635a19.283,19.283,0,1,0,12.578,36.438Z" transform="translate(-44.34 -28.318)" fill="#4444c8"/>
        <path id="Path_69" data-name="Path 69" d="M213.248,311.909c10.508-1.742,37.832-25.786,37.832-25.786s-33.6-14-44.111-12.269a19.284,19.284,0,0,0,6.279,38.054Z" transform="translate(-46.721 -29.624)" fill="#4444c8"/>
        <path id="Path_70" data-name="Path 70" d="M144.1,160.07c0,10.643-19.255,41.537-19.255,41.537s-19.293-30.875-19.3-41.518a19.284,19.284,0,1,1,38.557,0Z" transform="translate(-43.955 -25.299)" fill="#4444c8"/>
        <path id="Path_71" data-name="Path 71" d="M224.813,209.184c-3.183,10.159-30.807,33.865-30.807,33.865s-9.173-35.268-6.028-45.475A19.284,19.284,0,0,1,224.745,209.1Z" transform="translate(-46.608 -26.742)" fill="#4444c8"/>
        <path id="Path_72" data-name="Path 72" d="M296.627,267.817c-1.413,10.556-24.634,38.586-24.634,38.586s-15-33.168-13.546-43.724a19.282,19.282,0,1,1,38.221,5.138Z" transform="translate(-48.912 -28.724)" fill="#4444c8"/>
        <path id="Path_73" data-name="Path 73" d="M47.744,133.261c7.644,7.383,43.231,15.123,43.231,15.123S82.266,113.049,74.6,105.627A19.283,19.283,0,1,0,47.743,133.3Z" transform="translate(-41.89 -23.995)" fill="#e2c224" opacity="0.25"/>
        <path id="Path_74" data-name="Path 74" d="M68.229,199.179c10.44,2.071,44.508-10.827,44.508-10.827s-26.56-24.924-37.009-26.995a19.281,19.281,0,1,0-7.5,37.826Z" transform="translate(-42.24 -25.968)" fill="#e2c224" opacity="0.25"/>
        <path id="Path_75" data-name="Path 75" d="M143.621,270.749c10.063-3.483,32.9-31.8,32.9-31.8s-35.49-8.118-45.543-4.635a19.283,19.283,0,1,0,12.578,36.438Z" transform="translate(-44.34 -28.318)" fill="#e2c224" opacity="0.25"/>
        <path id="Path_76" data-name="Path 76" d="M213.248,311.909c10.508-1.742,37.832-25.786,37.832-25.786s-33.6-14-44.111-12.269a19.284,19.284,0,0,0,6.279,38.054Z" transform="translate(-46.721 -29.624)" opacity="0.25"/>
        <path id="Path_77" data-name="Path 77" d="M144.1,160.07c0,10.643-19.255,41.537-19.255,41.537s-19.293-30.875-19.3-41.518a19.284,19.284,0,1,1,38.557,0Z" transform="translate(-43.955 -25.299)" fill="#e2c224" opacity="0.25"/>
        <path id="Path_78" data-name="Path 78" d="M224.813,209.184c-3.183,10.159-30.807,33.865-30.807,33.865s-9.173-35.268-6.028-45.475A19.284,19.284,0,0,1,224.745,209.1Z" transform="translate(-46.608 -26.742)" opacity="0.25"/>
        <path id="Path_79" data-name="Path 79" d="M296.627,267.817c-1.413,10.556-24.634,38.586-24.634,38.586s-15-33.168-13.546-43.724a19.282,19.282,0,1,1,38.221,5.138Z" transform="translate(-48.912 -28.724)" opacity="0.25"/>
        <path id="Path_80" data-name="Path 80" d="M293.649,336.122s-8.708-90.157-60.84-138.11c-21.857-20.125-37.048-46.443-42.476-75.7A230.407,230.407,0,0,1,186.54,80.27" transform="translate(-46.582 -23.349)" fill="none" stroke="#535461" stroke-miterlimit="10" stroke-width="2"/>
        <path id="Path_81" data-name="Path 81" d="M152.742,47.951c3.986,9.879,33.41,31.31,33.41,31.31s6.337-35.848,2.361-45.727a19.3,19.3,0,1,0-35.8,14.417Z" transform="translate(-45.44 -21.441)" fill="#4444c8"/>
        <path id="Path_82" data-name="Path 82" d="M144.726,116.514c8.708,6.125,45.059,8.127,45.059,8.127s-14.1-33.536-22.805-39.66a19.3,19.3,0,1,0-22.254,31.533Z" transform="translate(-44.961 -23.388)" fill="#4444c8"/>
        <path id="Path_83" data-name="Path 83" d="M184.7,212.478c10.643.9,43-15.732,43-15.732s-29.153-21.8-39.767-22.689a19.283,19.283,0,1,0-3.232,38.422Z" transform="translate(-45.936 -26.388)" fill="#4444c8"/>
        <path id="Path_84" data-name="Path 84" d="M231.666,278.338c10.314,2.67,45.04-8.244,45.04-8.244s-25.05-26.414-35.355-29.085a19.282,19.282,0,1,0-9.676,37.331Z" transform="translate(-47.578 -28.543)" fill="#4444c8"/>
        <path id="Path_85" data-name="Path 85" d="M229.96,111.521c-4.306,9.734-34.436,30.159-34.436,30.159s-5.128-36.032-.822-45.775a19.282,19.282,0,1,1,35.26,15.618Z" transform="translate(-46.791 -23.484)" fill="#4444c8"/>
        <path id="Path_86" data-name="Path 86" d="M283.6,189.037c-7.024,8-41.886,18.481-41.886,18.481s5.883-35.916,12.917-43.918A19.276,19.276,0,1,1,283.6,189.037Z" transform="translate(-48.372 -25.84)" fill="#4444c8"/>
        <path id="Path_87" data-name="Path 87" d="M325.721,271.815c-5.573,9.076-38.161,25.292-38.161,25.292s-.271-36.4,5.3-45.475a19.3,19.3,0,1,1,32.9,20.183Z" transform="translate(-49.859 -28.609)" fill="#4444c8"/>
      </g>
      <ellipse id="Ellipse_12" data-name="Ellipse 12" cx="107.912" cy="14.049" rx="107.912" ry="14.049" transform="translate(287.007 795.973)" fill="#4444c8" opacity="0.1"/>
      <g id="floor_flowers" data-name="floor flowers" transform="translate(141.415 746.453)">
        <ellipse id="Ellipse_13" data-name="Ellipse 13" cx="32.781" cy="5.612" rx="32.781" ry="5.612" transform="translate(2.751 56.873)" fill="#4444c8" opacity="0.1"/>
        <path id="Path_88" data-name="Path 88" d="M231.649,792.94s5.312,6.957-2.458,17.416-14.175,19.351-11.611,25.9c0,0,11.717-19.5,21.286-19.767S242.157,804.667,231.649,792.94Z" transform="translate(-188.996 -792.94)" fill="#4444c8"/>
        <path id="Path_89" data-name="Path 89" d="M231.66,792.94a8.547,8.547,0,0,1,1.084,2.187c9.308,10.934,14.271,21.141,5.322,21.393-8.331.242-18.335,15.142-20.725,18.906a8.963,8.963,0,0,0,.281.861s11.717-19.5,21.286-19.768S242.168,804.667,231.66,792.94Z" transform="translate(-189.007 -792.94)" opacity="0.1"/>
        <path id="Path_90" data-name="Path 90" d="M242.309,802.047c0,2.448-.271,4.432-.609,4.432s-.62-1.935-.62-4.432.349-1.3.687-1.3S242.309,799.6,242.309,802.047Z" transform="translate(-189.777 -793.184)" fill="#ffd037"/>
        <path id="Path_91" data-name="Path 91" d="M245.719,805.064c-2.148,1.171-4.025,1.877-4.189,1.577s1.451-1.49,3.6-2.66,1.3-.32,1.461,0S247.867,803.893,245.719,805.064Z" transform="translate(-189.791 -793.279)" fill="#ffd037"/>
        <path id="Path_92" data-name="Path 92" d="M202.72,792.94s-5.312,6.957,2.458,17.416,14.175,19.351,11.611,25.9c0,0-11.717-19.5-21.286-19.767S192.231,804.667,202.72,792.94Z" transform="translate(-188.145 -792.94)" fill="#4444c8"/>
        <path id="Path_93" data-name="Path 93" d="M202.719,792.94a8.548,8.548,0,0,0-1.084,2.187c-9.308,10.934-14.272,21.141-5.322,21.393,8.34.242,18.335,15.142,20.725,18.906a6.89,6.89,0,0,1-.28.861s-11.717-19.5-21.286-19.768S192.231,804.667,202.719,792.94Z" transform="translate(-188.144 -792.94)" opacity="0.1"/>
        <path id="Path_94" data-name="Path 94" d="M192.91,802.047c0,2.448.271,4.432.61,4.432s.619-1.935.619-4.432-.348-1.3-.687-1.3S192.91,799.6,192.91,802.047Z" transform="translate(-188.214 -793.184)" fill="#ffd037"/>
        <path id="Path_95" data-name="Path 95" d="M189.366,805.064c2.148,1.171,4.015,1.877,4.18,1.577s-1.451-1.49-3.6-2.66-1.3-.32-1.461,0S187.218,803.893,189.366,805.064Z" transform="translate(-188.057 -793.279)" fill="#ffd037"/>
        <path id="Path_96" data-name="Path 96" d="M194.66,836.53s14.862-.465,19.351-3.648,22.854-7.005,23.967-1.887,22.331,25.437,5.554,25.572-38.983-2.612-43.453-5.332S194.66,836.53,194.66,836.53Z" transform="translate(-188.271 -794.093)" fill="#a8a8a8"/>
        <path id="Path_97" data-name="Path 97" d="M243.822,855.057c-16.777.136-38.983-2.612-43.453-5.331-3.406-2.08-4.76-9.521-5.215-12.946h-.493s.968,11.979,5.409,14.707,26.676,5.467,43.453,5.331c4.838,0,6.521-1.761,6.425-4.315C249.279,854.07,247.431,855.029,243.822,855.057Z" transform="translate(-188.271 -794.362)" opacity="0.2"/>
        <path id="Path_98" data-name="Path 98" d="M706.377,836.208s-40.909-2.467-36.081,26.2c0,0-.967,5.06,3.629,7.363,0,0,.077-2.119,4.2-1.4a18.737,18.737,0,0,0,4.441.213A9.2,9.2,0,0,0,688,866.338h0S699.5,861.6,703.968,842.8c0,0,3.309-4.1,3.183-5.157l-6.908,2.9s2.361,4.983.5,9.124c0,0-.223-8.94-1.548-8.708-.271,0-3.589,1.722-3.589,1.722s4.063,8.708.967,14.978c0,0,1.161-10.643-2.264-14.349l-4.838,2.835s4.741,8.96,1.529,16.274c0,0,.822-11.214-2.545-15.587l-4.4,3.435s4.451,8.834,1.732,14.9c0,0-.348-13.053-2.69-14.039,0,0-3.87,3.4-4.441,4.837,0,0,3.048,6.405,1.161,9.792,0,0-1.161-8.708-2.119-8.708,0,0-3.87,5.805-4.238,9.676,0,0,.174-5.873,3.309-10.266a11.552,11.552,0,0,0-5.873,3.048s.6-4.073,6.773-4.431c0,0,3.174-4.374,4.025-4.635,0,0-6.192-.523-9.946,1.141,0,0,3.3-3.871,11.079-2.1l4.344-3.541s-8.147-1.123-11.611.115c0,0,3.986-3.405,12.781-.967l4.741-2.826s-6.957-1.5-11.1-.968c0,0,4.373-2.36,12.481.194l3.386-1.519s-5.1-.968-6.589-1.152-1.567-.571-1.567-.571a17.664,17.664,0,0,1,9.569,1.065S706.5,836.663,706.377,836.208Z" transform="translate(-203.687 -794.342)" fill="#4444c8"/>
        <ellipse id="Ellipse_14" data-name="Ellipse 14" cx="28.949" cy="4.896" rx="28.949" ry="4.896" transform="translate(445.565 73.032)" fill="#4444c8" opacity="0.1"/>
        <path id="Path_99" data-name="Path 99" d="M632.841,837.789s-23.066-1.393-20.319,14.775a3.948,3.948,0,0,0,2.051,4.151s0-1.2,2.37-.793a11.3,11.3,0,0,0,2.5.126,5.3,5.3,0,0,0,3.067-1.267h0s6.482-2.68,9.008-13.276c0,0,1.858-2.312,1.79-2.9l-3.87,1.655s1.325,2.815.28,5.147c0,0-.126-5.04-.87-4.924-.155,0-2.022.967-2.022.967s2.283,4.838.561,8.446c0,0,.648-6.028-1.277-8.1l-2.738,1.606s2.67,5.05.861,9.172c0,0,.464-6.327-1.441-8.785l-2.477,1.935s2.506,4.983.967,8.4c0,0-.2-7.363-1.519-7.914a15.125,15.125,0,0,0-2.507,2.7s1.722,3.619.658,5.525c0,0-.658-4.906-1.19-4.925,0,0-2.168,3.251-2.391,5.476a11.757,11.757,0,0,1,1.858-5.805,6.5,6.5,0,0,0-3.309,1.712s.339-2.3,3.87-2.5c0,0,1.78-2.468,2.264-2.613a14.187,14.187,0,0,0-5.612.639s1.868-2.167,6.251-1.18l2.448-2s-4.6-.629-6.541.068c0,0,2.245-1.935,7.209-.523l2.661-1.587a23.911,23.911,0,0,0-6.251-.542s2.468-1.326,7.034.106l1.935-.851s-2.9-.571-3.706-.658-.89-.319-.89-.319a9.988,9.988,0,0,1,5.4.6S632.908,838.05,632.841,837.789Z" transform="translate(-201.818 -794.394)" fill="#4444c8"/>
        <ellipse id="Ellipse_15" data-name="Ellipse 15" cx="16.323" cy="2.758" rx="16.323" ry="2.758" transform="translate(398.812 60.976)" fill="#4444c8" opacity="0.1"/>
        <path id="Path_100" data-name="Path 100" d="M678.068,802.379s-27.837-1.683-24.557,17.832a4.76,4.76,0,0,0,2.477,5.012s0-1.442,2.854-.968a13.7,13.7,0,0,0,3.019.145,6.376,6.376,0,0,0,3.706-1.528h0s7.827-3.232,10.865-16.033c0,0,2.254-2.786,2.168-3.5l-4.7,2s1.606,3.4.348,6.212c0,0-.154-6.086-1.064-5.941-.174,0-2.438,1.171-2.438,1.171s2.768,5.912.677,10.2c0,0,.794-7.276-1.538-9.773l-3.309,1.935s3.232,6.1,1.044,11.079c0,0,.562-7.634-1.741-10.643l-3,2.332s3.038,6.009,1.19,10.14c0,0-.241-8.882-1.838-9.56,0,0-2.622,2.313-3.019,3.261,0,0,2.08,4.364.783,6.666,0,0-.783-5.911-1.432-5.941,0,0-2.612,3.871-2.9,6.609A14.243,14.243,0,0,1,657.9,816.1a7.864,7.864,0,0,0-4,2.07s.407-2.776,4.644-3.019c0,0,2.157-2.971,2.738-3.154,0,0-4.219-.348-6.773.784,0,0,2.244-2.622,7.547-1.432l2.96-2.409s-5.554-.764-7.905.078c0,0,2.709-2.313,8.708-.629l3.222-1.935a31.731,31.731,0,0,0-7.547-.648s2.97-1.606,8.5.126l2.3-1.026s-3.474-.687-4.49-.794-1.064-.387-1.064-.387a12.023,12.023,0,0,1,6.511.726S678.164,802.688,678.068,802.379Z" transform="translate(-203.147 -793.245)" fill="#4444c8"/>
        <ellipse id="Ellipse_16" data-name="Ellipse 16" cx="19.709" cy="3.328" rx="19.709" ry="3.328" transform="translate(436.044 30.352)" fill="#4444c8" opacity="0.1"/>
      </g>
      <g id="browser" transform="translate(132.314 92.44)">
        <path id="Path_101" data-name="Path 101" d="M1099.139,590.263V117H178.65V563.113c11.756,9.811,25.892,18.064,40.638,24.847q10.895,5.022,22.254,9.182h846.616Z" transform="translate(-178.65 -117)" fill="url(#linear-gradient)"/>
        <path id="Path_102" data-name="Path 102" d="M1097.426,590.911V131H180.73V564.564c11.708,9.54,25.786,17.561,40.444,24.189q10.856,4.838,22.176,8.921h843.113Z" transform="translate(-178.717 -117.454)" fill="#fff"/>
        <rect id="Rectangle_1058" data-name="Rectangle 1058" width="916.686" height="24.324" transform="translate(2.022 1.345)" fill="#5a5773"/>
      </g>
      <g id="buttons" transform="translate(146.353 99.658)">
        <circle id="Ellipse_17" data-name="Ellipse 17" cx="6.289" cy="6.289" r="6.289" fill="#fff"/>
        <circle id="Ellipse_18" data-name="Ellipse 18" cx="6.289" cy="6.289" r="6.289" transform="translate(16.932)" fill="#fff"/>
        <circle id="Ellipse_19" data-name="Ellipse 19" cx="6.289" cy="6.289" r="6.289" transform="translate(33.865)" fill="#fff"/>
      </g>
      <g id="boxes" transform="translate(158.931 171.567)">
        <rect id="Rectangle_1059" data-name="Rectangle 1059" width="151.423" height="95.15" transform="translate(209.661)" fill="#4444c8"/>
        <rect id="Rectangle_1060" data-name="Rectangle 1060" width="151.423" height="95.15" fill="#5a5773" opacity="0.2"/>
        <rect id="Rectangle_1061" data-name="Rectangle 1061" width="151.423" height="95.15" transform="translate(419.322)" fill="#5a5773" opacity="0.2"/>
        <rect id="Rectangle_1062" data-name="Rectangle 1062" width="151.423" height="95.15" transform="translate(0 136.029)" fill="#5a5773" opacity="0.2"/>
        <rect id="Rectangle_1063" data-name="Rectangle 1063" width="151.423" height="95.15" transform="translate(209.661 136.029)" fill="#5a5773" opacity="0.2"/>
        <rect id="Rectangle_1064" data-name="Rectangle 1064" width="151.423" height="95.15" transform="translate(419.322 136.029)" fill="#5a5773" opacity="0.2"/>
        <rect id="Rectangle_1065" data-name="Rectangle 1065" width="151.423" height="95.15" transform="translate(0 272.049)" fill="#5a5773" opacity="0.2"/>
        <rect id="Rectangle_1066" data-name="Rectangle 1066" width="151.423" height="95.15" transform="translate(209.661 272.049)" fill="#5a5773" opacity="0.2"/>
        <rect id="Rectangle_1067" data-name="Rectangle 1067" width="151.423" height="95.15" transform="translate(419.322 272.049)" fill="#5a5773" opacity="0.2"/>
      </g>
      <g id="woman" transform="translate(333.421 195.328)">
        <path id="Path_103" data-name="Path 103" d="M546.022,438s-27.2-49.713-22.612-57.8,7.963-19.8,7.963-19.8,10.043-6.87,10.043-9.676,7.953-9.3,12.143-12.124,2.09-16.168,0-17.784-5.409-7.276-5.409-7.276,2.9-8.079,0-10.508.426-4.838,0-7.276,0-11.311,0-11.311c-3.4-4.722-7.16-6.928-10.7-7.74l-.31-1.277-1.79-7.537s8.708-16.69-5.418-25.428a23.64,23.64,0,0,0-3.125-1.645,10.84,10.84,0,0,0-.077-1.093,68.4,68.4,0,0,0-2.051-12.781c-.735-2.342-1.693-3.919-2.9-3.561a1.934,1.934,0,0,0-.794.455,8.825,8.825,0,0,0-1.5,1.771h0a.4.4,0,0,1-.068.106,30.351,30.351,0,0,0-3.328,9.24,53.429,53.429,0,0,0-.968,5.805h0a31.9,31.9,0,0,0-1.616,3.59c-1.713,4.441-3.716,12.133-.068,17.823,3.1,4.838,7.266,11.485,10.3,16.323l.1.155.184.3-.319.2v.745l.281,4.073,2.341,35.2a14.96,14.96,0,0,0-2.148-.455,19.5,19.5,0,0,0-3.125-.2c-2.042-8.021-7.644-15.481-8.708-23.86a22.135,22.135,0,0,1-.165-2.525c.087-5.273,1.4-10.566,1.3-15.829,0-.968,0-1.935-.1-2.9h0a7.827,7.827,0,0,0-.077-.8,23.792,23.792,0,0,0-12.936-18.026c-2.429-1.209-5.06-2.013-7.421-3.338-5.457-3.057-8.95-8.573-13.9-12.356-3.686-2.816-9.192-4.325-13.3-2.9a61.434,61.434,0,0,0-6.473,1.335h0a58.4,58.4,0,0,0-14.813,6.154c-.629.377-1.258.764-1.858,1.209a8.187,8.187,0,0,0-2.99,3.493,9.155,9.155,0,0,0-.464,3.764c0,.919,0,1.858.058,2.777-.271,15.481-16.952,27.459-18.326,42.573,0,.358-.058.716-.077,1.074v1.655h0v1.209c.242,6.628,3.686,12.8,4.315,19.4.058.59.087,1.171.1,1.761a29.262,29.262,0,0,1-1.713,8.882,25.99,25.99,0,0,0-6.009,2.438c-5.07,3.261-14.223,8.892-17.561,19.661a28.794,28.794,0,0,0-1.267,8.63,180.2,180.2,0,0,1-2.825,30.817,57.571,57.571,0,0,1-1.78,7.576,1.781,1.781,0,0,0-.058.745l-2.012,26.124-.358,4.6-.5,6.541s.145.4.358,1.064a30.745,30.745,0,0,1,.793,3.019,16.235,16.235,0,0,1,.261,6.773,4.664,4.664,0,0,1-1.413,2.487,1.038,1.038,0,0,0-.165.184c-.571.8-1.084,3.193-1.529,6.657-.174,1.355-.339,2.9-.5,4.509-.968,10.3-1.567,25.727-1.935,38.48-.348,12.579-.474,22.515-.474,22.515a25.687,25.687,0,0,0,5.2,2.574c-.135.339-.28.687-.416,1.055A50.835,50.835,0,0,0,388.126,541c-.813,9.511,1.848,20.077,15.113,25.515a21.409,21.409,0,0,0,2.6.89c2.9.774,5.041.561,6.618-.406,0,.571.068,1.122.1,1.674.135,2.361.252,4.519.31,6.328.416,11.321,3.222,31.117,3.222,31.117s.967,8.089.126,10.508,0,12.124,0,12.124,2.9,4.838,0,7.276-3.764,14.513-2.9,16.168a.54.54,0,0,1,.048.184c.639,4.016-2.97,63.675-2.97,63.675s-3.416,9.134-6.134,18.616c-2.651,9.231-4.644,18.79-2.187,20.58,1.219.89,4.054,1.558,7.653,2.07,0,.4-.058.794-.1,1.2-.348,4.267-.9,8.863-1.693,10.024-1.151,1.645-2.361,14.4-2.951,21.286l-.058.764a71.3,71.3,0,0,0-3.116,9.037s-9.26,23.221-6.125,29.249a4.947,4.947,0,0,0,1.151,1.422h0a2.618,2.618,0,0,0,.3.271c4.46,3.57,15.636,4.315,19.69,4.48l-.155,5.748v.213h5.273v-.145c0-.725.116-4.054.29-8.5,0-.793.058-1.625.1-2.477,0-.668.068-1.345.1-2.042a35.8,35.8,0,0,0,2.293-12.917,56.67,56.67,0,0,1,2.032-14.978,41.613,41.613,0,0,1,2.68-7.3s1.645-8.708-.648-14.871a10.738,10.738,0,0,0-1.935-3.348v-1.935a55.83,55.83,0,0,1,1.238-12.4,1.369,1.369,0,0,1,0-.194c.077-.339.165-.658.251-.967l.058-.213,1.713.058c5.254.145,9.114.145,9.114.145s4.19-21.422,3.774-30.711v-1.258c-.145-9.23,2.535-21.78,2.535-21.78l3.377-32.752s-1.674-5.67,0-9.676c1.035-2.5,3.174-7.131,4.664-10.324.7-1.48,1.248-2.641,1.48-3.144l.135-.271a6.256,6.256,0,0,1-1.49-.745h0c-1.364-.91-2.583-2.69,1.5-5.312,6.279-4.044,4.189-14.146,4.189-14.146s-1.848-3.638.329-6.87,0-15.355,0-15.355a50.783,50.783,0,0,0,4.3-10.111c1.558-4.838,5.5-28.495,7.353-39.9.61-3.744.968-6.164.968-6.164l.058.59.058.639h0l.522,5.389.068.716.968,10.188s1.935,26.782.726,37.28v.193a12.4,12.4,0,0,1-.706,3.183c-2.225,5.031-1.819,25.021-1.7,29.443v.89c0,.242-1.577,3.948-1.18,6.831h0a4.383,4.383,0,0,0,.764,2.032,5.147,5.147,0,0,1,.745,3.145v.1a11.429,11.429,0,0,1-.116,1.393,26.563,26.563,0,0,1-1.471,5.476s-2.245,5.9-1.393,8.989h0a2.845,2.845,0,0,0,.552,1.093,2.587,2.587,0,0,1,.319,1.161.418.418,0,0,0,0,.107c.784,6.511-1.238,35.258-2.438,50.99-.484,6.212-.832,10.391-.832,10.391l-3.319,34.349.329.232c.377.271,1.084.736,2.032,1.3v.077l-.145,1.035c-.474,3.309-1.113,7.16-1.809,10.1-.058.222-.107.435-.165.639a9.255,9.255,0,0,0-3.551,1.422c-7.044,12.51-3.928,22.428,0,25.311,1.113.813,1.867,3.086,2.371,5.912l.967,12.472v1.432a3.72,3.72,0,0,0,.184,1.142l.3,3.783.406,5.263h3.212V828.7h.174c5.07.174,13.246.387,16.807.107h.1a6.253,6.253,0,0,0,.968-.107,2.407,2.407,0,0,0,.561-.154c1.887-.91,6.589-14.243,2.351-17.271s-5.176-11.611-5.176-11.611c-.368-1.122-.735-2.187-1.113-3.2v-.658c-.116-4.151-.068-8.65.5-11.088.639-2.681.968-8.311,1.1-13.246v-1.229a16.5,16.5,0,0,0,2.157-.706l.155-.068a15.2,15.2,0,0,0,3.609-2.138l11.843-52.481,1.248-6.105,7.112-34.726s-2.506-12.124,0-14.136c.919-.736,1.171-3.87,1.113-7.5-.1-6.347-1.113-14.33-1.113-14.33s3.348-5.254,5.031-8.485,0-11.717,0-11.717l3.3-19.429s3.774-23.038,12.975-42.437c6.773-14.271,2.457-52.81-1.935-73.322-.116-.532-.232-1.055-.348-1.558v-.077c2.071-1.026,4.606-2.264,7.315-3.56l1.026-.484c3.435-1.616,7.073-3.28,10.333-4.664l.213-.087a72.243,72.243,0,0,1,7.189-2.69,12.067,12.067,0,0,1,2.206-.455C563.6,468.713,546.022,438,546.022,438ZM415.1,503.749h1.742c-.2.377-.4.764-.59,1.151-.116.232-.232.455-.339.687-.639,1.326-1.229,2.68-1.712,4.006.194-1.432.435-2.99.706-4.654C414.975,504.571,415.043,504.136,415.1,503.749Zm-4.7,25.224a.72.72,0,0,0,0-.135l-.145-.455c-.106-.31-.2-.619-.3-.968q.9-.271,1.829-.61h.126v.319c-.048.455-.106.91-.164,1.355h0a.965.965,0,0,1,0,.174,9.379,9.379,0,0,1-.126,1.064c-.087.7-.174,1.374-.251,2.022-.184-.61-.368-1.209-.561-1.8A4.587,4.587,0,0,1,410.4,528.973Z" transform="translate(-386.5 -223.338)" fill="url(#linear-gradient-2)"/>
        <path id="Path_104" data-name="Path 104" d="M540.124,282.988l-10.449,3.7-3.793-6.289c-2.9-4.838-6.928-11.456-9.9-16.265-5.244-8.456,1.616-21.344,1.616-21.344s1.238-12.936,5.65-16.923,5.641,16.923,5.641,16.923c17.716,8.05,8.224,26.985,8.224,26.985l1.723,7.508Z" transform="translate(-390.636 -223.403)" fill="#efb7b9"/>
        <path id="Path_105" data-name="Path 105" d="M540.522,284.717l-10.449,3.7-3.793-6.289v-.552s5.989-4.112,12.975-2.564Z" transform="translate(-391.034 -225.132)" opacity="0.1"/>
        <path id="Path_106" data-name="Path 106" d="M523.56,327.136l5.234-4.431-2.622-39.883s13.546-9.269,23.57,5.235c0,0-.406,8.863,0,11.282s-2.816,4.838,0,7.247,0,10.479,0,10.479,3.183,5.641,5.2,7.247,4.034,14.91,0,17.726-11.6,9.269-11.6,12.085-9.676,9.676-9.676,9.676l-8.495-11.233Z" transform="translate(-390.946 -225.173)" fill="#ff6484"/>
        <path id="Path_107" data-name="Path 107" d="M406.068,577.217c-19.525-8.282-15.191-28.514-11.514-38.7a52.661,52.661,0,0,1,2.583-6.037l10.953-6.647s2.235,5.7,4.625,13.343C418.259,556.957,424.635,585.1,406.068,577.217Z" transform="translate(-386.659 -233.15)" fill="#efb7b9"/>
        <path id="Path_108" data-name="Path 108" d="M433.443,769.554a32.91,32.91,0,0,0-2.9,8.147,58.845,58.845,0,0,0-1.258,13.865c.077,3.222.348,5.331.348,5.331L407.88,811.856s.126-1.751.339-4.325c.561-6.85,1.732-19.564,2.835-21.209.764-1.142,1.3-5.728,1.635-9.985s.474-7.992.474-7.992S439.335,758.534,433.443,769.554Z" transform="translate(-387.194 -240.887)" fill="#efb7b9"/>
        <path id="Path_109" data-name="Path 109" d="M486.675,780.754s0,4.161-.155,9-.445,10.547-1.055,13.207c-.561,2.438-.6,6.918-.493,11.05.145,4.837.493,9.192.493,9.192s-22.206-21-19.941-22.66c.609-.445,1.209-2.235,1.761-4.615.677-2.9,1.287-6.773,1.741-10.063.542-3.919.88-7.073.88-7.073Z" transform="translate(-389.058 -241.356)" fill="#efb7b9"/>
        <path id="Path_110" data-name="Path 110" d="M433.606,769.554a32.912,32.912,0,0,0-2.9,8.147,177.82,177.82,0,0,1-17.8-1.364c.329-4.161.474-7.992.474-7.992S439.5,758.534,433.606,769.554Z" transform="translate(-387.357 -240.887)" opacity="0.1"/>
        <path id="Path_111" data-name="Path 111" d="M486.8,780.755s0,4.16-.155,9c-6.928,1.771-14.049-1.771-17.494-3.87.542-3.918.881-7.073.881-7.073Z" transform="translate(-389.181 -241.357)" opacity="0.1"/>
        <path id="Path_112" data-name="Path 112" d="M530.16,565.222c-8.863,19.351-12.491,42.3-12.491,42.3l-3.222,19.351s1.616,8.456,0,11.678-4.837,8.466-4.837,8.466,2.419,19.738,0,21.751,0,14.1,0,14.1l-8.06,40.638L490.267,775.87c-10.875,8.872-25.35-2.409-25.35-2.409l3.193-34.242s4.838-59.989,2.825-62.447.8-10.072.8-10.072,2.825-7.257.813-10.072.4-8.863.4-8.863-.8-24.576,1.616-30.216,0-40.531,0-40.531l-.968-10.866-.561-6.018-.048-.59s-.368,2.409-.968,6.144c-1.78,11.369-5.573,34.929-7.073,39.776a51.821,51.821,0,0,1-4.132,10.073s2.09,12.084,0,15.306-.319,6.85-.319,6.85,2.013,10.072-4.035,14.1,0,6.047,0,6.047-4.432,9.676-6.038,13.691,0,9.676,0,9.676L447.2,713.83s-2.825,13.691-2.419,22.96-3.628,30.614-3.628,30.614-31.02,0-35.8-3.628,7.982-39.022,7.982-39.022,3.629-62.04,2.816-63.646,0-13.7,2.825-16.11,0-7.257,0-7.257-.8-9.676,0-12.085-.126-10.478-.126-10.478-2.7-19.738-3.1-31.02-2.419-36.651-2.419-36.651,2.11-15.694,2.429-23.163c.116-2.748,1.345-6.183,2.9-9.414a83.962,83.962,0,0,1,6-10.527s95.45-28.214,99.456-25.408c1.064.745,2.612,5.806,4.141,13.13C532.52,512.587,536.681,551,530.16,565.222Z" transform="translate(-387.077 -231.624)" fill="#444053"/>
        <circle id="Ellipse_20" data-name="Ellipse 20" cx="27.798" cy="27.798" r="27.798" transform="translate(56.476 31.787)" fill="#a1616a"/>
        <path id="Path_113" data-name="Path 113" d="M528.745,492.143c-3.2,1.645-5.351,2.776-5.351,2.776s-45.117,21.354-57.947,20.145c-9.927-.968-35.268-.416-46.307-.145a83.986,83.986,0,0,1,6-10.527s95.46-28.2,99.465-25.4C525.668,479.758,527.217,484.8,528.745,492.143Z" transform="translate(-387.559 -231.624)" opacity="0.1"/>
        <path id="Path_114" data-name="Path 114" d="M451.785,330.562s-25.747,4.064-31.823,8.05-18.113,11.688-18.113,28.2-2.816,33.439-4.432,38.267S422.8,448.991,422.8,448.991l-9.676,59.224s38.7-1.21,51.591,0S522.7,488.071,522.7,488.071s26.589-14.1,32.229-14.513-11.282-31.02-11.282-31.02-26.192-49.539-21.76-57.6,7.683-19.738,7.683-19.738l-4.838-41.083s-7.247-2.419-13.294,2.013-26.589,2.012-26.589,2.012Z" transform="translate(-386.852 -226.585)" fill="#ff6484"/>
        <path id="Path_115" data-name="Path 115" d="M407.859,404.241l-10.1,2.816-2.8,37.909s3.628,10.072,0,13.294-4.431,72.112-4.431,72.112,11.688,8.456,25.379,2.012c0,0-2.012-7.653,4.035-35.451s6.037-41.9,6.037-41.9,0-34.648,2.825-40.289,0-19.738,0-19.738-5.641-7.654-5.244-10.469S407.859,404.241,407.859,404.241Z" transform="translate(-386.631 -228.559)" opacity="0.1"/>
        <path id="Path_116" data-name="Path 116" d="M412.821,539.2a25.726,25.726,0,0,1-18.161-.658,52.657,52.657,0,0,1,2.583-6.038L408.2,525.86S410.47,531.559,412.821,539.2Z" transform="translate(-386.765 -233.151)" opacity="0.1"/>
        <path id="Path_117" data-name="Path 117" d="M407.229,404.24l-10.072,2.816-2.816,37.909s3.628,10.072,0,13.295-4.431,72.112-4.431,72.112,11.7,8.447,25.379,1.974c0,0-2.013-7.653,4.025-35.451s6.047-41.9,6.047-41.9,0-34.648,2.816-40.289,0-19.738,0-19.738-5.641-7.653-5.235-10.469S407.229,404.24,407.229,404.24Z" transform="translate(-386.611 -228.558)" fill="#ff6484"/>
        <path id="Path_118" data-name="Path 118" d="M513.711,411.15s-5.235,45.117-20.551,53.583C493.16,464.733,527.4,455.068,513.711,411.15Z" transform="translate(-389.96 -229.43)" opacity="0.1"/>
        <path id="Path_119" data-name="Path 119" d="M434.88,415.32s18.925,9.26,14.513,15.7S434.88,415.32,434.88,415.32Z" transform="translate(-388.07 -229.565)" opacity="0.1"/>
        <path id="Path_120" data-name="Path 120" d="M434.88,434.47s12.085,12.491,9.676,16.923S434.88,434.47,434.88,434.47Z" transform="translate(-388.07 -230.186)" opacity="0.1"/>
        <path id="Path_121" data-name="Path 121" d="M535.63,327.47s4.741,8.05,5.2,13.294S535.63,327.47,535.63,327.47Z" transform="translate(-391.338 -226.716)" opacity="0.1"/>
        <path id="Path_122" data-name="Path 122" d="M535.63,316.2s2.38-2.022,8.456,0S535.63,316.2,535.63,316.2Z" transform="translate(-391.338 -226.321)" opacity="0.1"/>
        <path id="Path_123" data-name="Path 123" d="M510.413,559.291a56.023,56.023,0,0,1-29.462-3.773l-5.08,13-.561-6.018c.832-5.051,2.448-10.459,5.641-11.824C480.951,550.68,492.136,559.591,510.413,559.291Z" transform="translate(-389.381 -233.956)" opacity="0.1"/>
        <path id="Path_124" data-name="Path 124" d="M426.18,577.07s24.779,5.138,31.726,4.228Z" transform="translate(-387.787 -234.812)" opacity="0.1"/>
        <path id="Path_125" data-name="Path 125" d="M428.84,583.779s10.575-.455,15.858,1.664Z" transform="translate(-387.874 -235.029)" opacity="0.1"/>
        <path id="Path_126" data-name="Path 126" d="M430.09,588.31a94.808,94.808,0,0,0,14.649,1.935Z" transform="translate(-387.914 -235.177)" opacity="0.1"/>
        <path id="Path_127" data-name="Path 127" d="M429.46,645.512c.454-.3,21.151-5.138,23.725-1.664Z" transform="translate(-387.894 -236.938)" opacity="0.1"/>
        <path id="Path_128" data-name="Path 128" d="M429.46,652.138s17.977-2.119,18.432,0S429.46,652.138,429.46,652.138Z" transform="translate(-387.894 -237.217)" opacity="0.1"/>
        <path id="Path_129" data-name="Path 129" d="M429.46,657.995s19.187-3.967,21.451-3S429.46,657.995,429.46,657.995Z" transform="translate(-387.894 -237.335)" opacity="0.1"/>
        <path id="Path_130" data-name="Path 130" d="M429.671,797.729,407.92,812.688s.126-1.751.339-4.325c4.838-11.9,11.137-18.181,11.137-18.181,4.906-1.277,8-.1,9.927,2.216C429.4,795.611,429.671,797.729,429.671,797.729Z" transform="translate(-387.195 -241.709)" opacity="0.1"/>
        <path id="Path_131" data-name="Path 131" d="M431.479,811.189a53.975,53.975,0,0,0-4.538,22.254,34.514,34.514,0,0,1-4.606,17.91,17.621,17.621,0,0,1-1.529,2.187s-15.113-.126-20.406-4.509a5.235,5.235,0,0,1-1.422-1.742c-3.028-6.038,5.893-29.152,5.893-29.152,4.683-17.823,14.194-27.344,14.194-27.344C436.008,786.409,431.479,811.189,431.479,811.189Z" transform="translate(-386.885 -241.728)" fill="#444053"/>
        <path id="Path_132" data-name="Path 132" d="M422.4,852.242a17.619,17.619,0,0,1-1.529,2.187s-15.113-.126-20.406-4.509c2.6-8.611,10.9-34.668,14.794-30.237C418.922,823.844,421.466,843.863,422.4,852.242Z" transform="translate(-386.953 -242.666)" opacity="0.1"/>
        <path id="Path_133" data-name="Path 133" d="M420.965,821.3,419.91,860.33h5.07s.822-34.242,3.087-39.031S420.965,821.3,420.965,821.3Z" transform="translate(-387.584 -242.666)" fill="#444053"/>
        <path id="Path_134" data-name="Path 134" d="M485.466,823.771s-22.206-21-19.941-22.66c.609-.445,1.209-2.235,1.761-4.615,4.267-.745,11.611,1.035,17.687,18.084C485.118,819.417,485.466,823.771,485.466,823.771Z" transform="translate(-389.058 -241.926)" opacity="0.1"/>
        <path id="Path_135" data-name="Path 135" d="M488.594,847.207a2.278,2.278,0,0,1-.532.155c-2.612.455-12.24.194-17.629,0a3.812,3.812,0,0,1-3.686-3.8c0-1.451,0-3.222-.116-5.109-.252-5.961-.967-13.053-3.106-14.649-3.783-2.9-6.773-12.752,0-25.224,0,0,12.985-9.917,22.351,19.893,0,0,.909,8.505,4.983,11.524S490.413,846.345,488.594,847.207Z" transform="translate(-388.868 -241.946)" fill="#444053"/>
        <path id="Path_136" data-name="Path 136" d="M488.281,848.2c-2.613.455-12.24.194-17.629,0a3.812,3.812,0,0,1-3.687-3.8c0-1.451,0-3.222-.116-5.109,1.635-7.218,3.986-14.649,7.015-16.342C473.884,822.94,483.047,821.9,488.281,848.2Z" transform="translate(-389.107 -242.788)" opacity="0.1"/>
        <path id="Path_137" data-name="Path 137" d="M423.46,800.487l2.438,32.481h3.1V797.72Z" transform="translate(-347.158 -221.206)" fill="#444053"/>
        <path id="Path_138" data-name="Path 138" d="M471.332,239.137a55.557,55.557,0,0,0-24.789,7.963c-1.935,1.171-3.87,2.593-4.673,4.693-.7,1.819-.406,3.87-.377,5.805.261,16.661-18.316,29.269-17.735,45.92.232,6.608,3.551,12.762,4.161,19.351,1.016,10.991-5.486,21.1-11.717,30.207a25.02,25.02,0,0,0,17.658-5.854,133.9,133.9,0,0,1,2.467,67.487h8.911a6.777,6.777,0,0,1,2.6.319,6.544,6.544,0,0,1,2.061,1.538c8.331,8.292,13.914,20.551,10.73,31.872l18.964-7.112c4.538-1.7,9.144-3.435,13.091-6.241s7.257-6.879,8.089-11.659c.513-2.9.348-6.366,2.738-8.05A14.893,14.893,0,0,1,507.247,414c5.206-1.838,7.508-7.857,8.573-13.275a76.434,76.434,0,0,0,1.209-20.193c-.842-11.32-4.19-22.815-1.432-33.865,1.558-6.2,5.022-11.979,5.3-18.384.455-10.556-7.8-19.651-9.027-30.149-.861-7.315,1.78-14.717.919-22.031a23.666,23.666,0,0,0-12.453-17.968c-2.332-1.2-4.838-2-7.14-3.328-5.254-3.048-8.611-8.534-13.382-12.307s-12.714-5.2-16.3-.29Z" transform="translate(-387.464 -223.848)" opacity="0.1"/>
        <path id="Path_139" data-name="Path 139" d="M471.332,237.887a55.559,55.559,0,0,0-24.789,7.963c-1.935,1.171-3.87,2.593-4.673,4.693-.7,1.819-.406,3.87-.377,5.805.261,16.661-18.316,29.269-17.735,45.93.232,6.6,3.551,12.752,4.161,19.351,1.016,10.991-5.486,21.1-11.717,30.217a25.157,25.157,0,0,0,17.658-5.854,133.85,133.85,0,0,1,2.467,67.468h8.911a6.776,6.776,0,0,1,2.6.329,6.368,6.368,0,0,1,2.061,1.529c8.331,8.3,13.914,20.551,10.73,31.871l18.964-7.112c4.538-1.7,9.144-3.435,13.091-6.241s7.257-6.879,8.089-11.659c.513-2.9.348-6.367,2.738-8.05a14.9,14.9,0,0,1,3.735-1.384c5.206-1.838,7.508-7.856,8.573-13.275a76.435,76.435,0,0,0,1.239-20.212c-.842-11.321-4.189-22.815-1.432-33.865,1.557-6.2,5.022-11.978,5.3-18.383.455-10.556-7.8-19.651-9.027-30.149-.861-7.315,1.78-14.707.919-22.031a23.685,23.685,0,0,0-12.452-17.968c-2.332-1.2-4.838-2-7.141-3.319-5.254-3.057-8.611-8.544-13.381-12.317s-12.714-5.2-16.3-.29Z" transform="translate(-387.464 -223.807)" fill="#925978"/>
        <g id="Group_134" data-name="Group 134" transform="translate(28.736 28.516)" opacity="0.1">
          <path id="Path_140" data-name="Path 140" d="M442.318,252.81a10.8,10.8,0,0,0-.058,1.122C442.289,253.565,442.308,253.188,442.318,252.81Z" transform="translate(-417.045 -252.81)"/>
          <path id="Path_141" data-name="Path 141" d="M515,292.324c.348-5.128,1.49-10.275,1.064-15.384C515.742,282.068,514.6,287.215,515,292.324Z" transform="translate(-419.402 -253.593)"/>
          <path id="Path_142" data-name="Path 142" d="M428.17,318.6c-.561-6-3.357-11.611-4.015-17.6a22.106,22.106,0,0,0-.145,3.309c.232,6.531,3.474,12.636,4.132,19.138A26.124,26.124,0,0,0,428.17,318.6Z" transform="translate(-416.453 -254.373)"/>
          <path id="Path_143" data-name="Path 143" d="M518.965,343.258A41.483,41.483,0,0,0,518,355.276a36.4,36.4,0,0,1,.968-6.976c1.557-6.2,5.021-11.979,5.3-18.384a19.966,19.966,0,0,0-.155-3.406C523.357,332.267,520.348,337.627,518.965,343.258Z" transform="translate(-419.499 -255.201)"/>
          <path id="Path_144" data-name="Path 144" d="M433.858,344.36a25.157,25.157,0,0,1-14.281,5.805c-1.1,1.722-2.245,3.406-3.377,5.07a25.157,25.157,0,0,0,17.658-5.854,133.523,133.523,0,0,1,5.631,36.235A133.828,133.828,0,0,0,433.858,344.36Z" transform="translate(-416.2 -255.78)"/>
          <path id="Path_145" data-name="Path 145" d="M517.34,399.243c-1.064,5.418-3.367,11.436-8.572,13.265a14.507,14.507,0,0,0-3.735,1.393c-2.39,1.684-2.225,5.167-2.738,8.05-.832,4.78-4.131,8.844-8.089,11.611s-8.553,4.548-13.091,6.25l-18.093,6.773a24.994,24.994,0,0,1-.871,5.37l18.964-7.112c4.538-1.7,9.144-3.435,13.091-6.241s7.257-6.879,8.089-11.659c.513-2.9.348-6.367,2.738-8.05a14.893,14.893,0,0,1,3.735-1.384c5.206-1.838,7.508-7.857,8.572-13.275A75.882,75.882,0,0,0,518.7,387.11,75.783,75.783,0,0,1,517.34,399.243Z" transform="translate(-417.691 -257.166)"/>
          <path id="Path_146" data-name="Path 146" d="M450.606,415.937a6.39,6.39,0,0,0-2.061-1.538,6.921,6.921,0,0,0-2.6-.329h-7.9c-.31,1.684-.639,3.367-.967,5.041h8.911a6.774,6.774,0,0,1,2.6.329,6.368,6.368,0,0,1,2.061,1.529c6.1,6.076,10.711,14.262,11.5,22.66C463.126,433.585,457.921,423.252,450.606,415.937Z" transform="translate(-416.877 -258.04)"/>
        </g>
        <path id="Path_147" data-name="Path 147" d="M405.37,450.035s7.2-3.019,8.8,0S405.37,450.035,405.37,450.035Z" transform="translate(-387.112 -230.648)" opacity="0.1"/>
        <path id="Path_148" data-name="Path 148" d="M408,455.385s7.2-3.019,8.815,0S408,455.385,408,455.385Z" transform="translate(-387.198 -230.821)" opacity="0.1"/>
      </g>
      <g id="leaves" transform="translate(694.188 8.32)">
        <path id="Path_149" data-name="Path 149" d="M868.009,51.678s-36.815-2.216-32.471,23.579c0,0-.861,4.557,3.27,6.628,0,0,.068-1.935,3.773-1.268a16.94,16.94,0,0,0,4,.194,8.292,8.292,0,0,0,4.877-2.022h0s10.343-4.267,14.368-21.18c0,0,2.98-3.7,2.9-4.644l-6.212,2.661s2.119,4.48.445,8.2c0,0-.194-8.05-1.393-7.857-.241,0-3.222,1.548-3.222,1.548s3.648,7.808.89,13.488c0,0,1.045-9.618-2.032-12.917l-4.393,2.6s4.267,8.06,1.374,14.639c0,0,.745-10.092-2.293-14.02L847.923,64.4s4.016,7.9,1.6,13.362c0,0-.319-11.756-2.428-12.636,0,0-3.464,3.058-3.987,4.315,0,0,2.738,5.805,1.036,8.8,0,0-1.045-7.818-1.935-7.857,0,0-3.454,5.186-3.812,8.708a18.875,18.875,0,0,1,2.97-9.24,10.323,10.323,0,0,0-5.283,2.748s.532-3.667,6.134-4c0,0,2.854-3.928,3.619-4.17,0,0-5.573-.464-8.95,1.035,0,0,2.97-3.464,9.976-1.935l3.87-3.193s-7.335-.968-10.45.106c0,0,3.58-3.058,11.5-.832l4.257-2.545s-6.25-1.355-9.975-.861c0,0,3.929-2.119,11.224.174l3.048-1.364s-4.586-.9-5.921-1.045S853,53.468,853,53.468a15.83,15.83,0,0,1,8.6.968S868.116,52.085,868.009,51.678Z" transform="translate(-761.822 -30.76)" fill="#4444c8" opacity="0.1"/>
        <path id="Path_150" data-name="Path 150" d="M814.268,30.06S783.307,50.1,802.087,68.3c0,0,2,4.18,6.56,3.406,0,0-1.084-1.587,2.293-3.261a16.8,16.8,0,0,0,3.338-2.216,8.33,8.33,0,0,0,2.738-4.519h0s5.805-9.579-.968-25.582c0,0,.213-4.741-.446-5.438l-3.425,5.805s4.364,2.351,5.225,6.338c0,0-4.925-6.357-5.805-5.5-.174.174-1.684,3.164-1.684,3.164s7.576,4.122,8.708,10.324c0,0-4.838-8.369-9.3-9.192l-2.013,4.644s8.225,3.967,9.792,10.982c0,0-5.39-8.573-10.16-9.937l-1.354,4.838s7.934,4.025,9.2,9.869c0,0-7.218-9.269-9.443-8.708,0,0-.968,4.509-.658,5.805,0,0,5.632,3.019,6.057,6.483,0,0-5.477-5.68-6.183-5.205,0,0,.29,6.221,2.1,9.3a18.891,18.891,0,0,1-3.077-9.2,10.353,10.353,0,0,0-2.632,5.341s-1.741-3.27,2.583-6.85c0,0,0-4.838.436-5.505,0,0-4.76,2.9-6.6,6.134,0,0,.348-4.548,6.918-7.431l1.258-4.886s-6.5,3.541-8.35,6.279c0,0,1.074-4.586,8.766-7.489l1.935-4.577s-5.805,2.622-8.553,5.225c0,0,1.935-4.044,9.153-6.512l1.645-2.9s-4.228,1.993-5.389,2.67-1.441.426-1.441.426a15.858,15.858,0,0,1,7.5-4.325S814.6,30.331,814.268,30.06Z" transform="translate(-760.552 -30.06)" fill="#4444c8" opacity="0.1"/>
        <path id="Path_151" data-name="Path 151" d="M765.959,54.187s-18.509,31.929,6.482,39.6c0,0,3.687,2.816,7.392,0,0,0-1.674-.909.571-3.938a16.951,16.951,0,0,0,1.935-3.483,8.36,8.36,0,0,0,.4-5.273h0s.822-11.166-12.481-22.36c0,0-1.935-4.315-2.9-4.635l-.416,6.773s4.954.116,7.537,3.28c0,0-7.276-3.435-7.644-2.283-.077.232-.068,3.58-.068,3.58s8.7.261,12.569,5.273c0,0-8.128-5.254-12.452-3.977l.31,5.051s9.124-.194,13.7,5.351c0,0-8.708-5.2-13.546-4.248l.968,4.925s8.9,0,12.675,4.625c0,0-10.643-4.993-12.375-3.512,0,0,1.171,4.47,2.061,5.505,0,0,6.386.135,8.341,3.028,0,0-7.46-2.583-7.876-1.829,0,0,3.086,5.409,6.1,7.324a18.893,18.893,0,0,1-6.918-6.773,10.363,10.363,0,0,0,.077,5.951s-3.038-2.119-.812-7.276c0,0-2.226-4.315-2.1-5.1,0,0-2.9,4.77-3.1,8.457,0,0-1.761-4.209,2.786-9.753l-1.093-4.935s-4.19,6.105-4.6,9.385c0,0-1.122-4.577,4.422-10.643l-.368-4.944s-4.006,4.983-5.244,8.534c0,0-.136-4.47,5.2-9.956l.145-3.338s-2.9,3.686-3.59,4.838-1.094.987-1.094.987a15.927,15.927,0,0,1,4.722-7.266S766.365,54.274,765.959,54.187Z" transform="translate(-759.362 -30.84)" fill="#4444c8" opacity="0.1"/>
      </g>
      <path id="Path_152" data-name="Path 152" d="M929.073,426.727a13.846,13.846,0,1,0,13.845,13.846A13.845,13.845,0,0,0,929.073,426.727ZM888.59,318.08v13.846h13.846l24.924,50.487-10.42,16.961a13.307,13.307,0,0,0-1.732,6.579c0,9.269,6.337,13.846,14.929,13.846h80.956V406.486H931.831a1.636,1.636,0,0,1-1.732-1.732,8.734,8.734,0,0,1,.736-1.722l6.918-10.924h51.581a13.546,13.546,0,0,0,12.114-7.266l24.933-42.873a8.029,8.029,0,0,0,.7-3.464,6.658,6.658,0,0,0-6.927-6.579H917.675L911.1,318.08ZM997.237,426.727a13.846,13.846,0,1,0,13.856,13.849A13.846,13.846,0,0,0,997.237,426.727Z" transform="translate(-69.366 -31.083)" fill="#4444c8"/>
      <path id="Path_153" data-name="Path 153" d="M939.6,335.821H927.989V324.21h-8.708v11.611H907.67v8.708h11.611V356.14h8.708V344.529H939.6Z" transform="translate(-29.444 -10.518)" fill="#fff"/>
    </g>
  </g>
</svg>
